G04 MADE WITH FRITZING*
G04 WWW.FRITZING.ORG*
G04 DOUBLE SIDED*
G04 HOLES PLATED*
G04 CONTOUR ON CENTER OF CONTOUR VECTOR*
%ASAXBY*%
%FSLAX23Y23*%
%MOIN*%
%OFA0B0*%
%SFA1.0B1.0*%
%ADD10C,0.075000*%
%ADD11C,0.080000*%
%ADD12C,0.039370*%
%ADD13R,0.079986X0.080000*%
%ADD14C,0.024000*%
%LNCOPPER1*%
G90*
G70*
G54D10*
X1446Y489D03*
X427Y108D03*
X827Y108D03*
X412Y515D03*
X812Y515D03*
X700Y423D03*
X700Y323D03*
X700Y223D03*
G54D11*
X1337Y407D03*
X1337Y207D03*
X270Y207D03*
X270Y407D03*
G54D10*
X1170Y330D03*
X870Y330D03*
G54D12*
X948Y273D03*
G54D13*
X1337Y407D03*
X270Y207D03*
G54D14*
X805Y487D02*
X744Y249D01*
X744Y249D02*
X724Y237D01*
D02*
X449Y125D02*
X677Y305D01*
D02*
X843Y131D02*
X937Y258D01*
G36*
X40Y557D02*
X40Y467D01*
X406Y467D01*
X406Y469D01*
X398Y469D01*
X398Y471D01*
X392Y471D01*
X392Y473D01*
X388Y473D01*
X388Y475D01*
X386Y475D01*
X386Y477D01*
X382Y477D01*
X382Y479D01*
X380Y479D01*
X380Y481D01*
X378Y481D01*
X378Y483D01*
X376Y483D01*
X376Y485D01*
X374Y485D01*
X374Y489D01*
X372Y489D01*
X372Y491D01*
X370Y491D01*
X370Y495D01*
X368Y495D01*
X368Y501D01*
X366Y501D01*
X366Y509D01*
X364Y509D01*
X364Y521D01*
X366Y521D01*
X366Y529D01*
X368Y529D01*
X368Y535D01*
X370Y535D01*
X370Y557D01*
X40Y557D01*
G37*
D02*
G36*
X454Y557D02*
X454Y535D01*
X456Y535D01*
X456Y529D01*
X458Y529D01*
X458Y521D01*
X460Y521D01*
X460Y509D01*
X458Y509D01*
X458Y501D01*
X456Y501D01*
X456Y495D01*
X454Y495D01*
X454Y491D01*
X452Y491D01*
X452Y489D01*
X450Y489D01*
X450Y485D01*
X448Y485D01*
X448Y483D01*
X446Y483D01*
X446Y481D01*
X444Y481D01*
X444Y479D01*
X442Y479D01*
X442Y477D01*
X438Y477D01*
X438Y475D01*
X436Y475D01*
X436Y473D01*
X432Y473D01*
X432Y471D01*
X702Y471D01*
X702Y469D01*
X714Y469D01*
X714Y467D01*
X720Y467D01*
X720Y465D01*
X722Y465D01*
X722Y463D01*
X726Y463D01*
X726Y461D01*
X728Y461D01*
X728Y459D01*
X732Y459D01*
X732Y457D01*
X734Y457D01*
X734Y455D01*
X736Y455D01*
X736Y451D01*
X738Y451D01*
X738Y449D01*
X740Y449D01*
X740Y445D01*
X742Y445D01*
X742Y443D01*
X744Y443D01*
X744Y437D01*
X746Y437D01*
X746Y429D01*
X748Y429D01*
X748Y427D01*
X768Y427D01*
X768Y435D01*
X770Y435D01*
X770Y443D01*
X772Y443D01*
X772Y451D01*
X774Y451D01*
X774Y459D01*
X776Y459D01*
X776Y485D01*
X774Y485D01*
X774Y489D01*
X772Y489D01*
X772Y491D01*
X770Y491D01*
X770Y495D01*
X768Y495D01*
X768Y501D01*
X766Y501D01*
X766Y509D01*
X764Y509D01*
X764Y521D01*
X766Y521D01*
X766Y529D01*
X768Y529D01*
X768Y535D01*
X770Y535D01*
X770Y557D01*
X454Y557D01*
G37*
D02*
G36*
X854Y557D02*
X854Y535D01*
X856Y535D01*
X856Y529D01*
X858Y529D01*
X858Y521D01*
X860Y521D01*
X860Y509D01*
X858Y509D01*
X858Y501D01*
X856Y501D01*
X856Y499D01*
X1058Y499D01*
X1058Y497D01*
X1072Y497D01*
X1072Y495D01*
X1078Y495D01*
X1078Y493D01*
X1084Y493D01*
X1084Y491D01*
X1088Y491D01*
X1088Y489D01*
X1090Y489D01*
X1090Y487D01*
X1094Y487D01*
X1094Y485D01*
X1096Y485D01*
X1096Y483D01*
X1100Y483D01*
X1100Y481D01*
X1102Y481D01*
X1102Y479D01*
X1104Y479D01*
X1104Y477D01*
X1106Y477D01*
X1106Y475D01*
X1108Y475D01*
X1108Y473D01*
X1110Y473D01*
X1110Y469D01*
X1112Y469D01*
X1112Y467D01*
X1114Y467D01*
X1114Y463D01*
X1116Y463D01*
X1116Y459D01*
X1118Y459D01*
X1118Y457D01*
X1386Y457D01*
X1386Y357D01*
X1588Y357D01*
X1588Y557D01*
X854Y557D01*
G37*
D02*
G36*
X856Y499D02*
X856Y495D01*
X854Y495D01*
X854Y491D01*
X852Y491D01*
X852Y489D01*
X850Y489D01*
X850Y485D01*
X848Y485D01*
X848Y483D01*
X846Y483D01*
X846Y481D01*
X844Y481D01*
X844Y479D01*
X842Y479D01*
X842Y477D01*
X838Y477D01*
X838Y475D01*
X836Y475D01*
X836Y473D01*
X832Y473D01*
X832Y471D01*
X826Y471D01*
X826Y469D01*
X822Y469D01*
X822Y461D01*
X820Y461D01*
X820Y453D01*
X818Y453D01*
X818Y445D01*
X816Y445D01*
X816Y437D01*
X814Y437D01*
X814Y429D01*
X812Y429D01*
X812Y423D01*
X810Y423D01*
X810Y415D01*
X808Y415D01*
X808Y407D01*
X806Y407D01*
X806Y399D01*
X804Y399D01*
X804Y391D01*
X802Y391D01*
X802Y383D01*
X800Y383D01*
X800Y379D01*
X872Y379D01*
X872Y377D01*
X884Y377D01*
X884Y375D01*
X890Y375D01*
X890Y373D01*
X894Y373D01*
X894Y371D01*
X896Y371D01*
X896Y369D01*
X900Y369D01*
X900Y367D01*
X902Y367D01*
X902Y365D01*
X904Y365D01*
X904Y363D01*
X906Y363D01*
X906Y361D01*
X1040Y361D01*
X1040Y363D01*
X1032Y363D01*
X1032Y365D01*
X1028Y365D01*
X1028Y367D01*
X1024Y367D01*
X1024Y369D01*
X1020Y369D01*
X1020Y371D01*
X1016Y371D01*
X1016Y373D01*
X1014Y373D01*
X1014Y375D01*
X1012Y375D01*
X1012Y377D01*
X1008Y377D01*
X1008Y379D01*
X1006Y379D01*
X1006Y381D01*
X1004Y381D01*
X1004Y383D01*
X1002Y383D01*
X1002Y387D01*
X1000Y387D01*
X1000Y389D01*
X998Y389D01*
X998Y393D01*
X996Y393D01*
X996Y395D01*
X994Y395D01*
X994Y399D01*
X992Y399D01*
X992Y405D01*
X990Y405D01*
X990Y409D01*
X988Y409D01*
X988Y419D01*
X986Y419D01*
X986Y439D01*
X988Y439D01*
X988Y449D01*
X990Y449D01*
X990Y455D01*
X992Y455D01*
X992Y459D01*
X994Y459D01*
X994Y463D01*
X996Y463D01*
X996Y467D01*
X998Y467D01*
X998Y469D01*
X1000Y469D01*
X1000Y471D01*
X1002Y471D01*
X1002Y475D01*
X1004Y475D01*
X1004Y477D01*
X1006Y477D01*
X1006Y479D01*
X1008Y479D01*
X1008Y481D01*
X1010Y481D01*
X1010Y483D01*
X1014Y483D01*
X1014Y485D01*
X1016Y485D01*
X1016Y487D01*
X1020Y487D01*
X1020Y489D01*
X1022Y489D01*
X1022Y491D01*
X1028Y491D01*
X1028Y493D01*
X1032Y493D01*
X1032Y495D01*
X1038Y495D01*
X1038Y497D01*
X1052Y497D01*
X1052Y499D01*
X856Y499D01*
G37*
D02*
G36*
X426Y471D02*
X426Y469D01*
X418Y469D01*
X418Y467D01*
X686Y467D01*
X686Y469D01*
X698Y469D01*
X698Y471D01*
X426Y471D01*
G37*
D02*
G36*
X40Y467D02*
X40Y465D01*
X680Y465D01*
X680Y467D01*
X40Y467D01*
G37*
D02*
G36*
X40Y467D02*
X40Y465D01*
X680Y465D01*
X680Y467D01*
X40Y467D01*
G37*
D02*
G36*
X40Y465D02*
X40Y457D01*
X280Y457D01*
X280Y455D01*
X286Y455D01*
X286Y453D01*
X292Y453D01*
X292Y451D01*
X294Y451D01*
X294Y449D01*
X298Y449D01*
X298Y447D01*
X300Y447D01*
X300Y445D01*
X304Y445D01*
X304Y443D01*
X306Y443D01*
X306Y439D01*
X308Y439D01*
X308Y437D01*
X310Y437D01*
X310Y435D01*
X312Y435D01*
X312Y431D01*
X314Y431D01*
X314Y427D01*
X316Y427D01*
X316Y423D01*
X318Y423D01*
X318Y413D01*
X320Y413D01*
X320Y401D01*
X318Y401D01*
X318Y391D01*
X316Y391D01*
X316Y387D01*
X314Y387D01*
X314Y383D01*
X312Y383D01*
X312Y379D01*
X310Y379D01*
X310Y377D01*
X308Y377D01*
X308Y375D01*
X306Y375D01*
X306Y373D01*
X304Y373D01*
X304Y371D01*
X302Y371D01*
X302Y369D01*
X300Y369D01*
X300Y367D01*
X298Y367D01*
X298Y365D01*
X294Y365D01*
X294Y363D01*
X290Y363D01*
X290Y361D01*
X458Y361D01*
X458Y359D01*
X468Y359D01*
X468Y357D01*
X474Y357D01*
X474Y355D01*
X478Y355D01*
X478Y353D01*
X482Y353D01*
X482Y351D01*
X486Y351D01*
X486Y349D01*
X490Y349D01*
X490Y347D01*
X492Y347D01*
X492Y345D01*
X494Y345D01*
X494Y343D01*
X496Y343D01*
X496Y341D01*
X498Y341D01*
X498Y339D01*
X500Y339D01*
X500Y337D01*
X502Y337D01*
X502Y335D01*
X504Y335D01*
X504Y333D01*
X506Y333D01*
X506Y329D01*
X508Y329D01*
X508Y327D01*
X510Y327D01*
X510Y323D01*
X512Y323D01*
X512Y319D01*
X514Y319D01*
X514Y313D01*
X516Y313D01*
X516Y307D01*
X518Y307D01*
X518Y277D01*
X516Y277D01*
X516Y269D01*
X514Y269D01*
X514Y265D01*
X512Y265D01*
X512Y261D01*
X510Y261D01*
X510Y257D01*
X508Y257D01*
X508Y253D01*
X506Y253D01*
X506Y251D01*
X504Y251D01*
X504Y247D01*
X502Y247D01*
X502Y245D01*
X500Y245D01*
X500Y243D01*
X498Y243D01*
X498Y241D01*
X496Y241D01*
X496Y239D01*
X494Y239D01*
X494Y237D01*
X490Y237D01*
X490Y235D01*
X488Y235D01*
X488Y233D01*
X484Y233D01*
X484Y231D01*
X480Y231D01*
X480Y229D01*
X476Y229D01*
X476Y227D01*
X472Y227D01*
X472Y225D01*
X464Y225D01*
X464Y223D01*
X538Y223D01*
X538Y225D01*
X542Y225D01*
X542Y227D01*
X544Y227D01*
X544Y229D01*
X546Y229D01*
X546Y231D01*
X548Y231D01*
X548Y233D01*
X552Y233D01*
X552Y235D01*
X554Y235D01*
X554Y237D01*
X556Y237D01*
X556Y239D01*
X560Y239D01*
X560Y241D01*
X562Y241D01*
X562Y243D01*
X564Y243D01*
X564Y245D01*
X566Y245D01*
X566Y247D01*
X570Y247D01*
X570Y249D01*
X572Y249D01*
X572Y251D01*
X574Y251D01*
X574Y253D01*
X576Y253D01*
X576Y255D01*
X580Y255D01*
X580Y257D01*
X582Y257D01*
X582Y259D01*
X584Y259D01*
X584Y261D01*
X588Y261D01*
X588Y263D01*
X590Y263D01*
X590Y265D01*
X592Y265D01*
X592Y267D01*
X594Y267D01*
X594Y269D01*
X598Y269D01*
X598Y271D01*
X600Y271D01*
X600Y273D01*
X602Y273D01*
X602Y275D01*
X604Y275D01*
X604Y277D01*
X608Y277D01*
X608Y279D01*
X610Y279D01*
X610Y281D01*
X612Y281D01*
X612Y283D01*
X616Y283D01*
X616Y285D01*
X618Y285D01*
X618Y287D01*
X620Y287D01*
X620Y289D01*
X622Y289D01*
X622Y291D01*
X626Y291D01*
X626Y293D01*
X628Y293D01*
X628Y295D01*
X630Y295D01*
X630Y297D01*
X632Y297D01*
X632Y299D01*
X636Y299D01*
X636Y301D01*
X638Y301D01*
X638Y303D01*
X640Y303D01*
X640Y305D01*
X644Y305D01*
X644Y307D01*
X646Y307D01*
X646Y309D01*
X648Y309D01*
X648Y311D01*
X650Y311D01*
X650Y313D01*
X652Y313D01*
X652Y329D01*
X654Y329D01*
X654Y337D01*
X656Y337D01*
X656Y343D01*
X658Y343D01*
X658Y347D01*
X660Y347D01*
X660Y349D01*
X662Y349D01*
X662Y353D01*
X664Y353D01*
X664Y355D01*
X666Y355D01*
X666Y357D01*
X668Y357D01*
X668Y359D01*
X670Y359D01*
X670Y361D01*
X674Y361D01*
X674Y363D01*
X676Y363D01*
X676Y383D01*
X672Y383D01*
X672Y385D01*
X670Y385D01*
X670Y387D01*
X668Y387D01*
X668Y389D01*
X666Y389D01*
X666Y391D01*
X664Y391D01*
X664Y393D01*
X662Y393D01*
X662Y395D01*
X660Y395D01*
X660Y399D01*
X658Y399D01*
X658Y403D01*
X656Y403D01*
X656Y407D01*
X654Y407D01*
X654Y415D01*
X652Y415D01*
X652Y429D01*
X654Y429D01*
X654Y437D01*
X656Y437D01*
X656Y443D01*
X658Y443D01*
X658Y447D01*
X660Y447D01*
X660Y449D01*
X662Y449D01*
X662Y453D01*
X664Y453D01*
X664Y455D01*
X666Y455D01*
X666Y457D01*
X668Y457D01*
X668Y459D01*
X670Y459D01*
X670Y461D01*
X674Y461D01*
X674Y463D01*
X678Y463D01*
X678Y465D01*
X40Y465D01*
G37*
D02*
G36*
X40Y457D02*
X40Y357D01*
X262Y357D01*
X262Y359D01*
X254Y359D01*
X254Y361D01*
X248Y361D01*
X248Y363D01*
X244Y363D01*
X244Y365D01*
X242Y365D01*
X242Y367D01*
X238Y367D01*
X238Y369D01*
X236Y369D01*
X236Y371D01*
X234Y371D01*
X234Y373D01*
X232Y373D01*
X232Y375D01*
X230Y375D01*
X230Y379D01*
X228Y379D01*
X228Y381D01*
X226Y381D01*
X226Y385D01*
X224Y385D01*
X224Y389D01*
X222Y389D01*
X222Y395D01*
X220Y395D01*
X220Y419D01*
X222Y419D01*
X222Y425D01*
X224Y425D01*
X224Y429D01*
X226Y429D01*
X226Y433D01*
X228Y433D01*
X228Y437D01*
X230Y437D01*
X230Y439D01*
X232Y439D01*
X232Y441D01*
X234Y441D01*
X234Y443D01*
X236Y443D01*
X236Y445D01*
X238Y445D01*
X238Y447D01*
X240Y447D01*
X240Y449D01*
X244Y449D01*
X244Y451D01*
X248Y451D01*
X248Y453D01*
X252Y453D01*
X252Y455D01*
X260Y455D01*
X260Y457D01*
X40Y457D01*
G37*
D02*
G36*
X1118Y457D02*
X1118Y455D01*
X1120Y455D01*
X1120Y449D01*
X1122Y449D01*
X1122Y441D01*
X1124Y441D01*
X1124Y417D01*
X1122Y417D01*
X1122Y409D01*
X1120Y409D01*
X1120Y403D01*
X1118Y403D01*
X1118Y399D01*
X1116Y399D01*
X1116Y395D01*
X1114Y395D01*
X1114Y391D01*
X1112Y391D01*
X1112Y389D01*
X1110Y389D01*
X1110Y387D01*
X1108Y387D01*
X1108Y383D01*
X1106Y383D01*
X1106Y381D01*
X1104Y381D01*
X1104Y379D01*
X1172Y379D01*
X1172Y377D01*
X1184Y377D01*
X1184Y375D01*
X1190Y375D01*
X1190Y373D01*
X1194Y373D01*
X1194Y371D01*
X1196Y371D01*
X1196Y369D01*
X1200Y369D01*
X1200Y367D01*
X1202Y367D01*
X1202Y365D01*
X1204Y365D01*
X1204Y363D01*
X1206Y363D01*
X1206Y361D01*
X1208Y361D01*
X1208Y357D01*
X1286Y357D01*
X1286Y457D01*
X1118Y457D01*
G37*
D02*
G36*
X800Y379D02*
X800Y375D01*
X798Y375D01*
X798Y367D01*
X796Y367D01*
X796Y359D01*
X794Y359D01*
X794Y351D01*
X792Y351D01*
X792Y343D01*
X790Y343D01*
X790Y337D01*
X788Y337D01*
X788Y329D01*
X786Y329D01*
X786Y321D01*
X784Y321D01*
X784Y313D01*
X782Y313D01*
X782Y305D01*
X780Y305D01*
X780Y297D01*
X778Y297D01*
X778Y289D01*
X776Y289D01*
X776Y283D01*
X862Y283D01*
X862Y285D01*
X854Y285D01*
X854Y287D01*
X850Y287D01*
X850Y289D01*
X846Y289D01*
X846Y291D01*
X842Y291D01*
X842Y293D01*
X840Y293D01*
X840Y295D01*
X838Y295D01*
X838Y297D01*
X836Y297D01*
X836Y299D01*
X834Y299D01*
X834Y301D01*
X832Y301D01*
X832Y305D01*
X830Y305D01*
X830Y307D01*
X828Y307D01*
X828Y311D01*
X826Y311D01*
X826Y317D01*
X824Y317D01*
X824Y329D01*
X822Y329D01*
X822Y333D01*
X824Y333D01*
X824Y343D01*
X826Y343D01*
X826Y349D01*
X828Y349D01*
X828Y353D01*
X830Y353D01*
X830Y357D01*
X832Y357D01*
X832Y359D01*
X834Y359D01*
X834Y361D01*
X836Y361D01*
X836Y365D01*
X840Y365D01*
X840Y367D01*
X842Y367D01*
X842Y369D01*
X844Y369D01*
X844Y371D01*
X848Y371D01*
X848Y373D01*
X852Y373D01*
X852Y375D01*
X858Y375D01*
X858Y377D01*
X870Y377D01*
X870Y379D01*
X800Y379D01*
G37*
D02*
G36*
X1102Y379D02*
X1102Y377D01*
X1100Y377D01*
X1100Y375D01*
X1096Y375D01*
X1096Y373D01*
X1094Y373D01*
X1094Y371D01*
X1090Y371D01*
X1090Y369D01*
X1086Y369D01*
X1086Y367D01*
X1082Y367D01*
X1082Y365D01*
X1078Y365D01*
X1078Y363D01*
X1070Y363D01*
X1070Y361D01*
X1136Y361D01*
X1136Y365D01*
X1140Y365D01*
X1140Y367D01*
X1142Y367D01*
X1142Y369D01*
X1144Y369D01*
X1144Y371D01*
X1148Y371D01*
X1148Y373D01*
X1152Y373D01*
X1152Y375D01*
X1158Y375D01*
X1158Y377D01*
X1170Y377D01*
X1170Y379D01*
X1102Y379D01*
G37*
D02*
G36*
X286Y361D02*
X286Y359D01*
X278Y359D01*
X278Y357D01*
X432Y357D01*
X432Y359D01*
X442Y359D01*
X442Y361D01*
X286Y361D01*
G37*
D02*
G36*
X908Y361D02*
X908Y359D01*
X1134Y359D01*
X1134Y361D01*
X908Y361D01*
G37*
D02*
G36*
X908Y361D02*
X908Y359D01*
X1134Y359D01*
X1134Y361D01*
X908Y361D01*
G37*
D02*
G36*
X908Y359D02*
X908Y357D01*
X910Y357D01*
X910Y355D01*
X912Y355D01*
X912Y351D01*
X914Y351D01*
X914Y347D01*
X916Y347D01*
X916Y339D01*
X918Y339D01*
X918Y323D01*
X916Y323D01*
X916Y315D01*
X914Y315D01*
X914Y311D01*
X912Y311D01*
X912Y307D01*
X910Y307D01*
X910Y303D01*
X954Y303D01*
X954Y301D01*
X960Y301D01*
X960Y299D01*
X964Y299D01*
X964Y297D01*
X966Y297D01*
X966Y295D01*
X968Y295D01*
X968Y293D01*
X970Y293D01*
X970Y291D01*
X972Y291D01*
X972Y289D01*
X974Y289D01*
X974Y285D01*
X976Y285D01*
X976Y283D01*
X1162Y283D01*
X1162Y285D01*
X1154Y285D01*
X1154Y287D01*
X1150Y287D01*
X1150Y289D01*
X1146Y289D01*
X1146Y291D01*
X1142Y291D01*
X1142Y293D01*
X1140Y293D01*
X1140Y295D01*
X1138Y295D01*
X1138Y297D01*
X1136Y297D01*
X1136Y299D01*
X1134Y299D01*
X1134Y301D01*
X1132Y301D01*
X1132Y305D01*
X1130Y305D01*
X1130Y307D01*
X1128Y307D01*
X1128Y311D01*
X1126Y311D01*
X1126Y317D01*
X1124Y317D01*
X1124Y329D01*
X1122Y329D01*
X1122Y333D01*
X1124Y333D01*
X1124Y343D01*
X1126Y343D01*
X1126Y349D01*
X1128Y349D01*
X1128Y353D01*
X1130Y353D01*
X1130Y357D01*
X1132Y357D01*
X1132Y359D01*
X908Y359D01*
G37*
D02*
G36*
X40Y357D02*
X40Y355D01*
X426Y355D01*
X426Y357D01*
X40Y357D01*
G37*
D02*
G36*
X40Y357D02*
X40Y355D01*
X426Y355D01*
X426Y357D01*
X40Y357D01*
G37*
D02*
G36*
X1210Y357D02*
X1210Y355D01*
X1588Y355D01*
X1588Y357D01*
X1210Y357D01*
G37*
D02*
G36*
X1210Y357D02*
X1210Y355D01*
X1588Y355D01*
X1588Y357D01*
X1210Y357D01*
G37*
D02*
G36*
X40Y355D02*
X40Y257D01*
X320Y257D01*
X320Y223D01*
X436Y223D01*
X436Y225D01*
X428Y225D01*
X428Y227D01*
X422Y227D01*
X422Y229D01*
X418Y229D01*
X418Y231D01*
X414Y231D01*
X414Y233D01*
X412Y233D01*
X412Y235D01*
X408Y235D01*
X408Y237D01*
X406Y237D01*
X406Y239D01*
X404Y239D01*
X404Y241D01*
X402Y241D01*
X402Y243D01*
X400Y243D01*
X400Y245D01*
X398Y245D01*
X398Y247D01*
X396Y247D01*
X396Y249D01*
X394Y249D01*
X394Y253D01*
X392Y253D01*
X392Y255D01*
X390Y255D01*
X390Y259D01*
X388Y259D01*
X388Y263D01*
X386Y263D01*
X386Y269D01*
X384Y269D01*
X384Y275D01*
X382Y275D01*
X382Y285D01*
X380Y285D01*
X380Y297D01*
X382Y297D01*
X382Y309D01*
X384Y309D01*
X384Y315D01*
X386Y315D01*
X386Y319D01*
X388Y319D01*
X388Y323D01*
X390Y323D01*
X390Y327D01*
X392Y327D01*
X392Y331D01*
X394Y331D01*
X394Y333D01*
X396Y333D01*
X396Y335D01*
X398Y335D01*
X398Y339D01*
X400Y339D01*
X400Y341D01*
X402Y341D01*
X402Y343D01*
X404Y343D01*
X404Y345D01*
X408Y345D01*
X408Y347D01*
X410Y347D01*
X410Y349D01*
X414Y349D01*
X414Y351D01*
X416Y351D01*
X416Y353D01*
X422Y353D01*
X422Y355D01*
X40Y355D01*
G37*
D02*
G36*
X1212Y355D02*
X1212Y351D01*
X1214Y351D01*
X1214Y347D01*
X1216Y347D01*
X1216Y339D01*
X1218Y339D01*
X1218Y323D01*
X1216Y323D01*
X1216Y315D01*
X1214Y315D01*
X1214Y311D01*
X1212Y311D01*
X1212Y307D01*
X1210Y307D01*
X1210Y303D01*
X1208Y303D01*
X1208Y301D01*
X1206Y301D01*
X1206Y299D01*
X1204Y299D01*
X1204Y297D01*
X1202Y297D01*
X1202Y295D01*
X1200Y295D01*
X1200Y293D01*
X1198Y293D01*
X1198Y291D01*
X1194Y291D01*
X1194Y289D01*
X1192Y289D01*
X1192Y287D01*
X1186Y287D01*
X1186Y285D01*
X1180Y285D01*
X1180Y283D01*
X1588Y283D01*
X1588Y355D01*
X1212Y355D01*
G37*
D02*
G36*
X908Y303D02*
X908Y301D01*
X906Y301D01*
X906Y299D01*
X904Y299D01*
X904Y297D01*
X902Y297D01*
X902Y295D01*
X900Y295D01*
X900Y293D01*
X898Y293D01*
X898Y291D01*
X894Y291D01*
X894Y289D01*
X892Y289D01*
X892Y287D01*
X886Y287D01*
X886Y285D01*
X880Y285D01*
X880Y283D01*
X920Y283D01*
X920Y285D01*
X922Y285D01*
X922Y289D01*
X924Y289D01*
X924Y291D01*
X926Y291D01*
X926Y293D01*
X928Y293D01*
X928Y295D01*
X930Y295D01*
X930Y297D01*
X932Y297D01*
X932Y299D01*
X936Y299D01*
X936Y301D01*
X942Y301D01*
X942Y303D01*
X908Y303D01*
G37*
D02*
G36*
X776Y283D02*
X776Y281D01*
X920Y281D01*
X920Y283D01*
X776Y283D01*
G37*
D02*
G36*
X776Y283D02*
X776Y281D01*
X920Y281D01*
X920Y283D01*
X776Y283D01*
G37*
D02*
G36*
X976Y283D02*
X976Y281D01*
X1588Y281D01*
X1588Y283D01*
X976Y283D01*
G37*
D02*
G36*
X976Y283D02*
X976Y281D01*
X1588Y281D01*
X1588Y283D01*
X976Y283D01*
G37*
D02*
G36*
X774Y281D02*
X774Y273D01*
X772Y273D01*
X772Y265D01*
X770Y265D01*
X770Y257D01*
X768Y257D01*
X768Y251D01*
X766Y251D01*
X766Y243D01*
X764Y243D01*
X764Y239D01*
X762Y239D01*
X762Y235D01*
X760Y235D01*
X760Y233D01*
X758Y233D01*
X758Y231D01*
X756Y231D01*
X756Y229D01*
X752Y229D01*
X752Y227D01*
X748Y227D01*
X748Y217D01*
X746Y217D01*
X746Y209D01*
X744Y209D01*
X744Y203D01*
X742Y203D01*
X742Y199D01*
X740Y199D01*
X740Y195D01*
X738Y195D01*
X738Y193D01*
X736Y193D01*
X736Y191D01*
X734Y191D01*
X734Y189D01*
X732Y189D01*
X732Y187D01*
X730Y187D01*
X730Y185D01*
X728Y185D01*
X728Y183D01*
X724Y183D01*
X724Y181D01*
X720Y181D01*
X720Y179D01*
X716Y179D01*
X716Y177D01*
X708Y177D01*
X708Y175D01*
X850Y175D01*
X850Y179D01*
X852Y179D01*
X852Y181D01*
X854Y181D01*
X854Y183D01*
X856Y183D01*
X856Y187D01*
X858Y187D01*
X858Y189D01*
X860Y189D01*
X860Y191D01*
X862Y191D01*
X862Y195D01*
X864Y195D01*
X864Y197D01*
X866Y197D01*
X866Y201D01*
X868Y201D01*
X868Y203D01*
X870Y203D01*
X870Y205D01*
X872Y205D01*
X872Y209D01*
X874Y209D01*
X874Y211D01*
X876Y211D01*
X876Y213D01*
X878Y213D01*
X878Y217D01*
X880Y217D01*
X880Y219D01*
X882Y219D01*
X882Y221D01*
X884Y221D01*
X884Y225D01*
X886Y225D01*
X886Y227D01*
X888Y227D01*
X888Y229D01*
X890Y229D01*
X890Y233D01*
X892Y233D01*
X892Y235D01*
X894Y235D01*
X894Y239D01*
X896Y239D01*
X896Y241D01*
X898Y241D01*
X898Y243D01*
X900Y243D01*
X900Y247D01*
X902Y247D01*
X902Y249D01*
X904Y249D01*
X904Y251D01*
X906Y251D01*
X906Y255D01*
X908Y255D01*
X908Y257D01*
X910Y257D01*
X910Y259D01*
X912Y259D01*
X912Y263D01*
X914Y263D01*
X914Y265D01*
X916Y265D01*
X916Y269D01*
X918Y269D01*
X918Y279D01*
X920Y279D01*
X920Y281D01*
X774Y281D01*
G37*
D02*
G36*
X976Y281D02*
X976Y279D01*
X978Y279D01*
X978Y267D01*
X976Y267D01*
X976Y261D01*
X974Y261D01*
X974Y257D01*
X1346Y257D01*
X1346Y255D01*
X1354Y255D01*
X1354Y253D01*
X1358Y253D01*
X1358Y251D01*
X1362Y251D01*
X1362Y249D01*
X1364Y249D01*
X1364Y247D01*
X1368Y247D01*
X1368Y245D01*
X1370Y245D01*
X1370Y243D01*
X1372Y243D01*
X1372Y241D01*
X1374Y241D01*
X1374Y239D01*
X1376Y239D01*
X1376Y237D01*
X1378Y237D01*
X1378Y233D01*
X1380Y233D01*
X1380Y229D01*
X1382Y229D01*
X1382Y225D01*
X1384Y225D01*
X1384Y219D01*
X1386Y219D01*
X1386Y195D01*
X1384Y195D01*
X1384Y189D01*
X1382Y189D01*
X1382Y185D01*
X1380Y185D01*
X1380Y181D01*
X1378Y181D01*
X1378Y179D01*
X1376Y179D01*
X1376Y175D01*
X1374Y175D01*
X1374Y173D01*
X1372Y173D01*
X1372Y171D01*
X1370Y171D01*
X1370Y169D01*
X1368Y169D01*
X1368Y167D01*
X1364Y167D01*
X1364Y165D01*
X1362Y165D01*
X1362Y163D01*
X1358Y163D01*
X1358Y161D01*
X1354Y161D01*
X1354Y159D01*
X1346Y159D01*
X1346Y157D01*
X1588Y157D01*
X1588Y281D01*
X976Y281D01*
G37*
D02*
G36*
X40Y257D02*
X40Y157D01*
X220Y157D01*
X220Y257D01*
X40Y257D01*
G37*
D02*
G36*
X972Y257D02*
X972Y255D01*
X970Y255D01*
X970Y253D01*
X968Y253D01*
X968Y251D01*
X966Y251D01*
X966Y249D01*
X964Y249D01*
X964Y247D01*
X960Y247D01*
X960Y245D01*
X954Y245D01*
X954Y243D01*
X952Y243D01*
X952Y239D01*
X950Y239D01*
X950Y237D01*
X948Y237D01*
X948Y235D01*
X946Y235D01*
X946Y231D01*
X944Y231D01*
X944Y229D01*
X942Y229D01*
X942Y227D01*
X940Y227D01*
X940Y223D01*
X938Y223D01*
X938Y221D01*
X936Y221D01*
X936Y219D01*
X934Y219D01*
X934Y215D01*
X932Y215D01*
X932Y213D01*
X930Y213D01*
X930Y211D01*
X928Y211D01*
X928Y207D01*
X926Y207D01*
X926Y205D01*
X924Y205D01*
X924Y201D01*
X922Y201D01*
X922Y199D01*
X920Y199D01*
X920Y197D01*
X918Y197D01*
X918Y193D01*
X916Y193D01*
X916Y191D01*
X914Y191D01*
X914Y189D01*
X912Y189D01*
X912Y185D01*
X910Y185D01*
X910Y183D01*
X908Y183D01*
X908Y181D01*
X906Y181D01*
X906Y177D01*
X904Y177D01*
X904Y175D01*
X902Y175D01*
X902Y171D01*
X900Y171D01*
X900Y169D01*
X898Y169D01*
X898Y167D01*
X896Y167D01*
X896Y163D01*
X894Y163D01*
X894Y161D01*
X892Y161D01*
X892Y159D01*
X890Y159D01*
X890Y157D01*
X1328Y157D01*
X1328Y159D01*
X1320Y159D01*
X1320Y161D01*
X1316Y161D01*
X1316Y163D01*
X1312Y163D01*
X1312Y165D01*
X1308Y165D01*
X1308Y167D01*
X1306Y167D01*
X1306Y169D01*
X1304Y169D01*
X1304Y171D01*
X1302Y171D01*
X1302Y173D01*
X1300Y173D01*
X1300Y175D01*
X1298Y175D01*
X1298Y177D01*
X1296Y177D01*
X1296Y179D01*
X1294Y179D01*
X1294Y183D01*
X1292Y183D01*
X1292Y187D01*
X1290Y187D01*
X1290Y191D01*
X1288Y191D01*
X1288Y201D01*
X1286Y201D01*
X1286Y213D01*
X1288Y213D01*
X1288Y223D01*
X1290Y223D01*
X1290Y227D01*
X1292Y227D01*
X1292Y231D01*
X1294Y231D01*
X1294Y235D01*
X1296Y235D01*
X1296Y237D01*
X1298Y237D01*
X1298Y239D01*
X1300Y239D01*
X1300Y243D01*
X1304Y243D01*
X1304Y245D01*
X1306Y245D01*
X1306Y247D01*
X1308Y247D01*
X1308Y249D01*
X1312Y249D01*
X1312Y251D01*
X1316Y251D01*
X1316Y253D01*
X1320Y253D01*
X1320Y255D01*
X1326Y255D01*
X1326Y257D01*
X972Y257D01*
G37*
D02*
G36*
X636Y245D02*
X636Y243D01*
X632Y243D01*
X632Y241D01*
X630Y241D01*
X630Y239D01*
X628Y239D01*
X628Y237D01*
X626Y237D01*
X626Y235D01*
X622Y235D01*
X622Y233D01*
X620Y233D01*
X620Y231D01*
X618Y231D01*
X618Y229D01*
X616Y229D01*
X616Y227D01*
X612Y227D01*
X612Y225D01*
X610Y225D01*
X610Y223D01*
X608Y223D01*
X608Y221D01*
X604Y221D01*
X604Y219D01*
X602Y219D01*
X602Y217D01*
X600Y217D01*
X600Y215D01*
X598Y215D01*
X598Y213D01*
X594Y213D01*
X594Y211D01*
X592Y211D01*
X592Y209D01*
X590Y209D01*
X590Y207D01*
X588Y207D01*
X588Y205D01*
X584Y205D01*
X584Y203D01*
X582Y203D01*
X582Y201D01*
X580Y201D01*
X580Y199D01*
X576Y199D01*
X576Y197D01*
X574Y197D01*
X574Y195D01*
X572Y195D01*
X572Y193D01*
X570Y193D01*
X570Y191D01*
X566Y191D01*
X566Y189D01*
X564Y189D01*
X564Y187D01*
X562Y187D01*
X562Y185D01*
X560Y185D01*
X560Y183D01*
X556Y183D01*
X556Y181D01*
X554Y181D01*
X554Y179D01*
X552Y179D01*
X552Y177D01*
X548Y177D01*
X548Y175D01*
X692Y175D01*
X692Y177D01*
X684Y177D01*
X684Y179D01*
X680Y179D01*
X680Y181D01*
X676Y181D01*
X676Y183D01*
X672Y183D01*
X672Y185D01*
X670Y185D01*
X670Y187D01*
X668Y187D01*
X668Y189D01*
X666Y189D01*
X666Y191D01*
X664Y191D01*
X664Y193D01*
X662Y193D01*
X662Y195D01*
X660Y195D01*
X660Y199D01*
X658Y199D01*
X658Y203D01*
X656Y203D01*
X656Y207D01*
X654Y207D01*
X654Y215D01*
X652Y215D01*
X652Y229D01*
X654Y229D01*
X654Y237D01*
X656Y237D01*
X656Y245D01*
X636Y245D01*
G37*
D02*
G36*
X320Y223D02*
X320Y221D01*
X536Y221D01*
X536Y223D01*
X320Y223D01*
G37*
D02*
G36*
X320Y223D02*
X320Y221D01*
X536Y221D01*
X536Y223D01*
X320Y223D01*
G37*
D02*
G36*
X320Y221D02*
X320Y157D01*
X454Y157D01*
X454Y159D01*
X458Y159D01*
X458Y161D01*
X460Y161D01*
X460Y163D01*
X462Y163D01*
X462Y165D01*
X464Y165D01*
X464Y167D01*
X468Y167D01*
X468Y169D01*
X470Y169D01*
X470Y171D01*
X472Y171D01*
X472Y173D01*
X476Y173D01*
X476Y175D01*
X478Y175D01*
X478Y177D01*
X480Y177D01*
X480Y179D01*
X482Y179D01*
X482Y181D01*
X486Y181D01*
X486Y183D01*
X488Y183D01*
X488Y185D01*
X490Y185D01*
X490Y187D01*
X492Y187D01*
X492Y189D01*
X496Y189D01*
X496Y191D01*
X498Y191D01*
X498Y193D01*
X500Y193D01*
X500Y195D01*
X504Y195D01*
X504Y197D01*
X506Y197D01*
X506Y199D01*
X508Y199D01*
X508Y201D01*
X510Y201D01*
X510Y203D01*
X514Y203D01*
X514Y205D01*
X516Y205D01*
X516Y207D01*
X518Y207D01*
X518Y209D01*
X520Y209D01*
X520Y211D01*
X524Y211D01*
X524Y213D01*
X526Y213D01*
X526Y215D01*
X528Y215D01*
X528Y217D01*
X532Y217D01*
X532Y219D01*
X534Y219D01*
X534Y221D01*
X320Y221D01*
G37*
D02*
G36*
X546Y175D02*
X546Y173D01*
X848Y173D01*
X848Y175D01*
X546Y175D01*
G37*
D02*
G36*
X546Y175D02*
X546Y173D01*
X848Y173D01*
X848Y175D01*
X546Y175D01*
G37*
D02*
G36*
X544Y173D02*
X544Y171D01*
X542Y171D01*
X542Y169D01*
X538Y169D01*
X538Y167D01*
X536Y167D01*
X536Y165D01*
X534Y165D01*
X534Y163D01*
X532Y163D01*
X532Y161D01*
X528Y161D01*
X528Y159D01*
X526Y159D01*
X526Y157D01*
X524Y157D01*
X524Y155D01*
X520Y155D01*
X520Y153D01*
X518Y153D01*
X518Y151D01*
X516Y151D01*
X516Y149D01*
X514Y149D01*
X514Y147D01*
X510Y147D01*
X510Y145D01*
X508Y145D01*
X508Y143D01*
X506Y143D01*
X506Y141D01*
X504Y141D01*
X504Y139D01*
X500Y139D01*
X500Y137D01*
X498Y137D01*
X498Y135D01*
X496Y135D01*
X496Y133D01*
X492Y133D01*
X492Y131D01*
X490Y131D01*
X490Y129D01*
X488Y129D01*
X488Y127D01*
X486Y127D01*
X486Y125D01*
X482Y125D01*
X482Y123D01*
X480Y123D01*
X480Y121D01*
X478Y121D01*
X478Y119D01*
X476Y119D01*
X476Y117D01*
X474Y117D01*
X474Y99D01*
X472Y99D01*
X472Y91D01*
X470Y91D01*
X470Y87D01*
X468Y87D01*
X468Y83D01*
X466Y83D01*
X466Y81D01*
X464Y81D01*
X464Y77D01*
X462Y77D01*
X462Y75D01*
X460Y75D01*
X460Y73D01*
X458Y73D01*
X458Y71D01*
X454Y71D01*
X454Y69D01*
X452Y69D01*
X452Y67D01*
X448Y67D01*
X448Y65D01*
X444Y65D01*
X444Y63D01*
X438Y63D01*
X438Y61D01*
X816Y61D01*
X816Y63D01*
X808Y63D01*
X808Y65D01*
X804Y65D01*
X804Y67D01*
X800Y67D01*
X800Y69D01*
X798Y69D01*
X798Y71D01*
X796Y71D01*
X796Y73D01*
X794Y73D01*
X794Y75D01*
X792Y75D01*
X792Y77D01*
X790Y77D01*
X790Y79D01*
X788Y79D01*
X788Y81D01*
X786Y81D01*
X786Y85D01*
X784Y85D01*
X784Y89D01*
X782Y89D01*
X782Y95D01*
X780Y95D01*
X780Y121D01*
X782Y121D01*
X782Y127D01*
X784Y127D01*
X784Y131D01*
X786Y131D01*
X786Y135D01*
X788Y135D01*
X788Y137D01*
X790Y137D01*
X790Y139D01*
X792Y139D01*
X792Y141D01*
X794Y141D01*
X794Y143D01*
X796Y143D01*
X796Y145D01*
X798Y145D01*
X798Y147D01*
X802Y147D01*
X802Y149D01*
X806Y149D01*
X806Y151D01*
X810Y151D01*
X810Y153D01*
X816Y153D01*
X816Y155D01*
X834Y155D01*
X834Y157D01*
X836Y157D01*
X836Y159D01*
X838Y159D01*
X838Y161D01*
X840Y161D01*
X840Y165D01*
X842Y165D01*
X842Y167D01*
X844Y167D01*
X844Y171D01*
X846Y171D01*
X846Y173D01*
X544Y173D01*
G37*
D02*
G36*
X40Y157D02*
X40Y155D01*
X452Y155D01*
X452Y157D01*
X40Y157D01*
G37*
D02*
G36*
X40Y157D02*
X40Y155D01*
X452Y155D01*
X452Y157D01*
X40Y157D01*
G37*
D02*
G36*
X890Y157D02*
X890Y155D01*
X1588Y155D01*
X1588Y157D01*
X890Y157D01*
G37*
D02*
G36*
X890Y157D02*
X890Y155D01*
X1588Y155D01*
X1588Y157D01*
X890Y157D01*
G37*
D02*
G36*
X40Y155D02*
X40Y61D01*
X416Y61D01*
X416Y63D01*
X408Y63D01*
X408Y65D01*
X404Y65D01*
X404Y67D01*
X400Y67D01*
X400Y69D01*
X398Y69D01*
X398Y71D01*
X396Y71D01*
X396Y73D01*
X394Y73D01*
X394Y75D01*
X392Y75D01*
X392Y77D01*
X390Y77D01*
X390Y79D01*
X388Y79D01*
X388Y81D01*
X386Y81D01*
X386Y85D01*
X384Y85D01*
X384Y89D01*
X382Y89D01*
X382Y95D01*
X380Y95D01*
X380Y121D01*
X382Y121D01*
X382Y127D01*
X384Y127D01*
X384Y131D01*
X386Y131D01*
X386Y135D01*
X388Y135D01*
X388Y137D01*
X390Y137D01*
X390Y139D01*
X392Y139D01*
X392Y141D01*
X394Y141D01*
X394Y143D01*
X396Y143D01*
X396Y145D01*
X398Y145D01*
X398Y147D01*
X402Y147D01*
X402Y149D01*
X406Y149D01*
X406Y151D01*
X410Y151D01*
X410Y153D01*
X416Y153D01*
X416Y155D01*
X40Y155D01*
G37*
D02*
G36*
X888Y155D02*
X888Y153D01*
X886Y153D01*
X886Y151D01*
X884Y151D01*
X884Y147D01*
X882Y147D01*
X882Y145D01*
X880Y145D01*
X880Y143D01*
X878Y143D01*
X878Y139D01*
X876Y139D01*
X876Y137D01*
X874Y137D01*
X874Y99D01*
X872Y99D01*
X872Y91D01*
X870Y91D01*
X870Y87D01*
X868Y87D01*
X868Y83D01*
X866Y83D01*
X866Y81D01*
X864Y81D01*
X864Y77D01*
X862Y77D01*
X862Y75D01*
X860Y75D01*
X860Y73D01*
X858Y73D01*
X858Y71D01*
X854Y71D01*
X854Y69D01*
X852Y69D01*
X852Y67D01*
X848Y67D01*
X848Y65D01*
X844Y65D01*
X844Y63D01*
X838Y63D01*
X838Y61D01*
X1588Y61D01*
X1588Y155D01*
X888Y155D01*
G37*
D02*
G36*
X40Y61D02*
X40Y59D01*
X1588Y59D01*
X1588Y61D01*
X40Y61D01*
G37*
D02*
G36*
X40Y61D02*
X40Y59D01*
X1588Y59D01*
X1588Y61D01*
X40Y61D01*
G37*
D02*
G36*
X40Y61D02*
X40Y59D01*
X1588Y59D01*
X1588Y61D01*
X40Y61D01*
G37*
D02*
G36*
X40Y59D02*
X40Y41D01*
X1588Y41D01*
X1588Y59D01*
X40Y59D01*
G37*
D02*
G04 End of Copper1*
M02*