G04 MADE WITH FRITZING*
G04 WWW.FRITZING.ORG*
G04 DOUBLE SIDED*
G04 HOLES PLATED*
G04 CONTOUR ON CENTER OF CONTOUR VECTOR*
%ASAXBY*%
%FSLAX23Y23*%
%MOIN*%
%OFA0B0*%
%SFA1.0B1.0*%
%ADD10C,0.075000*%
%ADD11C,0.080000*%
%ADD12C,0.039370*%
%ADD13R,0.079986X0.080000*%
%ADD14C,0.024000*%
%LNCOPPER0*%
G90*
G70*
G54D10*
X1446Y489D03*
X427Y108D03*
X827Y108D03*
X412Y515D03*
X812Y515D03*
X700Y423D03*
X700Y323D03*
X700Y223D03*
G54D11*
X1337Y407D03*
X1337Y207D03*
X270Y207D03*
X270Y407D03*
G54D10*
X1170Y330D03*
X870Y330D03*
G54D12*
X948Y273D03*
G54D13*
X1337Y407D03*
X270Y207D03*
G54D14*
X842Y329D02*
X728Y324D01*
D02*
X441Y513D02*
X756Y489D01*
X756Y489D02*
X756Y441D01*
X756Y441D02*
X996Y489D01*
X996Y489D02*
X996Y513D01*
X996Y513D02*
X1140Y513D01*
X1140Y513D02*
X1309Y422D01*
D02*
X1312Y225D02*
X1193Y313D01*
D02*
X300Y204D02*
X756Y153D01*
X756Y153D02*
X1164Y273D01*
X1164Y273D02*
X1167Y302D01*
D02*
X944Y291D02*
X924Y393D01*
X924Y393D02*
X732Y393D01*
X732Y393D02*
X721Y403D01*
D02*
X301Y408D02*
X671Y421D01*
G36*
X40Y557D02*
X40Y467D01*
X406Y467D01*
X406Y469D01*
X398Y469D01*
X398Y471D01*
X392Y471D01*
X392Y473D01*
X388Y473D01*
X388Y475D01*
X386Y475D01*
X386Y477D01*
X382Y477D01*
X382Y479D01*
X380Y479D01*
X380Y481D01*
X378Y481D01*
X378Y483D01*
X376Y483D01*
X376Y485D01*
X374Y485D01*
X374Y489D01*
X372Y489D01*
X372Y491D01*
X370Y491D01*
X370Y495D01*
X368Y495D01*
X368Y501D01*
X366Y501D01*
X366Y509D01*
X364Y509D01*
X364Y521D01*
X366Y521D01*
X366Y529D01*
X368Y529D01*
X368Y535D01*
X370Y535D01*
X370Y557D01*
X40Y557D01*
G37*
D02*
G36*
X854Y557D02*
X854Y535D01*
X1146Y535D01*
X1146Y533D01*
X1152Y533D01*
X1152Y531D01*
X1154Y531D01*
X1154Y529D01*
X1158Y529D01*
X1158Y527D01*
X1162Y527D01*
X1162Y525D01*
X1166Y525D01*
X1166Y523D01*
X1170Y523D01*
X1170Y521D01*
X1174Y521D01*
X1174Y519D01*
X1178Y519D01*
X1178Y517D01*
X1180Y517D01*
X1180Y515D01*
X1184Y515D01*
X1184Y513D01*
X1188Y513D01*
X1188Y511D01*
X1192Y511D01*
X1192Y509D01*
X1196Y509D01*
X1196Y507D01*
X1200Y507D01*
X1200Y505D01*
X1204Y505D01*
X1204Y503D01*
X1206Y503D01*
X1206Y501D01*
X1210Y501D01*
X1210Y499D01*
X1214Y499D01*
X1214Y497D01*
X1218Y497D01*
X1218Y495D01*
X1222Y495D01*
X1222Y493D01*
X1226Y493D01*
X1226Y491D01*
X1230Y491D01*
X1230Y489D01*
X1232Y489D01*
X1232Y487D01*
X1236Y487D01*
X1236Y485D01*
X1240Y485D01*
X1240Y483D01*
X1244Y483D01*
X1244Y481D01*
X1248Y481D01*
X1248Y479D01*
X1252Y479D01*
X1252Y477D01*
X1256Y477D01*
X1256Y475D01*
X1258Y475D01*
X1258Y473D01*
X1262Y473D01*
X1262Y471D01*
X1266Y471D01*
X1266Y469D01*
X1270Y469D01*
X1270Y467D01*
X1274Y467D01*
X1274Y465D01*
X1278Y465D01*
X1278Y463D01*
X1282Y463D01*
X1282Y461D01*
X1284Y461D01*
X1284Y459D01*
X1288Y459D01*
X1288Y457D01*
X1386Y457D01*
X1386Y357D01*
X1588Y357D01*
X1588Y557D01*
X854Y557D01*
G37*
D02*
G36*
X856Y535D02*
X856Y529D01*
X858Y529D01*
X858Y521D01*
X860Y521D01*
X860Y509D01*
X858Y509D01*
X858Y487D01*
X878Y487D01*
X878Y489D01*
X888Y489D01*
X888Y491D01*
X898Y491D01*
X898Y493D01*
X908Y493D01*
X908Y495D01*
X918Y495D01*
X918Y497D01*
X928Y497D01*
X928Y499D01*
X938Y499D01*
X938Y501D01*
X948Y501D01*
X948Y503D01*
X958Y503D01*
X958Y505D01*
X968Y505D01*
X968Y507D01*
X974Y507D01*
X974Y519D01*
X976Y519D01*
X976Y523D01*
X978Y523D01*
X978Y527D01*
X980Y527D01*
X980Y529D01*
X982Y529D01*
X982Y531D01*
X986Y531D01*
X986Y533D01*
X990Y533D01*
X990Y535D01*
X856Y535D01*
G37*
D02*
G36*
X1110Y491D02*
X1110Y469D01*
X1112Y469D01*
X1112Y467D01*
X1114Y467D01*
X1114Y463D01*
X1116Y463D01*
X1116Y459D01*
X1118Y459D01*
X1118Y455D01*
X1120Y455D01*
X1120Y449D01*
X1122Y449D01*
X1122Y441D01*
X1124Y441D01*
X1124Y417D01*
X1122Y417D01*
X1122Y409D01*
X1120Y409D01*
X1120Y403D01*
X1118Y403D01*
X1118Y399D01*
X1116Y399D01*
X1116Y395D01*
X1114Y395D01*
X1114Y391D01*
X1112Y391D01*
X1112Y389D01*
X1110Y389D01*
X1110Y387D01*
X1108Y387D01*
X1108Y383D01*
X1106Y383D01*
X1106Y381D01*
X1104Y381D01*
X1104Y379D01*
X1172Y379D01*
X1172Y377D01*
X1184Y377D01*
X1184Y375D01*
X1190Y375D01*
X1190Y373D01*
X1194Y373D01*
X1194Y371D01*
X1196Y371D01*
X1196Y369D01*
X1200Y369D01*
X1200Y367D01*
X1202Y367D01*
X1202Y365D01*
X1204Y365D01*
X1204Y363D01*
X1206Y363D01*
X1206Y361D01*
X1208Y361D01*
X1208Y357D01*
X1286Y357D01*
X1286Y409D01*
X1284Y409D01*
X1284Y411D01*
X1282Y411D01*
X1282Y413D01*
X1278Y413D01*
X1278Y415D01*
X1274Y415D01*
X1274Y417D01*
X1270Y417D01*
X1270Y419D01*
X1266Y419D01*
X1266Y421D01*
X1262Y421D01*
X1262Y423D01*
X1258Y423D01*
X1258Y425D01*
X1256Y425D01*
X1256Y427D01*
X1252Y427D01*
X1252Y429D01*
X1248Y429D01*
X1248Y431D01*
X1244Y431D01*
X1244Y433D01*
X1240Y433D01*
X1240Y435D01*
X1236Y435D01*
X1236Y437D01*
X1232Y437D01*
X1232Y439D01*
X1230Y439D01*
X1230Y441D01*
X1226Y441D01*
X1226Y443D01*
X1222Y443D01*
X1222Y445D01*
X1218Y445D01*
X1218Y447D01*
X1214Y447D01*
X1214Y449D01*
X1210Y449D01*
X1210Y451D01*
X1206Y451D01*
X1206Y453D01*
X1204Y453D01*
X1204Y455D01*
X1200Y455D01*
X1200Y457D01*
X1196Y457D01*
X1196Y459D01*
X1192Y459D01*
X1192Y461D01*
X1188Y461D01*
X1188Y463D01*
X1184Y463D01*
X1184Y465D01*
X1180Y465D01*
X1180Y467D01*
X1178Y467D01*
X1178Y469D01*
X1174Y469D01*
X1174Y471D01*
X1170Y471D01*
X1170Y473D01*
X1166Y473D01*
X1166Y475D01*
X1162Y475D01*
X1162Y477D01*
X1158Y477D01*
X1158Y479D01*
X1154Y479D01*
X1154Y481D01*
X1152Y481D01*
X1152Y483D01*
X1148Y483D01*
X1148Y485D01*
X1144Y485D01*
X1144Y487D01*
X1140Y487D01*
X1140Y489D01*
X1136Y489D01*
X1136Y491D01*
X1110Y491D01*
G37*
D02*
G36*
X450Y489D02*
X450Y485D01*
X448Y485D01*
X448Y483D01*
X446Y483D01*
X446Y481D01*
X444Y481D01*
X444Y479D01*
X442Y479D01*
X442Y477D01*
X438Y477D01*
X438Y475D01*
X436Y475D01*
X436Y473D01*
X432Y473D01*
X432Y471D01*
X426Y471D01*
X426Y469D01*
X418Y469D01*
X418Y467D01*
X664Y467D01*
X664Y473D01*
X662Y473D01*
X662Y475D01*
X636Y475D01*
X636Y477D01*
X610Y477D01*
X610Y479D01*
X584Y479D01*
X584Y481D01*
X558Y481D01*
X558Y483D01*
X530Y483D01*
X530Y485D01*
X504Y485D01*
X504Y487D01*
X478Y487D01*
X478Y489D01*
X450Y489D01*
G37*
D02*
G36*
X40Y467D02*
X40Y465D01*
X664Y465D01*
X664Y467D01*
X40Y467D01*
G37*
D02*
G36*
X40Y467D02*
X40Y465D01*
X664Y465D01*
X664Y467D01*
X40Y467D01*
G37*
D02*
G36*
X40Y465D02*
X40Y457D01*
X280Y457D01*
X280Y455D01*
X286Y455D01*
X286Y453D01*
X292Y453D01*
X292Y451D01*
X294Y451D01*
X294Y449D01*
X298Y449D01*
X298Y447D01*
X300Y447D01*
X300Y445D01*
X304Y445D01*
X304Y443D01*
X306Y443D01*
X306Y439D01*
X308Y439D01*
X308Y437D01*
X310Y437D01*
X310Y435D01*
X312Y435D01*
X312Y431D01*
X346Y431D01*
X346Y433D01*
X402Y433D01*
X402Y435D01*
X458Y435D01*
X458Y437D01*
X514Y437D01*
X514Y439D01*
X570Y439D01*
X570Y441D01*
X624Y441D01*
X624Y443D01*
X658Y443D01*
X658Y447D01*
X660Y447D01*
X660Y449D01*
X662Y449D01*
X662Y453D01*
X664Y453D01*
X664Y465D01*
X40Y465D01*
G37*
D02*
G36*
X964Y461D02*
X964Y459D01*
X954Y459D01*
X954Y457D01*
X944Y457D01*
X944Y455D01*
X934Y455D01*
X934Y453D01*
X924Y453D01*
X924Y451D01*
X914Y451D01*
X914Y449D01*
X904Y449D01*
X904Y447D01*
X894Y447D01*
X894Y445D01*
X884Y445D01*
X884Y443D01*
X874Y443D01*
X874Y441D01*
X864Y441D01*
X864Y439D01*
X854Y439D01*
X854Y437D01*
X844Y437D01*
X844Y435D01*
X834Y435D01*
X834Y415D01*
X930Y415D01*
X930Y413D01*
X934Y413D01*
X934Y411D01*
X938Y411D01*
X938Y409D01*
X940Y409D01*
X940Y407D01*
X942Y407D01*
X942Y403D01*
X944Y403D01*
X944Y399D01*
X946Y399D01*
X946Y391D01*
X948Y391D01*
X948Y381D01*
X950Y381D01*
X950Y371D01*
X952Y371D01*
X952Y361D01*
X1040Y361D01*
X1040Y363D01*
X1032Y363D01*
X1032Y365D01*
X1028Y365D01*
X1028Y367D01*
X1024Y367D01*
X1024Y369D01*
X1020Y369D01*
X1020Y371D01*
X1016Y371D01*
X1016Y373D01*
X1014Y373D01*
X1014Y375D01*
X1012Y375D01*
X1012Y377D01*
X1008Y377D01*
X1008Y379D01*
X1006Y379D01*
X1006Y381D01*
X1004Y381D01*
X1004Y383D01*
X1002Y383D01*
X1002Y387D01*
X1000Y387D01*
X1000Y389D01*
X998Y389D01*
X998Y393D01*
X996Y393D01*
X996Y395D01*
X994Y395D01*
X994Y399D01*
X992Y399D01*
X992Y405D01*
X990Y405D01*
X990Y409D01*
X988Y409D01*
X988Y419D01*
X986Y419D01*
X986Y439D01*
X988Y439D01*
X988Y461D01*
X964Y461D01*
G37*
D02*
G36*
X40Y457D02*
X40Y357D01*
X262Y357D01*
X262Y359D01*
X254Y359D01*
X254Y361D01*
X248Y361D01*
X248Y363D01*
X244Y363D01*
X244Y365D01*
X242Y365D01*
X242Y367D01*
X238Y367D01*
X238Y369D01*
X236Y369D01*
X236Y371D01*
X234Y371D01*
X234Y373D01*
X232Y373D01*
X232Y375D01*
X230Y375D01*
X230Y379D01*
X228Y379D01*
X228Y381D01*
X226Y381D01*
X226Y385D01*
X224Y385D01*
X224Y389D01*
X222Y389D01*
X222Y395D01*
X220Y395D01*
X220Y419D01*
X222Y419D01*
X222Y425D01*
X224Y425D01*
X224Y429D01*
X226Y429D01*
X226Y433D01*
X228Y433D01*
X228Y437D01*
X230Y437D01*
X230Y439D01*
X232Y439D01*
X232Y441D01*
X234Y441D01*
X234Y443D01*
X236Y443D01*
X236Y445D01*
X238Y445D01*
X238Y447D01*
X240Y447D01*
X240Y449D01*
X244Y449D01*
X244Y451D01*
X248Y451D01*
X248Y453D01*
X252Y453D01*
X252Y455D01*
X260Y455D01*
X260Y457D01*
X40Y457D01*
G37*
D02*
G36*
X626Y399D02*
X626Y397D01*
X570Y397D01*
X570Y395D01*
X514Y395D01*
X514Y393D01*
X458Y393D01*
X458Y391D01*
X404Y391D01*
X404Y389D01*
X348Y389D01*
X348Y387D01*
X314Y387D01*
X314Y383D01*
X312Y383D01*
X312Y379D01*
X310Y379D01*
X310Y377D01*
X308Y377D01*
X308Y375D01*
X306Y375D01*
X306Y373D01*
X304Y373D01*
X304Y371D01*
X302Y371D01*
X302Y369D01*
X300Y369D01*
X300Y367D01*
X298Y367D01*
X298Y365D01*
X294Y365D01*
X294Y363D01*
X290Y363D01*
X290Y361D01*
X458Y361D01*
X458Y359D01*
X468Y359D01*
X468Y357D01*
X474Y357D01*
X474Y355D01*
X478Y355D01*
X478Y353D01*
X482Y353D01*
X482Y351D01*
X486Y351D01*
X486Y349D01*
X490Y349D01*
X490Y347D01*
X492Y347D01*
X492Y345D01*
X494Y345D01*
X494Y343D01*
X496Y343D01*
X496Y341D01*
X498Y341D01*
X498Y339D01*
X500Y339D01*
X500Y337D01*
X502Y337D01*
X502Y335D01*
X504Y335D01*
X504Y333D01*
X506Y333D01*
X506Y329D01*
X508Y329D01*
X508Y327D01*
X510Y327D01*
X510Y323D01*
X512Y323D01*
X512Y319D01*
X514Y319D01*
X514Y313D01*
X516Y313D01*
X516Y307D01*
X518Y307D01*
X518Y277D01*
X516Y277D01*
X516Y269D01*
X514Y269D01*
X514Y265D01*
X512Y265D01*
X512Y261D01*
X510Y261D01*
X510Y257D01*
X508Y257D01*
X508Y253D01*
X506Y253D01*
X506Y251D01*
X504Y251D01*
X504Y247D01*
X502Y247D01*
X502Y245D01*
X500Y245D01*
X500Y243D01*
X498Y243D01*
X498Y241D01*
X496Y241D01*
X496Y239D01*
X494Y239D01*
X494Y237D01*
X490Y237D01*
X490Y235D01*
X488Y235D01*
X488Y233D01*
X484Y233D01*
X484Y231D01*
X480Y231D01*
X480Y229D01*
X476Y229D01*
X476Y227D01*
X472Y227D01*
X472Y207D01*
X480Y207D01*
X480Y205D01*
X498Y205D01*
X498Y203D01*
X516Y203D01*
X516Y201D01*
X532Y201D01*
X532Y199D01*
X550Y199D01*
X550Y197D01*
X568Y197D01*
X568Y195D01*
X586Y195D01*
X586Y193D01*
X604Y193D01*
X604Y191D01*
X622Y191D01*
X622Y189D01*
X656Y189D01*
X656Y207D01*
X654Y207D01*
X654Y215D01*
X652Y215D01*
X652Y229D01*
X654Y229D01*
X654Y237D01*
X656Y237D01*
X656Y243D01*
X658Y243D01*
X658Y247D01*
X660Y247D01*
X660Y249D01*
X662Y249D01*
X662Y253D01*
X664Y253D01*
X664Y255D01*
X666Y255D01*
X666Y257D01*
X668Y257D01*
X668Y259D01*
X670Y259D01*
X670Y261D01*
X674Y261D01*
X674Y263D01*
X676Y263D01*
X676Y283D01*
X672Y283D01*
X672Y285D01*
X670Y285D01*
X670Y287D01*
X668Y287D01*
X668Y289D01*
X666Y289D01*
X666Y291D01*
X664Y291D01*
X664Y293D01*
X662Y293D01*
X662Y295D01*
X660Y295D01*
X660Y299D01*
X658Y299D01*
X658Y303D01*
X656Y303D01*
X656Y307D01*
X654Y307D01*
X654Y315D01*
X652Y315D01*
X652Y329D01*
X654Y329D01*
X654Y337D01*
X656Y337D01*
X656Y343D01*
X658Y343D01*
X658Y347D01*
X660Y347D01*
X660Y349D01*
X662Y349D01*
X662Y353D01*
X664Y353D01*
X664Y355D01*
X666Y355D01*
X666Y357D01*
X668Y357D01*
X668Y359D01*
X670Y359D01*
X670Y361D01*
X674Y361D01*
X674Y363D01*
X676Y363D01*
X676Y383D01*
X672Y383D01*
X672Y385D01*
X670Y385D01*
X670Y387D01*
X668Y387D01*
X668Y389D01*
X666Y389D01*
X666Y391D01*
X664Y391D01*
X664Y393D01*
X662Y393D01*
X662Y395D01*
X660Y395D01*
X660Y399D01*
X626Y399D01*
G37*
D02*
G36*
X1102Y379D02*
X1102Y377D01*
X1100Y377D01*
X1100Y375D01*
X1096Y375D01*
X1096Y373D01*
X1094Y373D01*
X1094Y371D01*
X1090Y371D01*
X1090Y369D01*
X1086Y369D01*
X1086Y367D01*
X1082Y367D01*
X1082Y365D01*
X1078Y365D01*
X1078Y363D01*
X1070Y363D01*
X1070Y361D01*
X1136Y361D01*
X1136Y365D01*
X1140Y365D01*
X1140Y367D01*
X1142Y367D01*
X1142Y369D01*
X1144Y369D01*
X1144Y371D01*
X1148Y371D01*
X1148Y373D01*
X1152Y373D01*
X1152Y375D01*
X1158Y375D01*
X1158Y377D01*
X1170Y377D01*
X1170Y379D01*
X1102Y379D01*
G37*
D02*
G36*
X286Y361D02*
X286Y359D01*
X278Y359D01*
X278Y357D01*
X432Y357D01*
X432Y359D01*
X442Y359D01*
X442Y361D01*
X286Y361D01*
G37*
D02*
G36*
X954Y361D02*
X954Y359D01*
X1134Y359D01*
X1134Y361D01*
X954Y361D01*
G37*
D02*
G36*
X954Y361D02*
X954Y359D01*
X1134Y359D01*
X1134Y361D01*
X954Y361D01*
G37*
D02*
G36*
X954Y359D02*
X954Y351D01*
X956Y351D01*
X956Y341D01*
X958Y341D01*
X958Y331D01*
X960Y331D01*
X960Y321D01*
X962Y321D01*
X962Y311D01*
X964Y311D01*
X964Y301D01*
X966Y301D01*
X966Y295D01*
X968Y295D01*
X968Y293D01*
X970Y293D01*
X970Y291D01*
X972Y291D01*
X972Y289D01*
X974Y289D01*
X974Y285D01*
X976Y285D01*
X976Y279D01*
X978Y279D01*
X978Y267D01*
X976Y267D01*
X976Y261D01*
X974Y261D01*
X974Y245D01*
X994Y245D01*
X994Y247D01*
X1002Y247D01*
X1002Y249D01*
X1008Y249D01*
X1008Y251D01*
X1014Y251D01*
X1014Y253D01*
X1022Y253D01*
X1022Y255D01*
X1028Y255D01*
X1028Y257D01*
X1036Y257D01*
X1036Y259D01*
X1042Y259D01*
X1042Y261D01*
X1048Y261D01*
X1048Y263D01*
X1056Y263D01*
X1056Y265D01*
X1062Y265D01*
X1062Y267D01*
X1070Y267D01*
X1070Y269D01*
X1076Y269D01*
X1076Y271D01*
X1082Y271D01*
X1082Y273D01*
X1090Y273D01*
X1090Y275D01*
X1096Y275D01*
X1096Y277D01*
X1104Y277D01*
X1104Y279D01*
X1110Y279D01*
X1110Y281D01*
X1116Y281D01*
X1116Y283D01*
X1124Y283D01*
X1124Y285D01*
X1130Y285D01*
X1130Y307D01*
X1128Y307D01*
X1128Y311D01*
X1126Y311D01*
X1126Y317D01*
X1124Y317D01*
X1124Y329D01*
X1122Y329D01*
X1122Y333D01*
X1124Y333D01*
X1124Y343D01*
X1126Y343D01*
X1126Y349D01*
X1128Y349D01*
X1128Y353D01*
X1130Y353D01*
X1130Y357D01*
X1132Y357D01*
X1132Y359D01*
X954Y359D01*
G37*
D02*
G36*
X40Y357D02*
X40Y355D01*
X426Y355D01*
X426Y357D01*
X40Y357D01*
G37*
D02*
G36*
X40Y357D02*
X40Y355D01*
X426Y355D01*
X426Y357D01*
X40Y357D01*
G37*
D02*
G36*
X1210Y357D02*
X1210Y355D01*
X1588Y355D01*
X1588Y357D01*
X1210Y357D01*
G37*
D02*
G36*
X1210Y357D02*
X1210Y355D01*
X1588Y355D01*
X1588Y357D01*
X1210Y357D01*
G37*
D02*
G36*
X40Y355D02*
X40Y257D01*
X320Y257D01*
X320Y223D01*
X336Y223D01*
X336Y221D01*
X354Y221D01*
X354Y219D01*
X372Y219D01*
X372Y217D01*
X390Y217D01*
X390Y215D01*
X414Y215D01*
X414Y233D01*
X412Y233D01*
X412Y235D01*
X408Y235D01*
X408Y237D01*
X406Y237D01*
X406Y239D01*
X404Y239D01*
X404Y241D01*
X402Y241D01*
X402Y243D01*
X400Y243D01*
X400Y245D01*
X398Y245D01*
X398Y247D01*
X396Y247D01*
X396Y249D01*
X394Y249D01*
X394Y253D01*
X392Y253D01*
X392Y255D01*
X390Y255D01*
X390Y259D01*
X388Y259D01*
X388Y263D01*
X386Y263D01*
X386Y269D01*
X384Y269D01*
X384Y275D01*
X382Y275D01*
X382Y285D01*
X380Y285D01*
X380Y297D01*
X382Y297D01*
X382Y309D01*
X384Y309D01*
X384Y315D01*
X386Y315D01*
X386Y319D01*
X388Y319D01*
X388Y323D01*
X390Y323D01*
X390Y327D01*
X392Y327D01*
X392Y331D01*
X394Y331D01*
X394Y333D01*
X396Y333D01*
X396Y335D01*
X398Y335D01*
X398Y339D01*
X400Y339D01*
X400Y341D01*
X402Y341D01*
X402Y343D01*
X404Y343D01*
X404Y345D01*
X408Y345D01*
X408Y347D01*
X410Y347D01*
X410Y349D01*
X414Y349D01*
X414Y351D01*
X416Y351D01*
X416Y353D01*
X422Y353D01*
X422Y355D01*
X40Y355D01*
G37*
D02*
G36*
X1212Y355D02*
X1212Y351D01*
X1214Y351D01*
X1214Y347D01*
X1216Y347D01*
X1216Y339D01*
X1218Y339D01*
X1218Y321D01*
X1222Y321D01*
X1222Y319D01*
X1224Y319D01*
X1224Y317D01*
X1226Y317D01*
X1226Y315D01*
X1230Y315D01*
X1230Y313D01*
X1232Y313D01*
X1232Y311D01*
X1234Y311D01*
X1234Y309D01*
X1238Y309D01*
X1238Y307D01*
X1240Y307D01*
X1240Y305D01*
X1244Y305D01*
X1244Y303D01*
X1246Y303D01*
X1246Y301D01*
X1248Y301D01*
X1248Y299D01*
X1252Y299D01*
X1252Y297D01*
X1254Y297D01*
X1254Y295D01*
X1256Y295D01*
X1256Y293D01*
X1260Y293D01*
X1260Y291D01*
X1262Y291D01*
X1262Y289D01*
X1264Y289D01*
X1264Y287D01*
X1268Y287D01*
X1268Y285D01*
X1270Y285D01*
X1270Y283D01*
X1272Y283D01*
X1272Y281D01*
X1276Y281D01*
X1276Y279D01*
X1278Y279D01*
X1278Y277D01*
X1280Y277D01*
X1280Y275D01*
X1284Y275D01*
X1284Y273D01*
X1286Y273D01*
X1286Y271D01*
X1288Y271D01*
X1288Y269D01*
X1292Y269D01*
X1292Y267D01*
X1294Y267D01*
X1294Y265D01*
X1296Y265D01*
X1296Y263D01*
X1300Y263D01*
X1300Y261D01*
X1302Y261D01*
X1302Y259D01*
X1304Y259D01*
X1304Y257D01*
X1346Y257D01*
X1346Y255D01*
X1354Y255D01*
X1354Y253D01*
X1358Y253D01*
X1358Y251D01*
X1362Y251D01*
X1362Y249D01*
X1364Y249D01*
X1364Y247D01*
X1368Y247D01*
X1368Y245D01*
X1370Y245D01*
X1370Y243D01*
X1372Y243D01*
X1372Y241D01*
X1374Y241D01*
X1374Y239D01*
X1376Y239D01*
X1376Y237D01*
X1378Y237D01*
X1378Y233D01*
X1380Y233D01*
X1380Y229D01*
X1382Y229D01*
X1382Y225D01*
X1384Y225D01*
X1384Y219D01*
X1386Y219D01*
X1386Y195D01*
X1384Y195D01*
X1384Y189D01*
X1382Y189D01*
X1382Y185D01*
X1380Y185D01*
X1380Y181D01*
X1378Y181D01*
X1378Y179D01*
X1376Y179D01*
X1376Y175D01*
X1374Y175D01*
X1374Y173D01*
X1372Y173D01*
X1372Y171D01*
X1370Y171D01*
X1370Y169D01*
X1368Y169D01*
X1368Y167D01*
X1364Y167D01*
X1364Y165D01*
X1362Y165D01*
X1362Y163D01*
X1358Y163D01*
X1358Y161D01*
X1354Y161D01*
X1354Y159D01*
X1346Y159D01*
X1346Y157D01*
X1588Y157D01*
X1588Y355D01*
X1212Y355D01*
G37*
D02*
G36*
X1186Y277D02*
X1186Y267D01*
X1184Y267D01*
X1184Y261D01*
X1182Y261D01*
X1182Y259D01*
X1180Y259D01*
X1180Y257D01*
X1178Y257D01*
X1178Y255D01*
X1174Y255D01*
X1174Y253D01*
X1170Y253D01*
X1170Y251D01*
X1164Y251D01*
X1164Y249D01*
X1156Y249D01*
X1156Y247D01*
X1150Y247D01*
X1150Y245D01*
X1144Y245D01*
X1144Y243D01*
X1136Y243D01*
X1136Y241D01*
X1130Y241D01*
X1130Y239D01*
X1122Y239D01*
X1122Y237D01*
X1116Y237D01*
X1116Y235D01*
X1110Y235D01*
X1110Y233D01*
X1102Y233D01*
X1102Y231D01*
X1096Y231D01*
X1096Y229D01*
X1088Y229D01*
X1088Y227D01*
X1082Y227D01*
X1082Y225D01*
X1076Y225D01*
X1076Y223D01*
X1068Y223D01*
X1068Y221D01*
X1062Y221D01*
X1062Y219D01*
X1054Y219D01*
X1054Y217D01*
X1048Y217D01*
X1048Y215D01*
X1042Y215D01*
X1042Y213D01*
X1034Y213D01*
X1034Y211D01*
X1028Y211D01*
X1028Y209D01*
X1020Y209D01*
X1020Y207D01*
X1014Y207D01*
X1014Y205D01*
X1008Y205D01*
X1008Y203D01*
X1000Y203D01*
X1000Y201D01*
X994Y201D01*
X994Y199D01*
X986Y199D01*
X986Y197D01*
X980Y197D01*
X980Y195D01*
X974Y195D01*
X974Y193D01*
X966Y193D01*
X966Y191D01*
X960Y191D01*
X960Y189D01*
X952Y189D01*
X952Y187D01*
X946Y187D01*
X946Y185D01*
X940Y185D01*
X940Y183D01*
X932Y183D01*
X932Y181D01*
X926Y181D01*
X926Y179D01*
X918Y179D01*
X918Y177D01*
X912Y177D01*
X912Y175D01*
X906Y175D01*
X906Y173D01*
X898Y173D01*
X898Y171D01*
X892Y171D01*
X892Y169D01*
X884Y169D01*
X884Y167D01*
X878Y167D01*
X878Y165D01*
X872Y165D01*
X872Y163D01*
X864Y163D01*
X864Y161D01*
X860Y161D01*
X860Y157D01*
X1328Y157D01*
X1328Y159D01*
X1320Y159D01*
X1320Y161D01*
X1316Y161D01*
X1316Y163D01*
X1312Y163D01*
X1312Y165D01*
X1308Y165D01*
X1308Y167D01*
X1306Y167D01*
X1306Y169D01*
X1304Y169D01*
X1304Y171D01*
X1302Y171D01*
X1302Y173D01*
X1300Y173D01*
X1300Y175D01*
X1298Y175D01*
X1298Y177D01*
X1296Y177D01*
X1296Y179D01*
X1294Y179D01*
X1294Y183D01*
X1292Y183D01*
X1292Y187D01*
X1290Y187D01*
X1290Y191D01*
X1288Y191D01*
X1288Y201D01*
X1286Y201D01*
X1286Y217D01*
X1284Y217D01*
X1284Y219D01*
X1282Y219D01*
X1282Y221D01*
X1280Y221D01*
X1280Y223D01*
X1276Y223D01*
X1276Y225D01*
X1274Y225D01*
X1274Y227D01*
X1272Y227D01*
X1272Y229D01*
X1268Y229D01*
X1268Y231D01*
X1266Y231D01*
X1266Y233D01*
X1264Y233D01*
X1264Y235D01*
X1260Y235D01*
X1260Y237D01*
X1258Y237D01*
X1258Y239D01*
X1256Y239D01*
X1256Y241D01*
X1252Y241D01*
X1252Y243D01*
X1250Y243D01*
X1250Y245D01*
X1248Y245D01*
X1248Y247D01*
X1244Y247D01*
X1244Y249D01*
X1242Y249D01*
X1242Y251D01*
X1240Y251D01*
X1240Y253D01*
X1236Y253D01*
X1236Y255D01*
X1234Y255D01*
X1234Y257D01*
X1232Y257D01*
X1232Y259D01*
X1228Y259D01*
X1228Y261D01*
X1226Y261D01*
X1226Y263D01*
X1224Y263D01*
X1224Y265D01*
X1220Y265D01*
X1220Y267D01*
X1218Y267D01*
X1218Y269D01*
X1214Y269D01*
X1214Y271D01*
X1212Y271D01*
X1212Y273D01*
X1210Y273D01*
X1210Y275D01*
X1206Y275D01*
X1206Y277D01*
X1186Y277D01*
G37*
D02*
G36*
X40Y257D02*
X40Y157D01*
X220Y157D01*
X220Y257D01*
X40Y257D01*
G37*
D02*
G36*
X320Y177D02*
X320Y157D01*
X406Y157D01*
X406Y169D01*
X404Y169D01*
X404Y171D01*
X386Y171D01*
X386Y173D01*
X368Y173D01*
X368Y175D01*
X350Y175D01*
X350Y177D01*
X320Y177D01*
G37*
D02*
G36*
X454Y163D02*
X454Y145D01*
X456Y145D01*
X456Y143D01*
X460Y143D01*
X460Y141D01*
X462Y141D01*
X462Y137D01*
X464Y137D01*
X464Y135D01*
X466Y135D01*
X466Y133D01*
X468Y133D01*
X468Y129D01*
X470Y129D01*
X470Y123D01*
X472Y123D01*
X472Y117D01*
X474Y117D01*
X474Y99D01*
X472Y99D01*
X472Y91D01*
X470Y91D01*
X470Y87D01*
X468Y87D01*
X468Y83D01*
X466Y83D01*
X466Y81D01*
X464Y81D01*
X464Y77D01*
X462Y77D01*
X462Y75D01*
X460Y75D01*
X460Y73D01*
X458Y73D01*
X458Y71D01*
X454Y71D01*
X454Y69D01*
X452Y69D01*
X452Y67D01*
X448Y67D01*
X448Y65D01*
X444Y65D01*
X444Y63D01*
X438Y63D01*
X438Y61D01*
X816Y61D01*
X816Y63D01*
X808Y63D01*
X808Y65D01*
X804Y65D01*
X804Y67D01*
X800Y67D01*
X800Y69D01*
X798Y69D01*
X798Y71D01*
X796Y71D01*
X796Y73D01*
X794Y73D01*
X794Y75D01*
X792Y75D01*
X792Y77D01*
X790Y77D01*
X790Y79D01*
X788Y79D01*
X788Y81D01*
X786Y81D01*
X786Y85D01*
X784Y85D01*
X784Y89D01*
X782Y89D01*
X782Y95D01*
X780Y95D01*
X780Y131D01*
X746Y131D01*
X746Y133D01*
X728Y133D01*
X728Y135D01*
X710Y135D01*
X710Y137D01*
X692Y137D01*
X692Y139D01*
X674Y139D01*
X674Y141D01*
X656Y141D01*
X656Y143D01*
X638Y143D01*
X638Y145D01*
X620Y145D01*
X620Y147D01*
X602Y147D01*
X602Y149D01*
X584Y149D01*
X584Y151D01*
X566Y151D01*
X566Y153D01*
X548Y153D01*
X548Y155D01*
X530Y155D01*
X530Y157D01*
X512Y157D01*
X512Y159D01*
X494Y159D01*
X494Y161D01*
X476Y161D01*
X476Y163D01*
X454Y163D01*
G37*
D02*
G36*
X40Y157D02*
X40Y155D01*
X406Y155D01*
X406Y157D01*
X40Y157D01*
G37*
D02*
G36*
X40Y157D02*
X40Y155D01*
X406Y155D01*
X406Y157D01*
X40Y157D01*
G37*
D02*
G36*
X860Y157D02*
X860Y155D01*
X1588Y155D01*
X1588Y157D01*
X860Y157D01*
G37*
D02*
G36*
X860Y157D02*
X860Y155D01*
X1588Y155D01*
X1588Y157D01*
X860Y157D01*
G37*
D02*
G36*
X40Y155D02*
X40Y61D01*
X416Y61D01*
X416Y63D01*
X408Y63D01*
X408Y65D01*
X404Y65D01*
X404Y67D01*
X400Y67D01*
X400Y69D01*
X398Y69D01*
X398Y71D01*
X396Y71D01*
X396Y73D01*
X394Y73D01*
X394Y75D01*
X392Y75D01*
X392Y77D01*
X390Y77D01*
X390Y79D01*
X388Y79D01*
X388Y81D01*
X386Y81D01*
X386Y85D01*
X384Y85D01*
X384Y89D01*
X382Y89D01*
X382Y95D01*
X380Y95D01*
X380Y121D01*
X382Y121D01*
X382Y127D01*
X384Y127D01*
X384Y131D01*
X386Y131D01*
X386Y135D01*
X388Y135D01*
X388Y137D01*
X390Y137D01*
X390Y139D01*
X392Y139D01*
X392Y141D01*
X394Y141D01*
X394Y143D01*
X396Y143D01*
X396Y145D01*
X398Y145D01*
X398Y147D01*
X402Y147D01*
X402Y149D01*
X406Y149D01*
X406Y155D01*
X40Y155D01*
G37*
D02*
G36*
X860Y155D02*
X860Y141D01*
X862Y141D01*
X862Y137D01*
X864Y137D01*
X864Y135D01*
X866Y135D01*
X866Y133D01*
X868Y133D01*
X868Y129D01*
X870Y129D01*
X870Y123D01*
X872Y123D01*
X872Y117D01*
X874Y117D01*
X874Y99D01*
X872Y99D01*
X872Y91D01*
X870Y91D01*
X870Y87D01*
X868Y87D01*
X868Y83D01*
X866Y83D01*
X866Y81D01*
X864Y81D01*
X864Y77D01*
X862Y77D01*
X862Y75D01*
X860Y75D01*
X860Y73D01*
X858Y73D01*
X858Y71D01*
X854Y71D01*
X854Y69D01*
X852Y69D01*
X852Y67D01*
X848Y67D01*
X848Y65D01*
X844Y65D01*
X844Y63D01*
X838Y63D01*
X838Y61D01*
X1588Y61D01*
X1588Y155D01*
X860Y155D01*
G37*
D02*
G36*
X40Y61D02*
X40Y59D01*
X1588Y59D01*
X1588Y61D01*
X40Y61D01*
G37*
D02*
G36*
X40Y61D02*
X40Y59D01*
X1588Y59D01*
X1588Y61D01*
X40Y61D01*
G37*
D02*
G36*
X40Y61D02*
X40Y59D01*
X1588Y59D01*
X1588Y61D01*
X40Y61D01*
G37*
D02*
G36*
X40Y59D02*
X40Y41D01*
X1588Y41D01*
X1588Y59D01*
X40Y59D01*
G37*
D02*
G36*
X454Y557D02*
X454Y535D01*
X456Y535D01*
X456Y533D01*
X480Y533D01*
X480Y531D01*
X506Y531D01*
X506Y529D01*
X532Y529D01*
X532Y527D01*
X560Y527D01*
X560Y525D01*
X586Y525D01*
X586Y523D01*
X612Y523D01*
X612Y521D01*
X638Y521D01*
X638Y519D01*
X664Y519D01*
X664Y517D01*
X690Y517D01*
X690Y515D01*
X718Y515D01*
X718Y513D01*
X744Y513D01*
X744Y511D01*
X764Y511D01*
X764Y521D01*
X766Y521D01*
X766Y529D01*
X768Y529D01*
X768Y535D01*
X770Y535D01*
X770Y557D01*
X454Y557D01*
G37*
D02*
G36*
X736Y371D02*
X736Y351D01*
X738Y351D01*
X738Y349D01*
X740Y349D01*
X740Y347D01*
X772Y347D01*
X772Y349D01*
X814Y349D01*
X814Y351D01*
X828Y351D01*
X828Y371D01*
X736Y371D01*
G37*
D02*
G36*
X772Y305D02*
X772Y303D01*
X742Y303D01*
X742Y299D01*
X740Y299D01*
X740Y295D01*
X738Y295D01*
X738Y293D01*
X736Y293D01*
X736Y291D01*
X734Y291D01*
X734Y289D01*
X732Y289D01*
X732Y287D01*
X730Y287D01*
X730Y285D01*
X728Y285D01*
X728Y283D01*
X862Y283D01*
X862Y285D01*
X854Y285D01*
X854Y287D01*
X850Y287D01*
X850Y289D01*
X846Y289D01*
X846Y291D01*
X842Y291D01*
X842Y293D01*
X840Y293D01*
X840Y295D01*
X838Y295D01*
X838Y297D01*
X836Y297D01*
X836Y299D01*
X834Y299D01*
X834Y301D01*
X832Y301D01*
X832Y305D01*
X772Y305D01*
G37*
D02*
G36*
X900Y295D02*
X900Y293D01*
X898Y293D01*
X898Y291D01*
X894Y291D01*
X894Y289D01*
X892Y289D01*
X892Y287D01*
X886Y287D01*
X886Y285D01*
X880Y285D01*
X880Y283D01*
X920Y283D01*
X920Y295D01*
X900Y295D01*
G37*
D02*
G36*
X724Y283D02*
X724Y281D01*
X920Y281D01*
X920Y283D01*
X724Y283D01*
G37*
D02*
G36*
X724Y283D02*
X724Y281D01*
X920Y281D01*
X920Y283D01*
X724Y283D01*
G37*
D02*
G36*
X724Y281D02*
X724Y263D01*
X726Y263D01*
X726Y261D01*
X728Y261D01*
X728Y259D01*
X732Y259D01*
X732Y257D01*
X734Y257D01*
X734Y255D01*
X736Y255D01*
X736Y251D01*
X738Y251D01*
X738Y249D01*
X740Y249D01*
X740Y245D01*
X742Y245D01*
X742Y243D01*
X744Y243D01*
X744Y237D01*
X746Y237D01*
X746Y229D01*
X748Y229D01*
X748Y217D01*
X746Y217D01*
X746Y209D01*
X744Y209D01*
X744Y203D01*
X742Y203D01*
X742Y199D01*
X740Y199D01*
X740Y177D01*
X764Y177D01*
X764Y179D01*
X770Y179D01*
X770Y181D01*
X776Y181D01*
X776Y183D01*
X784Y183D01*
X784Y185D01*
X790Y185D01*
X790Y187D01*
X798Y187D01*
X798Y189D01*
X804Y189D01*
X804Y191D01*
X810Y191D01*
X810Y193D01*
X818Y193D01*
X818Y195D01*
X824Y195D01*
X824Y197D01*
X832Y197D01*
X832Y199D01*
X838Y199D01*
X838Y201D01*
X844Y201D01*
X844Y203D01*
X852Y203D01*
X852Y205D01*
X858Y205D01*
X858Y207D01*
X866Y207D01*
X866Y209D01*
X872Y209D01*
X872Y211D01*
X878Y211D01*
X878Y213D01*
X886Y213D01*
X886Y215D01*
X892Y215D01*
X892Y217D01*
X900Y217D01*
X900Y219D01*
X906Y219D01*
X906Y221D01*
X912Y221D01*
X912Y223D01*
X920Y223D01*
X920Y225D01*
X926Y225D01*
X926Y227D01*
X934Y227D01*
X934Y247D01*
X932Y247D01*
X932Y249D01*
X930Y249D01*
X930Y251D01*
X928Y251D01*
X928Y253D01*
X926Y253D01*
X926Y255D01*
X924Y255D01*
X924Y257D01*
X922Y257D01*
X922Y261D01*
X920Y261D01*
X920Y267D01*
X918Y267D01*
X918Y279D01*
X920Y279D01*
X920Y281D01*
X724Y281D01*
G37*
D02*
G04 End of Copper0*
M02*