G04 MADE WITH FRITZING*
G04 WWW.FRITZING.ORG*
G04 DOUBLE SIDED*
G04 HOLES PLATED*
G04 CONTOUR ON CENTER OF CONTOUR VECTOR*
%ASAXBY*%
%FSLAX23Y23*%
%MOIN*%
%OFA0B0*%
%SFA1.0B1.0*%
%ADD10R,1.628700X0.596846X1.612700X0.580846*%
%ADD11C,0.008000*%
%LNSILK0*%
G90*
G70*
G54D11*
X4Y593D02*
X1625Y593D01*
X1625Y4D01*
X4Y4D01*
X4Y593D01*
D02*
G36*
X133Y397D02*
X133Y397D01*
X132Y397D01*
X132Y396D01*
X132Y396D01*
X132Y397D01*
X133Y397D01*
G37*
D02*
G36*
X129Y397D02*
X129Y397D01*
X129Y397D01*
X129Y396D01*
X128Y396D01*
X128Y397D01*
X129Y397D01*
G37*
D02*
G36*
X126Y397D02*
X126Y397D01*
X125Y397D01*
X125Y396D01*
X125Y396D01*
X125Y397D01*
X126Y397D01*
G37*
D02*
G36*
X64Y397D02*
X64Y397D01*
X64Y397D01*
X64Y396D01*
X63Y396D01*
X63Y397D01*
X64Y397D01*
G37*
D02*
G36*
X60Y397D02*
X60Y397D01*
X60Y397D01*
X60Y396D01*
X59Y396D01*
X59Y397D01*
X60Y397D01*
G37*
D02*
G36*
X57Y397D02*
X57Y397D01*
X56Y397D01*
X56Y396D01*
X56Y396D01*
X56Y397D01*
X57Y397D01*
G37*
D02*
G36*
X136Y397D02*
X136Y394D01*
X136Y394D01*
X136Y397D01*
X136Y397D01*
G37*
D02*
G36*
X122Y397D02*
X122Y394D01*
X121Y394D01*
X121Y397D01*
X122Y397D01*
G37*
D02*
G36*
X68Y397D02*
X68Y394D01*
X67Y394D01*
X67Y397D01*
X68Y397D01*
G37*
D02*
G36*
X53Y397D02*
X53Y394D01*
X52Y394D01*
X52Y397D01*
X53Y397D01*
G37*
D02*
G36*
X133Y396D02*
X133Y394D01*
X132Y394D01*
X132Y395D01*
X132Y395D01*
X132Y396D01*
X133Y396D01*
G37*
D02*
G36*
X129Y396D02*
X129Y394D01*
X128Y394D01*
X128Y395D01*
X129Y395D01*
X129Y396D01*
X129Y396D01*
G37*
D02*
G36*
X126Y396D02*
X126Y394D01*
X125Y394D01*
X125Y395D01*
X125Y395D01*
X125Y396D01*
X126Y396D01*
G37*
D02*
G36*
X64Y396D02*
X64Y394D01*
X63Y394D01*
X63Y395D01*
X64Y395D01*
X64Y396D01*
X64Y396D01*
G37*
D02*
G36*
X60Y396D02*
X60Y394D01*
X59Y394D01*
X59Y395D01*
X60Y395D01*
X60Y396D01*
X60Y396D01*
G37*
D02*
G36*
X57Y396D02*
X57Y394D01*
X56Y394D01*
X56Y395D01*
X56Y395D01*
X56Y396D01*
X57Y396D01*
G37*
D02*
G36*
X140Y391D02*
X140Y390D01*
X140Y390D01*
X140Y389D01*
X139Y389D01*
X139Y391D01*
X140Y391D01*
G37*
D02*
G36*
X136Y391D02*
X136Y390D01*
X136Y390D01*
X136Y389D01*
X136Y389D01*
X136Y391D01*
X136Y391D01*
G37*
D02*
G36*
X133Y391D02*
X133Y390D01*
X132Y390D01*
X132Y389D01*
X132Y389D01*
X132Y391D01*
X133Y391D01*
G37*
D02*
G36*
X129Y391D02*
X129Y390D01*
X129Y390D01*
X129Y389D01*
X128Y389D01*
X128Y391D01*
X129Y391D01*
G37*
D02*
G36*
X126Y391D02*
X126Y390D01*
X125Y390D01*
X125Y389D01*
X125Y389D01*
X125Y391D01*
X126Y391D01*
G37*
D02*
G36*
X122Y391D02*
X122Y390D01*
X122Y390D01*
X122Y389D01*
X121Y389D01*
X121Y391D01*
X122Y391D01*
G37*
D02*
G36*
X97Y391D02*
X97Y390D01*
X96Y390D01*
X96Y389D01*
X96Y389D01*
X96Y391D01*
X97Y391D01*
G37*
D02*
G36*
X93Y391D02*
X93Y390D01*
X93Y390D01*
X93Y389D01*
X92Y389D01*
X92Y391D01*
X93Y391D01*
G37*
D02*
G36*
X68Y391D02*
X68Y390D01*
X67Y390D01*
X67Y389D01*
X67Y389D01*
X67Y391D01*
X68Y391D01*
G37*
D02*
G36*
X64Y391D02*
X64Y390D01*
X64Y390D01*
X64Y389D01*
X63Y389D01*
X63Y391D01*
X64Y391D01*
G37*
D02*
G36*
X60Y391D02*
X60Y390D01*
X60Y390D01*
X60Y389D01*
X59Y389D01*
X59Y391D01*
X60Y391D01*
G37*
D02*
G36*
X57Y391D02*
X57Y390D01*
X56Y390D01*
X56Y389D01*
X56Y389D01*
X56Y391D01*
X57Y391D01*
G37*
D02*
G36*
X53Y391D02*
X53Y390D01*
X53Y390D01*
X53Y389D01*
X52Y389D01*
X52Y391D01*
X53Y391D01*
G37*
D02*
G36*
X49Y391D02*
X49Y390D01*
X49Y390D01*
X49Y389D01*
X49Y389D01*
X49Y391D01*
X49Y391D01*
G37*
D02*
G36*
X118Y390D02*
X118Y387D01*
X117Y387D01*
X117Y390D01*
X118Y390D01*
G37*
D02*
G36*
X71Y390D02*
X71Y387D01*
X70Y387D01*
X70Y390D01*
X71Y390D01*
G37*
D02*
G36*
X46Y390D02*
X46Y387D01*
X45Y387D01*
X45Y390D01*
X46Y390D01*
G37*
D02*
G36*
X140Y389D02*
X140Y387D01*
X139Y387D01*
X139Y388D01*
X140Y388D01*
X140Y389D01*
X140Y389D01*
G37*
D02*
G36*
X136Y389D02*
X136Y387D01*
X136Y387D01*
X136Y388D01*
X136Y388D01*
X136Y389D01*
X136Y389D01*
G37*
D02*
G36*
X133Y389D02*
X133Y387D01*
X132Y387D01*
X132Y388D01*
X132Y388D01*
X132Y389D01*
X133Y389D01*
G37*
D02*
G36*
X129Y389D02*
X129Y387D01*
X128Y387D01*
X128Y388D01*
X129Y388D01*
X129Y389D01*
X129Y389D01*
G37*
D02*
G36*
X126Y389D02*
X126Y387D01*
X125Y387D01*
X125Y388D01*
X125Y388D01*
X125Y389D01*
X126Y389D01*
G37*
D02*
G36*
X122Y389D02*
X122Y387D01*
X121Y387D01*
X121Y388D01*
X122Y388D01*
X122Y389D01*
X122Y389D01*
G37*
D02*
G36*
X97Y389D02*
X97Y387D01*
X96Y387D01*
X96Y388D01*
X96Y388D01*
X96Y389D01*
X97Y389D01*
G37*
D02*
G36*
X93Y389D02*
X93Y387D01*
X92Y387D01*
X92Y388D01*
X93Y388D01*
X93Y389D01*
X93Y389D01*
G37*
D02*
G36*
X68Y389D02*
X68Y387D01*
X67Y387D01*
X67Y388D01*
X67Y388D01*
X67Y389D01*
X68Y389D01*
G37*
D02*
G36*
X64Y389D02*
X64Y387D01*
X63Y387D01*
X63Y388D01*
X64Y388D01*
X64Y389D01*
X64Y389D01*
G37*
D02*
G36*
X60Y389D02*
X60Y387D01*
X59Y387D01*
X59Y388D01*
X60Y388D01*
X60Y389D01*
X60Y389D01*
G37*
D02*
G36*
X57Y389D02*
X57Y387D01*
X56Y387D01*
X56Y388D01*
X56Y388D01*
X56Y389D01*
X57Y389D01*
G37*
D02*
G36*
X53Y389D02*
X53Y387D01*
X52Y387D01*
X52Y388D01*
X53Y388D01*
X53Y389D01*
X53Y389D01*
G37*
D02*
G36*
X49Y389D02*
X49Y387D01*
X49Y387D01*
X49Y388D01*
X49Y388D01*
X49Y389D01*
X49Y389D01*
G37*
D02*
G36*
X144Y388D02*
X144Y387D01*
X143Y387D01*
X143Y388D01*
X144Y388D01*
G37*
D02*
G36*
X144Y384D02*
X144Y383D01*
X143Y383D01*
X143Y383D01*
X143Y383D01*
X143Y384D01*
X144Y384D01*
G37*
D02*
G36*
X140Y384D02*
X140Y383D01*
X140Y383D01*
X140Y383D01*
X139Y383D01*
X139Y384D01*
X140Y384D01*
G37*
D02*
G36*
X136Y384D02*
X136Y383D01*
X136Y383D01*
X136Y383D01*
X136Y383D01*
X136Y384D01*
X136Y384D01*
G37*
D02*
G36*
X133Y384D02*
X133Y383D01*
X132Y383D01*
X132Y383D01*
X132Y383D01*
X132Y384D01*
X133Y384D01*
G37*
D02*
G36*
X129Y384D02*
X129Y383D01*
X129Y383D01*
X129Y383D01*
X128Y383D01*
X128Y384D01*
X129Y384D01*
G37*
D02*
G36*
X126Y384D02*
X126Y383D01*
X125Y383D01*
X125Y383D01*
X125Y383D01*
X125Y384D01*
X126Y384D01*
G37*
D02*
G36*
X122Y384D02*
X122Y383D01*
X122Y383D01*
X122Y383D01*
X121Y383D01*
X121Y384D01*
X122Y384D01*
G37*
D02*
G36*
X118Y384D02*
X118Y383D01*
X118Y383D01*
X118Y383D01*
X117Y383D01*
X117Y384D01*
X118Y384D01*
G37*
D02*
G36*
X97Y384D02*
X97Y383D01*
X96Y383D01*
X96Y383D01*
X96Y383D01*
X96Y384D01*
X97Y384D01*
G37*
D02*
G36*
X89Y384D02*
X89Y383D01*
X89Y383D01*
X89Y383D01*
X88Y383D01*
X88Y384D01*
X89Y384D01*
G37*
D02*
G36*
X71Y384D02*
X71Y383D01*
X71Y383D01*
X71Y383D01*
X70Y383D01*
X70Y384D01*
X71Y384D01*
G37*
D02*
G36*
X68Y384D02*
X68Y383D01*
X67Y383D01*
X67Y383D01*
X67Y383D01*
X67Y384D01*
X68Y384D01*
G37*
D02*
G36*
X64Y384D02*
X64Y383D01*
X64Y383D01*
X64Y383D01*
X63Y383D01*
X63Y384D01*
X64Y384D01*
G37*
D02*
G36*
X60Y384D02*
X60Y383D01*
X60Y383D01*
X60Y383D01*
X59Y383D01*
X59Y384D01*
X60Y384D01*
G37*
D02*
G36*
X57Y384D02*
X57Y383D01*
X56Y383D01*
X56Y383D01*
X56Y383D01*
X56Y384D01*
X57Y384D01*
G37*
D02*
G36*
X53Y384D02*
X53Y383D01*
X53Y383D01*
X53Y383D01*
X52Y383D01*
X52Y384D01*
X53Y384D01*
G37*
D02*
G36*
X49Y384D02*
X49Y383D01*
X49Y383D01*
X49Y383D01*
X49Y383D01*
X49Y384D01*
X49Y384D01*
G37*
D02*
G36*
X46Y384D02*
X46Y383D01*
X45Y383D01*
X45Y383D01*
X45Y383D01*
X45Y384D01*
X46Y384D01*
G37*
D02*
G36*
X147Y383D02*
X147Y381D01*
X146Y381D01*
X146Y383D01*
X147Y383D01*
G37*
D02*
G36*
X115Y383D02*
X115Y381D01*
X114Y381D01*
X114Y383D01*
X115Y383D01*
G37*
D02*
G36*
X86Y383D02*
X86Y381D01*
X85Y381D01*
X85Y383D01*
X86Y383D01*
G37*
D02*
G36*
X75Y383D02*
X75Y381D01*
X74Y381D01*
X74Y383D01*
X75Y383D01*
G37*
D02*
G36*
X42Y383D02*
X42Y381D01*
X41Y381D01*
X41Y383D01*
X42Y383D01*
G37*
D02*
G36*
X144Y382D02*
X144Y381D01*
X143Y381D01*
X143Y382D01*
X143Y382D01*
X143Y382D01*
X144Y382D01*
G37*
D02*
G36*
X140Y382D02*
X140Y381D01*
X139Y381D01*
X139Y382D01*
X140Y382D01*
X140Y382D01*
X140Y382D01*
G37*
D02*
G36*
X136Y382D02*
X136Y381D01*
X136Y381D01*
X136Y382D01*
X136Y382D01*
X136Y382D01*
X136Y382D01*
G37*
D02*
G36*
X133Y382D02*
X133Y381D01*
X132Y381D01*
X132Y382D01*
X132Y382D01*
X132Y382D01*
X133Y382D01*
G37*
D02*
G36*
X129Y382D02*
X129Y381D01*
X128Y381D01*
X128Y382D01*
X129Y382D01*
X129Y382D01*
X129Y382D01*
G37*
D02*
G36*
X126Y382D02*
X126Y381D01*
X125Y381D01*
X125Y382D01*
X125Y382D01*
X125Y382D01*
X126Y382D01*
G37*
D02*
G36*
X122Y382D02*
X122Y381D01*
X121Y381D01*
X121Y382D01*
X122Y382D01*
X122Y382D01*
X122Y382D01*
G37*
D02*
G36*
X118Y382D02*
X118Y381D01*
X117Y381D01*
X117Y382D01*
X118Y382D01*
X118Y382D01*
X118Y382D01*
G37*
D02*
G36*
X97Y382D02*
X97Y381D01*
X96Y381D01*
X96Y382D01*
X96Y382D01*
X96Y382D01*
X97Y382D01*
G37*
D02*
G36*
X89Y382D02*
X89Y381D01*
X88Y381D01*
X88Y382D01*
X89Y382D01*
X89Y382D01*
X89Y382D01*
G37*
D02*
G36*
X71Y382D02*
X71Y381D01*
X70Y381D01*
X70Y382D01*
X71Y382D01*
X71Y382D01*
X71Y382D01*
G37*
D02*
G36*
X68Y382D02*
X68Y381D01*
X67Y381D01*
X67Y382D01*
X67Y382D01*
X67Y382D01*
X68Y382D01*
G37*
D02*
G36*
X64Y382D02*
X64Y381D01*
X63Y381D01*
X63Y382D01*
X64Y382D01*
X64Y382D01*
X64Y382D01*
G37*
D02*
G36*
X60Y382D02*
X60Y381D01*
X59Y381D01*
X59Y382D01*
X60Y382D01*
X60Y382D01*
X60Y382D01*
G37*
D02*
G36*
X57Y382D02*
X57Y381D01*
X56Y381D01*
X56Y382D01*
X56Y382D01*
X56Y382D01*
X57Y382D01*
G37*
D02*
G36*
X53Y382D02*
X53Y381D01*
X52Y381D01*
X52Y382D01*
X53Y382D01*
X53Y382D01*
X53Y382D01*
G37*
D02*
G36*
X49Y382D02*
X49Y381D01*
X49Y381D01*
X49Y382D01*
X49Y382D01*
X49Y382D01*
X49Y382D01*
G37*
D02*
G36*
X46Y382D02*
X46Y381D01*
X45Y381D01*
X45Y382D01*
X45Y382D01*
X45Y382D01*
X46Y382D01*
G37*
D02*
G36*
X100Y382D02*
X100Y381D01*
X99Y381D01*
X99Y382D01*
X100Y382D01*
G37*
D02*
G36*
X147Y377D02*
X147Y376D01*
X147Y376D01*
X147Y376D01*
X146Y376D01*
X146Y377D01*
X147Y377D01*
G37*
D02*
G36*
X144Y377D02*
X144Y376D01*
X143Y376D01*
X143Y376D01*
X143Y376D01*
X143Y377D01*
X144Y377D01*
G37*
D02*
G36*
X140Y377D02*
X140Y376D01*
X140Y376D01*
X140Y376D01*
X139Y376D01*
X139Y377D01*
X140Y377D01*
G37*
D02*
G36*
X136Y377D02*
X136Y376D01*
X136Y376D01*
X136Y376D01*
X136Y376D01*
X136Y377D01*
X136Y377D01*
G37*
D02*
G36*
X133Y377D02*
X133Y376D01*
X132Y376D01*
X132Y376D01*
X132Y376D01*
X132Y377D01*
X133Y377D01*
G37*
D02*
G36*
X129Y377D02*
X129Y376D01*
X129Y376D01*
X129Y376D01*
X128Y376D01*
X128Y377D01*
X129Y377D01*
G37*
D02*
G36*
X126Y377D02*
X126Y376D01*
X125Y376D01*
X125Y376D01*
X125Y376D01*
X125Y377D01*
X126Y377D01*
G37*
D02*
G36*
X122Y377D02*
X122Y376D01*
X122Y376D01*
X122Y376D01*
X121Y376D01*
X121Y377D01*
X122Y377D01*
G37*
D02*
G36*
X118Y377D02*
X118Y376D01*
X118Y376D01*
X118Y376D01*
X117Y376D01*
X117Y377D01*
X118Y377D01*
G37*
D02*
G36*
X115Y377D02*
X115Y376D01*
X114Y376D01*
X114Y376D01*
X114Y376D01*
X114Y377D01*
X115Y377D01*
G37*
D02*
G36*
X100Y377D02*
X100Y376D01*
X100Y376D01*
X100Y376D01*
X99Y376D01*
X99Y377D01*
X100Y377D01*
G37*
D02*
G36*
X97Y377D02*
X97Y376D01*
X96Y376D01*
X96Y376D01*
X96Y376D01*
X96Y377D01*
X97Y377D01*
G37*
D02*
G36*
X93Y377D02*
X93Y376D01*
X93Y376D01*
X93Y376D01*
X92Y376D01*
X92Y377D01*
X93Y377D01*
G37*
D02*
G36*
X89Y377D02*
X89Y376D01*
X89Y376D01*
X89Y376D01*
X88Y376D01*
X88Y377D01*
X89Y377D01*
G37*
D02*
G36*
X75Y377D02*
X75Y376D01*
X74Y376D01*
X74Y376D01*
X74Y376D01*
X74Y377D01*
X75Y377D01*
G37*
D02*
G36*
X71Y377D02*
X71Y376D01*
X71Y376D01*
X71Y376D01*
X70Y376D01*
X70Y377D01*
X71Y377D01*
G37*
D02*
G36*
X68Y377D02*
X68Y376D01*
X67Y376D01*
X67Y376D01*
X67Y376D01*
X67Y377D01*
X68Y377D01*
G37*
D02*
G36*
X64Y377D02*
X64Y376D01*
X64Y376D01*
X64Y376D01*
X63Y376D01*
X63Y377D01*
X64Y377D01*
G37*
D02*
G36*
X60Y377D02*
X60Y376D01*
X60Y376D01*
X60Y376D01*
X59Y376D01*
X59Y377D01*
X60Y377D01*
G37*
D02*
G36*
X57Y377D02*
X57Y376D01*
X56Y376D01*
X56Y376D01*
X56Y376D01*
X56Y377D01*
X57Y377D01*
G37*
D02*
G36*
X53Y377D02*
X53Y376D01*
X53Y376D01*
X53Y376D01*
X52Y376D01*
X52Y377D01*
X53Y377D01*
G37*
D02*
G36*
X49Y377D02*
X49Y376D01*
X49Y376D01*
X49Y376D01*
X49Y376D01*
X49Y377D01*
X49Y377D01*
G37*
D02*
G36*
X46Y377D02*
X46Y376D01*
X45Y376D01*
X45Y376D01*
X45Y376D01*
X45Y377D01*
X46Y377D01*
G37*
D02*
G36*
X42Y377D02*
X42Y376D01*
X42Y376D01*
X42Y376D01*
X41Y376D01*
X41Y377D01*
X42Y377D01*
G37*
D02*
G36*
X111Y376D02*
X111Y374D01*
X110Y374D01*
X110Y376D01*
X111Y376D01*
G37*
D02*
G36*
X78Y376D02*
X78Y374D01*
X78Y374D01*
X78Y376D01*
X78Y376D01*
G37*
D02*
G36*
X147Y375D02*
X147Y374D01*
X146Y374D01*
X146Y375D01*
X147Y375D01*
X147Y375D01*
X147Y375D01*
G37*
D02*
G36*
X144Y375D02*
X144Y374D01*
X143Y374D01*
X143Y375D01*
X143Y375D01*
X143Y375D01*
X144Y375D01*
G37*
D02*
G36*
X140Y375D02*
X140Y374D01*
X139Y374D01*
X139Y375D01*
X140Y375D01*
X140Y375D01*
X140Y375D01*
G37*
D02*
G36*
X136Y375D02*
X136Y374D01*
X136Y374D01*
X136Y375D01*
X136Y375D01*
X136Y375D01*
X136Y375D01*
G37*
D02*
G36*
X133Y375D02*
X133Y374D01*
X132Y374D01*
X132Y375D01*
X132Y375D01*
X132Y375D01*
X133Y375D01*
G37*
D02*
G36*
X129Y375D02*
X129Y374D01*
X128Y374D01*
X128Y375D01*
X129Y375D01*
X129Y375D01*
X129Y375D01*
G37*
D02*
G36*
X126Y375D02*
X126Y374D01*
X125Y374D01*
X125Y375D01*
X125Y375D01*
X125Y375D01*
X126Y375D01*
G37*
D02*
G36*
X122Y375D02*
X122Y374D01*
X121Y374D01*
X121Y375D01*
X122Y375D01*
X122Y375D01*
X122Y375D01*
G37*
D02*
G36*
X118Y375D02*
X118Y374D01*
X117Y374D01*
X117Y375D01*
X118Y375D01*
X118Y375D01*
X118Y375D01*
G37*
D02*
G36*
X115Y375D02*
X115Y374D01*
X114Y374D01*
X114Y375D01*
X114Y375D01*
X114Y375D01*
X115Y375D01*
G37*
D02*
G36*
X100Y375D02*
X100Y374D01*
X99Y374D01*
X99Y375D01*
X100Y375D01*
X100Y375D01*
X100Y375D01*
G37*
D02*
G36*
X97Y375D02*
X97Y374D01*
X96Y374D01*
X96Y375D01*
X96Y375D01*
X96Y375D01*
X97Y375D01*
G37*
D02*
G36*
X93Y375D02*
X93Y374D01*
X92Y374D01*
X92Y375D01*
X93Y375D01*
X93Y375D01*
X93Y375D01*
G37*
D02*
G36*
X89Y375D02*
X89Y374D01*
X88Y374D01*
X88Y375D01*
X89Y375D01*
X89Y375D01*
X89Y375D01*
G37*
D02*
G36*
X75Y375D02*
X75Y374D01*
X74Y374D01*
X74Y375D01*
X74Y375D01*
X74Y375D01*
X75Y375D01*
G37*
D02*
G36*
X71Y375D02*
X71Y374D01*
X70Y374D01*
X70Y375D01*
X71Y375D01*
X71Y375D01*
X71Y375D01*
G37*
D02*
G36*
X68Y375D02*
X68Y374D01*
X67Y374D01*
X67Y375D01*
X67Y375D01*
X67Y375D01*
X68Y375D01*
G37*
D02*
G36*
X64Y375D02*
X64Y374D01*
X63Y374D01*
X63Y375D01*
X64Y375D01*
X64Y375D01*
X64Y375D01*
G37*
D02*
G36*
X60Y375D02*
X60Y374D01*
X59Y374D01*
X59Y375D01*
X60Y375D01*
X60Y375D01*
X60Y375D01*
G37*
D02*
G36*
X57Y375D02*
X57Y374D01*
X56Y374D01*
X56Y375D01*
X56Y375D01*
X56Y375D01*
X57Y375D01*
G37*
D02*
G36*
X53Y375D02*
X53Y374D01*
X52Y374D01*
X52Y375D01*
X53Y375D01*
X53Y375D01*
X53Y375D01*
G37*
D02*
G36*
X49Y375D02*
X49Y374D01*
X49Y374D01*
X49Y375D01*
X49Y375D01*
X49Y375D01*
X49Y375D01*
G37*
D02*
G36*
X46Y375D02*
X46Y374D01*
X45Y374D01*
X45Y375D01*
X45Y375D01*
X45Y375D01*
X46Y375D01*
G37*
D02*
G36*
X42Y375D02*
X42Y374D01*
X41Y374D01*
X41Y375D01*
X42Y375D01*
X42Y375D01*
X42Y375D01*
G37*
D02*
G36*
X104Y375D02*
X104Y374D01*
X103Y374D01*
X103Y375D01*
X104Y375D01*
G37*
D02*
G36*
X147Y370D02*
X147Y369D01*
X147Y369D01*
X147Y369D01*
X146Y369D01*
X146Y370D01*
X147Y370D01*
G37*
D02*
G36*
X144Y370D02*
X144Y369D01*
X143Y369D01*
X143Y369D01*
X143Y369D01*
X143Y370D01*
X144Y370D01*
G37*
D02*
G36*
X140Y370D02*
X140Y369D01*
X140Y369D01*
X140Y369D01*
X139Y369D01*
X139Y370D01*
X140Y370D01*
G37*
D02*
G36*
X136Y370D02*
X136Y369D01*
X136Y369D01*
X136Y369D01*
X136Y369D01*
X136Y370D01*
X136Y370D01*
G37*
D02*
G36*
X133Y370D02*
X133Y369D01*
X132Y369D01*
X132Y369D01*
X132Y369D01*
X132Y370D01*
X133Y370D01*
G37*
D02*
G36*
X129Y370D02*
X129Y369D01*
X129Y369D01*
X129Y369D01*
X128Y369D01*
X128Y370D01*
X129Y370D01*
G37*
D02*
G36*
X126Y370D02*
X126Y369D01*
X125Y369D01*
X125Y369D01*
X125Y369D01*
X125Y370D01*
X126Y370D01*
G37*
D02*
G36*
X122Y370D02*
X122Y369D01*
X122Y369D01*
X122Y369D01*
X121Y369D01*
X121Y370D01*
X122Y370D01*
G37*
D02*
G36*
X118Y370D02*
X118Y369D01*
X118Y369D01*
X118Y369D01*
X117Y369D01*
X117Y370D01*
X118Y370D01*
G37*
D02*
G36*
X115Y370D02*
X115Y369D01*
X114Y369D01*
X114Y369D01*
X114Y369D01*
X114Y370D01*
X115Y370D01*
G37*
D02*
G36*
X111Y370D02*
X111Y369D01*
X111Y369D01*
X111Y369D01*
X110Y369D01*
X110Y370D01*
X111Y370D01*
G37*
D02*
G36*
X104Y370D02*
X104Y369D01*
X103Y369D01*
X103Y369D01*
X103Y369D01*
X103Y370D01*
X104Y370D01*
G37*
D02*
G36*
X100Y370D02*
X100Y369D01*
X100Y369D01*
X100Y369D01*
X99Y369D01*
X99Y370D01*
X100Y370D01*
G37*
D02*
G36*
X97Y370D02*
X97Y369D01*
X96Y369D01*
X96Y369D01*
X96Y369D01*
X96Y370D01*
X97Y370D01*
G37*
D02*
G36*
X93Y370D02*
X93Y369D01*
X93Y369D01*
X93Y369D01*
X92Y369D01*
X92Y370D01*
X93Y370D01*
G37*
D02*
G36*
X89Y370D02*
X89Y369D01*
X89Y369D01*
X89Y369D01*
X88Y369D01*
X88Y370D01*
X89Y370D01*
G37*
D02*
G36*
X75Y370D02*
X75Y369D01*
X74Y369D01*
X74Y369D01*
X74Y369D01*
X74Y370D01*
X75Y370D01*
G37*
D02*
G36*
X71Y370D02*
X71Y369D01*
X71Y369D01*
X71Y369D01*
X70Y369D01*
X70Y370D01*
X71Y370D01*
G37*
D02*
G36*
X68Y370D02*
X68Y369D01*
X67Y369D01*
X67Y369D01*
X67Y369D01*
X67Y370D01*
X68Y370D01*
G37*
D02*
G36*
X64Y370D02*
X64Y369D01*
X64Y369D01*
X64Y369D01*
X63Y369D01*
X63Y370D01*
X64Y370D01*
G37*
D02*
G36*
X60Y370D02*
X60Y369D01*
X60Y369D01*
X60Y369D01*
X59Y369D01*
X59Y370D01*
X60Y370D01*
G37*
D02*
G36*
X57Y370D02*
X57Y369D01*
X56Y369D01*
X56Y369D01*
X56Y369D01*
X56Y370D01*
X57Y370D01*
G37*
D02*
G36*
X53Y370D02*
X53Y369D01*
X53Y369D01*
X53Y369D01*
X52Y369D01*
X52Y370D01*
X53Y370D01*
G37*
D02*
G36*
X49Y370D02*
X49Y369D01*
X49Y369D01*
X49Y369D01*
X49Y369D01*
X49Y370D01*
X49Y370D01*
G37*
D02*
G36*
X46Y370D02*
X46Y369D01*
X45Y369D01*
X45Y369D01*
X45Y369D01*
X45Y370D01*
X46Y370D01*
G37*
D02*
G36*
X42Y370D02*
X42Y369D01*
X42Y369D01*
X42Y369D01*
X41Y369D01*
X41Y370D01*
X42Y370D01*
G37*
D02*
G36*
X147Y368D02*
X147Y367D01*
X146Y367D01*
X146Y368D01*
X147Y368D01*
X147Y368D01*
X147Y368D01*
G37*
D02*
G36*
X144Y368D02*
X144Y367D01*
X143Y367D01*
X143Y368D01*
X143Y368D01*
X143Y368D01*
X144Y368D01*
G37*
D02*
G36*
X140Y368D02*
X140Y367D01*
X139Y367D01*
X139Y368D01*
X140Y368D01*
X140Y368D01*
X140Y368D01*
G37*
D02*
G36*
X136Y368D02*
X136Y367D01*
X136Y367D01*
X136Y368D01*
X136Y368D01*
X136Y368D01*
X136Y368D01*
G37*
D02*
G36*
X133Y368D02*
X133Y367D01*
X132Y367D01*
X132Y368D01*
X132Y368D01*
X132Y368D01*
X133Y368D01*
G37*
D02*
G36*
X129Y368D02*
X129Y367D01*
X128Y367D01*
X128Y368D01*
X129Y368D01*
X129Y368D01*
X129Y368D01*
G37*
D02*
G36*
X126Y368D02*
X126Y367D01*
X125Y367D01*
X125Y368D01*
X125Y368D01*
X125Y368D01*
X126Y368D01*
G37*
D02*
G36*
X122Y368D02*
X122Y367D01*
X121Y367D01*
X121Y368D01*
X122Y368D01*
X122Y368D01*
X122Y368D01*
G37*
D02*
G36*
X118Y368D02*
X118Y367D01*
X117Y367D01*
X117Y368D01*
X118Y368D01*
X118Y368D01*
X118Y368D01*
G37*
D02*
G36*
X115Y368D02*
X115Y367D01*
X114Y367D01*
X114Y368D01*
X114Y368D01*
X114Y368D01*
X115Y368D01*
G37*
D02*
G36*
X111Y368D02*
X111Y367D01*
X110Y367D01*
X110Y368D01*
X111Y368D01*
X111Y368D01*
X111Y368D01*
G37*
D02*
G36*
X104Y368D02*
X104Y367D01*
X103Y367D01*
X103Y368D01*
X103Y368D01*
X103Y368D01*
X104Y368D01*
G37*
D02*
G36*
X100Y368D02*
X100Y367D01*
X99Y367D01*
X99Y368D01*
X100Y368D01*
X100Y368D01*
X100Y368D01*
G37*
D02*
G36*
X97Y368D02*
X97Y367D01*
X96Y367D01*
X96Y368D01*
X96Y368D01*
X96Y368D01*
X97Y368D01*
G37*
D02*
G36*
X93Y368D02*
X93Y367D01*
X92Y367D01*
X92Y368D01*
X93Y368D01*
X93Y368D01*
X93Y368D01*
G37*
D02*
G36*
X89Y368D02*
X89Y367D01*
X88Y367D01*
X88Y368D01*
X89Y368D01*
X89Y368D01*
X89Y368D01*
G37*
D02*
G36*
X75Y368D02*
X75Y367D01*
X74Y367D01*
X74Y368D01*
X74Y368D01*
X74Y368D01*
X75Y368D01*
G37*
D02*
G36*
X71Y368D02*
X71Y367D01*
X70Y367D01*
X70Y368D01*
X71Y368D01*
X71Y368D01*
X71Y368D01*
G37*
D02*
G36*
X68Y368D02*
X68Y367D01*
X67Y367D01*
X67Y368D01*
X67Y368D01*
X67Y368D01*
X68Y368D01*
G37*
D02*
G36*
X64Y368D02*
X64Y367D01*
X63Y367D01*
X63Y368D01*
X64Y368D01*
X64Y368D01*
X64Y368D01*
G37*
D02*
G36*
X60Y368D02*
X60Y367D01*
X59Y367D01*
X59Y368D01*
X60Y368D01*
X60Y368D01*
X60Y368D01*
G37*
D02*
G36*
X57Y368D02*
X57Y367D01*
X56Y367D01*
X56Y368D01*
X56Y368D01*
X56Y368D01*
X57Y368D01*
G37*
D02*
G36*
X53Y368D02*
X53Y367D01*
X52Y367D01*
X52Y368D01*
X53Y368D01*
X53Y368D01*
X53Y368D01*
G37*
D02*
G36*
X49Y368D02*
X49Y367D01*
X49Y367D01*
X49Y368D01*
X49Y368D01*
X49Y368D01*
X49Y368D01*
G37*
D02*
G36*
X46Y368D02*
X46Y367D01*
X45Y367D01*
X45Y368D01*
X45Y368D01*
X45Y368D01*
X46Y368D01*
G37*
D02*
G36*
X42Y368D02*
X42Y367D01*
X41Y367D01*
X41Y368D01*
X42Y368D01*
X42Y368D01*
X42Y368D01*
G37*
D02*
G36*
X86Y368D02*
X86Y367D01*
X85Y367D01*
X85Y368D01*
X86Y368D01*
G37*
D02*
G36*
X147Y363D02*
X147Y363D01*
X147Y363D01*
X147Y362D01*
X146Y362D01*
X146Y363D01*
X147Y363D01*
G37*
D02*
G36*
X144Y363D02*
X144Y363D01*
X143Y363D01*
X143Y362D01*
X143Y362D01*
X143Y363D01*
X144Y363D01*
G37*
D02*
G36*
X140Y363D02*
X140Y363D01*
X140Y363D01*
X140Y362D01*
X139Y362D01*
X139Y363D01*
X140Y363D01*
G37*
D02*
G36*
X136Y363D02*
X136Y363D01*
X136Y363D01*
X136Y362D01*
X136Y362D01*
X136Y363D01*
X136Y363D01*
G37*
D02*
G36*
X133Y363D02*
X133Y363D01*
X132Y363D01*
X132Y362D01*
X132Y362D01*
X132Y363D01*
X133Y363D01*
G37*
D02*
G36*
X129Y363D02*
X129Y363D01*
X129Y363D01*
X129Y362D01*
X128Y362D01*
X128Y363D01*
X129Y363D01*
G37*
D02*
G36*
X126Y363D02*
X126Y363D01*
X125Y363D01*
X125Y362D01*
X125Y362D01*
X125Y363D01*
X126Y363D01*
G37*
D02*
G36*
X122Y363D02*
X122Y363D01*
X122Y363D01*
X122Y362D01*
X121Y362D01*
X121Y363D01*
X122Y363D01*
G37*
D02*
G36*
X118Y363D02*
X118Y363D01*
X118Y363D01*
X118Y362D01*
X117Y362D01*
X117Y363D01*
X118Y363D01*
G37*
D02*
G36*
X115Y363D02*
X115Y363D01*
X114Y363D01*
X114Y362D01*
X114Y362D01*
X114Y363D01*
X115Y363D01*
G37*
D02*
G36*
X111Y363D02*
X111Y363D01*
X111Y363D01*
X111Y362D01*
X110Y362D01*
X110Y363D01*
X111Y363D01*
G37*
D02*
G36*
X107Y363D02*
X107Y363D01*
X107Y363D01*
X107Y362D01*
X107Y362D01*
X107Y363D01*
X107Y363D01*
G37*
D02*
G36*
X104Y363D02*
X104Y363D01*
X103Y363D01*
X103Y362D01*
X103Y362D01*
X103Y363D01*
X104Y363D01*
G37*
D02*
G36*
X100Y363D02*
X100Y363D01*
X100Y363D01*
X100Y362D01*
X99Y362D01*
X99Y363D01*
X100Y363D01*
G37*
D02*
G36*
X97Y363D02*
X97Y363D01*
X96Y363D01*
X96Y362D01*
X96Y362D01*
X96Y363D01*
X97Y363D01*
G37*
D02*
G36*
X93Y363D02*
X93Y363D01*
X93Y363D01*
X93Y362D01*
X92Y362D01*
X92Y363D01*
X93Y363D01*
G37*
D02*
G36*
X89Y363D02*
X89Y363D01*
X89Y363D01*
X89Y362D01*
X88Y362D01*
X88Y363D01*
X89Y363D01*
G37*
D02*
G36*
X86Y363D02*
X86Y363D01*
X85Y363D01*
X85Y362D01*
X85Y362D01*
X85Y363D01*
X86Y363D01*
G37*
D02*
G36*
X82Y363D02*
X82Y363D01*
X82Y363D01*
X82Y362D01*
X81Y362D01*
X81Y363D01*
X82Y363D01*
G37*
D02*
G36*
X78Y363D02*
X78Y363D01*
X78Y363D01*
X78Y362D01*
X78Y362D01*
X78Y363D01*
X78Y363D01*
G37*
D02*
G36*
X75Y363D02*
X75Y363D01*
X74Y363D01*
X74Y362D01*
X74Y362D01*
X74Y363D01*
X75Y363D01*
G37*
D02*
G36*
X71Y363D02*
X71Y363D01*
X71Y363D01*
X71Y362D01*
X70Y362D01*
X70Y363D01*
X71Y363D01*
G37*
D02*
G36*
X68Y363D02*
X68Y363D01*
X67Y363D01*
X67Y362D01*
X67Y362D01*
X67Y363D01*
X68Y363D01*
G37*
D02*
G36*
X64Y363D02*
X64Y363D01*
X64Y363D01*
X64Y362D01*
X63Y362D01*
X63Y363D01*
X64Y363D01*
G37*
D02*
G36*
X60Y363D02*
X60Y363D01*
X60Y363D01*
X60Y362D01*
X59Y362D01*
X59Y363D01*
X60Y363D01*
G37*
D02*
G36*
X57Y363D02*
X57Y363D01*
X56Y363D01*
X56Y362D01*
X56Y362D01*
X56Y363D01*
X57Y363D01*
G37*
D02*
G36*
X53Y363D02*
X53Y363D01*
X53Y363D01*
X53Y362D01*
X52Y362D01*
X52Y363D01*
X53Y363D01*
G37*
D02*
G36*
X49Y363D02*
X49Y363D01*
X49Y363D01*
X49Y362D01*
X49Y362D01*
X49Y363D01*
X49Y363D01*
G37*
D02*
G36*
X46Y363D02*
X46Y363D01*
X45Y363D01*
X45Y362D01*
X45Y362D01*
X45Y363D01*
X46Y363D01*
G37*
D02*
G36*
X42Y363D02*
X42Y363D01*
X42Y363D01*
X42Y362D01*
X41Y362D01*
X41Y363D01*
X42Y363D01*
G37*
D02*
G36*
X147Y362D02*
X147Y360D01*
X146Y360D01*
X146Y361D01*
X147Y361D01*
X147Y362D01*
X147Y362D01*
G37*
D02*
G36*
X144Y362D02*
X144Y360D01*
X143Y360D01*
X143Y361D01*
X143Y361D01*
X143Y362D01*
X144Y362D01*
G37*
D02*
G36*
X140Y362D02*
X140Y360D01*
X139Y360D01*
X139Y361D01*
X140Y361D01*
X140Y362D01*
X140Y362D01*
G37*
D02*
G36*
X136Y362D02*
X136Y360D01*
X136Y360D01*
X136Y361D01*
X136Y361D01*
X136Y362D01*
X136Y362D01*
G37*
D02*
G36*
X133Y362D02*
X133Y360D01*
X132Y360D01*
X132Y361D01*
X132Y361D01*
X132Y362D01*
X133Y362D01*
G37*
D02*
G36*
X129Y362D02*
X129Y360D01*
X128Y360D01*
X128Y361D01*
X129Y361D01*
X129Y362D01*
X129Y362D01*
G37*
D02*
G36*
X126Y362D02*
X126Y360D01*
X125Y360D01*
X125Y361D01*
X125Y361D01*
X125Y362D01*
X126Y362D01*
G37*
D02*
G36*
X122Y362D02*
X122Y360D01*
X121Y360D01*
X121Y361D01*
X122Y361D01*
X122Y362D01*
X122Y362D01*
G37*
D02*
G36*
X118Y362D02*
X118Y360D01*
X117Y360D01*
X117Y361D01*
X118Y361D01*
X118Y362D01*
X118Y362D01*
G37*
D02*
G36*
X115Y362D02*
X115Y360D01*
X114Y360D01*
X114Y361D01*
X114Y361D01*
X114Y362D01*
X115Y362D01*
G37*
D02*
G36*
X111Y362D02*
X111Y360D01*
X110Y360D01*
X110Y361D01*
X111Y361D01*
X111Y362D01*
X111Y362D01*
G37*
D02*
G36*
X107Y362D02*
X107Y360D01*
X107Y360D01*
X107Y361D01*
X107Y361D01*
X107Y362D01*
X107Y362D01*
G37*
D02*
G36*
X104Y362D02*
X104Y360D01*
X103Y360D01*
X103Y361D01*
X103Y361D01*
X103Y362D01*
X104Y362D01*
G37*
D02*
G36*
X100Y362D02*
X100Y360D01*
X99Y360D01*
X99Y361D01*
X100Y361D01*
X100Y362D01*
X100Y362D01*
G37*
D02*
G36*
X97Y362D02*
X97Y360D01*
X96Y360D01*
X96Y361D01*
X96Y361D01*
X96Y362D01*
X97Y362D01*
G37*
D02*
G36*
X93Y362D02*
X93Y360D01*
X92Y360D01*
X92Y361D01*
X93Y361D01*
X93Y362D01*
X93Y362D01*
G37*
D02*
G36*
X89Y362D02*
X89Y360D01*
X88Y360D01*
X88Y361D01*
X89Y361D01*
X89Y362D01*
X89Y362D01*
G37*
D02*
G36*
X86Y362D02*
X86Y360D01*
X85Y360D01*
X85Y361D01*
X85Y361D01*
X85Y362D01*
X86Y362D01*
G37*
D02*
G36*
X82Y362D02*
X82Y360D01*
X81Y360D01*
X81Y361D01*
X82Y361D01*
X82Y362D01*
X82Y362D01*
G37*
D02*
G36*
X78Y362D02*
X78Y360D01*
X78Y360D01*
X78Y361D01*
X78Y361D01*
X78Y362D01*
X78Y362D01*
G37*
D02*
G36*
X75Y362D02*
X75Y360D01*
X74Y360D01*
X74Y361D01*
X74Y361D01*
X74Y362D01*
X75Y362D01*
G37*
D02*
G36*
X71Y362D02*
X71Y360D01*
X70Y360D01*
X70Y361D01*
X71Y361D01*
X71Y362D01*
X71Y362D01*
G37*
D02*
G36*
X68Y362D02*
X68Y360D01*
X67Y360D01*
X67Y361D01*
X67Y361D01*
X67Y362D01*
X68Y362D01*
G37*
D02*
G36*
X64Y362D02*
X64Y360D01*
X63Y360D01*
X63Y361D01*
X64Y361D01*
X64Y362D01*
X64Y362D01*
G37*
D02*
G36*
X60Y362D02*
X60Y360D01*
X59Y360D01*
X59Y361D01*
X60Y361D01*
X60Y362D01*
X60Y362D01*
G37*
D02*
G36*
X57Y362D02*
X57Y360D01*
X56Y360D01*
X56Y361D01*
X56Y361D01*
X56Y362D01*
X57Y362D01*
G37*
D02*
G36*
X53Y362D02*
X53Y360D01*
X52Y360D01*
X52Y361D01*
X53Y361D01*
X53Y362D01*
X53Y362D01*
G37*
D02*
G36*
X49Y362D02*
X49Y360D01*
X49Y360D01*
X49Y361D01*
X49Y361D01*
X49Y362D01*
X49Y362D01*
G37*
D02*
G36*
X46Y362D02*
X46Y360D01*
X45Y360D01*
X45Y361D01*
X45Y361D01*
X45Y362D01*
X46Y362D01*
G37*
D02*
G36*
X42Y362D02*
X42Y360D01*
X41Y360D01*
X41Y361D01*
X42Y361D01*
X42Y362D01*
X42Y362D01*
G37*
D02*
G36*
X147Y357D02*
X147Y356D01*
X147Y356D01*
X147Y355D01*
X146Y355D01*
X146Y357D01*
X147Y357D01*
G37*
D02*
G36*
X144Y357D02*
X144Y356D01*
X143Y356D01*
X143Y355D01*
X143Y355D01*
X143Y357D01*
X144Y357D01*
G37*
D02*
G36*
X140Y357D02*
X140Y356D01*
X140Y356D01*
X140Y355D01*
X139Y355D01*
X139Y357D01*
X140Y357D01*
G37*
D02*
G36*
X136Y357D02*
X136Y356D01*
X136Y356D01*
X136Y355D01*
X136Y355D01*
X136Y357D01*
X136Y357D01*
G37*
D02*
G36*
X133Y357D02*
X133Y356D01*
X132Y356D01*
X132Y355D01*
X132Y355D01*
X132Y357D01*
X133Y357D01*
G37*
D02*
G36*
X129Y357D02*
X129Y356D01*
X129Y356D01*
X129Y355D01*
X128Y355D01*
X128Y357D01*
X129Y357D01*
G37*
D02*
G36*
X126Y357D02*
X126Y356D01*
X125Y356D01*
X125Y355D01*
X125Y355D01*
X125Y357D01*
X126Y357D01*
G37*
D02*
G36*
X122Y357D02*
X122Y356D01*
X122Y356D01*
X122Y355D01*
X121Y355D01*
X121Y357D01*
X122Y357D01*
G37*
D02*
G36*
X118Y357D02*
X118Y356D01*
X118Y356D01*
X118Y355D01*
X117Y355D01*
X117Y357D01*
X118Y357D01*
G37*
D02*
G36*
X115Y357D02*
X115Y356D01*
X114Y356D01*
X114Y355D01*
X114Y355D01*
X114Y357D01*
X115Y357D01*
G37*
D02*
G36*
X111Y357D02*
X111Y356D01*
X111Y356D01*
X111Y355D01*
X110Y355D01*
X110Y357D01*
X111Y357D01*
G37*
D02*
G36*
X107Y357D02*
X107Y356D01*
X107Y356D01*
X107Y355D01*
X107Y355D01*
X107Y357D01*
X107Y357D01*
G37*
D02*
G36*
X104Y357D02*
X104Y356D01*
X103Y356D01*
X103Y355D01*
X103Y355D01*
X103Y357D01*
X104Y357D01*
G37*
D02*
G36*
X100Y357D02*
X100Y356D01*
X100Y356D01*
X100Y355D01*
X99Y355D01*
X99Y357D01*
X100Y357D01*
G37*
D02*
G36*
X97Y357D02*
X97Y356D01*
X96Y356D01*
X96Y355D01*
X96Y355D01*
X96Y357D01*
X97Y357D01*
G37*
D02*
G36*
X93Y357D02*
X93Y356D01*
X93Y356D01*
X93Y355D01*
X92Y355D01*
X92Y357D01*
X93Y357D01*
G37*
D02*
G36*
X89Y357D02*
X89Y356D01*
X89Y356D01*
X89Y355D01*
X88Y355D01*
X88Y357D01*
X89Y357D01*
G37*
D02*
G36*
X86Y357D02*
X86Y356D01*
X85Y356D01*
X85Y355D01*
X85Y355D01*
X85Y357D01*
X86Y357D01*
G37*
D02*
G36*
X82Y357D02*
X82Y356D01*
X82Y356D01*
X82Y355D01*
X81Y355D01*
X81Y357D01*
X82Y357D01*
G37*
D02*
G36*
X78Y357D02*
X78Y356D01*
X78Y356D01*
X78Y355D01*
X78Y355D01*
X78Y357D01*
X78Y357D01*
G37*
D02*
G36*
X75Y357D02*
X75Y356D01*
X74Y356D01*
X74Y355D01*
X74Y355D01*
X74Y357D01*
X75Y357D01*
G37*
D02*
G36*
X71Y357D02*
X71Y356D01*
X71Y356D01*
X71Y355D01*
X70Y355D01*
X70Y357D01*
X71Y357D01*
G37*
D02*
G36*
X68Y357D02*
X68Y356D01*
X67Y356D01*
X67Y355D01*
X67Y355D01*
X67Y357D01*
X68Y357D01*
G37*
D02*
G36*
X64Y357D02*
X64Y356D01*
X64Y356D01*
X64Y355D01*
X63Y355D01*
X63Y357D01*
X64Y357D01*
G37*
D02*
G36*
X60Y357D02*
X60Y356D01*
X60Y356D01*
X60Y355D01*
X59Y355D01*
X59Y357D01*
X60Y357D01*
G37*
D02*
G36*
X57Y357D02*
X57Y356D01*
X56Y356D01*
X56Y355D01*
X56Y355D01*
X56Y357D01*
X57Y357D01*
G37*
D02*
G36*
X53Y357D02*
X53Y356D01*
X53Y356D01*
X53Y355D01*
X52Y355D01*
X52Y357D01*
X53Y357D01*
G37*
D02*
G36*
X49Y357D02*
X49Y356D01*
X49Y356D01*
X49Y355D01*
X49Y355D01*
X49Y357D01*
X49Y357D01*
G37*
D02*
G36*
X46Y357D02*
X46Y356D01*
X45Y356D01*
X45Y355D01*
X45Y355D01*
X45Y357D01*
X46Y357D01*
G37*
D02*
G36*
X42Y357D02*
X42Y356D01*
X42Y356D01*
X42Y355D01*
X41Y355D01*
X41Y357D01*
X42Y357D01*
G37*
D02*
G36*
X147Y355D02*
X147Y354D01*
X146Y354D01*
X146Y354D01*
X147Y354D01*
X147Y355D01*
X147Y355D01*
G37*
D02*
G36*
X144Y355D02*
X144Y354D01*
X143Y354D01*
X143Y354D01*
X143Y354D01*
X143Y355D01*
X144Y355D01*
G37*
D02*
G36*
X140Y355D02*
X140Y354D01*
X139Y354D01*
X139Y354D01*
X140Y354D01*
X140Y355D01*
X140Y355D01*
G37*
D02*
G36*
X136Y355D02*
X136Y354D01*
X136Y354D01*
X136Y354D01*
X136Y354D01*
X136Y355D01*
X136Y355D01*
G37*
D02*
G36*
X133Y355D02*
X133Y354D01*
X132Y354D01*
X132Y354D01*
X132Y354D01*
X132Y355D01*
X133Y355D01*
G37*
D02*
G36*
X129Y355D02*
X129Y354D01*
X128Y354D01*
X128Y354D01*
X129Y354D01*
X129Y355D01*
X129Y355D01*
G37*
D02*
G36*
X126Y355D02*
X126Y354D01*
X125Y354D01*
X125Y354D01*
X125Y354D01*
X125Y355D01*
X126Y355D01*
G37*
D02*
G36*
X122Y355D02*
X122Y354D01*
X121Y354D01*
X121Y354D01*
X122Y354D01*
X122Y355D01*
X122Y355D01*
G37*
D02*
G36*
X118Y355D02*
X118Y354D01*
X117Y354D01*
X117Y354D01*
X118Y354D01*
X118Y355D01*
X118Y355D01*
G37*
D02*
G36*
X115Y355D02*
X115Y354D01*
X114Y354D01*
X114Y354D01*
X114Y354D01*
X114Y355D01*
X115Y355D01*
G37*
D02*
G36*
X111Y355D02*
X111Y354D01*
X110Y354D01*
X110Y354D01*
X111Y354D01*
X111Y355D01*
X111Y355D01*
G37*
D02*
G36*
X107Y355D02*
X107Y354D01*
X107Y354D01*
X107Y354D01*
X107Y354D01*
X107Y355D01*
X107Y355D01*
G37*
D02*
G36*
X104Y355D02*
X104Y354D01*
X103Y354D01*
X103Y354D01*
X103Y354D01*
X103Y355D01*
X104Y355D01*
G37*
D02*
G36*
X100Y355D02*
X100Y354D01*
X99Y354D01*
X99Y354D01*
X100Y354D01*
X100Y355D01*
X100Y355D01*
G37*
D02*
G36*
X97Y355D02*
X97Y354D01*
X96Y354D01*
X96Y354D01*
X96Y354D01*
X96Y355D01*
X97Y355D01*
G37*
D02*
G36*
X93Y355D02*
X93Y354D01*
X92Y354D01*
X92Y354D01*
X93Y354D01*
X93Y355D01*
X93Y355D01*
G37*
D02*
G36*
X89Y355D02*
X89Y354D01*
X88Y354D01*
X88Y354D01*
X89Y354D01*
X89Y355D01*
X89Y355D01*
G37*
D02*
G36*
X86Y355D02*
X86Y354D01*
X85Y354D01*
X85Y354D01*
X85Y354D01*
X85Y355D01*
X86Y355D01*
G37*
D02*
G36*
X82Y355D02*
X82Y354D01*
X81Y354D01*
X81Y354D01*
X82Y354D01*
X82Y355D01*
X82Y355D01*
G37*
D02*
G36*
X78Y355D02*
X78Y354D01*
X78Y354D01*
X78Y354D01*
X78Y354D01*
X78Y355D01*
X78Y355D01*
G37*
D02*
G36*
X75Y355D02*
X75Y354D01*
X74Y354D01*
X74Y354D01*
X74Y354D01*
X74Y355D01*
X75Y355D01*
G37*
D02*
G36*
X71Y355D02*
X71Y354D01*
X70Y354D01*
X70Y354D01*
X71Y354D01*
X71Y355D01*
X71Y355D01*
G37*
D02*
G36*
X68Y355D02*
X68Y354D01*
X67Y354D01*
X67Y354D01*
X67Y354D01*
X67Y355D01*
X68Y355D01*
G37*
D02*
G36*
X64Y355D02*
X64Y354D01*
X63Y354D01*
X63Y354D01*
X64Y354D01*
X64Y355D01*
X64Y355D01*
G37*
D02*
G36*
X60Y355D02*
X60Y354D01*
X59Y354D01*
X59Y354D01*
X60Y354D01*
X60Y355D01*
X60Y355D01*
G37*
D02*
G36*
X57Y355D02*
X57Y354D01*
X56Y354D01*
X56Y354D01*
X56Y354D01*
X56Y355D01*
X57Y355D01*
G37*
D02*
G36*
X53Y355D02*
X53Y354D01*
X52Y354D01*
X52Y354D01*
X53Y354D01*
X53Y355D01*
X53Y355D01*
G37*
D02*
G36*
X49Y355D02*
X49Y354D01*
X49Y354D01*
X49Y354D01*
X49Y354D01*
X49Y355D01*
X49Y355D01*
G37*
D02*
G36*
X46Y355D02*
X46Y354D01*
X45Y354D01*
X45Y354D01*
X45Y354D01*
X45Y355D01*
X46Y355D01*
G37*
D02*
G36*
X42Y355D02*
X42Y354D01*
X41Y354D01*
X41Y354D01*
X42Y354D01*
X42Y355D01*
X42Y355D01*
G37*
D02*
G36*
X144Y350D02*
X144Y349D01*
X143Y349D01*
X143Y349D01*
X143Y349D01*
X143Y350D01*
X144Y350D01*
G37*
D02*
G36*
X140Y350D02*
X140Y349D01*
X140Y349D01*
X140Y349D01*
X139Y349D01*
X139Y350D01*
X140Y350D01*
G37*
D02*
G36*
X136Y350D02*
X136Y349D01*
X136Y349D01*
X136Y349D01*
X136Y349D01*
X136Y350D01*
X136Y350D01*
G37*
D02*
G36*
X133Y350D02*
X133Y349D01*
X132Y349D01*
X132Y349D01*
X132Y349D01*
X132Y350D01*
X133Y350D01*
G37*
D02*
G36*
X129Y350D02*
X129Y349D01*
X129Y349D01*
X129Y349D01*
X128Y349D01*
X128Y350D01*
X129Y350D01*
G37*
D02*
G36*
X122Y350D02*
X122Y349D01*
X122Y349D01*
X122Y349D01*
X121Y349D01*
X121Y350D01*
X122Y350D01*
G37*
D02*
G36*
X118Y350D02*
X118Y349D01*
X118Y349D01*
X118Y349D01*
X117Y349D01*
X117Y350D01*
X118Y350D01*
G37*
D02*
G36*
X115Y350D02*
X115Y349D01*
X114Y349D01*
X114Y349D01*
X114Y349D01*
X114Y350D01*
X115Y350D01*
G37*
D02*
G36*
X111Y350D02*
X111Y349D01*
X111Y349D01*
X111Y349D01*
X110Y349D01*
X110Y350D01*
X111Y350D01*
G37*
D02*
G36*
X107Y350D02*
X107Y349D01*
X107Y349D01*
X107Y349D01*
X107Y349D01*
X107Y350D01*
X107Y350D01*
G37*
D02*
G36*
X104Y350D02*
X104Y349D01*
X103Y349D01*
X103Y349D01*
X103Y349D01*
X103Y350D01*
X104Y350D01*
G37*
D02*
G36*
X100Y350D02*
X100Y349D01*
X100Y349D01*
X100Y349D01*
X99Y349D01*
X99Y350D01*
X100Y350D01*
G37*
D02*
G36*
X97Y350D02*
X97Y349D01*
X96Y349D01*
X96Y349D01*
X96Y349D01*
X96Y350D01*
X97Y350D01*
G37*
D02*
G36*
X93Y350D02*
X93Y349D01*
X93Y349D01*
X93Y349D01*
X92Y349D01*
X92Y350D01*
X93Y350D01*
G37*
D02*
G36*
X89Y350D02*
X89Y349D01*
X89Y349D01*
X89Y349D01*
X88Y349D01*
X88Y350D01*
X89Y350D01*
G37*
D02*
G36*
X86Y350D02*
X86Y349D01*
X85Y349D01*
X85Y349D01*
X85Y349D01*
X85Y350D01*
X86Y350D01*
G37*
D02*
G36*
X82Y350D02*
X82Y349D01*
X82Y349D01*
X82Y349D01*
X81Y349D01*
X81Y350D01*
X82Y350D01*
G37*
D02*
G36*
X78Y350D02*
X78Y349D01*
X78Y349D01*
X78Y349D01*
X78Y349D01*
X78Y350D01*
X78Y350D01*
G37*
D02*
G36*
X75Y350D02*
X75Y349D01*
X74Y349D01*
X74Y349D01*
X74Y349D01*
X74Y350D01*
X75Y350D01*
G37*
D02*
G36*
X71Y350D02*
X71Y349D01*
X71Y349D01*
X71Y349D01*
X70Y349D01*
X70Y350D01*
X71Y350D01*
G37*
D02*
G36*
X68Y350D02*
X68Y349D01*
X67Y349D01*
X67Y349D01*
X67Y349D01*
X67Y350D01*
X68Y350D01*
G37*
D02*
G36*
X64Y350D02*
X64Y349D01*
X64Y349D01*
X64Y349D01*
X63Y349D01*
X63Y350D01*
X64Y350D01*
G37*
D02*
G36*
X57Y350D02*
X57Y349D01*
X56Y349D01*
X56Y349D01*
X56Y349D01*
X56Y350D01*
X57Y350D01*
G37*
D02*
G36*
X53Y350D02*
X53Y349D01*
X53Y349D01*
X53Y349D01*
X52Y349D01*
X52Y350D01*
X53Y350D01*
G37*
D02*
G36*
X49Y350D02*
X49Y349D01*
X49Y349D01*
X49Y349D01*
X49Y349D01*
X49Y350D01*
X49Y350D01*
G37*
D02*
G36*
X46Y350D02*
X46Y349D01*
X45Y349D01*
X45Y349D01*
X45Y349D01*
X45Y350D01*
X46Y350D01*
G37*
D02*
G36*
X144Y348D02*
X144Y347D01*
X143Y347D01*
X143Y348D01*
X143Y348D01*
X143Y348D01*
X144Y348D01*
G37*
D02*
G36*
X140Y348D02*
X140Y347D01*
X139Y347D01*
X139Y348D01*
X140Y348D01*
X140Y348D01*
X140Y348D01*
G37*
D02*
G36*
X136Y348D02*
X136Y347D01*
X136Y347D01*
X136Y348D01*
X136Y348D01*
X136Y348D01*
X136Y348D01*
G37*
D02*
G36*
X133Y348D02*
X133Y347D01*
X132Y347D01*
X132Y348D01*
X132Y348D01*
X132Y348D01*
X133Y348D01*
G37*
D02*
G36*
X129Y348D02*
X129Y347D01*
X128Y347D01*
X128Y348D01*
X129Y348D01*
X129Y348D01*
X129Y348D01*
G37*
D02*
G36*
X122Y348D02*
X122Y347D01*
X121Y347D01*
X121Y348D01*
X122Y348D01*
X122Y348D01*
X122Y348D01*
G37*
D02*
G36*
X118Y348D02*
X118Y347D01*
X117Y347D01*
X117Y348D01*
X118Y348D01*
X118Y348D01*
X118Y348D01*
G37*
D02*
G36*
X115Y348D02*
X115Y347D01*
X114Y347D01*
X114Y348D01*
X114Y348D01*
X114Y348D01*
X115Y348D01*
G37*
D02*
G36*
X111Y348D02*
X111Y347D01*
X110Y347D01*
X110Y348D01*
X111Y348D01*
X111Y348D01*
X111Y348D01*
G37*
D02*
G36*
X107Y348D02*
X107Y347D01*
X107Y347D01*
X107Y348D01*
X107Y348D01*
X107Y348D01*
X107Y348D01*
G37*
D02*
G36*
X104Y348D02*
X104Y347D01*
X103Y347D01*
X103Y348D01*
X103Y348D01*
X103Y348D01*
X104Y348D01*
G37*
D02*
G36*
X100Y348D02*
X100Y347D01*
X99Y347D01*
X99Y348D01*
X100Y348D01*
X100Y348D01*
X100Y348D01*
G37*
D02*
G36*
X97Y348D02*
X97Y347D01*
X96Y347D01*
X96Y348D01*
X96Y348D01*
X96Y348D01*
X97Y348D01*
G37*
D02*
G36*
X93Y348D02*
X93Y347D01*
X92Y347D01*
X92Y348D01*
X93Y348D01*
X93Y348D01*
X93Y348D01*
G37*
D02*
G36*
X89Y348D02*
X89Y347D01*
X88Y347D01*
X88Y348D01*
X89Y348D01*
X89Y348D01*
X89Y348D01*
G37*
D02*
G36*
X86Y348D02*
X86Y347D01*
X85Y347D01*
X85Y348D01*
X85Y348D01*
X85Y348D01*
X86Y348D01*
G37*
D02*
G36*
X82Y348D02*
X82Y347D01*
X81Y347D01*
X81Y348D01*
X82Y348D01*
X82Y348D01*
X82Y348D01*
G37*
D02*
G36*
X78Y348D02*
X78Y347D01*
X78Y347D01*
X78Y348D01*
X78Y348D01*
X78Y348D01*
X78Y348D01*
G37*
D02*
G36*
X75Y348D02*
X75Y347D01*
X74Y347D01*
X74Y348D01*
X74Y348D01*
X74Y348D01*
X75Y348D01*
G37*
D02*
G36*
X71Y348D02*
X71Y347D01*
X70Y347D01*
X70Y348D01*
X71Y348D01*
X71Y348D01*
X71Y348D01*
G37*
D02*
G36*
X68Y348D02*
X68Y347D01*
X67Y347D01*
X67Y348D01*
X67Y348D01*
X67Y348D01*
X68Y348D01*
G37*
D02*
G36*
X64Y348D02*
X64Y347D01*
X63Y347D01*
X63Y348D01*
X64Y348D01*
X64Y348D01*
X64Y348D01*
G37*
D02*
G36*
X57Y348D02*
X57Y347D01*
X56Y347D01*
X56Y348D01*
X56Y348D01*
X56Y348D01*
X57Y348D01*
G37*
D02*
G36*
X53Y348D02*
X53Y347D01*
X52Y347D01*
X52Y348D01*
X53Y348D01*
X53Y348D01*
X53Y348D01*
G37*
D02*
G36*
X49Y348D02*
X49Y347D01*
X49Y347D01*
X49Y348D01*
X49Y348D01*
X49Y348D01*
X49Y348D01*
G37*
D02*
G36*
X46Y348D02*
X46Y347D01*
X45Y347D01*
X45Y348D01*
X45Y348D01*
X45Y348D01*
X46Y348D01*
G37*
D02*
G36*
X140Y343D02*
X140Y342D01*
X140Y342D01*
X140Y342D01*
X139Y342D01*
X139Y343D01*
X140Y343D01*
G37*
D02*
G36*
X133Y343D02*
X133Y342D01*
X132Y342D01*
X132Y342D01*
X132Y342D01*
X132Y343D01*
X133Y343D01*
G37*
D02*
G36*
X129Y343D02*
X129Y342D01*
X129Y342D01*
X129Y342D01*
X128Y342D01*
X128Y343D01*
X129Y343D01*
G37*
D02*
G36*
X126Y343D02*
X126Y342D01*
X125Y342D01*
X125Y342D01*
X125Y342D01*
X125Y343D01*
X126Y343D01*
G37*
D02*
G36*
X122Y343D02*
X122Y342D01*
X122Y342D01*
X122Y342D01*
X121Y342D01*
X121Y343D01*
X122Y343D01*
G37*
D02*
G36*
X115Y343D02*
X115Y342D01*
X114Y342D01*
X114Y342D01*
X114Y342D01*
X114Y343D01*
X115Y343D01*
G37*
D02*
G36*
X100Y343D02*
X100Y342D01*
X100Y342D01*
X100Y342D01*
X99Y342D01*
X99Y343D01*
X100Y343D01*
G37*
D02*
G36*
X97Y343D02*
X97Y342D01*
X96Y342D01*
X96Y342D01*
X96Y342D01*
X96Y343D01*
X97Y343D01*
G37*
D02*
G36*
X93Y343D02*
X93Y342D01*
X93Y342D01*
X93Y342D01*
X92Y342D01*
X92Y343D01*
X93Y343D01*
G37*
D02*
G36*
X89Y343D02*
X89Y342D01*
X89Y342D01*
X89Y342D01*
X88Y342D01*
X88Y343D01*
X89Y343D01*
G37*
D02*
G36*
X75Y343D02*
X75Y342D01*
X74Y342D01*
X74Y342D01*
X74Y342D01*
X74Y343D01*
X75Y343D01*
G37*
D02*
G36*
X68Y343D02*
X68Y342D01*
X67Y342D01*
X67Y342D01*
X67Y342D01*
X67Y343D01*
X68Y343D01*
G37*
D02*
G36*
X64Y343D02*
X64Y342D01*
X64Y342D01*
X64Y342D01*
X63Y342D01*
X63Y343D01*
X64Y343D01*
G37*
D02*
G36*
X60Y343D02*
X60Y342D01*
X60Y342D01*
X60Y342D01*
X59Y342D01*
X59Y343D01*
X60Y343D01*
G37*
D02*
G36*
X57Y343D02*
X57Y342D01*
X56Y342D01*
X56Y342D01*
X56Y342D01*
X56Y343D01*
X57Y343D01*
G37*
D02*
G36*
X53Y343D02*
X53Y342D01*
X53Y342D01*
X53Y342D01*
X52Y342D01*
X52Y343D01*
X53Y343D01*
G37*
D02*
G36*
X49Y343D02*
X49Y342D01*
X49Y342D01*
X49Y342D01*
X49Y342D01*
X49Y343D01*
X49Y343D01*
G37*
D02*
G36*
X140Y341D02*
X140Y340D01*
X139Y340D01*
X139Y341D01*
X140Y341D01*
X140Y341D01*
X140Y341D01*
G37*
D02*
G36*
X133Y341D02*
X133Y340D01*
X132Y340D01*
X132Y341D01*
X132Y341D01*
X132Y341D01*
X133Y341D01*
G37*
D02*
G36*
X129Y341D02*
X129Y340D01*
X128Y340D01*
X128Y341D01*
X129Y341D01*
X129Y341D01*
X129Y341D01*
G37*
D02*
G36*
X126Y341D02*
X126Y340D01*
X125Y340D01*
X125Y341D01*
X125Y341D01*
X125Y341D01*
X126Y341D01*
G37*
D02*
G36*
X122Y341D02*
X122Y340D01*
X121Y340D01*
X121Y341D01*
X122Y341D01*
X122Y341D01*
X122Y341D01*
G37*
D02*
G36*
X115Y341D02*
X115Y340D01*
X114Y340D01*
X114Y341D01*
X114Y341D01*
X114Y341D01*
X115Y341D01*
G37*
D02*
G36*
X100Y341D02*
X100Y340D01*
X99Y340D01*
X99Y341D01*
X100Y341D01*
X100Y341D01*
X100Y341D01*
G37*
D02*
G36*
X97Y341D02*
X97Y340D01*
X96Y340D01*
X96Y341D01*
X96Y341D01*
X96Y341D01*
X97Y341D01*
G37*
D02*
G36*
X93Y341D02*
X93Y340D01*
X92Y340D01*
X92Y341D01*
X93Y341D01*
X93Y341D01*
X93Y341D01*
G37*
D02*
G36*
X89Y341D02*
X89Y340D01*
X88Y340D01*
X88Y341D01*
X89Y341D01*
X89Y341D01*
X89Y341D01*
G37*
D02*
G36*
X75Y341D02*
X75Y340D01*
X74Y340D01*
X74Y341D01*
X74Y341D01*
X74Y341D01*
X75Y341D01*
G37*
D02*
G36*
X68Y341D02*
X68Y340D01*
X67Y340D01*
X67Y341D01*
X67Y341D01*
X67Y341D01*
X68Y341D01*
G37*
D02*
G36*
X64Y341D02*
X64Y340D01*
X63Y340D01*
X63Y341D01*
X64Y341D01*
X64Y341D01*
X64Y341D01*
G37*
D02*
G36*
X60Y341D02*
X60Y340D01*
X59Y340D01*
X59Y341D01*
X60Y341D01*
X60Y341D01*
X60Y341D01*
G37*
D02*
G36*
X57Y341D02*
X57Y340D01*
X56Y340D01*
X56Y341D01*
X56Y341D01*
X56Y341D01*
X57Y341D01*
G37*
D02*
G36*
X53Y341D02*
X53Y340D01*
X52Y340D01*
X52Y341D01*
X53Y341D01*
X53Y341D01*
X53Y341D01*
G37*
D02*
G36*
X49Y341D02*
X49Y340D01*
X49Y340D01*
X49Y341D01*
X49Y341D01*
X49Y341D01*
X49Y341D01*
G37*
D02*
G36*
X144Y336D02*
X144Y335D01*
X143Y335D01*
X143Y335D01*
X143Y335D01*
X143Y336D01*
X144Y336D01*
G37*
D02*
G36*
X140Y336D02*
X140Y335D01*
X140Y335D01*
X140Y335D01*
X139Y335D01*
X139Y336D01*
X140Y336D01*
G37*
D02*
G36*
X136Y336D02*
X136Y335D01*
X136Y335D01*
X136Y335D01*
X136Y335D01*
X136Y336D01*
X136Y336D01*
G37*
D02*
G36*
X133Y336D02*
X133Y335D01*
X132Y335D01*
X132Y335D01*
X132Y335D01*
X132Y336D01*
X133Y336D01*
G37*
D02*
G36*
X129Y336D02*
X129Y335D01*
X129Y335D01*
X129Y335D01*
X128Y335D01*
X128Y336D01*
X129Y336D01*
G37*
D02*
G36*
X126Y336D02*
X126Y335D01*
X125Y335D01*
X125Y335D01*
X125Y335D01*
X125Y336D01*
X126Y336D01*
G37*
D02*
G36*
X122Y336D02*
X122Y335D01*
X122Y335D01*
X122Y335D01*
X121Y335D01*
X121Y336D01*
X122Y336D01*
G37*
D02*
G36*
X118Y336D02*
X118Y335D01*
X118Y335D01*
X118Y335D01*
X117Y335D01*
X117Y336D01*
X118Y336D01*
G37*
D02*
G36*
X115Y336D02*
X115Y335D01*
X114Y335D01*
X114Y335D01*
X114Y335D01*
X114Y336D01*
X115Y336D01*
G37*
D02*
G36*
X97Y336D02*
X97Y335D01*
X96Y335D01*
X96Y335D01*
X96Y335D01*
X96Y336D01*
X97Y336D01*
G37*
D02*
G36*
X93Y336D02*
X93Y335D01*
X93Y335D01*
X93Y335D01*
X92Y335D01*
X92Y336D01*
X93Y336D01*
G37*
D02*
G36*
X71Y336D02*
X71Y335D01*
X71Y335D01*
X71Y335D01*
X70Y335D01*
X70Y336D01*
X71Y336D01*
G37*
D02*
G36*
X68Y336D02*
X68Y335D01*
X67Y335D01*
X67Y335D01*
X67Y335D01*
X67Y336D01*
X68Y336D01*
G37*
D02*
G36*
X64Y336D02*
X64Y335D01*
X64Y335D01*
X64Y335D01*
X63Y335D01*
X63Y336D01*
X64Y336D01*
G37*
D02*
G36*
X57Y336D02*
X57Y335D01*
X56Y335D01*
X56Y335D01*
X56Y335D01*
X56Y336D01*
X57Y336D01*
G37*
D02*
G36*
X53Y336D02*
X53Y335D01*
X53Y335D01*
X53Y335D01*
X52Y335D01*
X52Y336D01*
X53Y336D01*
G37*
D02*
G36*
X49Y336D02*
X49Y335D01*
X49Y335D01*
X49Y335D01*
X49Y335D01*
X49Y336D01*
X49Y336D01*
G37*
D02*
G36*
X46Y336D02*
X46Y335D01*
X45Y335D01*
X45Y335D01*
X45Y335D01*
X45Y336D01*
X46Y336D01*
G37*
D02*
G36*
X144Y334D02*
X144Y333D01*
X143Y333D01*
X143Y334D01*
X143Y334D01*
X143Y334D01*
X144Y334D01*
G37*
D02*
G36*
X140Y334D02*
X140Y333D01*
X139Y333D01*
X139Y334D01*
X140Y334D01*
X140Y334D01*
X140Y334D01*
G37*
D02*
G36*
X136Y334D02*
X136Y333D01*
X136Y333D01*
X136Y334D01*
X136Y334D01*
X136Y334D01*
X136Y334D01*
G37*
D02*
G36*
X133Y334D02*
X133Y333D01*
X132Y333D01*
X132Y334D01*
X132Y334D01*
X132Y334D01*
X133Y334D01*
G37*
D02*
G36*
X129Y334D02*
X129Y333D01*
X128Y333D01*
X128Y334D01*
X129Y334D01*
X129Y334D01*
X129Y334D01*
G37*
D02*
G36*
X126Y334D02*
X126Y333D01*
X125Y333D01*
X125Y334D01*
X125Y334D01*
X125Y334D01*
X126Y334D01*
G37*
D02*
G36*
X122Y334D02*
X122Y333D01*
X121Y333D01*
X121Y334D01*
X122Y334D01*
X122Y334D01*
X122Y334D01*
G37*
D02*
G36*
X118Y334D02*
X118Y333D01*
X117Y333D01*
X117Y334D01*
X118Y334D01*
X118Y334D01*
X118Y334D01*
G37*
D02*
G36*
X115Y334D02*
X115Y333D01*
X114Y333D01*
X114Y334D01*
X114Y334D01*
X114Y334D01*
X115Y334D01*
G37*
D02*
G36*
X97Y334D02*
X97Y333D01*
X96Y333D01*
X96Y334D01*
X96Y334D01*
X96Y334D01*
X97Y334D01*
G37*
D02*
G36*
X93Y334D02*
X93Y333D01*
X92Y333D01*
X92Y334D01*
X93Y334D01*
X93Y334D01*
X93Y334D01*
G37*
D02*
G36*
X71Y334D02*
X71Y333D01*
X70Y333D01*
X70Y334D01*
X71Y334D01*
X71Y334D01*
X71Y334D01*
G37*
D02*
G36*
X68Y334D02*
X68Y333D01*
X67Y333D01*
X67Y334D01*
X67Y334D01*
X67Y334D01*
X68Y334D01*
G37*
D02*
G36*
X64Y334D02*
X64Y333D01*
X63Y333D01*
X63Y334D01*
X64Y334D01*
X64Y334D01*
X64Y334D01*
G37*
D02*
G36*
X57Y334D02*
X57Y333D01*
X56Y333D01*
X56Y334D01*
X56Y334D01*
X56Y334D01*
X57Y334D01*
G37*
D02*
G36*
X53Y334D02*
X53Y333D01*
X52Y333D01*
X52Y334D01*
X53Y334D01*
X53Y334D01*
X53Y334D01*
G37*
D02*
G36*
X49Y334D02*
X49Y333D01*
X49Y333D01*
X49Y334D01*
X49Y334D01*
X49Y334D01*
X49Y334D01*
G37*
D02*
G36*
X46Y334D02*
X46Y333D01*
X45Y333D01*
X45Y334D01*
X45Y334D01*
X45Y334D01*
X46Y334D01*
G37*
D02*
G36*
X140Y329D02*
X140Y329D01*
X140Y329D01*
X140Y328D01*
X139Y328D01*
X139Y329D01*
X140Y329D01*
G37*
D02*
G36*
X136Y329D02*
X136Y329D01*
X136Y329D01*
X136Y328D01*
X136Y328D01*
X136Y329D01*
X136Y329D01*
G37*
D02*
G36*
X133Y329D02*
X133Y329D01*
X132Y329D01*
X132Y328D01*
X132Y328D01*
X132Y329D01*
X133Y329D01*
G37*
D02*
G36*
X129Y329D02*
X129Y329D01*
X129Y329D01*
X129Y328D01*
X128Y328D01*
X128Y329D01*
X129Y329D01*
G37*
D02*
G36*
X126Y329D02*
X126Y329D01*
X125Y329D01*
X125Y328D01*
X125Y328D01*
X125Y329D01*
X126Y329D01*
G37*
D02*
G36*
X118Y329D02*
X118Y329D01*
X118Y329D01*
X118Y329D01*
X117Y329D01*
X117Y329D01*
X118Y329D01*
G37*
D02*
G36*
X115Y329D02*
X115Y329D01*
X114Y329D01*
X114Y328D01*
X114Y328D01*
X114Y329D01*
X115Y329D01*
G37*
D02*
G36*
X97Y329D02*
X97Y329D01*
X96Y329D01*
X96Y329D01*
X96Y329D01*
X96Y329D01*
X97Y329D01*
G37*
D02*
G36*
X93Y329D02*
X93Y329D01*
X93Y329D01*
X93Y328D01*
X92Y328D01*
X92Y329D01*
X93Y329D01*
G37*
D02*
G36*
X71Y329D02*
X71Y329D01*
X71Y329D01*
X71Y328D01*
X70Y328D01*
X70Y329D01*
X71Y329D01*
G37*
D02*
G36*
X64Y329D02*
X64Y329D01*
X64Y329D01*
X64Y329D01*
X63Y329D01*
X63Y329D01*
X64Y329D01*
G37*
D02*
G36*
X60Y329D02*
X60Y329D01*
X60Y329D01*
X60Y329D01*
X59Y329D01*
X59Y329D01*
X60Y329D01*
G37*
D02*
G36*
X57Y329D02*
X57Y329D01*
X56Y329D01*
X56Y328D01*
X56Y328D01*
X56Y329D01*
X57Y329D01*
G37*
D02*
G36*
X49Y329D02*
X49Y329D01*
X49Y329D01*
X49Y329D01*
X49Y329D01*
X49Y328D01*
X49Y328D01*
X49Y329D01*
X49Y329D01*
G37*
D02*
G36*
X118Y329D02*
X118Y328D01*
X117Y328D01*
X117Y329D01*
X118Y329D01*
G37*
D02*
G36*
X96Y329D02*
X96Y328D01*
X96Y328D01*
X96Y329D01*
X96Y329D01*
G37*
D02*
G36*
X64Y329D02*
X64Y328D01*
X63Y328D01*
X63Y329D01*
X64Y329D01*
G37*
D02*
G36*
X60Y329D02*
X60Y328D01*
X59Y328D01*
X59Y329D01*
X60Y329D01*
G37*
D02*
G36*
X140Y328D02*
X140Y326D01*
X139Y326D01*
X139Y327D01*
X140Y327D01*
X140Y328D01*
X140Y328D01*
G37*
D02*
G36*
X136Y328D02*
X136Y326D01*
X136Y326D01*
X136Y327D01*
X136Y327D01*
X136Y328D01*
X136Y328D01*
G37*
D02*
G36*
X133Y328D02*
X133Y326D01*
X132Y326D01*
X132Y327D01*
X132Y327D01*
X132Y328D01*
X133Y328D01*
G37*
D02*
G36*
X129Y328D02*
X129Y326D01*
X128Y326D01*
X128Y327D01*
X129Y327D01*
X129Y328D01*
X129Y328D01*
G37*
D02*
G36*
X126Y328D02*
X126Y326D01*
X125Y326D01*
X125Y327D01*
X125Y327D01*
X125Y328D01*
X126Y328D01*
G37*
D02*
G36*
X118Y328D02*
X118Y326D01*
X117Y326D01*
X117Y327D01*
X118Y327D01*
X118Y328D01*
X118Y328D01*
G37*
D02*
G36*
X115Y328D02*
X115Y326D01*
X114Y326D01*
X114Y327D01*
X114Y327D01*
X114Y328D01*
X115Y328D01*
G37*
D02*
G36*
X97Y328D02*
X97Y326D01*
X96Y326D01*
X96Y327D01*
X96Y327D01*
X96Y328D01*
X97Y328D01*
G37*
D02*
G36*
X93Y328D02*
X93Y326D01*
X92Y326D01*
X92Y327D01*
X93Y327D01*
X93Y328D01*
X93Y328D01*
G37*
D02*
G36*
X71Y328D02*
X71Y326D01*
X70Y326D01*
X70Y327D01*
X71Y327D01*
X71Y328D01*
X71Y328D01*
G37*
D02*
G36*
X64Y328D02*
X64Y326D01*
X63Y326D01*
X63Y327D01*
X64Y327D01*
X64Y328D01*
X64Y328D01*
G37*
D02*
G36*
X60Y328D02*
X60Y326D01*
X59Y326D01*
X59Y327D01*
X60Y327D01*
X60Y328D01*
X60Y328D01*
G37*
D02*
G36*
X57Y328D02*
X57Y326D01*
X56Y326D01*
X56Y327D01*
X56Y327D01*
X56Y328D01*
X57Y328D01*
G37*
D02*
G36*
X49Y328D02*
X49Y326D01*
X49Y326D01*
X49Y327D01*
X49Y327D01*
X49Y328D01*
X49Y328D01*
G37*
D02*
G36*
X136Y323D02*
X136Y322D01*
X136Y322D01*
X136Y321D01*
X136Y321D01*
X136Y323D01*
X136Y323D01*
G37*
D02*
G36*
X129Y323D02*
X129Y322D01*
X129Y322D01*
X129Y321D01*
X128Y321D01*
X128Y323D01*
X129Y323D01*
G37*
D02*
G36*
X126Y323D02*
X126Y322D01*
X125Y322D01*
X125Y321D01*
X125Y321D01*
X125Y323D01*
X126Y323D01*
G37*
D02*
G36*
X122Y323D02*
X122Y322D01*
X122Y322D01*
X122Y321D01*
X121Y321D01*
X121Y323D01*
X122Y323D01*
G37*
D02*
G36*
X118Y323D02*
X118Y322D01*
X118Y322D01*
X118Y321D01*
X117Y321D01*
X117Y323D01*
X118Y323D01*
G37*
D02*
G36*
X93Y323D02*
X93Y322D01*
X93Y322D01*
X93Y321D01*
X92Y321D01*
X92Y323D01*
X93Y323D01*
G37*
D02*
G36*
X68Y323D02*
X68Y322D01*
X67Y322D01*
X67Y322D01*
X67Y322D01*
X67Y323D01*
X68Y323D01*
G37*
D02*
G36*
X64Y323D02*
X64Y322D01*
X64Y322D01*
X64Y322D01*
X64Y322D01*
X64Y321D01*
X63Y321D01*
X63Y323D01*
X64Y323D01*
G37*
D02*
G36*
X60Y323D02*
X60Y322D01*
X60Y322D01*
X60Y321D01*
X59Y321D01*
X59Y323D01*
X60Y323D01*
G37*
D02*
G36*
X57Y323D02*
X57Y322D01*
X56Y322D01*
X56Y321D01*
X56Y321D01*
X56Y323D01*
X57Y323D01*
G37*
D02*
G36*
X53Y323D02*
X53Y322D01*
X53Y322D01*
X53Y321D01*
X52Y321D01*
X52Y322D01*
X53Y322D01*
X53Y323D01*
X53Y323D01*
G37*
D02*
G36*
X100Y322D02*
X100Y321D01*
X100Y321D01*
X100Y320D01*
X99Y320D01*
X99Y322D01*
X100Y322D01*
G37*
D02*
G36*
X89Y322D02*
X89Y321D01*
X89Y321D01*
X89Y321D01*
X89Y321D01*
X89Y320D01*
X88Y320D01*
X88Y322D01*
X89Y322D01*
G37*
D02*
G36*
X67Y322D02*
X67Y321D01*
X67Y321D01*
X67Y322D01*
X67Y322D01*
G37*
D02*
G36*
X136Y321D02*
X136Y320D01*
X136Y320D01*
X136Y320D01*
X136Y320D01*
X136Y321D01*
X136Y321D01*
G37*
D02*
G36*
X129Y321D02*
X129Y320D01*
X128Y320D01*
X128Y320D01*
X129Y320D01*
X129Y321D01*
X129Y321D01*
G37*
D02*
G36*
X126Y321D02*
X126Y320D01*
X125Y320D01*
X125Y320D01*
X125Y320D01*
X125Y321D01*
X126Y321D01*
G37*
D02*
G36*
X122Y321D02*
X122Y320D01*
X121Y320D01*
X121Y320D01*
X122Y320D01*
X122Y321D01*
X122Y321D01*
G37*
D02*
G36*
X118Y321D02*
X118Y320D01*
X117Y320D01*
X117Y320D01*
X118Y320D01*
X118Y321D01*
X118Y321D01*
G37*
D02*
G36*
X93Y321D02*
X93Y320D01*
X92Y320D01*
X92Y320D01*
X93Y320D01*
X93Y321D01*
X93Y321D01*
G37*
D02*
G36*
X68Y321D02*
X68Y320D01*
X67Y320D01*
X67Y320D01*
X67Y320D01*
X67Y321D01*
X68Y321D01*
G37*
D02*
G36*
X64Y321D02*
X64Y320D01*
X63Y320D01*
X63Y320D01*
X64Y320D01*
X64Y321D01*
X64Y321D01*
G37*
D02*
G36*
X60Y321D02*
X60Y320D01*
X59Y320D01*
X59Y320D01*
X60Y320D01*
X60Y321D01*
X60Y321D01*
G37*
D02*
G36*
X57Y321D02*
X57Y320D01*
X56Y320D01*
X56Y320D01*
X56Y320D01*
X56Y321D01*
X57Y321D01*
G37*
D02*
G36*
X53Y321D02*
X53Y320D01*
X52Y320D01*
X52Y320D01*
X53Y320D01*
X53Y321D01*
X53Y321D01*
G37*
D02*
G36*
X133Y316D02*
X133Y315D01*
X132Y315D01*
X132Y315D01*
X132Y315D01*
X132Y316D01*
X133Y316D01*
G37*
D02*
G36*
X126Y316D02*
X126Y315D01*
X125Y315D01*
X125Y315D01*
X125Y315D01*
X125Y316D01*
X126Y316D01*
G37*
D02*
G36*
X122Y316D02*
X122Y315D01*
X122Y315D01*
X122Y315D01*
X121Y315D01*
X121Y316D01*
X122Y316D01*
G37*
D02*
G36*
X97Y316D02*
X97Y315D01*
X96Y315D01*
X96Y315D01*
X96Y315D01*
X96Y316D01*
X97Y316D01*
G37*
D02*
G36*
X64Y316D02*
X64Y315D01*
X64Y315D01*
X64Y315D01*
X63Y315D01*
X63Y316D01*
X64Y316D01*
G37*
D02*
G36*
X57Y316D02*
X57Y315D01*
X56Y315D01*
X56Y315D01*
X56Y315D01*
X56Y316D01*
X57Y316D01*
G37*
D02*
G36*
X100Y315D02*
X100Y313D01*
X99Y313D01*
X99Y315D01*
X100Y315D01*
X100Y315D01*
X100Y315D01*
G37*
D02*
G36*
X89Y315D02*
X89Y313D01*
X88Y313D01*
X88Y315D01*
X89Y315D01*
X89Y315D01*
X89Y315D01*
G37*
D02*
G36*
X133Y314D02*
X133Y313D01*
X132Y313D01*
X132Y314D01*
X132Y314D01*
X132Y314D01*
X133Y314D01*
G37*
D02*
G36*
X126Y314D02*
X126Y313D01*
X125Y313D01*
X125Y314D01*
X125Y314D01*
X125Y314D01*
X126Y314D01*
G37*
D02*
G36*
X122Y314D02*
X122Y313D01*
X122Y313D01*
X122Y313D01*
X121Y313D01*
X121Y314D01*
X122Y314D01*
X122Y314D01*
X122Y314D01*
G37*
D02*
G36*
X97Y314D02*
X97Y313D01*
X96Y313D01*
X96Y314D01*
X96Y314D01*
X96Y314D01*
X97Y314D01*
G37*
D02*
G36*
X64Y314D02*
X64Y313D01*
X63Y313D01*
X63Y314D01*
X64Y314D01*
X64Y314D01*
X64Y314D01*
G37*
D02*
G36*
X57Y314D02*
X57Y313D01*
X56Y313D01*
X56Y314D01*
X56Y314D01*
X56Y314D01*
X57Y314D01*
G37*
D02*
G36*
X129Y309D02*
X129Y308D01*
X129Y308D01*
X129Y308D01*
X128Y308D01*
X128Y309D01*
X129Y309D01*
X129Y309D01*
X129Y309D01*
G37*
D02*
G36*
X126Y309D02*
X126Y308D01*
X125Y308D01*
X125Y308D01*
X125Y308D01*
X125Y309D01*
X126Y309D01*
G37*
D02*
G36*
X100Y309D02*
X100Y308D01*
X100Y308D01*
X100Y308D01*
X99Y308D01*
X99Y309D01*
X100Y309D01*
X100Y309D01*
X100Y309D01*
G37*
D02*
G36*
X97Y309D02*
X97Y308D01*
X96Y308D01*
X96Y308D01*
X96Y308D01*
X96Y309D01*
X96Y309D01*
X96Y309D01*
X97Y309D01*
G37*
D02*
G36*
X93Y309D02*
X93Y308D01*
X93Y308D01*
X93Y308D01*
X92Y308D01*
X92Y309D01*
X93Y309D01*
X93Y309D01*
X93Y309D01*
G37*
D02*
G36*
X89Y309D02*
X89Y309D01*
X89Y309D01*
X89Y308D01*
X89Y308D01*
X89Y308D01*
X88Y308D01*
X88Y309D01*
X89Y309D01*
G37*
D02*
G36*
X60Y309D02*
X60Y309D01*
X60Y309D01*
X60Y308D01*
X60Y308D01*
X60Y308D01*
X59Y308D01*
X59Y309D01*
X60Y309D01*
G37*
D02*
G36*
X104Y308D02*
X104Y308D01*
X103Y308D01*
X103Y307D01*
X104Y307D01*
X104Y306D01*
X103Y306D01*
X103Y308D01*
X104Y308D01*
G37*
D02*
G36*
X86Y308D02*
X86Y306D01*
X85Y306D01*
X85Y308D01*
X86Y308D01*
G37*
D02*
G36*
X129Y307D02*
X129Y306D01*
X128Y306D01*
X128Y307D01*
X129Y307D01*
X129Y307D01*
X129Y307D01*
G37*
D02*
G36*
X126Y307D02*
X126Y306D01*
X125Y306D01*
X125Y307D01*
X125Y307D01*
X125Y307D01*
X126Y307D01*
G37*
D02*
G36*
X100Y307D02*
X100Y306D01*
X99Y306D01*
X99Y307D01*
X100Y307D01*
X100Y307D01*
X100Y307D01*
G37*
D02*
G36*
X97Y307D02*
X97Y306D01*
X96Y306D01*
X96Y307D01*
X96Y307D01*
X96Y307D01*
X97Y307D01*
G37*
D02*
G36*
X93Y307D02*
X93Y306D01*
X92Y306D01*
X92Y307D01*
X93Y307D01*
X93Y307D01*
X93Y307D01*
G37*
D02*
G36*
X89Y307D02*
X89Y306D01*
X88Y306D01*
X88Y307D01*
X89Y307D01*
X89Y307D01*
X89Y307D01*
G37*
D02*
G36*
X60Y307D02*
X60Y306D01*
X59Y306D01*
X59Y307D01*
X60Y307D01*
X60Y307D01*
X60Y307D01*
G37*
D02*
G36*
X129Y302D02*
X129Y301D01*
X129Y301D01*
X129Y301D01*
X128Y301D01*
X128Y302D01*
X129Y302D01*
G37*
D02*
G36*
X103Y302D02*
X103Y302D01*
X104Y302D01*
X104Y301D01*
X103Y301D01*
X103Y301D01*
X103Y301D01*
X103Y302D01*
X103Y302D01*
G37*
D02*
G36*
X97Y302D02*
X97Y301D01*
X96Y301D01*
X96Y301D01*
X96Y301D01*
X96Y302D01*
X97Y302D01*
G37*
D02*
G36*
X93Y302D02*
X93Y301D01*
X93Y301D01*
X93Y301D01*
X92Y301D01*
X92Y302D01*
X93Y302D01*
G37*
D02*
G36*
X89Y302D02*
X89Y301D01*
X89Y301D01*
X89Y301D01*
X88Y301D01*
X88Y302D01*
X89Y302D01*
G37*
D02*
G36*
X60Y302D02*
X60Y302D01*
X60Y302D01*
X60Y301D01*
X59Y301D01*
X59Y302D01*
X60Y302D01*
G37*
D02*
G36*
X133Y302D02*
X133Y300D01*
X132Y300D01*
X132Y302D01*
X133Y302D01*
G37*
D02*
G36*
X57Y302D02*
X57Y300D01*
X56Y300D01*
X56Y301D01*
X56Y301D01*
X56Y302D01*
X57Y302D01*
G37*
D02*
G36*
X107Y301D02*
X107Y300D01*
X107Y300D01*
X107Y300D01*
X107Y300D01*
X107Y299D01*
X107Y299D01*
X107Y301D01*
X107Y301D01*
G37*
D02*
G36*
X82Y301D02*
X82Y299D01*
X81Y299D01*
X81Y300D01*
X82Y300D01*
X82Y300D01*
X81Y300D01*
X81Y301D01*
X82Y301D01*
G37*
D02*
G36*
X129Y300D02*
X129Y299D01*
X128Y299D01*
X128Y300D01*
X129Y300D01*
X129Y300D01*
X129Y300D01*
G37*
D02*
G36*
X104Y300D02*
X104Y299D01*
X103Y299D01*
X103Y300D01*
X103Y300D01*
X103Y300D01*
X104Y300D01*
G37*
D02*
G36*
X97Y300D02*
X97Y299D01*
X96Y299D01*
X96Y300D01*
X96Y300D01*
X96Y300D01*
X97Y300D01*
G37*
D02*
G36*
X93Y300D02*
X93Y299D01*
X92Y299D01*
X92Y300D01*
X93Y300D01*
X93Y300D01*
X93Y300D01*
G37*
D02*
G36*
X89Y300D02*
X89Y299D01*
X88Y299D01*
X88Y300D01*
X89Y300D01*
X89Y300D01*
X89Y300D01*
G37*
D02*
G36*
X60Y300D02*
X60Y299D01*
X59Y299D01*
X59Y300D01*
X60Y300D01*
X60Y300D01*
X60Y300D01*
G37*
D02*
G36*
X107Y296D02*
X107Y295D01*
X107Y295D01*
X107Y295D01*
X107Y295D01*
X107Y296D01*
X107Y296D01*
G37*
D02*
G36*
X104Y296D02*
X104Y295D01*
X103Y295D01*
X103Y294D01*
X103Y294D01*
X103Y296D01*
X104Y296D01*
G37*
D02*
G36*
X100Y296D02*
X100Y295D01*
X100Y295D01*
X100Y294D01*
X99Y294D01*
X99Y296D01*
X100Y296D01*
G37*
D02*
G36*
X97Y296D02*
X97Y295D01*
X96Y295D01*
X96Y294D01*
X96Y294D01*
X96Y296D01*
X97Y296D01*
G37*
D02*
G36*
X93Y296D02*
X93Y295D01*
X93Y295D01*
X93Y294D01*
X92Y294D01*
X92Y296D01*
X93Y296D01*
G37*
D02*
G36*
X89Y296D02*
X89Y295D01*
X89Y295D01*
X89Y294D01*
X88Y294D01*
X88Y296D01*
X89Y296D01*
G37*
D02*
G36*
X86Y296D02*
X86Y295D01*
X85Y295D01*
X85Y294D01*
X85Y294D01*
X85Y296D01*
X86Y296D01*
G37*
D02*
G36*
X82Y296D02*
X82Y295D01*
X82Y295D01*
X82Y294D01*
X81Y294D01*
X81Y296D01*
X82Y296D01*
G37*
D02*
G36*
X136Y295D02*
X136Y294D01*
X136Y294D01*
X136Y294D01*
X136Y294D01*
X136Y295D01*
X136Y295D01*
X136Y295D01*
X136Y295D01*
G37*
D02*
G36*
X53Y295D02*
X53Y294D01*
X52Y294D01*
X52Y295D01*
X53Y295D01*
G37*
D02*
G36*
X133Y295D02*
X133Y292D01*
X132Y292D01*
X132Y295D01*
X133Y295D01*
G37*
D02*
G36*
X111Y295D02*
X111Y292D01*
X110Y292D01*
X110Y294D01*
X111Y294D01*
X111Y295D01*
X111Y295D01*
G37*
D02*
G36*
X107Y295D02*
X107Y294D01*
X107Y294D01*
X107Y295D01*
X107Y295D01*
G37*
D02*
G36*
X78Y295D02*
X78Y292D01*
X78Y292D01*
X78Y295D01*
X78Y295D01*
G37*
D02*
G36*
X57Y295D02*
X57Y292D01*
X56Y292D01*
X56Y293D01*
X56Y293D01*
X56Y294D01*
X56Y294D01*
X56Y295D01*
X57Y295D01*
G37*
D02*
G36*
X107Y294D02*
X107Y292D01*
X107Y292D01*
X107Y293D01*
X107Y293D01*
X107Y294D01*
X107Y294D01*
G37*
D02*
G36*
X104Y294D02*
X104Y292D01*
X103Y292D01*
X103Y293D01*
X103Y293D01*
X103Y294D01*
X104Y294D01*
G37*
D02*
G36*
X100Y294D02*
X100Y292D01*
X99Y292D01*
X99Y293D01*
X100Y293D01*
X100Y294D01*
X100Y294D01*
G37*
D02*
G36*
X97Y294D02*
X97Y292D01*
X96Y292D01*
X96Y293D01*
X96Y293D01*
X96Y294D01*
X97Y294D01*
G37*
D02*
G36*
X93Y294D02*
X93Y292D01*
X92Y292D01*
X92Y293D01*
X93Y293D01*
X93Y294D01*
X93Y294D01*
G37*
D02*
G36*
X89Y294D02*
X89Y292D01*
X88Y292D01*
X88Y293D01*
X89Y293D01*
X89Y294D01*
X89Y294D01*
G37*
D02*
G36*
X86Y294D02*
X86Y292D01*
X85Y292D01*
X85Y293D01*
X85Y293D01*
X85Y294D01*
X86Y294D01*
G37*
D02*
G36*
X82Y294D02*
X82Y292D01*
X81Y292D01*
X81Y293D01*
X82Y293D01*
X82Y294D01*
X82Y294D01*
G37*
D02*
G36*
X111Y289D02*
X111Y288D01*
X111Y288D01*
X111Y287D01*
X110Y287D01*
X110Y289D01*
X111Y289D01*
G37*
D02*
G36*
X107Y289D02*
X107Y288D01*
X107Y288D01*
X107Y287D01*
X107Y287D01*
X107Y289D01*
X107Y289D01*
G37*
D02*
G36*
X97Y289D02*
X97Y288D01*
X96Y288D01*
X96Y287D01*
X96Y287D01*
X96Y289D01*
X97Y289D01*
G37*
D02*
G36*
X93Y289D02*
X93Y288D01*
X93Y288D01*
X93Y287D01*
X92Y287D01*
X92Y289D01*
X93Y289D01*
G37*
D02*
G36*
X82Y289D02*
X82Y288D01*
X82Y288D01*
X82Y287D01*
X81Y287D01*
X81Y289D01*
X82Y289D01*
G37*
D02*
G36*
X78Y289D02*
X78Y288D01*
X78Y288D01*
X78Y287D01*
X78Y287D01*
X78Y289D01*
X78Y289D01*
G37*
D02*
G36*
X111Y287D02*
X111Y286D01*
X110Y286D01*
X110Y286D01*
X111Y286D01*
X111Y287D01*
X111Y287D01*
G37*
D02*
G36*
X107Y287D02*
X107Y286D01*
X107Y286D01*
X107Y286D01*
X107Y286D01*
X107Y287D01*
X107Y287D01*
G37*
D02*
G36*
X97Y287D02*
X97Y286D01*
X96Y286D01*
X96Y286D01*
X96Y286D01*
X96Y287D01*
X97Y287D01*
G37*
D02*
G36*
X93Y287D02*
X93Y286D01*
X92Y286D01*
X92Y286D01*
X93Y286D01*
X93Y287D01*
X93Y287D01*
G37*
D02*
G36*
X82Y287D02*
X82Y286D01*
X81Y286D01*
X81Y286D01*
X82Y286D01*
X82Y287D01*
X82Y287D01*
G37*
D02*
G36*
X78Y287D02*
X78Y286D01*
X78Y286D01*
X78Y286D01*
X78Y286D01*
X78Y287D01*
X78Y287D01*
G37*
D02*
G36*
X111Y282D02*
X111Y281D01*
X111Y281D01*
X111Y281D01*
X110Y281D01*
X110Y282D01*
X111Y282D01*
G37*
D02*
G36*
X97Y282D02*
X97Y281D01*
X96Y281D01*
X96Y281D01*
X96Y281D01*
X96Y282D01*
X97Y282D01*
G37*
D02*
G36*
X93Y282D02*
X93Y281D01*
X93Y281D01*
X93Y281D01*
X92Y281D01*
X92Y282D01*
X93Y282D01*
G37*
D02*
G36*
X78Y282D02*
X78Y281D01*
X78Y281D01*
X78Y281D01*
X78Y281D01*
X78Y281D01*
X78Y281D01*
X78Y282D01*
X78Y282D01*
G37*
D02*
G36*
X111Y280D02*
X111Y279D01*
X110Y279D01*
X110Y280D01*
X111Y280D01*
X111Y280D01*
X111Y280D01*
G37*
D02*
G36*
X97Y280D02*
X97Y279D01*
X96Y279D01*
X96Y279D01*
X96Y279D01*
X96Y280D01*
X96Y280D01*
X96Y280D01*
X97Y280D01*
G37*
D02*
G36*
X93Y280D02*
X93Y279D01*
X92Y279D01*
X92Y280D01*
X93Y280D01*
X93Y280D01*
X93Y280D01*
G37*
D02*
G36*
X78Y280D02*
X78Y279D01*
X78Y279D01*
X78Y280D01*
X78Y280D01*
X78Y280D01*
X78Y280D01*
G37*
D02*
G36*
X114Y275D02*
X114Y275D01*
X115Y275D01*
X115Y274D01*
X114Y274D01*
X114Y274D01*
X114Y274D01*
X114Y275D01*
X114Y275D01*
G37*
D02*
G36*
X97Y275D02*
X97Y275D01*
X96Y275D01*
X96Y274D01*
X96Y274D01*
X96Y275D01*
X97Y275D01*
G37*
D02*
G36*
X75Y275D02*
X75Y274D01*
X74Y274D01*
X74Y274D01*
X74Y274D01*
X74Y275D01*
X75Y275D01*
G37*
D02*
G36*
X115Y273D02*
X115Y272D01*
X114Y272D01*
X114Y273D01*
X114Y273D01*
X114Y273D01*
X115Y273D01*
G37*
D02*
G36*
X97Y273D02*
X97Y272D01*
X96Y272D01*
X96Y273D01*
X96Y273D01*
X96Y273D01*
X97Y273D01*
G37*
D02*
G36*
X75Y273D02*
X75Y272D01*
X74Y272D01*
X74Y273D01*
X74Y273D01*
X74Y273D01*
X75Y273D01*
G37*
D02*
G04 End of Silk0*
M02*