G04 MADE WITH FRITZING*
G04 WWW.FRITZING.ORG*
G04 DOUBLE SIDED*
G04 HOLES PLATED*
G04 CONTOUR ON CENTER OF CONTOUR VECTOR*
%ASAXBY*%
%FSLAX23Y23*%
%MOIN*%
%OFA0B0*%
%SFA1.0B1.0*%
%ADD10C,0.010417*%
%ADD11C,0.010000*%
%ADD12C,0.020000*%
%ADD13R,0.001000X0.001000*%
%LNSILK1*%
G90*
G70*
G54D10*
X1729Y7D02*
X2125Y7D01*
D02*
X14Y16D02*
X410Y16D01*
G54D11*
D02*
X732Y322D02*
X537Y322D01*
D02*
X537Y412D02*
X732Y412D01*
D02*
X732Y412D02*
X732Y322D01*
G54D12*
D02*
X712Y412D02*
X712Y322D01*
G54D11*
D02*
X1278Y332D02*
X1078Y332D01*
D02*
X1078Y332D02*
X1078Y398D01*
D02*
X1078Y398D02*
X1278Y398D01*
D02*
X1278Y398D02*
X1278Y332D01*
D02*
X1076Y130D02*
X1276Y130D01*
D02*
X1276Y130D02*
X1276Y64D01*
D02*
X1276Y64D02*
X1076Y64D01*
D02*
X1076Y64D02*
X1076Y130D01*
D02*
X1645Y296D02*
X1645Y156D01*
D02*
X573Y117D02*
X723Y117D01*
D02*
X723Y117D02*
X723Y67D01*
D02*
X723Y67D02*
X573Y67D01*
D02*
X573Y67D02*
X573Y117D01*
G54D13*
X0Y423D02*
X2129Y423D01*
X0Y422D02*
X2129Y422D01*
X0Y421D02*
X2129Y421D01*
X0Y420D02*
X2129Y420D01*
X0Y419D02*
X2129Y419D01*
X0Y418D02*
X2129Y418D01*
X0Y417D02*
X2129Y417D01*
X0Y416D02*
X2129Y416D01*
X0Y415D02*
X7Y415D01*
X9Y415D02*
X18Y415D01*
X151Y415D02*
X161Y415D01*
X404Y415D02*
X414Y415D01*
X1723Y415D02*
X2129Y415D01*
X0Y414D02*
X7Y414D01*
X9Y414D02*
X18Y414D01*
X151Y414D02*
X161Y414D01*
X404Y414D02*
X414Y414D01*
X1723Y414D02*
X2129Y414D01*
X0Y413D02*
X7Y413D01*
X9Y413D02*
X18Y413D01*
X151Y413D02*
X161Y413D01*
X404Y413D02*
X414Y413D01*
X1723Y413D02*
X1732Y413D01*
X1976Y413D02*
X1986Y413D01*
X2119Y413D02*
X2129Y413D01*
X0Y412D02*
X7Y412D01*
X9Y412D02*
X18Y412D01*
X151Y412D02*
X161Y412D01*
X404Y412D02*
X414Y412D01*
X532Y412D02*
X541Y412D01*
X1723Y412D02*
X1732Y412D01*
X1976Y412D02*
X1986Y412D01*
X2119Y412D02*
X2129Y412D01*
X0Y411D02*
X7Y411D01*
X9Y411D02*
X18Y411D01*
X151Y411D02*
X161Y411D01*
X404Y411D02*
X414Y411D01*
X532Y411D02*
X541Y411D01*
X1723Y411D02*
X1732Y411D01*
X1976Y411D02*
X1986Y411D01*
X2119Y411D02*
X2129Y411D01*
X0Y410D02*
X7Y410D01*
X9Y410D02*
X18Y410D01*
X151Y410D02*
X161Y410D01*
X404Y410D02*
X414Y410D01*
X532Y410D02*
X541Y410D01*
X1723Y410D02*
X1732Y410D01*
X1976Y410D02*
X1986Y410D01*
X2119Y410D02*
X2129Y410D01*
X0Y409D02*
X7Y409D01*
X9Y409D02*
X18Y409D01*
X151Y409D02*
X161Y409D01*
X404Y409D02*
X414Y409D01*
X532Y409D02*
X541Y409D01*
X1723Y409D02*
X1732Y409D01*
X1976Y409D02*
X1986Y409D01*
X2119Y409D02*
X2129Y409D01*
X0Y408D02*
X7Y408D01*
X9Y408D02*
X18Y408D01*
X151Y408D02*
X161Y408D01*
X404Y408D02*
X414Y408D01*
X532Y408D02*
X541Y408D01*
X1723Y408D02*
X1732Y408D01*
X1976Y408D02*
X1986Y408D01*
X2119Y408D02*
X2129Y408D01*
X0Y407D02*
X7Y407D01*
X9Y407D02*
X18Y407D01*
X151Y407D02*
X161Y407D01*
X404Y407D02*
X414Y407D01*
X532Y407D02*
X541Y407D01*
X1723Y407D02*
X1732Y407D01*
X1976Y407D02*
X1986Y407D01*
X2119Y407D02*
X2129Y407D01*
X0Y406D02*
X7Y406D01*
X9Y406D02*
X18Y406D01*
X151Y406D02*
X161Y406D01*
X404Y406D02*
X414Y406D01*
X532Y406D02*
X541Y406D01*
X1723Y406D02*
X1732Y406D01*
X1976Y406D02*
X1986Y406D01*
X2119Y406D02*
X2129Y406D01*
X0Y405D02*
X7Y405D01*
X9Y405D02*
X18Y405D01*
X151Y405D02*
X161Y405D01*
X404Y405D02*
X414Y405D01*
X532Y405D02*
X541Y405D01*
X1723Y405D02*
X1732Y405D01*
X1976Y405D02*
X1986Y405D01*
X2119Y405D02*
X2129Y405D01*
X0Y404D02*
X7Y404D01*
X9Y404D02*
X18Y404D01*
X151Y404D02*
X161Y404D01*
X404Y404D02*
X414Y404D01*
X532Y404D02*
X541Y404D01*
X1723Y404D02*
X1732Y404D01*
X1976Y404D02*
X1986Y404D01*
X2119Y404D02*
X2129Y404D01*
X0Y403D02*
X7Y403D01*
X9Y403D02*
X18Y403D01*
X151Y403D02*
X161Y403D01*
X404Y403D02*
X414Y403D01*
X532Y403D02*
X541Y403D01*
X1723Y403D02*
X1732Y403D01*
X1976Y403D02*
X1986Y403D01*
X2119Y403D02*
X2129Y403D01*
X0Y402D02*
X7Y402D01*
X9Y402D02*
X18Y402D01*
X151Y402D02*
X161Y402D01*
X404Y402D02*
X414Y402D01*
X532Y402D02*
X541Y402D01*
X1723Y402D02*
X1732Y402D01*
X1976Y402D02*
X1986Y402D01*
X2119Y402D02*
X2129Y402D01*
X0Y401D02*
X7Y401D01*
X9Y401D02*
X18Y401D01*
X151Y401D02*
X161Y401D01*
X404Y401D02*
X414Y401D01*
X532Y401D02*
X541Y401D01*
X1723Y401D02*
X1732Y401D01*
X1976Y401D02*
X1986Y401D01*
X2119Y401D02*
X2129Y401D01*
X0Y400D02*
X7Y400D01*
X9Y400D02*
X18Y400D01*
X151Y400D02*
X161Y400D01*
X404Y400D02*
X414Y400D01*
X532Y400D02*
X541Y400D01*
X1723Y400D02*
X1732Y400D01*
X1976Y400D02*
X1986Y400D01*
X2119Y400D02*
X2129Y400D01*
X0Y399D02*
X7Y399D01*
X9Y399D02*
X18Y399D01*
X151Y399D02*
X161Y399D01*
X404Y399D02*
X414Y399D01*
X532Y399D02*
X541Y399D01*
X1723Y399D02*
X1732Y399D01*
X1976Y399D02*
X1986Y399D01*
X2119Y399D02*
X2129Y399D01*
X0Y398D02*
X7Y398D01*
X9Y398D02*
X18Y398D01*
X151Y398D02*
X161Y398D01*
X404Y398D02*
X414Y398D01*
X532Y398D02*
X541Y398D01*
X1723Y398D02*
X1732Y398D01*
X1976Y398D02*
X1986Y398D01*
X2119Y398D02*
X2129Y398D01*
X0Y397D02*
X7Y397D01*
X9Y397D02*
X18Y397D01*
X151Y397D02*
X161Y397D01*
X404Y397D02*
X414Y397D01*
X532Y397D02*
X541Y397D01*
X1723Y397D02*
X1732Y397D01*
X1976Y397D02*
X1986Y397D01*
X2119Y397D02*
X2129Y397D01*
X0Y396D02*
X7Y396D01*
X9Y396D02*
X18Y396D01*
X151Y396D02*
X161Y396D01*
X404Y396D02*
X414Y396D01*
X532Y396D02*
X541Y396D01*
X1723Y396D02*
X1732Y396D01*
X1976Y396D02*
X1986Y396D01*
X2119Y396D02*
X2129Y396D01*
X0Y395D02*
X7Y395D01*
X9Y395D02*
X18Y395D01*
X151Y395D02*
X161Y395D01*
X404Y395D02*
X414Y395D01*
X532Y395D02*
X541Y395D01*
X1723Y395D02*
X1732Y395D01*
X1976Y395D02*
X1986Y395D01*
X2119Y395D02*
X2129Y395D01*
X0Y394D02*
X7Y394D01*
X9Y394D02*
X18Y394D01*
X151Y394D02*
X161Y394D01*
X404Y394D02*
X414Y394D01*
X532Y394D02*
X541Y394D01*
X1723Y394D02*
X1732Y394D01*
X1976Y394D02*
X1986Y394D01*
X2119Y394D02*
X2129Y394D01*
X0Y393D02*
X7Y393D01*
X9Y393D02*
X18Y393D01*
X151Y393D02*
X161Y393D01*
X404Y393D02*
X414Y393D01*
X532Y393D02*
X541Y393D01*
X1723Y393D02*
X1732Y393D01*
X1976Y393D02*
X1986Y393D01*
X2119Y393D02*
X2129Y393D01*
X0Y392D02*
X7Y392D01*
X9Y392D02*
X18Y392D01*
X151Y392D02*
X161Y392D01*
X404Y392D02*
X414Y392D01*
X532Y392D02*
X541Y392D01*
X1723Y392D02*
X1732Y392D01*
X1976Y392D02*
X1986Y392D01*
X2119Y392D02*
X2129Y392D01*
X0Y391D02*
X7Y391D01*
X9Y391D02*
X18Y391D01*
X151Y391D02*
X161Y391D01*
X404Y391D02*
X414Y391D01*
X532Y391D02*
X541Y391D01*
X1723Y391D02*
X1732Y391D01*
X1976Y391D02*
X1986Y391D01*
X2119Y391D02*
X2129Y391D01*
X0Y390D02*
X7Y390D01*
X9Y390D02*
X18Y390D01*
X151Y390D02*
X161Y390D01*
X404Y390D02*
X414Y390D01*
X532Y390D02*
X541Y390D01*
X1723Y390D02*
X1732Y390D01*
X1976Y390D02*
X1986Y390D01*
X2119Y390D02*
X2129Y390D01*
X0Y389D02*
X7Y389D01*
X9Y389D02*
X18Y389D01*
X151Y389D02*
X161Y389D01*
X404Y389D02*
X414Y389D01*
X532Y389D02*
X541Y389D01*
X1723Y389D02*
X1732Y389D01*
X1976Y389D02*
X1986Y389D01*
X2119Y389D02*
X2129Y389D01*
X0Y388D02*
X7Y388D01*
X9Y388D02*
X18Y388D01*
X151Y388D02*
X161Y388D01*
X404Y388D02*
X414Y388D01*
X532Y388D02*
X541Y388D01*
X1723Y388D02*
X1732Y388D01*
X1976Y388D02*
X1986Y388D01*
X2119Y388D02*
X2129Y388D01*
X0Y387D02*
X7Y387D01*
X9Y387D02*
X18Y387D01*
X151Y387D02*
X161Y387D01*
X404Y387D02*
X414Y387D01*
X532Y387D02*
X541Y387D01*
X1723Y387D02*
X1732Y387D01*
X1976Y387D02*
X1986Y387D01*
X2119Y387D02*
X2129Y387D01*
X0Y386D02*
X7Y386D01*
X9Y386D02*
X18Y386D01*
X151Y386D02*
X161Y386D01*
X404Y386D02*
X414Y386D01*
X532Y386D02*
X541Y386D01*
X1723Y386D02*
X1732Y386D01*
X1976Y386D02*
X1986Y386D01*
X2119Y386D02*
X2129Y386D01*
X0Y385D02*
X7Y385D01*
X9Y385D02*
X18Y385D01*
X151Y385D02*
X161Y385D01*
X404Y385D02*
X414Y385D01*
X532Y385D02*
X541Y385D01*
X1723Y385D02*
X1732Y385D01*
X1976Y385D02*
X1986Y385D01*
X2119Y385D02*
X2129Y385D01*
X0Y384D02*
X7Y384D01*
X9Y384D02*
X18Y384D01*
X151Y384D02*
X161Y384D01*
X404Y384D02*
X414Y384D01*
X532Y384D02*
X541Y384D01*
X1723Y384D02*
X1732Y384D01*
X1976Y384D02*
X1986Y384D01*
X2119Y384D02*
X2129Y384D01*
X0Y383D02*
X7Y383D01*
X9Y383D02*
X18Y383D01*
X151Y383D02*
X161Y383D01*
X404Y383D02*
X414Y383D01*
X532Y383D02*
X541Y383D01*
X1723Y383D02*
X1732Y383D01*
X1976Y383D02*
X1986Y383D01*
X2119Y383D02*
X2129Y383D01*
X0Y382D02*
X7Y382D01*
X9Y382D02*
X18Y382D01*
X151Y382D02*
X161Y382D01*
X404Y382D02*
X414Y382D01*
X532Y382D02*
X541Y382D01*
X1723Y382D02*
X1732Y382D01*
X1976Y382D02*
X1986Y382D01*
X2119Y382D02*
X2129Y382D01*
X0Y381D02*
X7Y381D01*
X9Y381D02*
X18Y381D01*
X151Y381D02*
X161Y381D01*
X404Y381D02*
X414Y381D01*
X532Y381D02*
X541Y381D01*
X1723Y381D02*
X1732Y381D01*
X1976Y381D02*
X1986Y381D01*
X2119Y381D02*
X2129Y381D01*
X0Y380D02*
X7Y380D01*
X9Y380D02*
X18Y380D01*
X151Y380D02*
X161Y380D01*
X404Y380D02*
X414Y380D01*
X532Y380D02*
X541Y380D01*
X1723Y380D02*
X1732Y380D01*
X1976Y380D02*
X1986Y380D01*
X2119Y380D02*
X2129Y380D01*
X0Y379D02*
X7Y379D01*
X9Y379D02*
X18Y379D01*
X151Y379D02*
X161Y379D01*
X404Y379D02*
X414Y379D01*
X532Y379D02*
X541Y379D01*
X1723Y379D02*
X1732Y379D01*
X1976Y379D02*
X1986Y379D01*
X2119Y379D02*
X2129Y379D01*
X0Y378D02*
X7Y378D01*
X9Y378D02*
X18Y378D01*
X151Y378D02*
X161Y378D01*
X404Y378D02*
X414Y378D01*
X532Y378D02*
X541Y378D01*
X1723Y378D02*
X1732Y378D01*
X1976Y378D02*
X1986Y378D01*
X2119Y378D02*
X2129Y378D01*
X0Y377D02*
X7Y377D01*
X9Y377D02*
X18Y377D01*
X151Y377D02*
X161Y377D01*
X404Y377D02*
X414Y377D01*
X533Y377D02*
X541Y377D01*
X1723Y377D02*
X1732Y377D01*
X1976Y377D02*
X1986Y377D01*
X2119Y377D02*
X2129Y377D01*
X0Y376D02*
X7Y376D01*
X9Y376D02*
X18Y376D01*
X151Y376D02*
X161Y376D01*
X404Y376D02*
X414Y376D01*
X533Y376D02*
X541Y376D01*
X1723Y376D02*
X1732Y376D01*
X1976Y376D02*
X1986Y376D01*
X2119Y376D02*
X2129Y376D01*
X0Y375D02*
X7Y375D01*
X9Y375D02*
X18Y375D01*
X151Y375D02*
X161Y375D01*
X404Y375D02*
X414Y375D01*
X533Y375D02*
X541Y375D01*
X1723Y375D02*
X1732Y375D01*
X1976Y375D02*
X1986Y375D01*
X2119Y375D02*
X2129Y375D01*
X0Y374D02*
X7Y374D01*
X9Y374D02*
X18Y374D01*
X151Y374D02*
X161Y374D01*
X404Y374D02*
X414Y374D01*
X533Y374D02*
X541Y374D01*
X1723Y374D02*
X1732Y374D01*
X1976Y374D02*
X1986Y374D01*
X2119Y374D02*
X2129Y374D01*
X0Y373D02*
X7Y373D01*
X9Y373D02*
X18Y373D01*
X151Y373D02*
X161Y373D01*
X404Y373D02*
X414Y373D01*
X533Y373D02*
X541Y373D01*
X1723Y373D02*
X1732Y373D01*
X1976Y373D02*
X1986Y373D01*
X2119Y373D02*
X2129Y373D01*
X0Y372D02*
X7Y372D01*
X9Y372D02*
X18Y372D01*
X151Y372D02*
X161Y372D01*
X404Y372D02*
X414Y372D01*
X534Y372D02*
X541Y372D01*
X732Y372D02*
X739Y372D01*
X1723Y372D02*
X1732Y372D01*
X1976Y372D02*
X1986Y372D01*
X2119Y372D02*
X2129Y372D01*
X0Y371D02*
X7Y371D01*
X9Y371D02*
X18Y371D01*
X151Y371D02*
X161Y371D01*
X404Y371D02*
X414Y371D01*
X534Y371D02*
X541Y371D01*
X732Y371D02*
X739Y371D01*
X1723Y371D02*
X1732Y371D01*
X1976Y371D02*
X1986Y371D01*
X2119Y371D02*
X2129Y371D01*
X0Y370D02*
X7Y370D01*
X9Y370D02*
X18Y370D01*
X151Y370D02*
X161Y370D01*
X404Y370D02*
X414Y370D01*
X534Y370D02*
X541Y370D01*
X732Y370D02*
X739Y370D01*
X1029Y370D02*
X1076Y370D01*
X1277Y370D02*
X1343Y370D01*
X1723Y370D02*
X1732Y370D01*
X1976Y370D02*
X1986Y370D01*
X2119Y370D02*
X2129Y370D01*
X0Y369D02*
X7Y369D01*
X9Y369D02*
X18Y369D01*
X151Y369D02*
X161Y369D01*
X404Y369D02*
X414Y369D01*
X534Y369D02*
X541Y369D01*
X732Y369D02*
X739Y369D01*
X1029Y369D02*
X1076Y369D01*
X1277Y369D02*
X1343Y369D01*
X1723Y369D02*
X1732Y369D01*
X1976Y369D02*
X1986Y369D01*
X2119Y369D02*
X2129Y369D01*
X0Y368D02*
X7Y368D01*
X9Y368D02*
X18Y368D01*
X151Y368D02*
X161Y368D01*
X404Y368D02*
X414Y368D01*
X534Y368D02*
X541Y368D01*
X732Y368D02*
X739Y368D01*
X1029Y368D02*
X1076Y368D01*
X1277Y368D02*
X1343Y368D01*
X1723Y368D02*
X1732Y368D01*
X1976Y368D02*
X1986Y368D01*
X2119Y368D02*
X2129Y368D01*
X0Y367D02*
X7Y367D01*
X9Y367D02*
X18Y367D01*
X151Y367D02*
X161Y367D01*
X404Y367D02*
X414Y367D01*
X534Y367D02*
X541Y367D01*
X732Y367D02*
X739Y367D01*
X1029Y367D02*
X1076Y367D01*
X1277Y367D02*
X1343Y367D01*
X1723Y367D02*
X1732Y367D01*
X1976Y367D02*
X1986Y367D01*
X2119Y367D02*
X2129Y367D01*
X0Y366D02*
X7Y366D01*
X9Y366D02*
X18Y366D01*
X151Y366D02*
X161Y366D01*
X404Y366D02*
X414Y366D01*
X534Y366D02*
X541Y366D01*
X732Y366D02*
X739Y366D01*
X1029Y366D02*
X1076Y366D01*
X1277Y366D02*
X1343Y366D01*
X1723Y366D02*
X1732Y366D01*
X1976Y366D02*
X1986Y366D01*
X2119Y366D02*
X2129Y366D01*
X0Y365D02*
X7Y365D01*
X9Y365D02*
X18Y365D01*
X151Y365D02*
X161Y365D01*
X404Y365D02*
X414Y365D01*
X534Y365D02*
X541Y365D01*
X732Y365D02*
X739Y365D01*
X1029Y365D02*
X1076Y365D01*
X1277Y365D02*
X1343Y365D01*
X1723Y365D02*
X1732Y365D01*
X1976Y365D02*
X1986Y365D01*
X2119Y365D02*
X2129Y365D01*
X0Y364D02*
X7Y364D01*
X9Y364D02*
X18Y364D01*
X151Y364D02*
X161Y364D01*
X404Y364D02*
X414Y364D01*
X534Y364D02*
X541Y364D01*
X732Y364D02*
X739Y364D01*
X1029Y364D02*
X1076Y364D01*
X1277Y364D02*
X1343Y364D01*
X1723Y364D02*
X1732Y364D01*
X1976Y364D02*
X1986Y364D01*
X2119Y364D02*
X2129Y364D01*
X0Y363D02*
X7Y363D01*
X9Y363D02*
X18Y363D01*
X151Y363D02*
X161Y363D01*
X404Y363D02*
X414Y363D01*
X534Y363D02*
X541Y363D01*
X732Y363D02*
X739Y363D01*
X1029Y363D02*
X1076Y363D01*
X1277Y363D02*
X1343Y363D01*
X1723Y363D02*
X1732Y363D01*
X1976Y363D02*
X1986Y363D01*
X2119Y363D02*
X2129Y363D01*
X0Y362D02*
X7Y362D01*
X9Y362D02*
X18Y362D01*
X151Y362D02*
X161Y362D01*
X404Y362D02*
X414Y362D01*
X533Y362D02*
X541Y362D01*
X1029Y362D02*
X1076Y362D01*
X1277Y362D02*
X1343Y362D01*
X1723Y362D02*
X1732Y362D01*
X1976Y362D02*
X1986Y362D01*
X2119Y362D02*
X2129Y362D01*
X0Y361D02*
X7Y361D01*
X9Y361D02*
X18Y361D01*
X151Y361D02*
X161Y361D01*
X404Y361D02*
X414Y361D01*
X533Y361D02*
X541Y361D01*
X1029Y361D02*
X1076Y361D01*
X1277Y361D02*
X1343Y361D01*
X1723Y361D02*
X1732Y361D01*
X1976Y361D02*
X1986Y361D01*
X2119Y361D02*
X2129Y361D01*
X0Y360D02*
X7Y360D01*
X9Y360D02*
X18Y360D01*
X151Y360D02*
X161Y360D01*
X404Y360D02*
X414Y360D01*
X533Y360D02*
X541Y360D01*
X1723Y360D02*
X1732Y360D01*
X1976Y360D02*
X1986Y360D01*
X2119Y360D02*
X2129Y360D01*
X0Y359D02*
X7Y359D01*
X9Y359D02*
X18Y359D01*
X151Y359D02*
X161Y359D01*
X404Y359D02*
X414Y359D01*
X533Y359D02*
X541Y359D01*
X1723Y359D02*
X1732Y359D01*
X1976Y359D02*
X1986Y359D01*
X2119Y359D02*
X2129Y359D01*
X0Y358D02*
X7Y358D01*
X9Y358D02*
X18Y358D01*
X151Y358D02*
X161Y358D01*
X404Y358D02*
X414Y358D01*
X533Y358D02*
X541Y358D01*
X1723Y358D02*
X1732Y358D01*
X1976Y358D02*
X1986Y358D01*
X2119Y358D02*
X2129Y358D01*
X0Y357D02*
X7Y357D01*
X9Y357D02*
X18Y357D01*
X151Y357D02*
X161Y357D01*
X404Y357D02*
X414Y357D01*
X533Y357D02*
X541Y357D01*
X1723Y357D02*
X1732Y357D01*
X1976Y357D02*
X1986Y357D01*
X2119Y357D02*
X2129Y357D01*
X0Y356D02*
X7Y356D01*
X9Y356D02*
X18Y356D01*
X151Y356D02*
X161Y356D01*
X404Y356D02*
X414Y356D01*
X532Y356D02*
X541Y356D01*
X1723Y356D02*
X1732Y356D01*
X1976Y356D02*
X1986Y356D01*
X2119Y356D02*
X2129Y356D01*
X0Y355D02*
X7Y355D01*
X9Y355D02*
X18Y355D01*
X151Y355D02*
X161Y355D01*
X404Y355D02*
X414Y355D01*
X532Y355D02*
X541Y355D01*
X1723Y355D02*
X1732Y355D01*
X1976Y355D02*
X1986Y355D01*
X2119Y355D02*
X2129Y355D01*
X0Y354D02*
X7Y354D01*
X9Y354D02*
X18Y354D01*
X151Y354D02*
X161Y354D01*
X404Y354D02*
X414Y354D01*
X532Y354D02*
X541Y354D01*
X1723Y354D02*
X1732Y354D01*
X1976Y354D02*
X1986Y354D01*
X2119Y354D02*
X2129Y354D01*
X0Y353D02*
X7Y353D01*
X9Y353D02*
X18Y353D01*
X151Y353D02*
X161Y353D01*
X404Y353D02*
X414Y353D01*
X532Y353D02*
X541Y353D01*
X1723Y353D02*
X1732Y353D01*
X1976Y353D02*
X1986Y353D01*
X2119Y353D02*
X2129Y353D01*
X0Y352D02*
X7Y352D01*
X9Y352D02*
X18Y352D01*
X151Y352D02*
X161Y352D01*
X404Y352D02*
X414Y352D01*
X532Y352D02*
X541Y352D01*
X1723Y352D02*
X1732Y352D01*
X1976Y352D02*
X1986Y352D01*
X2119Y352D02*
X2129Y352D01*
X0Y351D02*
X7Y351D01*
X9Y351D02*
X18Y351D01*
X151Y351D02*
X161Y351D01*
X404Y351D02*
X414Y351D01*
X532Y351D02*
X541Y351D01*
X1723Y351D02*
X1732Y351D01*
X1976Y351D02*
X1986Y351D01*
X2119Y351D02*
X2129Y351D01*
X0Y350D02*
X7Y350D01*
X9Y350D02*
X18Y350D01*
X151Y350D02*
X161Y350D01*
X404Y350D02*
X414Y350D01*
X532Y350D02*
X541Y350D01*
X1723Y350D02*
X1732Y350D01*
X1976Y350D02*
X1986Y350D01*
X2119Y350D02*
X2129Y350D01*
X0Y349D02*
X7Y349D01*
X9Y349D02*
X18Y349D01*
X151Y349D02*
X161Y349D01*
X404Y349D02*
X414Y349D01*
X532Y349D02*
X541Y349D01*
X1723Y349D02*
X1732Y349D01*
X1976Y349D02*
X1986Y349D01*
X2119Y349D02*
X2129Y349D01*
X0Y348D02*
X7Y348D01*
X9Y348D02*
X18Y348D01*
X151Y348D02*
X161Y348D01*
X404Y348D02*
X414Y348D01*
X532Y348D02*
X541Y348D01*
X1723Y348D02*
X1732Y348D01*
X1976Y348D02*
X1986Y348D01*
X2119Y348D02*
X2129Y348D01*
X0Y347D02*
X7Y347D01*
X9Y347D02*
X18Y347D01*
X151Y347D02*
X161Y347D01*
X404Y347D02*
X414Y347D01*
X532Y347D02*
X541Y347D01*
X1723Y347D02*
X1732Y347D01*
X1976Y347D02*
X1986Y347D01*
X2119Y347D02*
X2129Y347D01*
X0Y346D02*
X7Y346D01*
X9Y346D02*
X18Y346D01*
X151Y346D02*
X161Y346D01*
X404Y346D02*
X414Y346D01*
X532Y346D02*
X541Y346D01*
X1723Y346D02*
X1732Y346D01*
X1976Y346D02*
X1986Y346D01*
X2119Y346D02*
X2129Y346D01*
X0Y345D02*
X7Y345D01*
X9Y345D02*
X18Y345D01*
X151Y345D02*
X161Y345D01*
X404Y345D02*
X414Y345D01*
X532Y345D02*
X541Y345D01*
X1723Y345D02*
X1732Y345D01*
X1976Y345D02*
X1986Y345D01*
X2119Y345D02*
X2129Y345D01*
X0Y344D02*
X7Y344D01*
X9Y344D02*
X18Y344D01*
X151Y344D02*
X161Y344D01*
X404Y344D02*
X414Y344D01*
X532Y344D02*
X541Y344D01*
X1723Y344D02*
X1732Y344D01*
X1976Y344D02*
X1986Y344D01*
X2119Y344D02*
X2129Y344D01*
X0Y343D02*
X7Y343D01*
X9Y343D02*
X18Y343D01*
X151Y343D02*
X161Y343D01*
X404Y343D02*
X414Y343D01*
X532Y343D02*
X541Y343D01*
X1723Y343D02*
X1732Y343D01*
X1976Y343D02*
X1986Y343D01*
X2119Y343D02*
X2129Y343D01*
X0Y342D02*
X7Y342D01*
X9Y342D02*
X18Y342D01*
X151Y342D02*
X161Y342D01*
X404Y342D02*
X414Y342D01*
X532Y342D02*
X541Y342D01*
X1723Y342D02*
X1732Y342D01*
X1976Y342D02*
X1986Y342D01*
X2119Y342D02*
X2129Y342D01*
X0Y341D02*
X7Y341D01*
X9Y341D02*
X18Y341D01*
X151Y341D02*
X161Y341D01*
X404Y341D02*
X414Y341D01*
X532Y341D02*
X541Y341D01*
X1723Y341D02*
X1732Y341D01*
X1976Y341D02*
X1986Y341D01*
X2119Y341D02*
X2129Y341D01*
X0Y340D02*
X7Y340D01*
X9Y340D02*
X18Y340D01*
X151Y340D02*
X161Y340D01*
X404Y340D02*
X414Y340D01*
X532Y340D02*
X541Y340D01*
X1723Y340D02*
X1732Y340D01*
X1976Y340D02*
X1986Y340D01*
X2119Y340D02*
X2129Y340D01*
X0Y339D02*
X7Y339D01*
X9Y339D02*
X18Y339D01*
X151Y339D02*
X161Y339D01*
X404Y339D02*
X414Y339D01*
X532Y339D02*
X541Y339D01*
X1723Y339D02*
X1732Y339D01*
X1976Y339D02*
X1986Y339D01*
X2119Y339D02*
X2129Y339D01*
X0Y338D02*
X7Y338D01*
X9Y338D02*
X18Y338D01*
X151Y338D02*
X161Y338D01*
X404Y338D02*
X414Y338D01*
X532Y338D02*
X541Y338D01*
X1723Y338D02*
X1732Y338D01*
X1976Y338D02*
X1986Y338D01*
X2119Y338D02*
X2129Y338D01*
X0Y337D02*
X7Y337D01*
X9Y337D02*
X18Y337D01*
X151Y337D02*
X161Y337D01*
X404Y337D02*
X414Y337D01*
X532Y337D02*
X541Y337D01*
X1723Y337D02*
X1732Y337D01*
X1976Y337D02*
X1986Y337D01*
X2119Y337D02*
X2129Y337D01*
X0Y336D02*
X7Y336D01*
X9Y336D02*
X18Y336D01*
X151Y336D02*
X161Y336D01*
X404Y336D02*
X414Y336D01*
X532Y336D02*
X541Y336D01*
X1723Y336D02*
X1732Y336D01*
X1976Y336D02*
X1986Y336D01*
X2119Y336D02*
X2129Y336D01*
X0Y335D02*
X7Y335D01*
X9Y335D02*
X18Y335D01*
X151Y335D02*
X161Y335D01*
X404Y335D02*
X414Y335D01*
X532Y335D02*
X541Y335D01*
X1723Y335D02*
X1732Y335D01*
X1976Y335D02*
X1986Y335D01*
X2119Y335D02*
X2129Y335D01*
X0Y334D02*
X7Y334D01*
X9Y334D02*
X18Y334D01*
X151Y334D02*
X161Y334D01*
X404Y334D02*
X414Y334D01*
X532Y334D02*
X541Y334D01*
X1723Y334D02*
X1732Y334D01*
X1976Y334D02*
X1986Y334D01*
X2119Y334D02*
X2129Y334D01*
X0Y333D02*
X7Y333D01*
X9Y333D02*
X18Y333D01*
X151Y333D02*
X161Y333D01*
X404Y333D02*
X414Y333D01*
X532Y333D02*
X541Y333D01*
X1723Y333D02*
X1732Y333D01*
X1976Y333D02*
X1986Y333D01*
X2119Y333D02*
X2129Y333D01*
X0Y332D02*
X7Y332D01*
X9Y332D02*
X18Y332D01*
X151Y332D02*
X161Y332D01*
X404Y332D02*
X414Y332D01*
X532Y332D02*
X541Y332D01*
X1723Y332D02*
X1732Y332D01*
X1976Y332D02*
X1986Y332D01*
X2119Y332D02*
X2129Y332D01*
X0Y331D02*
X7Y331D01*
X9Y331D02*
X18Y331D01*
X151Y331D02*
X161Y331D01*
X404Y331D02*
X414Y331D01*
X532Y331D02*
X541Y331D01*
X1723Y331D02*
X1732Y331D01*
X1976Y331D02*
X1986Y331D01*
X2119Y331D02*
X2129Y331D01*
X0Y330D02*
X7Y330D01*
X9Y330D02*
X18Y330D01*
X151Y330D02*
X161Y330D01*
X404Y330D02*
X414Y330D01*
X532Y330D02*
X541Y330D01*
X1723Y330D02*
X1732Y330D01*
X1976Y330D02*
X1986Y330D01*
X2119Y330D02*
X2129Y330D01*
X0Y329D02*
X7Y329D01*
X9Y329D02*
X18Y329D01*
X151Y329D02*
X161Y329D01*
X404Y329D02*
X414Y329D01*
X532Y329D02*
X541Y329D01*
X1723Y329D02*
X1732Y329D01*
X1976Y329D02*
X1986Y329D01*
X2119Y329D02*
X2129Y329D01*
X0Y328D02*
X7Y328D01*
X9Y328D02*
X18Y328D01*
X151Y328D02*
X161Y328D01*
X404Y328D02*
X414Y328D01*
X532Y328D02*
X541Y328D01*
X1723Y328D02*
X1732Y328D01*
X1976Y328D02*
X1986Y328D01*
X2119Y328D02*
X2129Y328D01*
X0Y327D02*
X7Y327D01*
X9Y327D02*
X18Y327D01*
X151Y327D02*
X161Y327D01*
X404Y327D02*
X414Y327D01*
X532Y327D02*
X541Y327D01*
X1723Y327D02*
X1732Y327D01*
X1976Y327D02*
X1986Y327D01*
X2119Y327D02*
X2129Y327D01*
X0Y326D02*
X7Y326D01*
X9Y326D02*
X18Y326D01*
X151Y326D02*
X161Y326D01*
X404Y326D02*
X414Y326D01*
X532Y326D02*
X541Y326D01*
X1723Y326D02*
X1732Y326D01*
X1976Y326D02*
X1986Y326D01*
X2119Y326D02*
X2129Y326D01*
X0Y325D02*
X7Y325D01*
X9Y325D02*
X18Y325D01*
X151Y325D02*
X161Y325D01*
X404Y325D02*
X414Y325D01*
X532Y325D02*
X541Y325D01*
X1723Y325D02*
X1732Y325D01*
X1976Y325D02*
X1986Y325D01*
X2119Y325D02*
X2129Y325D01*
X0Y324D02*
X7Y324D01*
X9Y324D02*
X18Y324D01*
X151Y324D02*
X161Y324D01*
X404Y324D02*
X414Y324D01*
X532Y324D02*
X541Y324D01*
X1723Y324D02*
X1732Y324D01*
X1976Y324D02*
X1986Y324D01*
X2119Y324D02*
X2129Y324D01*
X0Y323D02*
X7Y323D01*
X9Y323D02*
X18Y323D01*
X151Y323D02*
X161Y323D01*
X404Y323D02*
X414Y323D01*
X532Y323D02*
X541Y323D01*
X1723Y323D02*
X1732Y323D01*
X1976Y323D02*
X1986Y323D01*
X2119Y323D02*
X2129Y323D01*
X0Y322D02*
X7Y322D01*
X9Y322D02*
X18Y322D01*
X151Y322D02*
X161Y322D01*
X404Y322D02*
X414Y322D01*
X1723Y322D02*
X1732Y322D01*
X1976Y322D02*
X1986Y322D01*
X2119Y322D02*
X2129Y322D01*
X0Y321D02*
X7Y321D01*
X9Y321D02*
X18Y321D01*
X151Y321D02*
X161Y321D01*
X404Y321D02*
X414Y321D01*
X1723Y321D02*
X1732Y321D01*
X1976Y321D02*
X1986Y321D01*
X2119Y321D02*
X2129Y321D01*
X0Y320D02*
X7Y320D01*
X9Y320D02*
X18Y320D01*
X151Y320D02*
X161Y320D01*
X404Y320D02*
X414Y320D01*
X1723Y320D02*
X1732Y320D01*
X1976Y320D02*
X1986Y320D01*
X2119Y320D02*
X2129Y320D01*
X0Y319D02*
X7Y319D01*
X9Y319D02*
X18Y319D01*
X151Y319D02*
X161Y319D01*
X404Y319D02*
X414Y319D01*
X1723Y319D02*
X1732Y319D01*
X1976Y319D02*
X1986Y319D01*
X2119Y319D02*
X2129Y319D01*
X0Y318D02*
X7Y318D01*
X9Y318D02*
X18Y318D01*
X151Y318D02*
X161Y318D01*
X404Y318D02*
X414Y318D01*
X1532Y318D02*
X1538Y318D01*
X1723Y318D02*
X1732Y318D01*
X1976Y318D02*
X1986Y318D01*
X2119Y318D02*
X2129Y318D01*
X0Y317D02*
X7Y317D01*
X9Y317D02*
X18Y317D01*
X151Y317D02*
X161Y317D01*
X404Y317D02*
X414Y317D01*
X1528Y317D02*
X1538Y317D01*
X1723Y317D02*
X1732Y317D01*
X1976Y317D02*
X1986Y317D01*
X2119Y317D02*
X2129Y317D01*
X0Y316D02*
X7Y316D01*
X9Y316D02*
X18Y316D01*
X151Y316D02*
X161Y316D01*
X404Y316D02*
X414Y316D01*
X1525Y316D02*
X1538Y316D01*
X1723Y316D02*
X1732Y316D01*
X1976Y316D02*
X1986Y316D01*
X2119Y316D02*
X2129Y316D01*
X0Y315D02*
X7Y315D01*
X9Y315D02*
X18Y315D01*
X151Y315D02*
X161Y315D01*
X404Y315D02*
X414Y315D01*
X1522Y315D02*
X1538Y315D01*
X1723Y315D02*
X1732Y315D01*
X1976Y315D02*
X1986Y315D01*
X2119Y315D02*
X2129Y315D01*
X0Y314D02*
X7Y314D01*
X9Y314D02*
X18Y314D01*
X151Y314D02*
X161Y314D01*
X404Y314D02*
X414Y314D01*
X1520Y314D02*
X1539Y314D01*
X1723Y314D02*
X1732Y314D01*
X1976Y314D02*
X1986Y314D01*
X2119Y314D02*
X2129Y314D01*
X0Y313D02*
X7Y313D01*
X9Y313D02*
X18Y313D01*
X151Y313D02*
X161Y313D01*
X404Y313D02*
X414Y313D01*
X1518Y313D02*
X1539Y313D01*
X1723Y313D02*
X1732Y313D01*
X1976Y313D02*
X1986Y313D01*
X2119Y313D02*
X2129Y313D01*
X0Y312D02*
X7Y312D01*
X9Y312D02*
X18Y312D01*
X151Y312D02*
X161Y312D01*
X404Y312D02*
X414Y312D01*
X1517Y312D02*
X1539Y312D01*
X1723Y312D02*
X1732Y312D01*
X1976Y312D02*
X1986Y312D01*
X2119Y312D02*
X2129Y312D01*
X0Y311D02*
X7Y311D01*
X9Y311D02*
X18Y311D01*
X151Y311D02*
X161Y311D01*
X404Y311D02*
X414Y311D01*
X1515Y311D02*
X1540Y311D01*
X1723Y311D02*
X1732Y311D01*
X1976Y311D02*
X1986Y311D01*
X2119Y311D02*
X2129Y311D01*
X0Y310D02*
X7Y310D01*
X9Y310D02*
X18Y310D01*
X151Y310D02*
X161Y310D01*
X404Y310D02*
X414Y310D01*
X1514Y310D02*
X1540Y310D01*
X1723Y310D02*
X1732Y310D01*
X1976Y310D02*
X1986Y310D01*
X2119Y310D02*
X2129Y310D01*
X0Y309D02*
X7Y309D01*
X9Y309D02*
X18Y309D01*
X151Y309D02*
X161Y309D01*
X404Y309D02*
X414Y309D01*
X1512Y309D02*
X1538Y309D01*
X1723Y309D02*
X1732Y309D01*
X1976Y309D02*
X1986Y309D01*
X2119Y309D02*
X2129Y309D01*
X0Y308D02*
X7Y308D01*
X9Y308D02*
X18Y308D01*
X151Y308D02*
X161Y308D01*
X404Y308D02*
X414Y308D01*
X1511Y308D02*
X1531Y308D01*
X1723Y308D02*
X1732Y308D01*
X1976Y308D02*
X1986Y308D01*
X2119Y308D02*
X2129Y308D01*
X0Y307D02*
X7Y307D01*
X9Y307D02*
X18Y307D01*
X151Y307D02*
X161Y307D01*
X404Y307D02*
X414Y307D01*
X1510Y307D02*
X1527Y307D01*
X1723Y307D02*
X1732Y307D01*
X1976Y307D02*
X1986Y307D01*
X2119Y307D02*
X2129Y307D01*
X0Y306D02*
X7Y306D01*
X9Y306D02*
X18Y306D01*
X151Y306D02*
X161Y306D01*
X404Y306D02*
X414Y306D01*
X1509Y306D02*
X1525Y306D01*
X1723Y306D02*
X1732Y306D01*
X1976Y306D02*
X1986Y306D01*
X2119Y306D02*
X2129Y306D01*
X0Y305D02*
X7Y305D01*
X9Y305D02*
X18Y305D01*
X151Y305D02*
X161Y305D01*
X404Y305D02*
X414Y305D01*
X1508Y305D02*
X1523Y305D01*
X1723Y305D02*
X1732Y305D01*
X1976Y305D02*
X1986Y305D01*
X2119Y305D02*
X2129Y305D01*
X0Y304D02*
X7Y304D01*
X9Y304D02*
X18Y304D01*
X151Y304D02*
X161Y304D01*
X404Y304D02*
X414Y304D01*
X1507Y304D02*
X1521Y304D01*
X1723Y304D02*
X1732Y304D01*
X1976Y304D02*
X1986Y304D01*
X2119Y304D02*
X2129Y304D01*
X0Y303D02*
X7Y303D01*
X9Y303D02*
X18Y303D01*
X151Y303D02*
X161Y303D01*
X404Y303D02*
X414Y303D01*
X1506Y303D02*
X1519Y303D01*
X1723Y303D02*
X1732Y303D01*
X1976Y303D02*
X1986Y303D01*
X2119Y303D02*
X2129Y303D01*
X0Y302D02*
X7Y302D01*
X9Y302D02*
X18Y302D01*
X151Y302D02*
X161Y302D01*
X404Y302D02*
X414Y302D01*
X1505Y302D02*
X1518Y302D01*
X1723Y302D02*
X1732Y302D01*
X1976Y302D02*
X1986Y302D01*
X2119Y302D02*
X2129Y302D01*
X0Y301D02*
X7Y301D01*
X9Y301D02*
X18Y301D01*
X151Y301D02*
X161Y301D01*
X404Y301D02*
X414Y301D01*
X1504Y301D02*
X1517Y301D01*
X1723Y301D02*
X1732Y301D01*
X1976Y301D02*
X1986Y301D01*
X2119Y301D02*
X2129Y301D01*
X0Y300D02*
X7Y300D01*
X9Y300D02*
X18Y300D01*
X151Y300D02*
X161Y300D01*
X404Y300D02*
X414Y300D01*
X1503Y300D02*
X1516Y300D01*
X1723Y300D02*
X1732Y300D01*
X1976Y300D02*
X1986Y300D01*
X2119Y300D02*
X2129Y300D01*
X0Y299D02*
X7Y299D01*
X9Y299D02*
X18Y299D01*
X151Y299D02*
X161Y299D01*
X404Y299D02*
X414Y299D01*
X1502Y299D02*
X1514Y299D01*
X1723Y299D02*
X1732Y299D01*
X1976Y299D02*
X1986Y299D01*
X2119Y299D02*
X2129Y299D01*
X0Y298D02*
X7Y298D01*
X9Y298D02*
X18Y298D01*
X151Y298D02*
X161Y298D01*
X404Y298D02*
X414Y298D01*
X1501Y298D02*
X1513Y298D01*
X1723Y298D02*
X1732Y298D01*
X1976Y298D02*
X1986Y298D01*
X2119Y298D02*
X2129Y298D01*
X0Y297D02*
X7Y297D01*
X9Y297D02*
X18Y297D01*
X151Y297D02*
X161Y297D01*
X404Y297D02*
X414Y297D01*
X1500Y297D02*
X1512Y297D01*
X1723Y297D02*
X1732Y297D01*
X1976Y297D02*
X1986Y297D01*
X2119Y297D02*
X2129Y297D01*
X0Y296D02*
X7Y296D01*
X9Y296D02*
X18Y296D01*
X151Y296D02*
X161Y296D01*
X404Y296D02*
X414Y296D01*
X1500Y296D02*
X1511Y296D01*
X1723Y296D02*
X1732Y296D01*
X1976Y296D02*
X1986Y296D01*
X2119Y296D02*
X2129Y296D01*
X0Y295D02*
X7Y295D01*
X9Y295D02*
X18Y295D01*
X151Y295D02*
X161Y295D01*
X404Y295D02*
X414Y295D01*
X1499Y295D02*
X1511Y295D01*
X1723Y295D02*
X1732Y295D01*
X1976Y295D02*
X1986Y295D01*
X2119Y295D02*
X2129Y295D01*
X0Y294D02*
X7Y294D01*
X9Y294D02*
X18Y294D01*
X151Y294D02*
X161Y294D01*
X404Y294D02*
X414Y294D01*
X1498Y294D02*
X1510Y294D01*
X1723Y294D02*
X1732Y294D01*
X1976Y294D02*
X1986Y294D01*
X2119Y294D02*
X2129Y294D01*
X0Y293D02*
X7Y293D01*
X9Y293D02*
X18Y293D01*
X151Y293D02*
X161Y293D01*
X404Y293D02*
X414Y293D01*
X1498Y293D02*
X1509Y293D01*
X1723Y293D02*
X1732Y293D01*
X1976Y293D02*
X1986Y293D01*
X2119Y293D02*
X2129Y293D01*
X0Y292D02*
X7Y292D01*
X9Y292D02*
X18Y292D01*
X151Y292D02*
X161Y292D01*
X404Y292D02*
X414Y292D01*
X1497Y292D02*
X1508Y292D01*
X1723Y292D02*
X1732Y292D01*
X1976Y292D02*
X1986Y292D01*
X2119Y292D02*
X2129Y292D01*
X0Y291D02*
X7Y291D01*
X9Y291D02*
X18Y291D01*
X151Y291D02*
X161Y291D01*
X404Y291D02*
X414Y291D01*
X1496Y291D02*
X1507Y291D01*
X1723Y291D02*
X1732Y291D01*
X1976Y291D02*
X1986Y291D01*
X2119Y291D02*
X2129Y291D01*
X0Y290D02*
X7Y290D01*
X9Y290D02*
X18Y290D01*
X151Y290D02*
X161Y290D01*
X404Y290D02*
X414Y290D01*
X1496Y290D02*
X1507Y290D01*
X1723Y290D02*
X1732Y290D01*
X1976Y290D02*
X1986Y290D01*
X2119Y290D02*
X2129Y290D01*
X0Y289D02*
X7Y289D01*
X9Y289D02*
X18Y289D01*
X151Y289D02*
X161Y289D01*
X404Y289D02*
X414Y289D01*
X1495Y289D02*
X1506Y289D01*
X1723Y289D02*
X1732Y289D01*
X1976Y289D02*
X1986Y289D01*
X2119Y289D02*
X2129Y289D01*
X0Y288D02*
X7Y288D01*
X9Y288D02*
X18Y288D01*
X151Y288D02*
X161Y288D01*
X404Y288D02*
X414Y288D01*
X1495Y288D02*
X1505Y288D01*
X1723Y288D02*
X1732Y288D01*
X1976Y288D02*
X1986Y288D01*
X2119Y288D02*
X2129Y288D01*
X0Y287D02*
X7Y287D01*
X9Y287D02*
X18Y287D01*
X151Y287D02*
X161Y287D01*
X404Y287D02*
X414Y287D01*
X1494Y287D02*
X1505Y287D01*
X1723Y287D02*
X1732Y287D01*
X1976Y287D02*
X1986Y287D01*
X2119Y287D02*
X2129Y287D01*
X0Y286D02*
X7Y286D01*
X9Y286D02*
X18Y286D01*
X151Y286D02*
X161Y286D01*
X404Y286D02*
X414Y286D01*
X1138Y286D02*
X1188Y286D01*
X1494Y286D02*
X1504Y286D01*
X1723Y286D02*
X1732Y286D01*
X1976Y286D02*
X1986Y286D01*
X2119Y286D02*
X2129Y286D01*
X0Y285D02*
X7Y285D01*
X9Y285D02*
X18Y285D01*
X151Y285D02*
X161Y285D01*
X404Y285D02*
X414Y285D01*
X1136Y285D02*
X1188Y285D01*
X1493Y285D02*
X1503Y285D01*
X1723Y285D02*
X1732Y285D01*
X1976Y285D02*
X1986Y285D01*
X2119Y285D02*
X2129Y285D01*
X0Y284D02*
X7Y284D01*
X9Y284D02*
X18Y284D01*
X151Y284D02*
X161Y284D01*
X404Y284D02*
X414Y284D01*
X1135Y284D02*
X1188Y284D01*
X1492Y284D02*
X1503Y284D01*
X1723Y284D02*
X1732Y284D01*
X1976Y284D02*
X1986Y284D01*
X2119Y284D02*
X2129Y284D01*
X0Y283D02*
X7Y283D01*
X9Y283D02*
X18Y283D01*
X151Y283D02*
X161Y283D01*
X404Y283D02*
X414Y283D01*
X1135Y283D02*
X1188Y283D01*
X1492Y283D02*
X1502Y283D01*
X1723Y283D02*
X1732Y283D01*
X1976Y283D02*
X1986Y283D01*
X2119Y283D02*
X2129Y283D01*
X0Y282D02*
X7Y282D01*
X9Y282D02*
X18Y282D01*
X151Y282D02*
X161Y282D01*
X404Y282D02*
X414Y282D01*
X1135Y282D02*
X1188Y282D01*
X1492Y282D02*
X1502Y282D01*
X1723Y282D02*
X1732Y282D01*
X1976Y282D02*
X1986Y282D01*
X2119Y282D02*
X2129Y282D01*
X0Y281D02*
X7Y281D01*
X9Y281D02*
X18Y281D01*
X151Y281D02*
X161Y281D01*
X404Y281D02*
X414Y281D01*
X1135Y281D02*
X1188Y281D01*
X1491Y281D02*
X1501Y281D01*
X1723Y281D02*
X1732Y281D01*
X1976Y281D02*
X1986Y281D01*
X2119Y281D02*
X2129Y281D01*
X0Y280D02*
X7Y280D01*
X9Y280D02*
X18Y280D01*
X151Y280D02*
X161Y280D01*
X404Y280D02*
X414Y280D01*
X607Y280D02*
X607Y280D01*
X654Y280D02*
X654Y280D01*
X1136Y280D02*
X1188Y280D01*
X1491Y280D02*
X1501Y280D01*
X1723Y280D02*
X1732Y280D01*
X1976Y280D02*
X1986Y280D01*
X2119Y280D02*
X2129Y280D01*
X0Y279D02*
X7Y279D01*
X9Y279D02*
X18Y279D01*
X151Y279D02*
X161Y279D01*
X404Y279D02*
X414Y279D01*
X605Y279D02*
X609Y279D01*
X652Y279D02*
X656Y279D01*
X1164Y279D02*
X1171Y279D01*
X1182Y279D02*
X1188Y279D01*
X1490Y279D02*
X1500Y279D01*
X1723Y279D02*
X1732Y279D01*
X1976Y279D02*
X1986Y279D01*
X2119Y279D02*
X2129Y279D01*
X0Y278D02*
X7Y278D01*
X9Y278D02*
X18Y278D01*
X151Y278D02*
X161Y278D01*
X404Y278D02*
X414Y278D01*
X604Y278D02*
X610Y278D01*
X651Y278D02*
X657Y278D01*
X1164Y278D02*
X1170Y278D01*
X1182Y278D02*
X1188Y278D01*
X1490Y278D02*
X1500Y278D01*
X1723Y278D02*
X1732Y278D01*
X1976Y278D02*
X1986Y278D01*
X2119Y278D02*
X2129Y278D01*
X0Y277D02*
X7Y277D01*
X9Y277D02*
X18Y277D01*
X151Y277D02*
X161Y277D01*
X404Y277D02*
X414Y277D01*
X604Y277D02*
X610Y277D01*
X651Y277D02*
X657Y277D01*
X1164Y277D02*
X1170Y277D01*
X1182Y277D02*
X1188Y277D01*
X1489Y277D02*
X1499Y277D01*
X1723Y277D02*
X1732Y277D01*
X1976Y277D02*
X1986Y277D01*
X2119Y277D02*
X2129Y277D01*
X0Y276D02*
X7Y276D01*
X9Y276D02*
X18Y276D01*
X151Y276D02*
X161Y276D01*
X404Y276D02*
X414Y276D01*
X604Y276D02*
X610Y276D01*
X651Y276D02*
X657Y276D01*
X1164Y276D02*
X1170Y276D01*
X1182Y276D02*
X1188Y276D01*
X1489Y276D02*
X1499Y276D01*
X1723Y276D02*
X1732Y276D01*
X1976Y276D02*
X1986Y276D01*
X2119Y276D02*
X2129Y276D01*
X0Y275D02*
X7Y275D01*
X9Y275D02*
X18Y275D01*
X151Y275D02*
X161Y275D01*
X404Y275D02*
X414Y275D01*
X604Y275D02*
X610Y275D01*
X651Y275D02*
X657Y275D01*
X1164Y275D02*
X1170Y275D01*
X1182Y275D02*
X1188Y275D01*
X1489Y275D02*
X1498Y275D01*
X1723Y275D02*
X1732Y275D01*
X1976Y275D02*
X1986Y275D01*
X2119Y275D02*
X2129Y275D01*
X0Y274D02*
X7Y274D01*
X9Y274D02*
X18Y274D01*
X151Y274D02*
X161Y274D01*
X404Y274D02*
X414Y274D01*
X604Y274D02*
X610Y274D01*
X651Y274D02*
X657Y274D01*
X1164Y274D02*
X1170Y274D01*
X1182Y274D02*
X1188Y274D01*
X1488Y274D02*
X1498Y274D01*
X1723Y274D02*
X1732Y274D01*
X1976Y274D02*
X1986Y274D01*
X2119Y274D02*
X2129Y274D01*
X0Y273D02*
X7Y273D01*
X9Y273D02*
X18Y273D01*
X151Y273D02*
X161Y273D01*
X404Y273D02*
X414Y273D01*
X604Y273D02*
X657Y273D01*
X1162Y273D02*
X1170Y273D01*
X1182Y273D02*
X1188Y273D01*
X1488Y273D02*
X1497Y273D01*
X1723Y273D02*
X1732Y273D01*
X1976Y273D02*
X1986Y273D01*
X2119Y273D02*
X2129Y273D01*
X0Y272D02*
X7Y272D01*
X9Y272D02*
X18Y272D01*
X151Y272D02*
X161Y272D01*
X404Y272D02*
X414Y272D01*
X604Y272D02*
X657Y272D01*
X1160Y272D02*
X1170Y272D01*
X1182Y272D02*
X1188Y272D01*
X1487Y272D02*
X1497Y272D01*
X1723Y272D02*
X1732Y272D01*
X1976Y272D02*
X1986Y272D01*
X2119Y272D02*
X2129Y272D01*
X0Y271D02*
X7Y271D01*
X9Y271D02*
X18Y271D01*
X151Y271D02*
X161Y271D01*
X404Y271D02*
X414Y271D01*
X604Y271D02*
X657Y271D01*
X1159Y271D02*
X1170Y271D01*
X1182Y271D02*
X1188Y271D01*
X1487Y271D02*
X1497Y271D01*
X1723Y271D02*
X1732Y271D01*
X1976Y271D02*
X1986Y271D01*
X2119Y271D02*
X2129Y271D01*
X0Y270D02*
X7Y270D01*
X9Y270D02*
X18Y270D01*
X151Y270D02*
X161Y270D01*
X404Y270D02*
X414Y270D01*
X604Y270D02*
X657Y270D01*
X1157Y270D02*
X1170Y270D01*
X1182Y270D02*
X1188Y270D01*
X1487Y270D02*
X1496Y270D01*
X1723Y270D02*
X1732Y270D01*
X1976Y270D02*
X1986Y270D01*
X2119Y270D02*
X2129Y270D01*
X0Y269D02*
X7Y269D01*
X9Y269D02*
X18Y269D01*
X151Y269D02*
X161Y269D01*
X404Y269D02*
X414Y269D01*
X604Y269D02*
X657Y269D01*
X1155Y269D02*
X1170Y269D01*
X1182Y269D02*
X1188Y269D01*
X1486Y269D02*
X1496Y269D01*
X1723Y269D02*
X1732Y269D01*
X1976Y269D02*
X1986Y269D01*
X2119Y269D02*
X2129Y269D01*
X0Y268D02*
X7Y268D01*
X9Y268D02*
X18Y268D01*
X151Y268D02*
X161Y268D01*
X404Y268D02*
X414Y268D01*
X604Y268D02*
X657Y268D01*
X1153Y268D02*
X1170Y268D01*
X1182Y268D02*
X1188Y268D01*
X1486Y268D02*
X1496Y268D01*
X1723Y268D02*
X1732Y268D01*
X1976Y268D02*
X1986Y268D01*
X2119Y268D02*
X2129Y268D01*
X0Y267D02*
X7Y267D01*
X9Y267D02*
X18Y267D01*
X151Y267D02*
X161Y267D01*
X404Y267D02*
X414Y267D01*
X604Y267D02*
X657Y267D01*
X1152Y267D02*
X1170Y267D01*
X1182Y267D02*
X1188Y267D01*
X1486Y267D02*
X1495Y267D01*
X1723Y267D02*
X1732Y267D01*
X1976Y267D02*
X1986Y267D01*
X2119Y267D02*
X2129Y267D01*
X0Y266D02*
X7Y266D01*
X9Y266D02*
X18Y266D01*
X151Y266D02*
X161Y266D01*
X404Y266D02*
X414Y266D01*
X604Y266D02*
X610Y266D01*
X651Y266D02*
X657Y266D01*
X1150Y266D02*
X1170Y266D01*
X1182Y266D02*
X1188Y266D01*
X1486Y266D02*
X1495Y266D01*
X1723Y266D02*
X1732Y266D01*
X1976Y266D02*
X1986Y266D01*
X2119Y266D02*
X2129Y266D01*
X0Y265D02*
X7Y265D01*
X9Y265D02*
X18Y265D01*
X151Y265D02*
X161Y265D01*
X404Y265D02*
X414Y265D01*
X604Y265D02*
X610Y265D01*
X651Y265D02*
X657Y265D01*
X1148Y265D02*
X1161Y265D01*
X1164Y265D02*
X1170Y265D01*
X1182Y265D02*
X1188Y265D01*
X1485Y265D02*
X1495Y265D01*
X1723Y265D02*
X1732Y265D01*
X1976Y265D02*
X1986Y265D01*
X2119Y265D02*
X2129Y265D01*
X0Y264D02*
X7Y264D01*
X9Y264D02*
X18Y264D01*
X151Y264D02*
X161Y264D01*
X404Y264D02*
X414Y264D01*
X604Y264D02*
X610Y264D01*
X651Y264D02*
X657Y264D01*
X1147Y264D02*
X1160Y264D01*
X1164Y264D02*
X1170Y264D01*
X1182Y264D02*
X1188Y264D01*
X1485Y264D02*
X1494Y264D01*
X1723Y264D02*
X1732Y264D01*
X1857Y264D02*
X1877Y264D01*
X1902Y264D02*
X1903Y264D01*
X1976Y264D02*
X1986Y264D01*
X2119Y264D02*
X2129Y264D01*
X0Y263D02*
X7Y263D01*
X9Y263D02*
X18Y263D01*
X151Y263D02*
X161Y263D01*
X404Y263D02*
X414Y263D01*
X604Y263D02*
X610Y263D01*
X651Y263D02*
X657Y263D01*
X1145Y263D02*
X1158Y263D01*
X1164Y263D02*
X1170Y263D01*
X1182Y263D02*
X1188Y263D01*
X1485Y263D02*
X1494Y263D01*
X1723Y263D02*
X1732Y263D01*
X1855Y263D02*
X1879Y263D01*
X1900Y263D02*
X1905Y263D01*
X1976Y263D02*
X1986Y263D01*
X2119Y263D02*
X2129Y263D01*
X0Y262D02*
X7Y262D01*
X9Y262D02*
X18Y262D01*
X151Y262D02*
X161Y262D01*
X404Y262D02*
X414Y262D01*
X604Y262D02*
X611Y262D01*
X651Y262D02*
X657Y262D01*
X1143Y262D02*
X1156Y262D01*
X1164Y262D02*
X1170Y262D01*
X1182Y262D02*
X1188Y262D01*
X1484Y262D02*
X1494Y262D01*
X1723Y262D02*
X1732Y262D01*
X1854Y262D02*
X1880Y262D01*
X1900Y262D02*
X1905Y262D01*
X1976Y262D02*
X1986Y262D01*
X2119Y262D02*
X2129Y262D01*
X0Y261D02*
X7Y261D01*
X9Y261D02*
X18Y261D01*
X151Y261D02*
X161Y261D01*
X404Y261D02*
X414Y261D01*
X604Y261D02*
X611Y261D01*
X650Y261D02*
X657Y261D01*
X1141Y261D02*
X1154Y261D01*
X1164Y261D02*
X1171Y261D01*
X1182Y261D02*
X1188Y261D01*
X1484Y261D02*
X1493Y261D01*
X1723Y261D02*
X1732Y261D01*
X1854Y261D02*
X1881Y261D01*
X1900Y261D02*
X1906Y261D01*
X1976Y261D02*
X1986Y261D01*
X2119Y261D02*
X2129Y261D01*
X0Y260D02*
X7Y260D01*
X9Y260D02*
X18Y260D01*
X151Y260D02*
X161Y260D01*
X404Y260D02*
X414Y260D01*
X605Y260D02*
X613Y260D01*
X648Y260D02*
X656Y260D01*
X1140Y260D02*
X1153Y260D01*
X1165Y260D02*
X1171Y260D01*
X1181Y260D02*
X1188Y260D01*
X1484Y260D02*
X1493Y260D01*
X1723Y260D02*
X1732Y260D01*
X1853Y260D02*
X1881Y260D01*
X1900Y260D02*
X1906Y260D01*
X1976Y260D02*
X1986Y260D01*
X2119Y260D02*
X2129Y260D01*
X0Y259D02*
X7Y259D01*
X9Y259D02*
X18Y259D01*
X151Y259D02*
X161Y259D01*
X404Y259D02*
X414Y259D01*
X605Y259D02*
X615Y259D01*
X646Y259D02*
X656Y259D01*
X1138Y259D02*
X1151Y259D01*
X1165Y259D02*
X1173Y259D01*
X1180Y259D02*
X1188Y259D01*
X1484Y259D02*
X1493Y259D01*
X1723Y259D02*
X1732Y259D01*
X1853Y259D02*
X1882Y259D01*
X1900Y259D02*
X1906Y259D01*
X1976Y259D02*
X1986Y259D01*
X2119Y259D02*
X2129Y259D01*
X0Y258D02*
X7Y258D01*
X9Y258D02*
X18Y258D01*
X151Y258D02*
X161Y258D01*
X404Y258D02*
X414Y258D01*
X606Y258D02*
X617Y258D01*
X644Y258D02*
X655Y258D01*
X1136Y258D02*
X1149Y258D01*
X1165Y258D02*
X1187Y258D01*
X1484Y258D02*
X1493Y258D01*
X1723Y258D02*
X1732Y258D01*
X1853Y258D02*
X1882Y258D01*
X1900Y258D02*
X1906Y258D01*
X1976Y258D02*
X1986Y258D01*
X2119Y258D02*
X2129Y258D01*
X0Y257D02*
X7Y257D01*
X9Y257D02*
X18Y257D01*
X151Y257D02*
X161Y257D01*
X404Y257D02*
X414Y257D01*
X606Y257D02*
X619Y257D01*
X642Y257D02*
X654Y257D01*
X1135Y257D02*
X1148Y257D01*
X1166Y257D02*
X1187Y257D01*
X1483Y257D02*
X1492Y257D01*
X1723Y257D02*
X1732Y257D01*
X1852Y257D02*
X1859Y257D01*
X1876Y257D02*
X1882Y257D01*
X1900Y257D02*
X1906Y257D01*
X1976Y257D02*
X1986Y257D01*
X2119Y257D02*
X2129Y257D01*
X0Y256D02*
X7Y256D01*
X9Y256D02*
X18Y256D01*
X151Y256D02*
X161Y256D01*
X404Y256D02*
X414Y256D01*
X607Y256D02*
X621Y256D01*
X640Y256D02*
X654Y256D01*
X1135Y256D02*
X1146Y256D01*
X1166Y256D02*
X1186Y256D01*
X1483Y256D02*
X1492Y256D01*
X1723Y256D02*
X1732Y256D01*
X1852Y256D02*
X1858Y256D01*
X1876Y256D02*
X1882Y256D01*
X1900Y256D02*
X1906Y256D01*
X1976Y256D02*
X1986Y256D01*
X2119Y256D02*
X2129Y256D01*
X0Y255D02*
X7Y255D01*
X9Y255D02*
X18Y255D01*
X151Y255D02*
X161Y255D01*
X404Y255D02*
X414Y255D01*
X609Y255D02*
X623Y255D01*
X638Y255D02*
X652Y255D01*
X1135Y255D02*
X1144Y255D01*
X1167Y255D02*
X1185Y255D01*
X1483Y255D02*
X1492Y255D01*
X1723Y255D02*
X1732Y255D01*
X1852Y255D02*
X1858Y255D01*
X1876Y255D02*
X1882Y255D01*
X1900Y255D02*
X1906Y255D01*
X1976Y255D02*
X1986Y255D01*
X2119Y255D02*
X2129Y255D01*
X0Y254D02*
X7Y254D01*
X9Y254D02*
X18Y254D01*
X151Y254D02*
X161Y254D01*
X404Y254D02*
X414Y254D01*
X610Y254D02*
X625Y254D01*
X636Y254D02*
X651Y254D01*
X1135Y254D02*
X1142Y254D01*
X1168Y254D02*
X1184Y254D01*
X1483Y254D02*
X1492Y254D01*
X1723Y254D02*
X1732Y254D01*
X1852Y254D02*
X1858Y254D01*
X1876Y254D02*
X1882Y254D01*
X1900Y254D02*
X1906Y254D01*
X1976Y254D02*
X1986Y254D01*
X2119Y254D02*
X2129Y254D01*
X0Y253D02*
X7Y253D01*
X9Y253D02*
X18Y253D01*
X151Y253D02*
X161Y253D01*
X404Y253D02*
X414Y253D01*
X612Y253D02*
X628Y253D01*
X634Y253D02*
X649Y253D01*
X1136Y253D02*
X1141Y253D01*
X1170Y253D02*
X1183Y253D01*
X1483Y253D02*
X1492Y253D01*
X1723Y253D02*
X1732Y253D01*
X1852Y253D02*
X1858Y253D01*
X1876Y253D02*
X1882Y253D01*
X1900Y253D02*
X1906Y253D01*
X1976Y253D02*
X1986Y253D01*
X2119Y253D02*
X2129Y253D01*
X0Y252D02*
X7Y252D01*
X9Y252D02*
X18Y252D01*
X151Y252D02*
X161Y252D01*
X234Y252D02*
X246Y252D01*
X404Y252D02*
X414Y252D01*
X614Y252D02*
X647Y252D01*
X1137Y252D02*
X1139Y252D01*
X1172Y252D02*
X1180Y252D01*
X1482Y252D02*
X1491Y252D01*
X1723Y252D02*
X1732Y252D01*
X1852Y252D02*
X1858Y252D01*
X1876Y252D02*
X1882Y252D01*
X1900Y252D02*
X1906Y252D01*
X1976Y252D02*
X1986Y252D01*
X2119Y252D02*
X2129Y252D01*
X0Y251D02*
X7Y251D01*
X9Y251D02*
X18Y251D01*
X151Y251D02*
X161Y251D01*
X231Y251D02*
X248Y251D01*
X404Y251D02*
X414Y251D01*
X616Y251D02*
X645Y251D01*
X1482Y251D02*
X1491Y251D01*
X1723Y251D02*
X1732Y251D01*
X1852Y251D02*
X1858Y251D01*
X1876Y251D02*
X1882Y251D01*
X1900Y251D02*
X1906Y251D01*
X1976Y251D02*
X1986Y251D01*
X2119Y251D02*
X2129Y251D01*
X0Y250D02*
X7Y250D01*
X9Y250D02*
X18Y250D01*
X151Y250D02*
X161Y250D01*
X230Y250D02*
X249Y250D01*
X404Y250D02*
X414Y250D01*
X619Y250D02*
X643Y250D01*
X1482Y250D02*
X1491Y250D01*
X1723Y250D02*
X1732Y250D01*
X1852Y250D02*
X1858Y250D01*
X1876Y250D02*
X1882Y250D01*
X1900Y250D02*
X1906Y250D01*
X1976Y250D02*
X1986Y250D01*
X2119Y250D02*
X2129Y250D01*
X0Y249D02*
X7Y249D01*
X9Y249D02*
X18Y249D01*
X151Y249D02*
X161Y249D01*
X228Y249D02*
X249Y249D01*
X404Y249D02*
X414Y249D01*
X621Y249D02*
X641Y249D01*
X1482Y249D02*
X1491Y249D01*
X1723Y249D02*
X1732Y249D01*
X1852Y249D02*
X1858Y249D01*
X1876Y249D02*
X1882Y249D01*
X1900Y249D02*
X1906Y249D01*
X1976Y249D02*
X1986Y249D01*
X2119Y249D02*
X2129Y249D01*
X0Y248D02*
X7Y248D01*
X9Y248D02*
X18Y248D01*
X151Y248D02*
X161Y248D01*
X228Y248D02*
X249Y248D01*
X404Y248D02*
X414Y248D01*
X623Y248D02*
X639Y248D01*
X1482Y248D02*
X1491Y248D01*
X1723Y248D02*
X1732Y248D01*
X1852Y248D02*
X1858Y248D01*
X1876Y248D02*
X1882Y248D01*
X1900Y248D02*
X1906Y248D01*
X1976Y248D02*
X1986Y248D01*
X2119Y248D02*
X2129Y248D01*
X0Y247D02*
X7Y247D01*
X9Y247D02*
X18Y247D01*
X151Y247D02*
X161Y247D01*
X227Y247D02*
X249Y247D01*
X404Y247D02*
X414Y247D01*
X625Y247D02*
X636Y247D01*
X1482Y247D02*
X1491Y247D01*
X1723Y247D02*
X1732Y247D01*
X1852Y247D02*
X1858Y247D01*
X1876Y247D02*
X1882Y247D01*
X1900Y247D02*
X1906Y247D01*
X1976Y247D02*
X1986Y247D01*
X2119Y247D02*
X2129Y247D01*
X0Y246D02*
X7Y246D01*
X9Y246D02*
X18Y246D01*
X151Y246D02*
X161Y246D01*
X226Y246D02*
X248Y246D01*
X404Y246D02*
X414Y246D01*
X628Y246D02*
X633Y246D01*
X1481Y246D02*
X1490Y246D01*
X1723Y246D02*
X1732Y246D01*
X1852Y246D02*
X1858Y246D01*
X1876Y246D02*
X1882Y246D01*
X1900Y246D02*
X1906Y246D01*
X1976Y246D02*
X1986Y246D01*
X2119Y246D02*
X2129Y246D01*
X0Y245D02*
X7Y245D01*
X9Y245D02*
X18Y245D01*
X151Y245D02*
X161Y245D01*
X226Y245D02*
X234Y245D01*
X404Y245D02*
X414Y245D01*
X1481Y245D02*
X1490Y245D01*
X1723Y245D02*
X1732Y245D01*
X1852Y245D02*
X1858Y245D01*
X1876Y245D02*
X1882Y245D01*
X1900Y245D02*
X1906Y245D01*
X1976Y245D02*
X1986Y245D01*
X2119Y245D02*
X2129Y245D01*
X0Y244D02*
X7Y244D01*
X9Y244D02*
X18Y244D01*
X151Y244D02*
X161Y244D01*
X226Y244D02*
X232Y244D01*
X404Y244D02*
X414Y244D01*
X1481Y244D02*
X1490Y244D01*
X1723Y244D02*
X1732Y244D01*
X1852Y244D02*
X1858Y244D01*
X1876Y244D02*
X1882Y244D01*
X1900Y244D02*
X1906Y244D01*
X1976Y244D02*
X1986Y244D01*
X2119Y244D02*
X2129Y244D01*
X0Y243D02*
X7Y243D01*
X9Y243D02*
X18Y243D01*
X151Y243D02*
X161Y243D01*
X225Y243D02*
X232Y243D01*
X404Y243D02*
X414Y243D01*
X1481Y243D02*
X1490Y243D01*
X1723Y243D02*
X1732Y243D01*
X1852Y243D02*
X1858Y243D01*
X1876Y243D02*
X1882Y243D01*
X1900Y243D02*
X1906Y243D01*
X1976Y243D02*
X1986Y243D01*
X2119Y243D02*
X2129Y243D01*
X0Y242D02*
X7Y242D01*
X9Y242D02*
X18Y242D01*
X151Y242D02*
X161Y242D01*
X225Y242D02*
X231Y242D01*
X404Y242D02*
X414Y242D01*
X1481Y242D02*
X1490Y242D01*
X1723Y242D02*
X1732Y242D01*
X1852Y242D02*
X1858Y242D01*
X1876Y242D02*
X1882Y242D01*
X1900Y242D02*
X1906Y242D01*
X1976Y242D02*
X1986Y242D01*
X2119Y242D02*
X2129Y242D01*
X0Y241D02*
X7Y241D01*
X9Y241D02*
X18Y241D01*
X151Y241D02*
X161Y241D01*
X225Y241D02*
X231Y241D01*
X404Y241D02*
X414Y241D01*
X1481Y241D02*
X1490Y241D01*
X1723Y241D02*
X1732Y241D01*
X1852Y241D02*
X1858Y241D01*
X1876Y241D02*
X1882Y241D01*
X1900Y241D02*
X1906Y241D01*
X1976Y241D02*
X1986Y241D01*
X2119Y241D02*
X2129Y241D01*
X0Y240D02*
X7Y240D01*
X9Y240D02*
X18Y240D01*
X151Y240D02*
X161Y240D01*
X225Y240D02*
X231Y240D01*
X404Y240D02*
X414Y240D01*
X1481Y240D02*
X1490Y240D01*
X1723Y240D02*
X1732Y240D01*
X1852Y240D02*
X1858Y240D01*
X1876Y240D02*
X1882Y240D01*
X1900Y240D02*
X1906Y240D01*
X1976Y240D02*
X1986Y240D01*
X2119Y240D02*
X2129Y240D01*
X0Y239D02*
X7Y239D01*
X9Y239D02*
X18Y239D01*
X151Y239D02*
X161Y239D01*
X225Y239D02*
X231Y239D01*
X404Y239D02*
X414Y239D01*
X1481Y239D02*
X1490Y239D01*
X1723Y239D02*
X1732Y239D01*
X1852Y239D02*
X1858Y239D01*
X1876Y239D02*
X1882Y239D01*
X1900Y239D02*
X1906Y239D01*
X1976Y239D02*
X1986Y239D01*
X2119Y239D02*
X2129Y239D01*
X0Y238D02*
X7Y238D01*
X9Y238D02*
X18Y238D01*
X151Y238D02*
X161Y238D01*
X225Y238D02*
X231Y238D01*
X404Y238D02*
X414Y238D01*
X1481Y238D02*
X1490Y238D01*
X1723Y238D02*
X1732Y238D01*
X1852Y238D02*
X1858Y238D01*
X1876Y238D02*
X1882Y238D01*
X1900Y238D02*
X1906Y238D01*
X1976Y238D02*
X1986Y238D01*
X2119Y238D02*
X2129Y238D01*
X0Y237D02*
X7Y237D01*
X9Y237D02*
X18Y237D01*
X151Y237D02*
X161Y237D01*
X225Y237D02*
X231Y237D01*
X404Y237D02*
X414Y237D01*
X1481Y237D02*
X1490Y237D01*
X1723Y237D02*
X1732Y237D01*
X1852Y237D02*
X1858Y237D01*
X1876Y237D02*
X1882Y237D01*
X1899Y237D02*
X1906Y237D01*
X1976Y237D02*
X1986Y237D01*
X2119Y237D02*
X2129Y237D01*
X0Y236D02*
X7Y236D01*
X9Y236D02*
X18Y236D01*
X151Y236D02*
X161Y236D01*
X225Y236D02*
X231Y236D01*
X404Y236D02*
X414Y236D01*
X1137Y236D02*
X1139Y236D01*
X1184Y236D02*
X1186Y236D01*
X1481Y236D02*
X1490Y236D01*
X1723Y236D02*
X1732Y236D01*
X1852Y236D02*
X1858Y236D01*
X1876Y236D02*
X1906Y236D01*
X1976Y236D02*
X1986Y236D01*
X2119Y236D02*
X2129Y236D01*
X0Y235D02*
X7Y235D01*
X9Y235D02*
X18Y235D01*
X151Y235D02*
X161Y235D01*
X225Y235D02*
X231Y235D01*
X404Y235D02*
X414Y235D01*
X1136Y235D02*
X1140Y235D01*
X1183Y235D02*
X1187Y235D01*
X1481Y235D02*
X1490Y235D01*
X1723Y235D02*
X1732Y235D01*
X1852Y235D02*
X1858Y235D01*
X1876Y235D02*
X1906Y235D01*
X1976Y235D02*
X1986Y235D01*
X2119Y235D02*
X2129Y235D01*
X0Y234D02*
X7Y234D01*
X9Y234D02*
X18Y234D01*
X151Y234D02*
X161Y234D01*
X225Y234D02*
X232Y234D01*
X404Y234D02*
X414Y234D01*
X1135Y234D02*
X1141Y234D01*
X1182Y234D02*
X1188Y234D01*
X1481Y234D02*
X1490Y234D01*
X1723Y234D02*
X1732Y234D01*
X1852Y234D02*
X1858Y234D01*
X1877Y234D02*
X1906Y234D01*
X1976Y234D02*
X1986Y234D01*
X2119Y234D02*
X2129Y234D01*
X0Y233D02*
X7Y233D01*
X9Y233D02*
X18Y233D01*
X151Y233D02*
X161Y233D01*
X225Y233D02*
X232Y233D01*
X404Y233D02*
X414Y233D01*
X1135Y233D02*
X1141Y233D01*
X1182Y233D02*
X1188Y233D01*
X1481Y233D02*
X1489Y233D01*
X1723Y233D02*
X1732Y233D01*
X1853Y233D02*
X1858Y233D01*
X1877Y233D02*
X1906Y233D01*
X1976Y233D02*
X1986Y233D01*
X2119Y233D02*
X2129Y233D01*
X0Y232D02*
X7Y232D01*
X9Y232D02*
X18Y232D01*
X151Y232D02*
X161Y232D01*
X226Y232D02*
X233Y232D01*
X404Y232D02*
X414Y232D01*
X1135Y232D02*
X1141Y232D01*
X1182Y232D02*
X1188Y232D01*
X1480Y232D02*
X1489Y232D01*
X1723Y232D02*
X1732Y232D01*
X1853Y232D02*
X1858Y232D01*
X1878Y232D02*
X1906Y232D01*
X1976Y232D02*
X1986Y232D01*
X2119Y232D02*
X2129Y232D01*
X0Y231D02*
X7Y231D01*
X9Y231D02*
X18Y231D01*
X151Y231D02*
X161Y231D01*
X226Y231D02*
X277Y231D01*
X404Y231D02*
X414Y231D01*
X1135Y231D02*
X1141Y231D01*
X1182Y231D02*
X1188Y231D01*
X1480Y231D02*
X1489Y231D01*
X1723Y231D02*
X1732Y231D01*
X1853Y231D02*
X1857Y231D01*
X1879Y231D02*
X1906Y231D01*
X1976Y231D02*
X1986Y231D01*
X2119Y231D02*
X2129Y231D01*
X0Y230D02*
X7Y230D01*
X9Y230D02*
X18Y230D01*
X151Y230D02*
X161Y230D01*
X227Y230D02*
X278Y230D01*
X404Y230D02*
X414Y230D01*
X606Y230D02*
X608Y230D01*
X654Y230D02*
X655Y230D01*
X1135Y230D02*
X1141Y230D01*
X1182Y230D02*
X1188Y230D01*
X1480Y230D02*
X1489Y230D01*
X1723Y230D02*
X1732Y230D01*
X1855Y230D02*
X1856Y230D01*
X1882Y230D02*
X1905Y230D01*
X1976Y230D02*
X1986Y230D01*
X2119Y230D02*
X2129Y230D01*
X0Y229D02*
X7Y229D01*
X9Y229D02*
X18Y229D01*
X151Y229D02*
X161Y229D01*
X227Y229D02*
X278Y229D01*
X404Y229D02*
X414Y229D01*
X605Y229D02*
X609Y229D01*
X652Y229D02*
X656Y229D01*
X1135Y229D02*
X1141Y229D01*
X1182Y229D02*
X1188Y229D01*
X1480Y229D02*
X1489Y229D01*
X1723Y229D02*
X1732Y229D01*
X1976Y229D02*
X1986Y229D01*
X2119Y229D02*
X2129Y229D01*
X0Y228D02*
X7Y228D01*
X9Y228D02*
X18Y228D01*
X151Y228D02*
X161Y228D01*
X228Y228D02*
X278Y228D01*
X404Y228D02*
X414Y228D01*
X604Y228D02*
X610Y228D01*
X651Y228D02*
X657Y228D01*
X1135Y228D02*
X1141Y228D01*
X1182Y228D02*
X1188Y228D01*
X1480Y228D02*
X1489Y228D01*
X1723Y228D02*
X1732Y228D01*
X1976Y228D02*
X1986Y228D01*
X2119Y228D02*
X2129Y228D01*
X0Y227D02*
X7Y227D01*
X9Y227D02*
X18Y227D01*
X151Y227D02*
X161Y227D01*
X229Y227D02*
X278Y227D01*
X404Y227D02*
X414Y227D01*
X604Y227D02*
X610Y227D01*
X651Y227D02*
X657Y227D01*
X1135Y227D02*
X1141Y227D01*
X1182Y227D02*
X1188Y227D01*
X1480Y227D02*
X1489Y227D01*
X1723Y227D02*
X1732Y227D01*
X1976Y227D02*
X1986Y227D01*
X2119Y227D02*
X2129Y227D01*
X0Y226D02*
X7Y226D01*
X9Y226D02*
X18Y226D01*
X151Y226D02*
X161Y226D01*
X230Y226D02*
X278Y226D01*
X404Y226D02*
X414Y226D01*
X604Y226D02*
X610Y226D01*
X651Y226D02*
X657Y226D01*
X1135Y226D02*
X1141Y226D01*
X1182Y226D02*
X1188Y226D01*
X1480Y226D02*
X1489Y226D01*
X1723Y226D02*
X1732Y226D01*
X1976Y226D02*
X1986Y226D01*
X2119Y226D02*
X2129Y226D01*
X0Y225D02*
X7Y225D01*
X9Y225D02*
X18Y225D01*
X151Y225D02*
X161Y225D01*
X233Y225D02*
X277Y225D01*
X404Y225D02*
X414Y225D01*
X604Y225D02*
X610Y225D01*
X651Y225D02*
X657Y225D01*
X1135Y225D02*
X1141Y225D01*
X1182Y225D02*
X1188Y225D01*
X1480Y225D02*
X1489Y225D01*
X1723Y225D02*
X1732Y225D01*
X1976Y225D02*
X1986Y225D01*
X2119Y225D02*
X2129Y225D01*
X0Y224D02*
X7Y224D01*
X9Y224D02*
X18Y224D01*
X151Y224D02*
X161Y224D01*
X404Y224D02*
X414Y224D01*
X604Y224D02*
X610Y224D01*
X651Y224D02*
X657Y224D01*
X1135Y224D02*
X1141Y224D01*
X1182Y224D02*
X1188Y224D01*
X1481Y224D02*
X1490Y224D01*
X1723Y224D02*
X1732Y224D01*
X1976Y224D02*
X1986Y224D01*
X2119Y224D02*
X2129Y224D01*
X0Y223D02*
X7Y223D01*
X9Y223D02*
X18Y223D01*
X151Y223D02*
X161Y223D01*
X404Y223D02*
X414Y223D01*
X604Y223D02*
X610Y223D01*
X651Y223D02*
X657Y223D01*
X1135Y223D02*
X1141Y223D01*
X1182Y223D02*
X1188Y223D01*
X1481Y223D02*
X1490Y223D01*
X1723Y223D02*
X1732Y223D01*
X1976Y223D02*
X1986Y223D01*
X2119Y223D02*
X2129Y223D01*
X0Y222D02*
X7Y222D01*
X9Y222D02*
X18Y222D01*
X151Y222D02*
X161Y222D01*
X404Y222D02*
X414Y222D01*
X604Y222D02*
X610Y222D01*
X651Y222D02*
X657Y222D01*
X1135Y222D02*
X1188Y222D01*
X1481Y222D02*
X1490Y222D01*
X1723Y222D02*
X1732Y222D01*
X1976Y222D02*
X1986Y222D01*
X2119Y222D02*
X2129Y222D01*
X0Y221D02*
X7Y221D01*
X9Y221D02*
X18Y221D01*
X151Y221D02*
X161Y221D01*
X404Y221D02*
X414Y221D01*
X604Y221D02*
X610Y221D01*
X651Y221D02*
X657Y221D01*
X1135Y221D02*
X1188Y221D01*
X1481Y221D02*
X1490Y221D01*
X1723Y221D02*
X1732Y221D01*
X1976Y221D02*
X1986Y221D01*
X2119Y221D02*
X2129Y221D01*
X0Y220D02*
X7Y220D01*
X9Y220D02*
X18Y220D01*
X151Y220D02*
X161Y220D01*
X404Y220D02*
X414Y220D01*
X604Y220D02*
X610Y220D01*
X651Y220D02*
X657Y220D01*
X1135Y220D02*
X1188Y220D01*
X1481Y220D02*
X1490Y220D01*
X1723Y220D02*
X1732Y220D01*
X1976Y220D02*
X1986Y220D01*
X2119Y220D02*
X2129Y220D01*
X0Y219D02*
X7Y219D01*
X9Y219D02*
X18Y219D01*
X151Y219D02*
X161Y219D01*
X404Y219D02*
X414Y219D01*
X604Y219D02*
X610Y219D01*
X651Y219D02*
X657Y219D01*
X1135Y219D02*
X1188Y219D01*
X1481Y219D02*
X1490Y219D01*
X1723Y219D02*
X1732Y219D01*
X1976Y219D02*
X1986Y219D01*
X2119Y219D02*
X2129Y219D01*
X0Y218D02*
X7Y218D01*
X9Y218D02*
X18Y218D01*
X151Y218D02*
X161Y218D01*
X404Y218D02*
X414Y218D01*
X604Y218D02*
X610Y218D01*
X651Y218D02*
X657Y218D01*
X1135Y218D02*
X1188Y218D01*
X1481Y218D02*
X1490Y218D01*
X1723Y218D02*
X1732Y218D01*
X1976Y218D02*
X1986Y218D01*
X2119Y218D02*
X2129Y218D01*
X0Y217D02*
X7Y217D01*
X9Y217D02*
X18Y217D01*
X151Y217D02*
X161Y217D01*
X404Y217D02*
X414Y217D01*
X604Y217D02*
X610Y217D01*
X651Y217D02*
X657Y217D01*
X1135Y217D02*
X1188Y217D01*
X1481Y217D02*
X1490Y217D01*
X1723Y217D02*
X1732Y217D01*
X1976Y217D02*
X1986Y217D01*
X2119Y217D02*
X2129Y217D01*
X0Y216D02*
X7Y216D01*
X9Y216D02*
X18Y216D01*
X151Y216D02*
X161Y216D01*
X404Y216D02*
X414Y216D01*
X604Y216D02*
X657Y216D01*
X1135Y216D02*
X1188Y216D01*
X1481Y216D02*
X1490Y216D01*
X1723Y216D02*
X1732Y216D01*
X1976Y216D02*
X1986Y216D01*
X2119Y216D02*
X2129Y216D01*
X0Y215D02*
X7Y215D01*
X9Y215D02*
X18Y215D01*
X151Y215D02*
X161Y215D01*
X404Y215D02*
X414Y215D01*
X604Y215D02*
X657Y215D01*
X1135Y215D02*
X1141Y215D01*
X1481Y215D02*
X1490Y215D01*
X1723Y215D02*
X1732Y215D01*
X1976Y215D02*
X1986Y215D01*
X2119Y215D02*
X2129Y215D01*
X0Y214D02*
X7Y214D01*
X9Y214D02*
X18Y214D01*
X151Y214D02*
X161Y214D01*
X404Y214D02*
X414Y214D01*
X604Y214D02*
X657Y214D01*
X1135Y214D02*
X1141Y214D01*
X1481Y214D02*
X1490Y214D01*
X1723Y214D02*
X1732Y214D01*
X1976Y214D02*
X1986Y214D01*
X2119Y214D02*
X2129Y214D01*
X0Y213D02*
X7Y213D01*
X9Y213D02*
X18Y213D01*
X151Y213D02*
X161Y213D01*
X404Y213D02*
X414Y213D01*
X604Y213D02*
X657Y213D01*
X1135Y213D02*
X1141Y213D01*
X1481Y213D02*
X1490Y213D01*
X1723Y213D02*
X1732Y213D01*
X1976Y213D02*
X1986Y213D01*
X2119Y213D02*
X2129Y213D01*
X0Y212D02*
X7Y212D01*
X9Y212D02*
X18Y212D01*
X151Y212D02*
X161Y212D01*
X404Y212D02*
X414Y212D01*
X604Y212D02*
X657Y212D01*
X1135Y212D02*
X1141Y212D01*
X1481Y212D02*
X1490Y212D01*
X1723Y212D02*
X1732Y212D01*
X1976Y212D02*
X1986Y212D01*
X2119Y212D02*
X2129Y212D01*
X0Y211D02*
X7Y211D01*
X9Y211D02*
X18Y211D01*
X151Y211D02*
X161Y211D01*
X404Y211D02*
X414Y211D01*
X604Y211D02*
X657Y211D01*
X1135Y211D02*
X1141Y211D01*
X1146Y211D02*
X1173Y211D01*
X1197Y211D02*
X1225Y211D01*
X1482Y211D02*
X1491Y211D01*
X1723Y211D02*
X1732Y211D01*
X1856Y211D02*
X1895Y211D01*
X1976Y211D02*
X1986Y211D01*
X2119Y211D02*
X2129Y211D01*
X0Y210D02*
X7Y210D01*
X9Y210D02*
X18Y210D01*
X151Y210D02*
X161Y210D01*
X404Y210D02*
X414Y210D01*
X604Y210D02*
X657Y210D01*
X1135Y210D02*
X1141Y210D01*
X1146Y210D02*
X1174Y210D01*
X1196Y210D02*
X1227Y210D01*
X1482Y210D02*
X1491Y210D01*
X1723Y210D02*
X1732Y210D01*
X1854Y210D02*
X1900Y210D01*
X1976Y210D02*
X1986Y210D01*
X2119Y210D02*
X2129Y210D01*
X0Y209D02*
X7Y209D01*
X9Y209D02*
X18Y209D01*
X151Y209D02*
X161Y209D01*
X404Y209D02*
X414Y209D01*
X604Y209D02*
X610Y209D01*
X1135Y209D02*
X1141Y209D01*
X1146Y209D02*
X1176Y209D01*
X1196Y209D02*
X1228Y209D01*
X1482Y209D02*
X1491Y209D01*
X1723Y209D02*
X1732Y209D01*
X1853Y209D02*
X1901Y209D01*
X1976Y209D02*
X1986Y209D01*
X2119Y209D02*
X2129Y209D01*
X0Y208D02*
X7Y208D01*
X9Y208D02*
X18Y208D01*
X151Y208D02*
X161Y208D01*
X404Y208D02*
X414Y208D01*
X604Y208D02*
X610Y208D01*
X1135Y208D02*
X1177Y208D01*
X1196Y208D02*
X1228Y208D01*
X1482Y208D02*
X1491Y208D01*
X1723Y208D02*
X1732Y208D01*
X1853Y208D02*
X1902Y208D01*
X1976Y208D02*
X1986Y208D01*
X2119Y208D02*
X2129Y208D01*
X0Y207D02*
X7Y207D01*
X9Y207D02*
X18Y207D01*
X151Y207D02*
X161Y207D01*
X404Y207D02*
X414Y207D01*
X604Y207D02*
X610Y207D01*
X1135Y207D02*
X1178Y207D01*
X1196Y207D02*
X1229Y207D01*
X1482Y207D02*
X1491Y207D01*
X1723Y207D02*
X1732Y207D01*
X1853Y207D02*
X1903Y207D01*
X1976Y207D02*
X1986Y207D01*
X2119Y207D02*
X2129Y207D01*
X0Y206D02*
X7Y206D01*
X9Y206D02*
X18Y206D01*
X151Y206D02*
X161Y206D01*
X404Y206D02*
X414Y206D01*
X604Y206D02*
X610Y206D01*
X1135Y206D02*
X1178Y206D01*
X1197Y206D02*
X1229Y206D01*
X1482Y206D02*
X1491Y206D01*
X1723Y206D02*
X1732Y206D01*
X1853Y206D02*
X1904Y206D01*
X1976Y206D02*
X1986Y206D01*
X2119Y206D02*
X2129Y206D01*
X0Y205D02*
X7Y205D01*
X9Y205D02*
X18Y205D01*
X151Y205D02*
X161Y205D01*
X227Y205D02*
X230Y205D01*
X274Y205D02*
X277Y205D01*
X404Y205D02*
X414Y205D01*
X604Y205D02*
X610Y205D01*
X1135Y205D02*
X1179Y205D01*
X1198Y205D02*
X1229Y205D01*
X1483Y205D02*
X1492Y205D01*
X1723Y205D02*
X1732Y205D01*
X1854Y205D02*
X1905Y205D01*
X1976Y205D02*
X1986Y205D01*
X2119Y205D02*
X2129Y205D01*
X0Y204D02*
X7Y204D01*
X9Y204D02*
X18Y204D01*
X151Y204D02*
X161Y204D01*
X226Y204D02*
X231Y204D01*
X273Y204D02*
X278Y204D01*
X404Y204D02*
X414Y204D01*
X604Y204D02*
X610Y204D01*
X1135Y204D02*
X1158Y204D01*
X1172Y204D02*
X1179Y204D01*
X1223Y204D02*
X1229Y204D01*
X1483Y204D02*
X1492Y204D01*
X1723Y204D02*
X1732Y204D01*
X1856Y204D02*
X1905Y204D01*
X1976Y204D02*
X1986Y204D01*
X2119Y204D02*
X2129Y204D01*
X0Y203D02*
X7Y203D01*
X9Y203D02*
X18Y203D01*
X151Y203D02*
X161Y203D01*
X225Y203D02*
X231Y203D01*
X273Y203D02*
X278Y203D01*
X404Y203D02*
X414Y203D01*
X604Y203D02*
X610Y203D01*
X1136Y203D02*
X1158Y203D01*
X1173Y203D02*
X1179Y203D01*
X1223Y203D02*
X1229Y203D01*
X1483Y203D02*
X1492Y203D01*
X1723Y203D02*
X1732Y203D01*
X1898Y203D02*
X1905Y203D01*
X1976Y203D02*
X1986Y203D01*
X2119Y203D02*
X2129Y203D01*
X0Y202D02*
X7Y202D01*
X9Y202D02*
X18Y202D01*
X151Y202D02*
X161Y202D01*
X225Y202D02*
X231Y202D01*
X272Y202D02*
X278Y202D01*
X404Y202D02*
X414Y202D01*
X604Y202D02*
X626Y202D01*
X1137Y202D02*
X1156Y202D01*
X1173Y202D02*
X1179Y202D01*
X1223Y202D02*
X1229Y202D01*
X1483Y202D02*
X1492Y202D01*
X1723Y202D02*
X1732Y202D01*
X1899Y202D02*
X1905Y202D01*
X1976Y202D02*
X1986Y202D01*
X2119Y202D02*
X2129Y202D01*
X0Y201D02*
X7Y201D01*
X9Y201D02*
X18Y201D01*
X151Y201D02*
X161Y201D01*
X225Y201D02*
X231Y201D01*
X272Y201D02*
X278Y201D01*
X404Y201D02*
X414Y201D01*
X604Y201D02*
X627Y201D01*
X1146Y201D02*
X1152Y201D01*
X1173Y201D02*
X1179Y201D01*
X1223Y201D02*
X1229Y201D01*
X1483Y201D02*
X1492Y201D01*
X1723Y201D02*
X1732Y201D01*
X1899Y201D02*
X1906Y201D01*
X1976Y201D02*
X1986Y201D01*
X2119Y201D02*
X2129Y201D01*
X0Y200D02*
X7Y200D01*
X9Y200D02*
X18Y200D01*
X151Y200D02*
X161Y200D01*
X225Y200D02*
X231Y200D01*
X272Y200D02*
X278Y200D01*
X404Y200D02*
X414Y200D01*
X604Y200D02*
X628Y200D01*
X1146Y200D02*
X1152Y200D01*
X1173Y200D02*
X1179Y200D01*
X1223Y200D02*
X1229Y200D01*
X1483Y200D02*
X1493Y200D01*
X1723Y200D02*
X1732Y200D01*
X1900Y200D02*
X1906Y200D01*
X1976Y200D02*
X1986Y200D01*
X2119Y200D02*
X2129Y200D01*
X0Y199D02*
X7Y199D01*
X9Y199D02*
X18Y199D01*
X151Y199D02*
X161Y199D01*
X225Y199D02*
X231Y199D01*
X272Y199D02*
X278Y199D01*
X404Y199D02*
X414Y199D01*
X604Y199D02*
X628Y199D01*
X1146Y199D02*
X1152Y199D01*
X1173Y199D02*
X1179Y199D01*
X1223Y199D02*
X1229Y199D01*
X1484Y199D02*
X1493Y199D01*
X1723Y199D02*
X1732Y199D01*
X1900Y199D02*
X1906Y199D01*
X1976Y199D02*
X1986Y199D01*
X2119Y199D02*
X2129Y199D01*
X0Y198D02*
X7Y198D01*
X9Y198D02*
X18Y198D01*
X151Y198D02*
X161Y198D01*
X225Y198D02*
X231Y198D01*
X272Y198D02*
X278Y198D01*
X404Y198D02*
X414Y198D01*
X604Y198D02*
X627Y198D01*
X1146Y198D02*
X1152Y198D01*
X1173Y198D02*
X1179Y198D01*
X1223Y198D02*
X1229Y198D01*
X1484Y198D02*
X1493Y198D01*
X1723Y198D02*
X1732Y198D01*
X1900Y198D02*
X1906Y198D01*
X1976Y198D02*
X1986Y198D01*
X2119Y198D02*
X2129Y198D01*
X0Y197D02*
X7Y197D01*
X9Y197D02*
X18Y197D01*
X151Y197D02*
X161Y197D01*
X225Y197D02*
X231Y197D01*
X272Y197D02*
X278Y197D01*
X404Y197D02*
X414Y197D01*
X605Y197D02*
X627Y197D01*
X1146Y197D02*
X1152Y197D01*
X1173Y197D02*
X1179Y197D01*
X1223Y197D02*
X1229Y197D01*
X1484Y197D02*
X1493Y197D01*
X1723Y197D02*
X1732Y197D01*
X1900Y197D02*
X1906Y197D01*
X1976Y197D02*
X1986Y197D01*
X2119Y197D02*
X2129Y197D01*
X0Y196D02*
X7Y196D01*
X9Y196D02*
X18Y196D01*
X151Y196D02*
X161Y196D01*
X225Y196D02*
X231Y196D01*
X272Y196D02*
X278Y196D01*
X404Y196D02*
X414Y196D01*
X606Y196D02*
X625Y196D01*
X1146Y196D02*
X1152Y196D01*
X1173Y196D02*
X1179Y196D01*
X1223Y196D02*
X1229Y196D01*
X1484Y196D02*
X1494Y196D01*
X1723Y196D02*
X1732Y196D01*
X1900Y196D02*
X1906Y196D01*
X1976Y196D02*
X1986Y196D01*
X2119Y196D02*
X2129Y196D01*
X0Y195D02*
X7Y195D01*
X9Y195D02*
X18Y195D01*
X151Y195D02*
X161Y195D01*
X225Y195D02*
X231Y195D01*
X272Y195D02*
X278Y195D01*
X404Y195D02*
X414Y195D01*
X1146Y195D02*
X1152Y195D01*
X1172Y195D02*
X1179Y195D01*
X1223Y195D02*
X1229Y195D01*
X1485Y195D02*
X1494Y195D01*
X1723Y195D02*
X1732Y195D01*
X1900Y195D02*
X1906Y195D01*
X1976Y195D02*
X1986Y195D01*
X2119Y195D02*
X2129Y195D01*
X0Y194D02*
X7Y194D01*
X9Y194D02*
X18Y194D01*
X151Y194D02*
X161Y194D01*
X225Y194D02*
X231Y194D01*
X272Y194D02*
X278Y194D01*
X404Y194D02*
X414Y194D01*
X1146Y194D02*
X1179Y194D01*
X1223Y194D02*
X1229Y194D01*
X1485Y194D02*
X1494Y194D01*
X1723Y194D02*
X1732Y194D01*
X1900Y194D02*
X1906Y194D01*
X1976Y194D02*
X1986Y194D01*
X2119Y194D02*
X2129Y194D01*
X0Y193D02*
X7Y193D01*
X9Y193D02*
X18Y193D01*
X151Y193D02*
X161Y193D01*
X225Y193D02*
X231Y193D01*
X272Y193D02*
X278Y193D01*
X404Y193D02*
X414Y193D01*
X1146Y193D02*
X1178Y193D01*
X1223Y193D02*
X1229Y193D01*
X1485Y193D02*
X1495Y193D01*
X1723Y193D02*
X1732Y193D01*
X1899Y193D02*
X1906Y193D01*
X1976Y193D02*
X1986Y193D01*
X2119Y193D02*
X2129Y193D01*
X0Y192D02*
X7Y192D01*
X9Y192D02*
X18Y192D01*
X151Y192D02*
X161Y192D01*
X225Y192D02*
X232Y192D01*
X272Y192D02*
X278Y192D01*
X404Y192D02*
X414Y192D01*
X1146Y192D02*
X1178Y192D01*
X1223Y192D02*
X1229Y192D01*
X1486Y192D02*
X1495Y192D01*
X1723Y192D02*
X1732Y192D01*
X1899Y192D02*
X1905Y192D01*
X1976Y192D02*
X1986Y192D01*
X2119Y192D02*
X2129Y192D01*
X0Y191D02*
X7Y191D01*
X9Y191D02*
X18Y191D01*
X151Y191D02*
X161Y191D01*
X225Y191D02*
X278Y191D01*
X404Y191D02*
X414Y191D01*
X1146Y191D02*
X1177Y191D01*
X1223Y191D02*
X1229Y191D01*
X1486Y191D02*
X1495Y191D01*
X1723Y191D02*
X1732Y191D01*
X1898Y191D02*
X1905Y191D01*
X1976Y191D02*
X1986Y191D01*
X2119Y191D02*
X2129Y191D01*
X0Y190D02*
X7Y190D01*
X9Y190D02*
X18Y190D01*
X151Y190D02*
X161Y190D01*
X225Y190D02*
X278Y190D01*
X404Y190D02*
X414Y190D01*
X1146Y190D02*
X1176Y190D01*
X1223Y190D02*
X1229Y190D01*
X1486Y190D02*
X1495Y190D01*
X1723Y190D02*
X1732Y190D01*
X1884Y190D02*
X1905Y190D01*
X1976Y190D02*
X1986Y190D01*
X2119Y190D02*
X2129Y190D01*
X0Y189D02*
X7Y189D01*
X9Y189D02*
X18Y189D01*
X151Y189D02*
X161Y189D01*
X225Y189D02*
X278Y189D01*
X404Y189D02*
X414Y189D01*
X653Y189D02*
X679Y189D01*
X705Y189D02*
X732Y189D01*
X1146Y189D02*
X1175Y189D01*
X1223Y189D02*
X1229Y189D01*
X1486Y189D02*
X1496Y189D01*
X1723Y189D02*
X1732Y189D01*
X1883Y189D02*
X1904Y189D01*
X1976Y189D02*
X1986Y189D01*
X2119Y189D02*
X2129Y189D01*
X0Y188D02*
X7Y188D01*
X9Y188D02*
X18Y188D01*
X151Y188D02*
X161Y188D01*
X225Y188D02*
X278Y188D01*
X404Y188D02*
X414Y188D01*
X653Y188D02*
X682Y188D01*
X704Y188D02*
X734Y188D01*
X1146Y188D02*
X1173Y188D01*
X1201Y188D02*
X1229Y188D01*
X1487Y188D02*
X1496Y188D01*
X1723Y188D02*
X1732Y188D01*
X1882Y188D02*
X1904Y188D01*
X1976Y188D02*
X1986Y188D01*
X2119Y188D02*
X2129Y188D01*
X0Y187D02*
X7Y187D01*
X9Y187D02*
X18Y187D01*
X151Y187D02*
X161Y187D01*
X225Y187D02*
X278Y187D01*
X404Y187D02*
X414Y187D01*
X653Y187D02*
X683Y187D01*
X704Y187D02*
X735Y187D01*
X1146Y187D02*
X1152Y187D01*
X1157Y187D02*
X1165Y187D01*
X1199Y187D02*
X1229Y187D01*
X1487Y187D02*
X1497Y187D01*
X1723Y187D02*
X1732Y187D01*
X1882Y187D02*
X1903Y187D01*
X1976Y187D02*
X1986Y187D01*
X2119Y187D02*
X2129Y187D01*
X0Y186D02*
X7Y186D01*
X9Y186D02*
X18Y186D01*
X151Y186D02*
X161Y186D01*
X225Y186D02*
X278Y186D01*
X404Y186D02*
X414Y186D01*
X653Y186D02*
X684Y186D01*
X703Y186D02*
X736Y186D01*
X1146Y186D02*
X1152Y186D01*
X1158Y186D02*
X1165Y186D01*
X1198Y186D02*
X1229Y186D01*
X1487Y186D02*
X1497Y186D01*
X1723Y186D02*
X1732Y186D01*
X1882Y186D02*
X1902Y186D01*
X1976Y186D02*
X1986Y186D01*
X2119Y186D02*
X2129Y186D01*
X0Y185D02*
X7Y185D01*
X9Y185D02*
X18Y185D01*
X151Y185D02*
X161Y185D01*
X225Y185D02*
X278Y185D01*
X404Y185D02*
X414Y185D01*
X653Y185D02*
X685Y185D01*
X703Y185D02*
X736Y185D01*
X1146Y185D02*
X1152Y185D01*
X1159Y185D02*
X1166Y185D01*
X1197Y185D02*
X1229Y185D01*
X1488Y185D02*
X1497Y185D01*
X1723Y185D02*
X1732Y185D01*
X1882Y185D02*
X1901Y185D01*
X1976Y185D02*
X1986Y185D01*
X2119Y185D02*
X2129Y185D01*
X0Y184D02*
X7Y184D01*
X9Y184D02*
X18Y184D01*
X151Y184D02*
X161Y184D01*
X225Y184D02*
X231Y184D01*
X404Y184D02*
X414Y184D01*
X653Y184D02*
X686Y184D01*
X704Y184D02*
X737Y184D01*
X1146Y184D02*
X1152Y184D01*
X1159Y184D02*
X1167Y184D01*
X1196Y184D02*
X1228Y184D01*
X1488Y184D02*
X1498Y184D01*
X1723Y184D02*
X1732Y184D01*
X1883Y184D02*
X1899Y184D01*
X1976Y184D02*
X1986Y184D01*
X2119Y184D02*
X2129Y184D01*
X0Y183D02*
X7Y183D01*
X9Y183D02*
X18Y183D01*
X151Y183D02*
X161Y183D01*
X225Y183D02*
X231Y183D01*
X404Y183D02*
X414Y183D01*
X653Y183D02*
X686Y183D01*
X705Y183D02*
X737Y183D01*
X1146Y183D02*
X1152Y183D01*
X1160Y183D02*
X1167Y183D01*
X1196Y183D02*
X1227Y183D01*
X1489Y183D02*
X1498Y183D01*
X1723Y183D02*
X1732Y183D01*
X1976Y183D02*
X1986Y183D01*
X2119Y183D02*
X2129Y183D01*
X0Y182D02*
X7Y182D01*
X9Y182D02*
X18Y182D01*
X151Y182D02*
X161Y182D01*
X225Y182D02*
X231Y182D01*
X404Y182D02*
X414Y182D01*
X653Y182D02*
X659Y182D01*
X679Y182D02*
X686Y182D01*
X731Y182D02*
X737Y182D01*
X1146Y182D02*
X1152Y182D01*
X1161Y182D02*
X1168Y182D01*
X1196Y182D02*
X1225Y182D01*
X1489Y182D02*
X1499Y182D01*
X1723Y182D02*
X1732Y182D01*
X1976Y182D02*
X1986Y182D01*
X2119Y182D02*
X2129Y182D01*
X0Y181D02*
X7Y181D01*
X9Y181D02*
X18Y181D01*
X151Y181D02*
X161Y181D01*
X225Y181D02*
X231Y181D01*
X404Y181D02*
X414Y181D01*
X653Y181D02*
X659Y181D01*
X680Y181D02*
X687Y181D01*
X731Y181D02*
X737Y181D01*
X1146Y181D02*
X1152Y181D01*
X1161Y181D02*
X1168Y181D01*
X1196Y181D02*
X1202Y181D01*
X1489Y181D02*
X1499Y181D01*
X1723Y181D02*
X1732Y181D01*
X1976Y181D02*
X1986Y181D01*
X2119Y181D02*
X2129Y181D01*
X0Y180D02*
X7Y180D01*
X9Y180D02*
X18Y180D01*
X151Y180D02*
X161Y180D01*
X225Y180D02*
X231Y180D01*
X404Y180D02*
X414Y180D01*
X653Y180D02*
X659Y180D01*
X681Y180D02*
X687Y180D01*
X731Y180D02*
X737Y180D01*
X1146Y180D02*
X1152Y180D01*
X1162Y180D02*
X1169Y180D01*
X1196Y180D02*
X1202Y180D01*
X1490Y180D02*
X1500Y180D01*
X1723Y180D02*
X1732Y180D01*
X1976Y180D02*
X1986Y180D01*
X2119Y180D02*
X2129Y180D01*
X0Y179D02*
X7Y179D01*
X9Y179D02*
X18Y179D01*
X151Y179D02*
X161Y179D01*
X225Y179D02*
X231Y179D01*
X404Y179D02*
X414Y179D01*
X653Y179D02*
X659Y179D01*
X681Y179D02*
X687Y179D01*
X731Y179D02*
X737Y179D01*
X1146Y179D02*
X1152Y179D01*
X1162Y179D02*
X1169Y179D01*
X1196Y179D02*
X1202Y179D01*
X1490Y179D02*
X1500Y179D01*
X1723Y179D02*
X1732Y179D01*
X1976Y179D02*
X1986Y179D01*
X2119Y179D02*
X2129Y179D01*
X0Y178D02*
X7Y178D01*
X9Y178D02*
X18Y178D01*
X151Y178D02*
X161Y178D01*
X225Y178D02*
X246Y178D01*
X404Y178D02*
X414Y178D01*
X653Y178D02*
X659Y178D01*
X681Y178D02*
X687Y178D01*
X731Y178D02*
X737Y178D01*
X1146Y178D02*
X1152Y178D01*
X1163Y178D02*
X1170Y178D01*
X1196Y178D02*
X1202Y178D01*
X1491Y178D02*
X1501Y178D01*
X1723Y178D02*
X1732Y178D01*
X1976Y178D02*
X1986Y178D01*
X2119Y178D02*
X2129Y178D01*
X0Y177D02*
X7Y177D01*
X9Y177D02*
X18Y177D01*
X151Y177D02*
X161Y177D01*
X225Y177D02*
X248Y177D01*
X404Y177D02*
X414Y177D01*
X653Y177D02*
X659Y177D01*
X681Y177D02*
X687Y177D01*
X731Y177D02*
X737Y177D01*
X1146Y177D02*
X1152Y177D01*
X1163Y177D02*
X1171Y177D01*
X1196Y177D02*
X1202Y177D01*
X1491Y177D02*
X1501Y177D01*
X1723Y177D02*
X1732Y177D01*
X1976Y177D02*
X1986Y177D01*
X2119Y177D02*
X2129Y177D01*
X0Y176D02*
X7Y176D01*
X9Y176D02*
X18Y176D01*
X151Y176D02*
X161Y176D01*
X225Y176D02*
X249Y176D01*
X404Y176D02*
X414Y176D01*
X653Y176D02*
X659Y176D01*
X681Y176D02*
X687Y176D01*
X731Y176D02*
X737Y176D01*
X1146Y176D02*
X1152Y176D01*
X1164Y176D02*
X1171Y176D01*
X1196Y176D02*
X1202Y176D01*
X1491Y176D02*
X1502Y176D01*
X1723Y176D02*
X1732Y176D01*
X1976Y176D02*
X1986Y176D01*
X2119Y176D02*
X2129Y176D01*
X0Y175D02*
X7Y175D01*
X9Y175D02*
X18Y175D01*
X151Y175D02*
X161Y175D01*
X225Y175D02*
X249Y175D01*
X404Y175D02*
X414Y175D01*
X653Y175D02*
X659Y175D01*
X681Y175D02*
X687Y175D01*
X731Y175D02*
X737Y175D01*
X1146Y175D02*
X1152Y175D01*
X1165Y175D02*
X1172Y175D01*
X1196Y175D02*
X1202Y175D01*
X1492Y175D02*
X1502Y175D01*
X1723Y175D02*
X1732Y175D01*
X1976Y175D02*
X1986Y175D01*
X2119Y175D02*
X2129Y175D01*
X0Y174D02*
X7Y174D01*
X9Y174D02*
X18Y174D01*
X151Y174D02*
X161Y174D01*
X225Y174D02*
X249Y174D01*
X404Y174D02*
X414Y174D01*
X653Y174D02*
X659Y174D01*
X681Y174D02*
X687Y174D01*
X731Y174D02*
X737Y174D01*
X1146Y174D02*
X1152Y174D01*
X1165Y174D02*
X1172Y174D01*
X1196Y174D02*
X1202Y174D01*
X1492Y174D02*
X1503Y174D01*
X1723Y174D02*
X1732Y174D01*
X1976Y174D02*
X1986Y174D01*
X2119Y174D02*
X2129Y174D01*
X0Y173D02*
X7Y173D01*
X9Y173D02*
X18Y173D01*
X151Y173D02*
X161Y173D01*
X226Y173D02*
X248Y173D01*
X404Y173D02*
X414Y173D01*
X653Y173D02*
X659Y173D01*
X680Y173D02*
X687Y173D01*
X731Y173D02*
X737Y173D01*
X1146Y173D02*
X1152Y173D01*
X1166Y173D02*
X1173Y173D01*
X1196Y173D02*
X1202Y173D01*
X1493Y173D02*
X1503Y173D01*
X1723Y173D02*
X1732Y173D01*
X1976Y173D02*
X1986Y173D01*
X2119Y173D02*
X2129Y173D01*
X0Y172D02*
X7Y172D01*
X9Y172D02*
X18Y172D01*
X151Y172D02*
X161Y172D01*
X227Y172D02*
X248Y172D01*
X404Y172D02*
X414Y172D01*
X653Y172D02*
X660Y172D01*
X678Y172D02*
X686Y172D01*
X731Y172D02*
X737Y172D01*
X1146Y172D02*
X1152Y172D01*
X1166Y172D02*
X1174Y172D01*
X1196Y172D02*
X1202Y172D01*
X1493Y172D02*
X1504Y172D01*
X1723Y172D02*
X1732Y172D01*
X1976Y172D02*
X1986Y172D01*
X2119Y172D02*
X2129Y172D01*
X0Y171D02*
X7Y171D01*
X9Y171D02*
X18Y171D01*
X151Y171D02*
X161Y171D01*
X404Y171D02*
X414Y171D01*
X653Y171D02*
X686Y171D01*
X731Y171D02*
X737Y171D01*
X1146Y171D02*
X1152Y171D01*
X1167Y171D02*
X1174Y171D01*
X1196Y171D02*
X1202Y171D01*
X1494Y171D02*
X1504Y171D01*
X1723Y171D02*
X1732Y171D01*
X1976Y171D02*
X1986Y171D01*
X2119Y171D02*
X2129Y171D01*
X0Y170D02*
X7Y170D01*
X9Y170D02*
X18Y170D01*
X151Y170D02*
X161Y170D01*
X404Y170D02*
X414Y170D01*
X653Y170D02*
X685Y170D01*
X731Y170D02*
X737Y170D01*
X1146Y170D02*
X1152Y170D01*
X1168Y170D02*
X1175Y170D01*
X1196Y170D02*
X1202Y170D01*
X1494Y170D02*
X1505Y170D01*
X1723Y170D02*
X1732Y170D01*
X1976Y170D02*
X1986Y170D01*
X2119Y170D02*
X2129Y170D01*
X0Y169D02*
X7Y169D01*
X9Y169D02*
X18Y169D01*
X151Y169D02*
X161Y169D01*
X404Y169D02*
X414Y169D01*
X653Y169D02*
X685Y169D01*
X731Y169D02*
X737Y169D01*
X1146Y169D02*
X1152Y169D01*
X1168Y169D02*
X1175Y169D01*
X1196Y169D02*
X1202Y169D01*
X1495Y169D02*
X1506Y169D01*
X1723Y169D02*
X1732Y169D01*
X1976Y169D02*
X1986Y169D01*
X2119Y169D02*
X2129Y169D01*
X0Y168D02*
X7Y168D01*
X9Y168D02*
X18Y168D01*
X151Y168D02*
X161Y168D01*
X404Y168D02*
X414Y168D01*
X653Y168D02*
X684Y168D01*
X730Y168D02*
X737Y168D01*
X1146Y168D02*
X1152Y168D01*
X1169Y168D02*
X1176Y168D01*
X1196Y168D02*
X1202Y168D01*
X1496Y168D02*
X1507Y168D01*
X1723Y168D02*
X1732Y168D01*
X1976Y168D02*
X1986Y168D01*
X2119Y168D02*
X2129Y168D01*
X0Y167D02*
X7Y167D01*
X9Y167D02*
X18Y167D01*
X151Y167D02*
X161Y167D01*
X404Y167D02*
X414Y167D01*
X653Y167D02*
X683Y167D01*
X730Y167D02*
X737Y167D01*
X1146Y167D02*
X1152Y167D01*
X1169Y167D02*
X1177Y167D01*
X1196Y167D02*
X1202Y167D01*
X1496Y167D02*
X1507Y167D01*
X1723Y167D02*
X1732Y167D01*
X1976Y167D02*
X1986Y167D01*
X2119Y167D02*
X2129Y167D01*
X0Y166D02*
X7Y166D01*
X9Y166D02*
X18Y166D01*
X151Y166D02*
X161Y166D01*
X404Y166D02*
X414Y166D01*
X653Y166D02*
X681Y166D01*
X727Y166D02*
X736Y166D01*
X1146Y166D02*
X1152Y166D01*
X1170Y166D02*
X1177Y166D01*
X1196Y166D02*
X1202Y166D01*
X1497Y166D02*
X1508Y166D01*
X1723Y166D02*
X1732Y166D01*
X1976Y166D02*
X1986Y166D01*
X2119Y166D02*
X2129Y166D01*
X0Y165D02*
X7Y165D01*
X9Y165D02*
X18Y165D01*
X151Y165D02*
X161Y165D01*
X404Y165D02*
X414Y165D01*
X653Y165D02*
X678Y165D01*
X711Y165D02*
X736Y165D01*
X1146Y165D02*
X1152Y165D01*
X1170Y165D02*
X1178Y165D01*
X1196Y165D02*
X1202Y165D01*
X1497Y165D02*
X1509Y165D01*
X1723Y165D02*
X1732Y165D01*
X1976Y165D02*
X1986Y165D01*
X2119Y165D02*
X2129Y165D01*
X0Y164D02*
X7Y164D01*
X9Y164D02*
X18Y164D01*
X151Y164D02*
X161Y164D01*
X404Y164D02*
X414Y164D01*
X653Y164D02*
X659Y164D01*
X666Y164D02*
X673Y164D01*
X711Y164D02*
X735Y164D01*
X1146Y164D02*
X1152Y164D01*
X1171Y164D02*
X1178Y164D01*
X1196Y164D02*
X1228Y164D01*
X1498Y164D02*
X1510Y164D01*
X1723Y164D02*
X1732Y164D01*
X1976Y164D02*
X1986Y164D01*
X2119Y164D02*
X2129Y164D01*
X0Y163D02*
X7Y163D01*
X9Y163D02*
X18Y163D01*
X151Y163D02*
X161Y163D01*
X404Y163D02*
X414Y163D01*
X653Y163D02*
X659Y163D01*
X666Y163D02*
X673Y163D01*
X710Y163D02*
X735Y163D01*
X1146Y163D02*
X1152Y163D01*
X1172Y163D02*
X1179Y163D01*
X1196Y163D02*
X1229Y163D01*
X1499Y163D02*
X1510Y163D01*
X1723Y163D02*
X1732Y163D01*
X1976Y163D02*
X1986Y163D01*
X2119Y163D02*
X2129Y163D01*
X0Y162D02*
X7Y162D01*
X9Y162D02*
X18Y162D01*
X151Y162D02*
X161Y162D01*
X404Y162D02*
X414Y162D01*
X653Y162D02*
X659Y162D01*
X667Y162D02*
X674Y162D01*
X710Y162D02*
X734Y162D01*
X1146Y162D02*
X1152Y162D01*
X1172Y162D02*
X1179Y162D01*
X1196Y162D02*
X1229Y162D01*
X1500Y162D02*
X1511Y162D01*
X1723Y162D02*
X1732Y162D01*
X1976Y162D02*
X1986Y162D01*
X2119Y162D02*
X2129Y162D01*
X0Y161D02*
X7Y161D01*
X9Y161D02*
X18Y161D01*
X151Y161D02*
X161Y161D01*
X404Y161D02*
X414Y161D01*
X653Y161D02*
X659Y161D01*
X667Y161D02*
X675Y161D01*
X711Y161D02*
X735Y161D01*
X1146Y161D02*
X1152Y161D01*
X1173Y161D02*
X1179Y161D01*
X1196Y161D02*
X1229Y161D01*
X1500Y161D02*
X1512Y161D01*
X1723Y161D02*
X1732Y161D01*
X1976Y161D02*
X1986Y161D01*
X2119Y161D02*
X2129Y161D01*
X0Y160D02*
X7Y160D01*
X9Y160D02*
X18Y160D01*
X151Y160D02*
X161Y160D01*
X404Y160D02*
X414Y160D01*
X653Y160D02*
X659Y160D01*
X668Y160D02*
X675Y160D01*
X711Y160D02*
X736Y160D01*
X1146Y160D02*
X1152Y160D01*
X1173Y160D02*
X1179Y160D01*
X1196Y160D02*
X1229Y160D01*
X1501Y160D02*
X1513Y160D01*
X1723Y160D02*
X1732Y160D01*
X1976Y160D02*
X1986Y160D01*
X2119Y160D02*
X2129Y160D01*
X0Y159D02*
X7Y159D01*
X9Y159D02*
X18Y159D01*
X151Y159D02*
X161Y159D01*
X404Y159D02*
X414Y159D01*
X653Y159D02*
X659Y159D01*
X669Y159D02*
X676Y159D01*
X713Y159D02*
X736Y159D01*
X1147Y159D02*
X1151Y159D01*
X1174Y159D02*
X1179Y159D01*
X1196Y159D02*
X1229Y159D01*
X1502Y159D02*
X1514Y159D01*
X1723Y159D02*
X1732Y159D01*
X1976Y159D02*
X1986Y159D01*
X2119Y159D02*
X2129Y159D01*
X0Y158D02*
X7Y158D01*
X9Y158D02*
X18Y158D01*
X151Y158D02*
X161Y158D01*
X404Y158D02*
X414Y158D01*
X653Y158D02*
X659Y158D01*
X669Y158D02*
X676Y158D01*
X730Y158D02*
X737Y158D01*
X1148Y158D02*
X1150Y158D01*
X1175Y158D02*
X1177Y158D01*
X1196Y158D02*
X1227Y158D01*
X1503Y158D02*
X1515Y158D01*
X1723Y158D02*
X1732Y158D01*
X1976Y158D02*
X1986Y158D01*
X2119Y158D02*
X2129Y158D01*
X0Y157D02*
X7Y157D01*
X9Y157D02*
X18Y157D01*
X151Y157D02*
X161Y157D01*
X404Y157D02*
X414Y157D01*
X653Y157D02*
X659Y157D01*
X670Y157D02*
X677Y157D01*
X730Y157D02*
X737Y157D01*
X1504Y157D02*
X1517Y157D01*
X1723Y157D02*
X1732Y157D01*
X1976Y157D02*
X1986Y157D01*
X2119Y157D02*
X2129Y157D01*
X0Y156D02*
X7Y156D01*
X9Y156D02*
X18Y156D01*
X151Y156D02*
X161Y156D01*
X404Y156D02*
X414Y156D01*
X653Y156D02*
X659Y156D01*
X670Y156D02*
X677Y156D01*
X731Y156D02*
X737Y156D01*
X1504Y156D02*
X1518Y156D01*
X1723Y156D02*
X1732Y156D01*
X1976Y156D02*
X1986Y156D01*
X2119Y156D02*
X2129Y156D01*
X0Y155D02*
X7Y155D01*
X9Y155D02*
X18Y155D01*
X151Y155D02*
X161Y155D01*
X404Y155D02*
X414Y155D01*
X653Y155D02*
X659Y155D01*
X671Y155D02*
X678Y155D01*
X731Y155D02*
X737Y155D01*
X1505Y155D02*
X1519Y155D01*
X1723Y155D02*
X1732Y155D01*
X1976Y155D02*
X1986Y155D01*
X2119Y155D02*
X2129Y155D01*
X0Y154D02*
X7Y154D01*
X9Y154D02*
X18Y154D01*
X151Y154D02*
X161Y154D01*
X404Y154D02*
X414Y154D01*
X653Y154D02*
X659Y154D01*
X671Y154D02*
X679Y154D01*
X731Y154D02*
X737Y154D01*
X1506Y154D02*
X1521Y154D01*
X1723Y154D02*
X1732Y154D01*
X1976Y154D02*
X1986Y154D01*
X2119Y154D02*
X2129Y154D01*
X0Y153D02*
X7Y153D01*
X9Y153D02*
X18Y153D01*
X151Y153D02*
X161Y153D01*
X404Y153D02*
X414Y153D01*
X653Y153D02*
X659Y153D01*
X672Y153D02*
X679Y153D01*
X731Y153D02*
X737Y153D01*
X1507Y153D02*
X1522Y153D01*
X1723Y153D02*
X1732Y153D01*
X1976Y153D02*
X1986Y153D01*
X2119Y153D02*
X2129Y153D01*
X0Y152D02*
X7Y152D01*
X9Y152D02*
X18Y152D01*
X151Y152D02*
X161Y152D01*
X404Y152D02*
X414Y152D01*
X653Y152D02*
X659Y152D01*
X673Y152D02*
X680Y152D01*
X731Y152D02*
X737Y152D01*
X1508Y152D02*
X1524Y152D01*
X1723Y152D02*
X1732Y152D01*
X1976Y152D02*
X1986Y152D01*
X2119Y152D02*
X2129Y152D01*
X0Y151D02*
X7Y151D01*
X9Y151D02*
X18Y151D01*
X151Y151D02*
X161Y151D01*
X404Y151D02*
X414Y151D01*
X653Y151D02*
X659Y151D01*
X673Y151D02*
X680Y151D01*
X731Y151D02*
X737Y151D01*
X1509Y151D02*
X1527Y151D01*
X1723Y151D02*
X1732Y151D01*
X1976Y151D02*
X1986Y151D01*
X2119Y151D02*
X2129Y151D01*
X0Y150D02*
X7Y150D01*
X9Y150D02*
X18Y150D01*
X151Y150D02*
X161Y150D01*
X404Y150D02*
X414Y150D01*
X653Y150D02*
X659Y150D01*
X674Y150D02*
X681Y150D01*
X731Y150D02*
X737Y150D01*
X1511Y150D02*
X1530Y150D01*
X1723Y150D02*
X1732Y150D01*
X1976Y150D02*
X1986Y150D01*
X2119Y150D02*
X2129Y150D01*
X0Y149D02*
X7Y149D01*
X9Y149D02*
X18Y149D01*
X151Y149D02*
X161Y149D01*
X404Y149D02*
X414Y149D01*
X653Y149D02*
X659Y149D01*
X674Y149D02*
X682Y149D01*
X731Y149D02*
X737Y149D01*
X1512Y149D02*
X1538Y149D01*
X1723Y149D02*
X1732Y149D01*
X1976Y149D02*
X1986Y149D01*
X2119Y149D02*
X2129Y149D01*
X0Y148D02*
X7Y148D01*
X9Y148D02*
X18Y148D01*
X151Y148D02*
X161Y148D01*
X404Y148D02*
X414Y148D01*
X653Y148D02*
X659Y148D01*
X675Y148D02*
X682Y148D01*
X731Y148D02*
X737Y148D01*
X1513Y148D02*
X1540Y148D01*
X1723Y148D02*
X1732Y148D01*
X1976Y148D02*
X1986Y148D01*
X2119Y148D02*
X2129Y148D01*
X0Y147D02*
X7Y147D01*
X9Y147D02*
X18Y147D01*
X151Y147D02*
X161Y147D01*
X404Y147D02*
X414Y147D01*
X653Y147D02*
X659Y147D01*
X676Y147D02*
X683Y147D01*
X731Y147D02*
X737Y147D01*
X1515Y147D02*
X1541Y147D01*
X1723Y147D02*
X1732Y147D01*
X1976Y147D02*
X1986Y147D01*
X2119Y147D02*
X2129Y147D01*
X0Y146D02*
X7Y146D01*
X9Y146D02*
X18Y146D01*
X151Y146D02*
X161Y146D01*
X404Y146D02*
X414Y146D01*
X653Y146D02*
X659Y146D01*
X676Y146D02*
X683Y146D01*
X731Y146D02*
X737Y146D01*
X1516Y146D02*
X1541Y146D01*
X1723Y146D02*
X1732Y146D01*
X1976Y146D02*
X1986Y146D01*
X2119Y146D02*
X2129Y146D01*
X0Y145D02*
X7Y145D01*
X9Y145D02*
X18Y145D01*
X151Y145D02*
X161Y145D01*
X404Y145D02*
X414Y145D01*
X653Y145D02*
X659Y145D01*
X677Y145D02*
X684Y145D01*
X731Y145D02*
X737Y145D01*
X1518Y145D02*
X1541Y145D01*
X1723Y145D02*
X1732Y145D01*
X1976Y145D02*
X1986Y145D01*
X2119Y145D02*
X2129Y145D01*
X0Y144D02*
X7Y144D01*
X9Y144D02*
X18Y144D01*
X151Y144D02*
X161Y144D01*
X404Y144D02*
X414Y144D01*
X653Y144D02*
X659Y144D01*
X677Y144D02*
X684Y144D01*
X731Y144D02*
X737Y144D01*
X1520Y144D02*
X1540Y144D01*
X1723Y144D02*
X1732Y144D01*
X1976Y144D02*
X1986Y144D01*
X2119Y144D02*
X2129Y144D01*
X0Y143D02*
X7Y143D01*
X9Y143D02*
X18Y143D01*
X151Y143D02*
X161Y143D01*
X404Y143D02*
X414Y143D01*
X653Y143D02*
X659Y143D01*
X678Y143D02*
X685Y143D01*
X731Y143D02*
X737Y143D01*
X1522Y143D02*
X1540Y143D01*
X1723Y143D02*
X1732Y143D01*
X1976Y143D02*
X1986Y143D01*
X2119Y143D02*
X2129Y143D01*
X0Y142D02*
X7Y142D01*
X9Y142D02*
X18Y142D01*
X151Y142D02*
X161Y142D01*
X404Y142D02*
X414Y142D01*
X653Y142D02*
X659Y142D01*
X678Y142D02*
X686Y142D01*
X705Y142D02*
X737Y142D01*
X1524Y142D02*
X1540Y142D01*
X1723Y142D02*
X1732Y142D01*
X1976Y142D02*
X1986Y142D01*
X2119Y142D02*
X2129Y142D01*
X0Y141D02*
X7Y141D01*
X9Y141D02*
X18Y141D01*
X151Y141D02*
X161Y141D01*
X404Y141D02*
X414Y141D01*
X653Y141D02*
X659Y141D01*
X679Y141D02*
X686Y141D01*
X704Y141D02*
X737Y141D01*
X1527Y141D02*
X1539Y141D01*
X1723Y141D02*
X1732Y141D01*
X1976Y141D02*
X1986Y141D01*
X2119Y141D02*
X2129Y141D01*
X0Y140D02*
X7Y140D01*
X9Y140D02*
X18Y140D01*
X151Y140D02*
X161Y140D01*
X404Y140D02*
X414Y140D01*
X653Y140D02*
X659Y140D01*
X680Y140D02*
X687Y140D01*
X704Y140D02*
X736Y140D01*
X1531Y140D02*
X1539Y140D01*
X1723Y140D02*
X1732Y140D01*
X1976Y140D02*
X1986Y140D01*
X2119Y140D02*
X2129Y140D01*
X0Y139D02*
X7Y139D01*
X9Y139D02*
X18Y139D01*
X151Y139D02*
X161Y139D01*
X404Y139D02*
X414Y139D01*
X653Y139D02*
X659Y139D01*
X680Y139D02*
X687Y139D01*
X703Y139D02*
X736Y139D01*
X1723Y139D02*
X1732Y139D01*
X1976Y139D02*
X1986Y139D01*
X2119Y139D02*
X2129Y139D01*
X0Y138D02*
X7Y138D01*
X9Y138D02*
X18Y138D01*
X151Y138D02*
X161Y138D01*
X404Y138D02*
X414Y138D01*
X653Y138D02*
X659Y138D01*
X681Y138D02*
X687Y138D01*
X703Y138D02*
X735Y138D01*
X1723Y138D02*
X1732Y138D01*
X1976Y138D02*
X1986Y138D01*
X2119Y138D02*
X2129Y138D01*
X0Y137D02*
X7Y137D01*
X9Y137D02*
X18Y137D01*
X151Y137D02*
X161Y137D01*
X404Y137D02*
X414Y137D01*
X654Y137D02*
X659Y137D01*
X681Y137D02*
X686Y137D01*
X704Y137D02*
X734Y137D01*
X1723Y137D02*
X1732Y137D01*
X1976Y137D02*
X1986Y137D01*
X2119Y137D02*
X2129Y137D01*
X0Y136D02*
X7Y136D01*
X9Y136D02*
X18Y136D01*
X151Y136D02*
X161Y136D01*
X404Y136D02*
X414Y136D01*
X655Y136D02*
X658Y136D01*
X682Y136D02*
X685Y136D01*
X705Y136D02*
X733Y136D01*
X1723Y136D02*
X1732Y136D01*
X1976Y136D02*
X1986Y136D01*
X2119Y136D02*
X2129Y136D01*
X0Y135D02*
X7Y135D01*
X9Y135D02*
X18Y135D01*
X151Y135D02*
X161Y135D01*
X404Y135D02*
X414Y135D01*
X1723Y135D02*
X1732Y135D01*
X1976Y135D02*
X1986Y135D01*
X2119Y135D02*
X2129Y135D01*
X0Y134D02*
X7Y134D01*
X9Y134D02*
X18Y134D01*
X151Y134D02*
X161Y134D01*
X404Y134D02*
X414Y134D01*
X1723Y134D02*
X1732Y134D01*
X1976Y134D02*
X1986Y134D01*
X2119Y134D02*
X2129Y134D01*
X0Y133D02*
X7Y133D01*
X9Y133D02*
X18Y133D01*
X151Y133D02*
X161Y133D01*
X404Y133D02*
X414Y133D01*
X1723Y133D02*
X1732Y133D01*
X1976Y133D02*
X1986Y133D01*
X2119Y133D02*
X2129Y133D01*
X0Y132D02*
X7Y132D01*
X9Y132D02*
X18Y132D01*
X151Y132D02*
X161Y132D01*
X404Y132D02*
X414Y132D01*
X1723Y132D02*
X1732Y132D01*
X1976Y132D02*
X1986Y132D01*
X2119Y132D02*
X2129Y132D01*
X0Y131D02*
X7Y131D01*
X9Y131D02*
X18Y131D01*
X151Y131D02*
X161Y131D01*
X404Y131D02*
X414Y131D01*
X1723Y131D02*
X1732Y131D01*
X1976Y131D02*
X1986Y131D01*
X2119Y131D02*
X2129Y131D01*
X0Y130D02*
X7Y130D01*
X9Y130D02*
X18Y130D01*
X151Y130D02*
X161Y130D01*
X404Y130D02*
X414Y130D01*
X1723Y130D02*
X1732Y130D01*
X1976Y130D02*
X1986Y130D01*
X2119Y130D02*
X2129Y130D01*
X0Y129D02*
X7Y129D01*
X9Y129D02*
X18Y129D01*
X151Y129D02*
X161Y129D01*
X404Y129D02*
X414Y129D01*
X1723Y129D02*
X1732Y129D01*
X1976Y129D02*
X1986Y129D01*
X2119Y129D02*
X2129Y129D01*
X0Y128D02*
X7Y128D01*
X9Y128D02*
X18Y128D01*
X151Y128D02*
X161Y128D01*
X404Y128D02*
X414Y128D01*
X1723Y128D02*
X1732Y128D01*
X1976Y128D02*
X1986Y128D01*
X2119Y128D02*
X2129Y128D01*
X0Y127D02*
X7Y127D01*
X9Y127D02*
X18Y127D01*
X151Y127D02*
X161Y127D01*
X404Y127D02*
X414Y127D01*
X1723Y127D02*
X1732Y127D01*
X1976Y127D02*
X1986Y127D01*
X2119Y127D02*
X2129Y127D01*
X0Y126D02*
X7Y126D01*
X9Y126D02*
X18Y126D01*
X151Y126D02*
X161Y126D01*
X404Y126D02*
X414Y126D01*
X1723Y126D02*
X1732Y126D01*
X1976Y126D02*
X1986Y126D01*
X2119Y126D02*
X2129Y126D01*
X0Y125D02*
X7Y125D01*
X9Y125D02*
X18Y125D01*
X151Y125D02*
X161Y125D01*
X404Y125D02*
X414Y125D01*
X1723Y125D02*
X1732Y125D01*
X1976Y125D02*
X1986Y125D01*
X2119Y125D02*
X2129Y125D01*
X0Y124D02*
X7Y124D01*
X9Y124D02*
X18Y124D01*
X151Y124D02*
X161Y124D01*
X404Y124D02*
X414Y124D01*
X1723Y124D02*
X1732Y124D01*
X1976Y124D02*
X1986Y124D01*
X2119Y124D02*
X2129Y124D01*
X0Y123D02*
X7Y123D01*
X9Y123D02*
X18Y123D01*
X151Y123D02*
X161Y123D01*
X404Y123D02*
X414Y123D01*
X1723Y123D02*
X1732Y123D01*
X1976Y123D02*
X1986Y123D01*
X2119Y123D02*
X2129Y123D01*
X0Y122D02*
X7Y122D01*
X9Y122D02*
X18Y122D01*
X151Y122D02*
X161Y122D01*
X404Y122D02*
X414Y122D01*
X1723Y122D02*
X1732Y122D01*
X1976Y122D02*
X1986Y122D01*
X2119Y122D02*
X2129Y122D01*
X0Y121D02*
X7Y121D01*
X9Y121D02*
X18Y121D01*
X151Y121D02*
X161Y121D01*
X404Y121D02*
X414Y121D01*
X1723Y121D02*
X1732Y121D01*
X1976Y121D02*
X1986Y121D01*
X2119Y121D02*
X2129Y121D01*
X0Y120D02*
X7Y120D01*
X9Y120D02*
X18Y120D01*
X151Y120D02*
X161Y120D01*
X404Y120D02*
X414Y120D01*
X1723Y120D02*
X1732Y120D01*
X1976Y120D02*
X1986Y120D01*
X2119Y120D02*
X2129Y120D01*
X0Y119D02*
X7Y119D01*
X9Y119D02*
X18Y119D01*
X151Y119D02*
X161Y119D01*
X404Y119D02*
X414Y119D01*
X1723Y119D02*
X1732Y119D01*
X1976Y119D02*
X1986Y119D01*
X2119Y119D02*
X2129Y119D01*
X0Y118D02*
X7Y118D01*
X9Y118D02*
X18Y118D01*
X151Y118D02*
X161Y118D01*
X404Y118D02*
X414Y118D01*
X1723Y118D02*
X1732Y118D01*
X1976Y118D02*
X1986Y118D01*
X2119Y118D02*
X2129Y118D01*
X0Y117D02*
X7Y117D01*
X9Y117D02*
X18Y117D01*
X151Y117D02*
X161Y117D01*
X404Y117D02*
X414Y117D01*
X1723Y117D02*
X1732Y117D01*
X1976Y117D02*
X1986Y117D01*
X2119Y117D02*
X2129Y117D01*
X0Y116D02*
X7Y116D01*
X9Y116D02*
X18Y116D01*
X151Y116D02*
X161Y116D01*
X404Y116D02*
X414Y116D01*
X1723Y116D02*
X1732Y116D01*
X1976Y116D02*
X1986Y116D01*
X2119Y116D02*
X2129Y116D01*
X0Y115D02*
X7Y115D01*
X9Y115D02*
X18Y115D01*
X151Y115D02*
X161Y115D01*
X404Y115D02*
X414Y115D01*
X1723Y115D02*
X1732Y115D01*
X1976Y115D02*
X1986Y115D01*
X2119Y115D02*
X2129Y115D01*
X0Y114D02*
X7Y114D01*
X9Y114D02*
X18Y114D01*
X151Y114D02*
X161Y114D01*
X404Y114D02*
X414Y114D01*
X1723Y114D02*
X1732Y114D01*
X1976Y114D02*
X1986Y114D01*
X2119Y114D02*
X2129Y114D01*
X0Y113D02*
X7Y113D01*
X9Y113D02*
X18Y113D01*
X151Y113D02*
X161Y113D01*
X404Y113D02*
X414Y113D01*
X1723Y113D02*
X1732Y113D01*
X1976Y113D02*
X1986Y113D01*
X2119Y113D02*
X2129Y113D01*
X0Y112D02*
X7Y112D01*
X9Y112D02*
X18Y112D01*
X151Y112D02*
X161Y112D01*
X404Y112D02*
X414Y112D01*
X1723Y112D02*
X1732Y112D01*
X1976Y112D02*
X1986Y112D01*
X2119Y112D02*
X2129Y112D01*
X0Y111D02*
X7Y111D01*
X9Y111D02*
X18Y111D01*
X151Y111D02*
X161Y111D01*
X404Y111D02*
X414Y111D01*
X1723Y111D02*
X1732Y111D01*
X1976Y111D02*
X1986Y111D01*
X2119Y111D02*
X2129Y111D01*
X0Y110D02*
X7Y110D01*
X9Y110D02*
X18Y110D01*
X151Y110D02*
X161Y110D01*
X404Y110D02*
X414Y110D01*
X1723Y110D02*
X1732Y110D01*
X1976Y110D02*
X1986Y110D01*
X2119Y110D02*
X2129Y110D01*
X0Y109D02*
X7Y109D01*
X9Y109D02*
X18Y109D01*
X151Y109D02*
X161Y109D01*
X404Y109D02*
X414Y109D01*
X1723Y109D02*
X1732Y109D01*
X1976Y109D02*
X1986Y109D01*
X2119Y109D02*
X2129Y109D01*
X0Y108D02*
X7Y108D01*
X9Y108D02*
X18Y108D01*
X151Y108D02*
X161Y108D01*
X404Y108D02*
X414Y108D01*
X1723Y108D02*
X1732Y108D01*
X1976Y108D02*
X1986Y108D01*
X2119Y108D02*
X2129Y108D01*
X0Y107D02*
X7Y107D01*
X9Y107D02*
X18Y107D01*
X151Y107D02*
X161Y107D01*
X404Y107D02*
X414Y107D01*
X1723Y107D02*
X1732Y107D01*
X1976Y107D02*
X1986Y107D01*
X2119Y107D02*
X2129Y107D01*
X0Y106D02*
X7Y106D01*
X9Y106D02*
X18Y106D01*
X151Y106D02*
X161Y106D01*
X404Y106D02*
X414Y106D01*
X1723Y106D02*
X1732Y106D01*
X1976Y106D02*
X1986Y106D01*
X2119Y106D02*
X2129Y106D01*
X0Y105D02*
X7Y105D01*
X9Y105D02*
X18Y105D01*
X151Y105D02*
X161Y105D01*
X404Y105D02*
X414Y105D01*
X1723Y105D02*
X1732Y105D01*
X1976Y105D02*
X1986Y105D01*
X2119Y105D02*
X2129Y105D01*
X0Y104D02*
X7Y104D01*
X9Y104D02*
X18Y104D01*
X151Y104D02*
X161Y104D01*
X404Y104D02*
X414Y104D01*
X1723Y104D02*
X1732Y104D01*
X1976Y104D02*
X1986Y104D01*
X2119Y104D02*
X2129Y104D01*
X0Y103D02*
X7Y103D01*
X9Y103D02*
X18Y103D01*
X151Y103D02*
X161Y103D01*
X404Y103D02*
X414Y103D01*
X1008Y103D02*
X1074Y103D01*
X1275Y103D02*
X1322Y103D01*
X1723Y103D02*
X1732Y103D01*
X1976Y103D02*
X1986Y103D01*
X2119Y103D02*
X2129Y103D01*
X0Y102D02*
X7Y102D01*
X9Y102D02*
X18Y102D01*
X151Y102D02*
X161Y102D01*
X404Y102D02*
X414Y102D01*
X1008Y102D02*
X1074Y102D01*
X1275Y102D02*
X1322Y102D01*
X1723Y102D02*
X1732Y102D01*
X1976Y102D02*
X1986Y102D01*
X2119Y102D02*
X2129Y102D01*
X0Y101D02*
X7Y101D01*
X9Y101D02*
X18Y101D01*
X151Y101D02*
X161Y101D01*
X404Y101D02*
X414Y101D01*
X1008Y101D02*
X1074Y101D01*
X1275Y101D02*
X1322Y101D01*
X1723Y101D02*
X1732Y101D01*
X1976Y101D02*
X1986Y101D01*
X2119Y101D02*
X2129Y101D01*
X0Y100D02*
X7Y100D01*
X9Y100D02*
X18Y100D01*
X151Y100D02*
X161Y100D01*
X404Y100D02*
X414Y100D01*
X1008Y100D02*
X1074Y100D01*
X1275Y100D02*
X1322Y100D01*
X1723Y100D02*
X1732Y100D01*
X1976Y100D02*
X1986Y100D01*
X2119Y100D02*
X2129Y100D01*
X0Y99D02*
X7Y99D01*
X9Y99D02*
X18Y99D01*
X151Y99D02*
X161Y99D01*
X404Y99D02*
X414Y99D01*
X1008Y99D02*
X1074Y99D01*
X1275Y99D02*
X1322Y99D01*
X1723Y99D02*
X1732Y99D01*
X1976Y99D02*
X1986Y99D01*
X2119Y99D02*
X2129Y99D01*
X0Y98D02*
X7Y98D01*
X9Y98D02*
X18Y98D01*
X151Y98D02*
X161Y98D01*
X404Y98D02*
X414Y98D01*
X1008Y98D02*
X1074Y98D01*
X1275Y98D02*
X1322Y98D01*
X1723Y98D02*
X1732Y98D01*
X1976Y98D02*
X1986Y98D01*
X2119Y98D02*
X2129Y98D01*
X0Y97D02*
X7Y97D01*
X9Y97D02*
X18Y97D01*
X151Y97D02*
X161Y97D01*
X404Y97D02*
X414Y97D01*
X540Y97D02*
X571Y97D01*
X722Y97D02*
X755Y97D01*
X1008Y97D02*
X1074Y97D01*
X1275Y97D02*
X1322Y97D01*
X1723Y97D02*
X1732Y97D01*
X1976Y97D02*
X1986Y97D01*
X2119Y97D02*
X2129Y97D01*
X0Y96D02*
X7Y96D01*
X9Y96D02*
X18Y96D01*
X151Y96D02*
X161Y96D01*
X404Y96D02*
X414Y96D01*
X540Y96D02*
X571Y96D01*
X722Y96D02*
X754Y96D01*
X1008Y96D02*
X1074Y96D01*
X1275Y96D02*
X1322Y96D01*
X1723Y96D02*
X1732Y96D01*
X1976Y96D02*
X1986Y96D01*
X2119Y96D02*
X2129Y96D01*
X0Y95D02*
X7Y95D01*
X9Y95D02*
X18Y95D01*
X151Y95D02*
X161Y95D01*
X404Y95D02*
X414Y95D01*
X540Y95D02*
X571Y95D01*
X722Y95D02*
X754Y95D01*
X1008Y95D02*
X1074Y95D01*
X1275Y95D02*
X1322Y95D01*
X1723Y95D02*
X1732Y95D01*
X1976Y95D02*
X1986Y95D01*
X2119Y95D02*
X2129Y95D01*
X0Y94D02*
X7Y94D01*
X9Y94D02*
X18Y94D01*
X151Y94D02*
X161Y94D01*
X404Y94D02*
X414Y94D01*
X540Y94D02*
X571Y94D01*
X722Y94D02*
X754Y94D01*
X1008Y94D02*
X1074Y94D01*
X1275Y94D02*
X1322Y94D01*
X1723Y94D02*
X1732Y94D01*
X1976Y94D02*
X1986Y94D01*
X2119Y94D02*
X2129Y94D01*
X0Y93D02*
X7Y93D01*
X9Y93D02*
X18Y93D01*
X151Y93D02*
X161Y93D01*
X404Y93D02*
X414Y93D01*
X540Y93D02*
X571Y93D01*
X722Y93D02*
X754Y93D01*
X1723Y93D02*
X1732Y93D01*
X1976Y93D02*
X1986Y93D01*
X2119Y93D02*
X2129Y93D01*
X0Y92D02*
X7Y92D01*
X9Y92D02*
X18Y92D01*
X151Y92D02*
X161Y92D01*
X404Y92D02*
X414Y92D01*
X540Y92D02*
X571Y92D01*
X722Y92D02*
X754Y92D01*
X1723Y92D02*
X1732Y92D01*
X1976Y92D02*
X1986Y92D01*
X2119Y92D02*
X2129Y92D01*
X0Y91D02*
X7Y91D01*
X9Y91D02*
X18Y91D01*
X151Y91D02*
X161Y91D01*
X404Y91D02*
X414Y91D01*
X540Y91D02*
X571Y91D01*
X722Y91D02*
X754Y91D01*
X1723Y91D02*
X1732Y91D01*
X1976Y91D02*
X1986Y91D01*
X2119Y91D02*
X2129Y91D01*
X0Y90D02*
X7Y90D01*
X9Y90D02*
X18Y90D01*
X151Y90D02*
X161Y90D01*
X404Y90D02*
X414Y90D01*
X540Y90D02*
X571Y90D01*
X722Y90D02*
X755Y90D01*
X1723Y90D02*
X1732Y90D01*
X1976Y90D02*
X1986Y90D01*
X2119Y90D02*
X2129Y90D01*
X0Y89D02*
X7Y89D01*
X9Y89D02*
X18Y89D01*
X151Y89D02*
X161Y89D01*
X404Y89D02*
X414Y89D01*
X540Y89D02*
X571Y89D01*
X722Y89D02*
X755Y89D01*
X1723Y89D02*
X1732Y89D01*
X1976Y89D02*
X1986Y89D01*
X2119Y89D02*
X2129Y89D01*
X0Y88D02*
X7Y88D01*
X9Y88D02*
X18Y88D01*
X151Y88D02*
X161Y88D01*
X404Y88D02*
X414Y88D01*
X540Y88D02*
X571Y88D01*
X723Y88D02*
X755Y88D01*
X1723Y88D02*
X1732Y88D01*
X1976Y88D02*
X1986Y88D01*
X2119Y88D02*
X2129Y88D01*
X0Y87D02*
X7Y87D01*
X9Y87D02*
X18Y87D01*
X151Y87D02*
X161Y87D01*
X404Y87D02*
X414Y87D01*
X1594Y87D02*
X1601Y87D01*
X1723Y87D02*
X1732Y87D01*
X1976Y87D02*
X1986Y87D01*
X2119Y87D02*
X2129Y87D01*
X0Y86D02*
X7Y86D01*
X9Y86D02*
X18Y86D01*
X151Y86D02*
X161Y86D01*
X404Y86D02*
X414Y86D01*
X1591Y86D02*
X1605Y86D01*
X1723Y86D02*
X1732Y86D01*
X1976Y86D02*
X1986Y86D01*
X2119Y86D02*
X2129Y86D01*
X0Y85D02*
X7Y85D01*
X9Y85D02*
X18Y85D01*
X151Y85D02*
X161Y85D01*
X404Y85D02*
X414Y85D01*
X1586Y85D02*
X1607Y85D01*
X1723Y85D02*
X1732Y85D01*
X1976Y85D02*
X1986Y85D01*
X2119Y85D02*
X2129Y85D01*
X0Y84D02*
X7Y84D01*
X9Y84D02*
X18Y84D01*
X151Y84D02*
X161Y84D01*
X404Y84D02*
X414Y84D01*
X1574Y84D02*
X1608Y84D01*
X1723Y84D02*
X1732Y84D01*
X1976Y84D02*
X1986Y84D01*
X2119Y84D02*
X2129Y84D01*
X0Y83D02*
X7Y83D01*
X9Y83D02*
X18Y83D01*
X151Y83D02*
X161Y83D01*
X404Y83D02*
X414Y83D01*
X1573Y83D02*
X1609Y83D01*
X1723Y83D02*
X1732Y83D01*
X1976Y83D02*
X1986Y83D01*
X2119Y83D02*
X2129Y83D01*
X0Y82D02*
X7Y82D01*
X9Y82D02*
X18Y82D01*
X151Y82D02*
X161Y82D01*
X404Y82D02*
X414Y82D01*
X1573Y82D02*
X1610Y82D01*
X1723Y82D02*
X1732Y82D01*
X1976Y82D02*
X1986Y82D01*
X2119Y82D02*
X2129Y82D01*
X0Y81D02*
X7Y81D01*
X9Y81D02*
X18Y81D01*
X151Y81D02*
X161Y81D01*
X404Y81D02*
X414Y81D01*
X1573Y81D02*
X1611Y81D01*
X1723Y81D02*
X1732Y81D01*
X1976Y81D02*
X1986Y81D01*
X2119Y81D02*
X2129Y81D01*
X0Y80D02*
X7Y80D01*
X9Y80D02*
X18Y80D01*
X151Y80D02*
X161Y80D01*
X404Y80D02*
X414Y80D01*
X1572Y80D02*
X1579Y80D01*
X1602Y80D02*
X1612Y80D01*
X1723Y80D02*
X1732Y80D01*
X1976Y80D02*
X1986Y80D01*
X2119Y80D02*
X2129Y80D01*
X0Y79D02*
X7Y79D01*
X9Y79D02*
X18Y79D01*
X151Y79D02*
X161Y79D01*
X404Y79D02*
X414Y79D01*
X1572Y79D02*
X1578Y79D01*
X1604Y79D02*
X1613Y79D01*
X1723Y79D02*
X1732Y79D01*
X1976Y79D02*
X1986Y79D01*
X2119Y79D02*
X2129Y79D01*
X0Y78D02*
X7Y78D01*
X9Y78D02*
X18Y78D01*
X151Y78D02*
X161Y78D01*
X404Y78D02*
X414Y78D01*
X1572Y78D02*
X1578Y78D01*
X1605Y78D02*
X1614Y78D01*
X1723Y78D02*
X1732Y78D01*
X1976Y78D02*
X1986Y78D01*
X2119Y78D02*
X2129Y78D01*
X0Y77D02*
X7Y77D01*
X9Y77D02*
X18Y77D01*
X151Y77D02*
X161Y77D01*
X404Y77D02*
X414Y77D01*
X1572Y77D02*
X1579Y77D01*
X1606Y77D02*
X1614Y77D01*
X1723Y77D02*
X1732Y77D01*
X1976Y77D02*
X1986Y77D01*
X2119Y77D02*
X2129Y77D01*
X0Y76D02*
X7Y76D01*
X9Y76D02*
X18Y76D01*
X151Y76D02*
X161Y76D01*
X404Y76D02*
X414Y76D01*
X1573Y76D02*
X1580Y76D01*
X1607Y76D02*
X1615Y76D01*
X1723Y76D02*
X1732Y76D01*
X1976Y76D02*
X1986Y76D01*
X2119Y76D02*
X2129Y76D01*
X0Y75D02*
X7Y75D01*
X9Y75D02*
X18Y75D01*
X151Y75D02*
X161Y75D01*
X404Y75D02*
X414Y75D01*
X1573Y75D02*
X1581Y75D01*
X1608Y75D02*
X1616Y75D01*
X1723Y75D02*
X1732Y75D01*
X1976Y75D02*
X1986Y75D01*
X2119Y75D02*
X2129Y75D01*
X0Y74D02*
X7Y74D01*
X9Y74D02*
X18Y74D01*
X151Y74D02*
X161Y74D01*
X404Y74D02*
X414Y74D01*
X1574Y74D02*
X1582Y74D01*
X1609Y74D02*
X1617Y74D01*
X1723Y74D02*
X1732Y74D01*
X1976Y74D02*
X1986Y74D01*
X2119Y74D02*
X2129Y74D01*
X0Y73D02*
X7Y73D01*
X9Y73D02*
X18Y73D01*
X151Y73D02*
X161Y73D01*
X404Y73D02*
X414Y73D01*
X1574Y73D02*
X1583Y73D01*
X1592Y73D02*
X1594Y73D01*
X1610Y73D02*
X1618Y73D01*
X1723Y73D02*
X1732Y73D01*
X1976Y73D02*
X1986Y73D01*
X2119Y73D02*
X2129Y73D01*
X0Y72D02*
X7Y72D01*
X9Y72D02*
X18Y72D01*
X151Y72D02*
X161Y72D01*
X404Y72D02*
X414Y72D01*
X1575Y72D02*
X1583Y72D01*
X1589Y72D02*
X1595Y72D01*
X1611Y72D02*
X1619Y72D01*
X1723Y72D02*
X1732Y72D01*
X1976Y72D02*
X1986Y72D01*
X2119Y72D02*
X2129Y72D01*
X0Y71D02*
X7Y71D01*
X9Y71D02*
X18Y71D01*
X151Y71D02*
X161Y71D01*
X404Y71D02*
X414Y71D01*
X1576Y71D02*
X1584Y71D01*
X1586Y71D02*
X1596Y71D01*
X1611Y71D02*
X1620Y71D01*
X1723Y71D02*
X1732Y71D01*
X1976Y71D02*
X1986Y71D01*
X2119Y71D02*
X2129Y71D01*
X0Y70D02*
X7Y70D01*
X9Y70D02*
X18Y70D01*
X151Y70D02*
X161Y70D01*
X404Y70D02*
X414Y70D01*
X1577Y70D02*
X1596Y70D01*
X1612Y70D02*
X1620Y70D01*
X1723Y70D02*
X1732Y70D01*
X1976Y70D02*
X1986Y70D01*
X2119Y70D02*
X2129Y70D01*
X0Y69D02*
X7Y69D01*
X9Y69D02*
X18Y69D01*
X151Y69D02*
X161Y69D01*
X404Y69D02*
X414Y69D01*
X1578Y69D02*
X1596Y69D01*
X1613Y69D02*
X1621Y69D01*
X1723Y69D02*
X1732Y69D01*
X1976Y69D02*
X1986Y69D01*
X2119Y69D02*
X2129Y69D01*
X0Y68D02*
X7Y68D01*
X9Y68D02*
X18Y68D01*
X151Y68D02*
X161Y68D01*
X404Y68D02*
X414Y68D01*
X1578Y68D02*
X1595Y68D01*
X1614Y68D02*
X1622Y68D01*
X1723Y68D02*
X1732Y68D01*
X1976Y68D02*
X1986Y68D01*
X2119Y68D02*
X2129Y68D01*
X0Y67D02*
X7Y67D01*
X9Y67D02*
X18Y67D01*
X151Y67D02*
X161Y67D01*
X404Y67D02*
X414Y67D01*
X1576Y67D02*
X1594Y67D01*
X1615Y67D02*
X1623Y67D01*
X1723Y67D02*
X1732Y67D01*
X1976Y67D02*
X1986Y67D01*
X2119Y67D02*
X2129Y67D01*
X0Y66D02*
X7Y66D01*
X9Y66D02*
X18Y66D01*
X151Y66D02*
X161Y66D01*
X404Y66D02*
X414Y66D01*
X1574Y66D02*
X1592Y66D01*
X1616Y66D02*
X1624Y66D01*
X1723Y66D02*
X1732Y66D01*
X1976Y66D02*
X1986Y66D01*
X2119Y66D02*
X2129Y66D01*
X0Y65D02*
X7Y65D01*
X9Y65D02*
X18Y65D01*
X151Y65D02*
X161Y65D01*
X404Y65D02*
X414Y65D01*
X1572Y65D02*
X1590Y65D01*
X1616Y65D02*
X1624Y65D01*
X1723Y65D02*
X1732Y65D01*
X1976Y65D02*
X1986Y65D01*
X2119Y65D02*
X2129Y65D01*
X0Y64D02*
X7Y64D01*
X9Y64D02*
X18Y64D01*
X151Y64D02*
X161Y64D01*
X404Y64D02*
X414Y64D01*
X1572Y64D02*
X1590Y64D01*
X1617Y64D02*
X1625Y64D01*
X1723Y64D02*
X1732Y64D01*
X1976Y64D02*
X1986Y64D01*
X2119Y64D02*
X2129Y64D01*
X0Y63D02*
X7Y63D01*
X9Y63D02*
X18Y63D01*
X151Y63D02*
X161Y63D01*
X404Y63D02*
X414Y63D01*
X1572Y63D02*
X1591Y63D01*
X1618Y63D02*
X1625Y63D01*
X1723Y63D02*
X1732Y63D01*
X1976Y63D02*
X1986Y63D01*
X2119Y63D02*
X2129Y63D01*
X0Y62D02*
X7Y62D01*
X9Y62D02*
X18Y62D01*
X151Y62D02*
X161Y62D01*
X404Y62D02*
X414Y62D01*
X1572Y62D02*
X1582Y62D01*
X1584Y62D02*
X1592Y62D01*
X1619Y62D02*
X1625Y62D01*
X1723Y62D02*
X1732Y62D01*
X1976Y62D02*
X1986Y62D01*
X2119Y62D02*
X2129Y62D01*
X0Y61D02*
X7Y61D01*
X9Y61D02*
X18Y61D01*
X151Y61D02*
X161Y61D01*
X404Y61D02*
X414Y61D01*
X1572Y61D02*
X1579Y61D01*
X1584Y61D02*
X1593Y61D01*
X1619Y61D02*
X1625Y61D01*
X1723Y61D02*
X1732Y61D01*
X1976Y61D02*
X1986Y61D01*
X2119Y61D02*
X2129Y61D01*
X0Y60D02*
X7Y60D01*
X9Y60D02*
X18Y60D01*
X151Y60D02*
X161Y60D01*
X404Y60D02*
X414Y60D01*
X1572Y60D02*
X1578Y60D01*
X1585Y60D02*
X1595Y60D01*
X1619Y60D02*
X1625Y60D01*
X1723Y60D02*
X1732Y60D01*
X1976Y60D02*
X1986Y60D01*
X2119Y60D02*
X2129Y60D01*
X0Y59D02*
X7Y59D01*
X9Y59D02*
X18Y59D01*
X151Y59D02*
X161Y59D01*
X404Y59D02*
X414Y59D01*
X1572Y59D02*
X1578Y59D01*
X1586Y59D02*
X1625Y59D01*
X1723Y59D02*
X1732Y59D01*
X1976Y59D02*
X1986Y59D01*
X2119Y59D02*
X2129Y59D01*
X0Y58D02*
X7Y58D01*
X9Y58D02*
X18Y58D01*
X151Y58D02*
X161Y58D01*
X404Y58D02*
X414Y58D01*
X1572Y58D02*
X1578Y58D01*
X1587Y58D02*
X1625Y58D01*
X1723Y58D02*
X1732Y58D01*
X1976Y58D02*
X1986Y58D01*
X2119Y58D02*
X2129Y58D01*
X0Y57D02*
X7Y57D01*
X9Y57D02*
X18Y57D01*
X151Y57D02*
X161Y57D01*
X404Y57D02*
X414Y57D01*
X1572Y57D02*
X1578Y57D01*
X1588Y57D02*
X1624Y57D01*
X1723Y57D02*
X1732Y57D01*
X1976Y57D02*
X1986Y57D01*
X2119Y57D02*
X2129Y57D01*
X0Y56D02*
X7Y56D01*
X9Y56D02*
X18Y56D01*
X151Y56D02*
X161Y56D01*
X404Y56D02*
X414Y56D01*
X1572Y56D02*
X1578Y56D01*
X1589Y56D02*
X1623Y56D01*
X1723Y56D02*
X1732Y56D01*
X1976Y56D02*
X1986Y56D01*
X2119Y56D02*
X2129Y56D01*
X0Y55D02*
X7Y55D01*
X9Y55D02*
X18Y55D01*
X151Y55D02*
X161Y55D01*
X404Y55D02*
X414Y55D01*
X1572Y55D02*
X1578Y55D01*
X1590Y55D02*
X1623Y55D01*
X1723Y55D02*
X1732Y55D01*
X1976Y55D02*
X1986Y55D01*
X2119Y55D02*
X2129Y55D01*
X0Y54D02*
X7Y54D01*
X9Y54D02*
X18Y54D01*
X151Y54D02*
X161Y54D01*
X404Y54D02*
X414Y54D01*
X1573Y54D02*
X1577Y54D01*
X1592Y54D02*
X1621Y54D01*
X1723Y54D02*
X1732Y54D01*
X1976Y54D02*
X1986Y54D01*
X2119Y54D02*
X2129Y54D01*
X0Y53D02*
X7Y53D01*
X9Y53D02*
X18Y53D01*
X151Y53D02*
X161Y53D01*
X404Y53D02*
X414Y53D01*
X1574Y53D02*
X1576Y53D01*
X1595Y53D02*
X1619Y53D01*
X1723Y53D02*
X1732Y53D01*
X1976Y53D02*
X1986Y53D01*
X2119Y53D02*
X2129Y53D01*
X0Y52D02*
X7Y52D01*
X9Y52D02*
X18Y52D01*
X151Y52D02*
X161Y52D01*
X404Y52D02*
X414Y52D01*
X1723Y52D02*
X1732Y52D01*
X1976Y52D02*
X1986Y52D01*
X2119Y52D02*
X2129Y52D01*
X0Y51D02*
X7Y51D01*
X9Y51D02*
X18Y51D01*
X151Y51D02*
X161Y51D01*
X404Y51D02*
X414Y51D01*
X1723Y51D02*
X1732Y51D01*
X1976Y51D02*
X1986Y51D01*
X2119Y51D02*
X2129Y51D01*
X0Y50D02*
X7Y50D01*
X9Y50D02*
X18Y50D01*
X151Y50D02*
X161Y50D01*
X404Y50D02*
X414Y50D01*
X1723Y50D02*
X1732Y50D01*
X1976Y50D02*
X1986Y50D01*
X2119Y50D02*
X2129Y50D01*
X0Y49D02*
X7Y49D01*
X9Y49D02*
X18Y49D01*
X151Y49D02*
X161Y49D01*
X404Y49D02*
X414Y49D01*
X1723Y49D02*
X1732Y49D01*
X1976Y49D02*
X1986Y49D01*
X2119Y49D02*
X2129Y49D01*
X0Y48D02*
X7Y48D01*
X9Y48D02*
X18Y48D01*
X151Y48D02*
X161Y48D01*
X404Y48D02*
X414Y48D01*
X1723Y48D02*
X1732Y48D01*
X1976Y48D02*
X1986Y48D01*
X2119Y48D02*
X2129Y48D01*
X0Y47D02*
X7Y47D01*
X9Y47D02*
X18Y47D01*
X151Y47D02*
X161Y47D01*
X404Y47D02*
X414Y47D01*
X1723Y47D02*
X1732Y47D01*
X1976Y47D02*
X1986Y47D01*
X2119Y47D02*
X2129Y47D01*
X0Y46D02*
X7Y46D01*
X9Y46D02*
X18Y46D01*
X151Y46D02*
X161Y46D01*
X404Y46D02*
X414Y46D01*
X1723Y46D02*
X1732Y46D01*
X1976Y46D02*
X1986Y46D01*
X2119Y46D02*
X2129Y46D01*
X0Y45D02*
X7Y45D01*
X9Y45D02*
X18Y45D01*
X151Y45D02*
X161Y45D01*
X404Y45D02*
X414Y45D01*
X1723Y45D02*
X1732Y45D01*
X1976Y45D02*
X1986Y45D01*
X2119Y45D02*
X2129Y45D01*
X0Y44D02*
X7Y44D01*
X9Y44D02*
X18Y44D01*
X151Y44D02*
X161Y44D01*
X404Y44D02*
X414Y44D01*
X1723Y44D02*
X1732Y44D01*
X1976Y44D02*
X1986Y44D01*
X2119Y44D02*
X2129Y44D01*
X0Y43D02*
X7Y43D01*
X9Y43D02*
X18Y43D01*
X151Y43D02*
X161Y43D01*
X404Y43D02*
X414Y43D01*
X1723Y43D02*
X1732Y43D01*
X1976Y43D02*
X1986Y43D01*
X2119Y43D02*
X2129Y43D01*
X0Y42D02*
X7Y42D01*
X9Y42D02*
X18Y42D01*
X151Y42D02*
X161Y42D01*
X404Y42D02*
X414Y42D01*
X1723Y42D02*
X1732Y42D01*
X1976Y42D02*
X1986Y42D01*
X2119Y42D02*
X2129Y42D01*
X0Y41D02*
X7Y41D01*
X9Y41D02*
X18Y41D01*
X151Y41D02*
X161Y41D01*
X404Y41D02*
X414Y41D01*
X1723Y41D02*
X1732Y41D01*
X1976Y41D02*
X1986Y41D01*
X2119Y41D02*
X2129Y41D01*
X0Y40D02*
X7Y40D01*
X9Y40D02*
X18Y40D01*
X151Y40D02*
X161Y40D01*
X404Y40D02*
X414Y40D01*
X1723Y40D02*
X1732Y40D01*
X1976Y40D02*
X1986Y40D01*
X2119Y40D02*
X2129Y40D01*
X0Y39D02*
X7Y39D01*
X9Y39D02*
X18Y39D01*
X151Y39D02*
X161Y39D01*
X404Y39D02*
X414Y39D01*
X1723Y39D02*
X1732Y39D01*
X1976Y39D02*
X1986Y39D01*
X2119Y39D02*
X2129Y39D01*
X0Y38D02*
X7Y38D01*
X9Y38D02*
X18Y38D01*
X151Y38D02*
X161Y38D01*
X404Y38D02*
X414Y38D01*
X1723Y38D02*
X1732Y38D01*
X1976Y38D02*
X1986Y38D01*
X2119Y38D02*
X2129Y38D01*
X0Y37D02*
X7Y37D01*
X9Y37D02*
X18Y37D01*
X151Y37D02*
X161Y37D01*
X404Y37D02*
X414Y37D01*
X1575Y37D02*
X1576Y37D01*
X1622Y37D02*
X1623Y37D01*
X1723Y37D02*
X1732Y37D01*
X1976Y37D02*
X1986Y37D01*
X2119Y37D02*
X2129Y37D01*
X0Y36D02*
X7Y36D01*
X9Y36D02*
X18Y36D01*
X151Y36D02*
X161Y36D01*
X404Y36D02*
X414Y36D01*
X1573Y36D02*
X1577Y36D01*
X1620Y36D02*
X1624Y36D01*
X1723Y36D02*
X1732Y36D01*
X1976Y36D02*
X1986Y36D01*
X2119Y36D02*
X2129Y36D01*
X0Y35D02*
X7Y35D01*
X9Y35D02*
X18Y35D01*
X151Y35D02*
X161Y35D01*
X404Y35D02*
X414Y35D01*
X1572Y35D02*
X1578Y35D01*
X1620Y35D02*
X1625Y35D01*
X1723Y35D02*
X1732Y35D01*
X1976Y35D02*
X1986Y35D01*
X2119Y35D02*
X2129Y35D01*
X0Y34D02*
X7Y34D01*
X9Y34D02*
X18Y34D01*
X151Y34D02*
X161Y34D01*
X404Y34D02*
X414Y34D01*
X1572Y34D02*
X1578Y34D01*
X1619Y34D02*
X1625Y34D01*
X1723Y34D02*
X1732Y34D01*
X1976Y34D02*
X1986Y34D01*
X2119Y34D02*
X2129Y34D01*
X0Y33D02*
X7Y33D01*
X9Y33D02*
X18Y33D01*
X151Y33D02*
X161Y33D01*
X404Y33D02*
X414Y33D01*
X1572Y33D02*
X1578Y33D01*
X1619Y33D02*
X1625Y33D01*
X1723Y33D02*
X1732Y33D01*
X1976Y33D02*
X1986Y33D01*
X2119Y33D02*
X2129Y33D01*
X0Y32D02*
X7Y32D01*
X9Y32D02*
X18Y32D01*
X151Y32D02*
X161Y32D01*
X404Y32D02*
X414Y32D01*
X1572Y32D02*
X1578Y32D01*
X1619Y32D02*
X1625Y32D01*
X1723Y32D02*
X1732Y32D01*
X1976Y32D02*
X1986Y32D01*
X2119Y32D02*
X2129Y32D01*
X0Y31D02*
X7Y31D01*
X9Y31D02*
X18Y31D01*
X151Y31D02*
X161Y31D01*
X404Y31D02*
X414Y31D01*
X1572Y31D02*
X1578Y31D01*
X1619Y31D02*
X1625Y31D01*
X1723Y31D02*
X1732Y31D01*
X1976Y31D02*
X1986Y31D01*
X2119Y31D02*
X2129Y31D01*
X0Y30D02*
X7Y30D01*
X9Y30D02*
X18Y30D01*
X151Y30D02*
X161Y30D01*
X404Y30D02*
X414Y30D01*
X1572Y30D02*
X1578Y30D01*
X1619Y30D02*
X1625Y30D01*
X1723Y30D02*
X1732Y30D01*
X1976Y30D02*
X1986Y30D01*
X2119Y30D02*
X2129Y30D01*
X0Y29D02*
X7Y29D01*
X9Y29D02*
X18Y29D01*
X151Y29D02*
X161Y29D01*
X404Y29D02*
X414Y29D01*
X1572Y29D02*
X1578Y29D01*
X1619Y29D02*
X1625Y29D01*
X1723Y29D02*
X1732Y29D01*
X1976Y29D02*
X1986Y29D01*
X2119Y29D02*
X2129Y29D01*
X0Y28D02*
X7Y28D01*
X9Y28D02*
X18Y28D01*
X151Y28D02*
X161Y28D01*
X404Y28D02*
X414Y28D01*
X1572Y28D02*
X1578Y28D01*
X1619Y28D02*
X1625Y28D01*
X1723Y28D02*
X1732Y28D01*
X1976Y28D02*
X1986Y28D01*
X2119Y28D02*
X2129Y28D01*
X0Y27D02*
X7Y27D01*
X9Y27D02*
X18Y27D01*
X151Y27D02*
X161Y27D01*
X404Y27D02*
X414Y27D01*
X1572Y27D02*
X1578Y27D01*
X1619Y27D02*
X1625Y27D01*
X1723Y27D02*
X1732Y27D01*
X1976Y27D02*
X1986Y27D01*
X2119Y27D02*
X2129Y27D01*
X0Y26D02*
X7Y26D01*
X9Y26D02*
X18Y26D01*
X151Y26D02*
X161Y26D01*
X404Y26D02*
X414Y26D01*
X1572Y26D02*
X1578Y26D01*
X1619Y26D02*
X1625Y26D01*
X1723Y26D02*
X1732Y26D01*
X1976Y26D02*
X1986Y26D01*
X2119Y26D02*
X2129Y26D01*
X0Y25D02*
X7Y25D01*
X9Y25D02*
X18Y25D01*
X151Y25D02*
X161Y25D01*
X404Y25D02*
X414Y25D01*
X1572Y25D02*
X1578Y25D01*
X1619Y25D02*
X1625Y25D01*
X1723Y25D02*
X1732Y25D01*
X1976Y25D02*
X1986Y25D01*
X2119Y25D02*
X2129Y25D01*
X0Y24D02*
X7Y24D01*
X9Y24D02*
X18Y24D01*
X151Y24D02*
X161Y24D01*
X404Y24D02*
X414Y24D01*
X1572Y24D02*
X1578Y24D01*
X1619Y24D02*
X1625Y24D01*
X1723Y24D02*
X1732Y24D01*
X1976Y24D02*
X1986Y24D01*
X2119Y24D02*
X2129Y24D01*
X0Y23D02*
X7Y23D01*
X9Y23D02*
X18Y23D01*
X151Y23D02*
X161Y23D01*
X404Y23D02*
X414Y23D01*
X1572Y23D02*
X1625Y23D01*
X1723Y23D02*
X1732Y23D01*
X1976Y23D02*
X1986Y23D01*
X2119Y23D02*
X2129Y23D01*
X0Y22D02*
X7Y22D01*
X9Y22D02*
X18Y22D01*
X151Y22D02*
X161Y22D01*
X404Y22D02*
X414Y22D01*
X1572Y22D02*
X1625Y22D01*
X1723Y22D02*
X1732Y22D01*
X1976Y22D02*
X1986Y22D01*
X2119Y22D02*
X2129Y22D01*
X0Y21D02*
X7Y21D01*
X9Y21D02*
X18Y21D01*
X151Y21D02*
X161Y21D01*
X404Y21D02*
X414Y21D01*
X1572Y21D02*
X1625Y21D01*
X1723Y21D02*
X1732Y21D01*
X1976Y21D02*
X1986Y21D01*
X2119Y21D02*
X2129Y21D01*
X0Y20D02*
X7Y20D01*
X9Y20D02*
X18Y20D01*
X151Y20D02*
X161Y20D01*
X404Y20D02*
X414Y20D01*
X1572Y20D02*
X1625Y20D01*
X1723Y20D02*
X1732Y20D01*
X1976Y20D02*
X1986Y20D01*
X2119Y20D02*
X2129Y20D01*
X0Y19D02*
X7Y19D01*
X9Y19D02*
X18Y19D01*
X151Y19D02*
X161Y19D01*
X404Y19D02*
X414Y19D01*
X1572Y19D02*
X1625Y19D01*
X1723Y19D02*
X1732Y19D01*
X1976Y19D02*
X1986Y19D01*
X2119Y19D02*
X2129Y19D01*
X0Y18D02*
X7Y18D01*
X9Y18D02*
X18Y18D01*
X151Y18D02*
X161Y18D01*
X404Y18D02*
X414Y18D01*
X1572Y18D02*
X1625Y18D01*
X1723Y18D02*
X1732Y18D01*
X1976Y18D02*
X1986Y18D01*
X2119Y18D02*
X2129Y18D01*
X0Y17D02*
X7Y17D01*
X9Y17D02*
X18Y17D01*
X152Y17D02*
X160Y17D01*
X405Y17D02*
X413Y17D01*
X1572Y17D02*
X1625Y17D01*
X1723Y17D02*
X1732Y17D01*
X1976Y17D02*
X1986Y17D01*
X2119Y17D02*
X2129Y17D01*
X0Y16D02*
X7Y16D01*
X1572Y16D02*
X1578Y16D01*
X1723Y16D02*
X1732Y16D01*
X1976Y16D02*
X1986Y16D01*
X2119Y16D02*
X2129Y16D01*
X0Y15D02*
X7Y15D01*
X1572Y15D02*
X1578Y15D01*
X1723Y15D02*
X1732Y15D01*
X1976Y15D02*
X1986Y15D01*
X2119Y15D02*
X2129Y15D01*
X0Y14D02*
X7Y14D01*
X1572Y14D02*
X1578Y14D01*
X1723Y14D02*
X1732Y14D01*
X1976Y14D02*
X1986Y14D01*
X2119Y14D02*
X2129Y14D01*
X0Y13D02*
X7Y13D01*
X1572Y13D02*
X1578Y13D01*
X1723Y13D02*
X1732Y13D01*
X1976Y13D02*
X1986Y13D01*
X2119Y13D02*
X2129Y13D01*
X0Y12D02*
X7Y12D01*
X1572Y12D02*
X1578Y12D01*
X1723Y12D02*
X1732Y12D01*
X1976Y12D02*
X1986Y12D01*
X2119Y12D02*
X2129Y12D01*
X0Y11D02*
X7Y11D01*
X1572Y11D02*
X1578Y11D01*
X1723Y11D02*
X1732Y11D01*
X1976Y11D02*
X1986Y11D01*
X2119Y11D02*
X2129Y11D01*
X0Y10D02*
X7Y10D01*
X1572Y10D02*
X1578Y10D01*
X1723Y10D02*
X1732Y10D01*
X1976Y10D02*
X1986Y10D01*
X2119Y10D02*
X2129Y10D01*
X0Y9D02*
X2129Y9D01*
X0Y8D02*
X2129Y8D01*
X0Y7D02*
X2129Y7D01*
X0Y6D02*
X2129Y6D01*
X0Y5D02*
X2129Y5D01*
X0Y4D02*
X2129Y4D01*
X0Y3D02*
X2129Y3D01*
X0Y2D02*
X2129Y2D01*
D02*
G04 End of Silk1*
M02*