G04 MADE WITH FRITZING*
G04 WWW.FRITZING.ORG*
G04 DOUBLE SIDED*
G04 HOLES PLATED*
G04 CONTOUR ON CENTER OF CONTOUR VECTOR*
%ASAXBY*%
%FSLAX23Y23*%
%MOIN*%
%OFA0B0*%
%SFA1.0B1.0*%
%ADD10C,0.075000*%
%ADD11C,0.080000*%
%ADD12C,0.082000*%
%ADD13R,0.079986X0.080000*%
%ADD14R,0.082000X0.082000*%
%ADD15C,0.024000*%
%LNCOPPER1*%
G90*
G70*
G54D10*
X113Y330D03*
X1894Y327D03*
G54D11*
X1784Y313D03*
X1784Y113D03*
X355Y121D03*
X355Y321D03*
G54D12*
X786Y367D03*
X488Y367D03*
G54D10*
X1387Y365D03*
X987Y365D03*
X966Y97D03*
X1366Y97D03*
X1581Y326D03*
X1581Y226D03*
X1581Y126D03*
X498Y92D03*
X798Y92D03*
G54D13*
X1784Y313D03*
X355Y121D03*
G54D14*
X787Y367D03*
G54D15*
X384Y331D02*
X458Y356D01*
D02*
X959Y365D02*
X818Y366D01*
D02*
X385Y114D02*
X470Y98D01*
D02*
X1756Y99D02*
X1620Y27D01*
X1620Y27D02*
X732Y27D01*
X732Y27D02*
X526Y84D01*
D02*
X1558Y242D02*
X1410Y348D01*
D02*
X824Y104D02*
X1361Y353D01*
G36*
X40Y383D02*
X40Y271D01*
X344Y271D01*
X344Y273D01*
X336Y273D01*
X336Y275D01*
X332Y275D01*
X332Y277D01*
X330Y277D01*
X330Y279D01*
X326Y279D01*
X326Y281D01*
X324Y281D01*
X324Y283D01*
X320Y283D01*
X320Y285D01*
X318Y285D01*
X318Y289D01*
X316Y289D01*
X316Y291D01*
X314Y291D01*
X314Y293D01*
X312Y293D01*
X312Y297D01*
X310Y297D01*
X310Y301D01*
X308Y301D01*
X308Y307D01*
X306Y307D01*
X306Y319D01*
X304Y319D01*
X304Y323D01*
X306Y323D01*
X306Y335D01*
X308Y335D01*
X308Y341D01*
X310Y341D01*
X310Y343D01*
X312Y343D01*
X312Y347D01*
X314Y347D01*
X314Y351D01*
X316Y351D01*
X316Y353D01*
X318Y353D01*
X318Y355D01*
X320Y355D01*
X320Y357D01*
X322Y357D01*
X322Y359D01*
X324Y359D01*
X324Y361D01*
X328Y361D01*
X328Y363D01*
X330Y363D01*
X330Y383D01*
X40Y383D01*
G37*
D02*
G36*
X538Y383D02*
X538Y353D01*
X536Y353D01*
X536Y347D01*
X534Y347D01*
X534Y343D01*
X532Y343D01*
X532Y339D01*
X530Y339D01*
X530Y337D01*
X528Y337D01*
X528Y335D01*
X526Y335D01*
X526Y331D01*
X524Y331D01*
X524Y329D01*
X520Y329D01*
X520Y327D01*
X518Y327D01*
X518Y325D01*
X516Y325D01*
X516Y323D01*
X512Y323D01*
X512Y321D01*
X508Y321D01*
X508Y319D01*
X504Y319D01*
X504Y317D01*
X494Y317D01*
X494Y315D01*
X736Y315D01*
X736Y383D01*
X538Y383D01*
G37*
D02*
G36*
X1034Y383D02*
X1034Y353D01*
X1032Y353D01*
X1032Y347D01*
X1030Y347D01*
X1030Y343D01*
X1028Y343D01*
X1028Y339D01*
X1026Y339D01*
X1026Y337D01*
X1024Y337D01*
X1024Y335D01*
X1022Y335D01*
X1022Y331D01*
X1020Y331D01*
X1020Y329D01*
X1016Y329D01*
X1016Y327D01*
X1014Y327D01*
X1014Y325D01*
X1010Y325D01*
X1010Y323D01*
X1008Y323D01*
X1008Y321D01*
X1002Y321D01*
X1002Y319D01*
X994Y319D01*
X994Y317D01*
X1234Y317D01*
X1234Y319D01*
X1238Y319D01*
X1238Y321D01*
X1242Y321D01*
X1242Y323D01*
X1246Y323D01*
X1246Y325D01*
X1250Y325D01*
X1250Y327D01*
X1256Y327D01*
X1256Y329D01*
X1260Y329D01*
X1260Y331D01*
X1264Y331D01*
X1264Y333D01*
X1268Y333D01*
X1268Y335D01*
X1272Y335D01*
X1272Y337D01*
X1276Y337D01*
X1276Y339D01*
X1280Y339D01*
X1280Y341D01*
X1286Y341D01*
X1286Y343D01*
X1290Y343D01*
X1290Y345D01*
X1294Y345D01*
X1294Y347D01*
X1298Y347D01*
X1298Y349D01*
X1302Y349D01*
X1302Y351D01*
X1306Y351D01*
X1306Y353D01*
X1312Y353D01*
X1312Y355D01*
X1316Y355D01*
X1316Y357D01*
X1320Y357D01*
X1320Y359D01*
X1324Y359D01*
X1324Y361D01*
X1328Y361D01*
X1328Y363D01*
X1332Y363D01*
X1332Y383D01*
X1034Y383D01*
G37*
D02*
G36*
X838Y345D02*
X838Y317D01*
X980Y317D01*
X980Y319D01*
X972Y319D01*
X972Y321D01*
X968Y321D01*
X968Y323D01*
X964Y323D01*
X964Y325D01*
X960Y325D01*
X960Y327D01*
X958Y327D01*
X958Y329D01*
X956Y329D01*
X956Y331D01*
X954Y331D01*
X954Y333D01*
X952Y333D01*
X952Y335D01*
X950Y335D01*
X950Y337D01*
X948Y337D01*
X948Y341D01*
X946Y341D01*
X946Y343D01*
X858Y343D01*
X858Y345D01*
X838Y345D01*
G37*
D02*
G36*
X438Y327D02*
X438Y325D01*
X432Y325D01*
X432Y323D01*
X426Y323D01*
X426Y321D01*
X420Y321D01*
X420Y319D01*
X414Y319D01*
X414Y317D01*
X410Y317D01*
X410Y315D01*
X482Y315D01*
X482Y317D01*
X472Y317D01*
X472Y319D01*
X468Y319D01*
X468Y321D01*
X464Y321D01*
X464Y323D01*
X460Y323D01*
X460Y325D01*
X458Y325D01*
X458Y327D01*
X438Y327D01*
G37*
D02*
G36*
X838Y317D02*
X838Y315D01*
X1230Y315D01*
X1230Y317D01*
X838Y317D01*
G37*
D02*
G36*
X838Y317D02*
X838Y315D01*
X1230Y315D01*
X1230Y317D01*
X838Y317D01*
G37*
D02*
G36*
X404Y315D02*
X404Y313D01*
X1224Y313D01*
X1224Y315D01*
X404Y315D01*
G37*
D02*
G36*
X404Y315D02*
X404Y313D01*
X1224Y313D01*
X1224Y315D01*
X404Y315D01*
G37*
D02*
G36*
X404Y315D02*
X404Y313D01*
X1224Y313D01*
X1224Y315D01*
X404Y315D01*
G37*
D02*
G36*
X404Y313D02*
X404Y307D01*
X402Y307D01*
X402Y301D01*
X400Y301D01*
X400Y297D01*
X398Y297D01*
X398Y295D01*
X396Y295D01*
X396Y291D01*
X394Y291D01*
X394Y289D01*
X392Y289D01*
X392Y287D01*
X390Y287D01*
X390Y285D01*
X388Y285D01*
X388Y283D01*
X386Y283D01*
X386Y281D01*
X384Y281D01*
X384Y279D01*
X380Y279D01*
X380Y277D01*
X378Y277D01*
X378Y275D01*
X374Y275D01*
X374Y273D01*
X366Y273D01*
X366Y271D01*
X1134Y271D01*
X1134Y273D01*
X1138Y273D01*
X1138Y275D01*
X1142Y275D01*
X1142Y277D01*
X1148Y277D01*
X1148Y279D01*
X1152Y279D01*
X1152Y281D01*
X1156Y281D01*
X1156Y283D01*
X1160Y283D01*
X1160Y285D01*
X1164Y285D01*
X1164Y287D01*
X1168Y287D01*
X1168Y289D01*
X1174Y289D01*
X1174Y291D01*
X1178Y291D01*
X1178Y293D01*
X1182Y293D01*
X1182Y295D01*
X1186Y295D01*
X1186Y297D01*
X1190Y297D01*
X1190Y299D01*
X1194Y299D01*
X1194Y301D01*
X1198Y301D01*
X1198Y303D01*
X1204Y303D01*
X1204Y305D01*
X1208Y305D01*
X1208Y307D01*
X1212Y307D01*
X1212Y309D01*
X1216Y309D01*
X1216Y311D01*
X1220Y311D01*
X1220Y313D01*
X404Y313D01*
G37*
D02*
G36*
X40Y271D02*
X40Y269D01*
X1130Y269D01*
X1130Y271D01*
X40Y271D01*
G37*
D02*
G36*
X40Y271D02*
X40Y269D01*
X1130Y269D01*
X1130Y271D01*
X40Y271D01*
G37*
D02*
G36*
X40Y269D02*
X40Y171D01*
X404Y171D01*
X404Y139D01*
X810Y139D01*
X810Y137D01*
X816Y137D01*
X816Y135D01*
X840Y135D01*
X840Y137D01*
X844Y137D01*
X844Y139D01*
X850Y139D01*
X850Y141D01*
X854Y141D01*
X854Y143D01*
X858Y143D01*
X858Y145D01*
X862Y145D01*
X862Y147D01*
X866Y147D01*
X866Y149D01*
X870Y149D01*
X870Y151D01*
X874Y151D01*
X874Y153D01*
X880Y153D01*
X880Y155D01*
X884Y155D01*
X884Y157D01*
X888Y157D01*
X888Y159D01*
X892Y159D01*
X892Y161D01*
X896Y161D01*
X896Y163D01*
X900Y163D01*
X900Y165D01*
X906Y165D01*
X906Y167D01*
X910Y167D01*
X910Y169D01*
X914Y169D01*
X914Y171D01*
X918Y171D01*
X918Y173D01*
X922Y173D01*
X922Y175D01*
X926Y175D01*
X926Y177D01*
X932Y177D01*
X932Y179D01*
X936Y179D01*
X936Y181D01*
X940Y181D01*
X940Y183D01*
X944Y183D01*
X944Y185D01*
X948Y185D01*
X948Y187D01*
X952Y187D01*
X952Y189D01*
X958Y189D01*
X958Y191D01*
X962Y191D01*
X962Y193D01*
X966Y193D01*
X966Y195D01*
X970Y195D01*
X970Y197D01*
X974Y197D01*
X974Y199D01*
X978Y199D01*
X978Y201D01*
X982Y201D01*
X982Y203D01*
X988Y203D01*
X988Y205D01*
X992Y205D01*
X992Y207D01*
X996Y207D01*
X996Y209D01*
X1000Y209D01*
X1000Y211D01*
X1004Y211D01*
X1004Y213D01*
X1008Y213D01*
X1008Y215D01*
X1014Y215D01*
X1014Y217D01*
X1018Y217D01*
X1018Y219D01*
X1022Y219D01*
X1022Y221D01*
X1026Y221D01*
X1026Y223D01*
X1030Y223D01*
X1030Y225D01*
X1034Y225D01*
X1034Y227D01*
X1040Y227D01*
X1040Y229D01*
X1044Y229D01*
X1044Y231D01*
X1048Y231D01*
X1048Y233D01*
X1052Y233D01*
X1052Y235D01*
X1056Y235D01*
X1056Y237D01*
X1060Y237D01*
X1060Y239D01*
X1066Y239D01*
X1066Y241D01*
X1070Y241D01*
X1070Y243D01*
X1074Y243D01*
X1074Y245D01*
X1078Y245D01*
X1078Y247D01*
X1082Y247D01*
X1082Y249D01*
X1086Y249D01*
X1086Y251D01*
X1090Y251D01*
X1090Y253D01*
X1096Y253D01*
X1096Y255D01*
X1100Y255D01*
X1100Y257D01*
X1104Y257D01*
X1104Y259D01*
X1108Y259D01*
X1108Y261D01*
X1112Y261D01*
X1112Y263D01*
X1116Y263D01*
X1116Y265D01*
X1122Y265D01*
X1122Y267D01*
X1126Y267D01*
X1126Y269D01*
X40Y269D01*
G37*
D02*
G36*
X40Y171D02*
X40Y71D01*
X304Y71D01*
X304Y169D01*
X306Y169D01*
X306Y171D01*
X40Y171D01*
G37*
D02*
G36*
X404Y139D02*
X404Y133D01*
X410Y133D01*
X410Y131D01*
X420Y131D01*
X420Y129D01*
X430Y129D01*
X430Y127D01*
X440Y127D01*
X440Y125D01*
X464Y125D01*
X464Y127D01*
X468Y127D01*
X468Y129D01*
X470Y129D01*
X470Y131D01*
X472Y131D01*
X472Y133D01*
X476Y133D01*
X476Y135D01*
X480Y135D01*
X480Y137D01*
X486Y137D01*
X486Y139D01*
X404Y139D01*
G37*
D02*
G36*
X510Y139D02*
X510Y137D01*
X516Y137D01*
X516Y135D01*
X520Y135D01*
X520Y133D01*
X524Y133D01*
X524Y131D01*
X526Y131D01*
X526Y129D01*
X528Y129D01*
X528Y127D01*
X532Y127D01*
X532Y125D01*
X534Y125D01*
X534Y121D01*
X536Y121D01*
X536Y119D01*
X538Y119D01*
X538Y115D01*
X540Y115D01*
X540Y113D01*
X542Y113D01*
X542Y107D01*
X544Y107D01*
X544Y101D01*
X552Y101D01*
X552Y99D01*
X560Y99D01*
X560Y97D01*
X566Y97D01*
X566Y95D01*
X574Y95D01*
X574Y93D01*
X580Y93D01*
X580Y91D01*
X588Y91D01*
X588Y89D01*
X594Y89D01*
X594Y87D01*
X602Y87D01*
X602Y85D01*
X610Y85D01*
X610Y83D01*
X616Y83D01*
X616Y81D01*
X624Y81D01*
X624Y79D01*
X630Y79D01*
X630Y77D01*
X638Y77D01*
X638Y75D01*
X646Y75D01*
X646Y73D01*
X652Y73D01*
X652Y71D01*
X660Y71D01*
X660Y69D01*
X666Y69D01*
X666Y67D01*
X674Y67D01*
X674Y65D01*
X682Y65D01*
X682Y63D01*
X688Y63D01*
X688Y61D01*
X696Y61D01*
X696Y59D01*
X702Y59D01*
X702Y57D01*
X710Y57D01*
X710Y55D01*
X718Y55D01*
X718Y53D01*
X724Y53D01*
X724Y51D01*
X732Y51D01*
X732Y49D01*
X758Y49D01*
X758Y69D01*
X756Y69D01*
X756Y73D01*
X754Y73D01*
X754Y79D01*
X752Y79D01*
X752Y87D01*
X750Y87D01*
X750Y97D01*
X752Y97D01*
X752Y107D01*
X754Y107D01*
X754Y111D01*
X756Y111D01*
X756Y115D01*
X758Y115D01*
X758Y119D01*
X760Y119D01*
X760Y121D01*
X762Y121D01*
X762Y123D01*
X764Y123D01*
X764Y127D01*
X768Y127D01*
X768Y129D01*
X770Y129D01*
X770Y131D01*
X772Y131D01*
X772Y133D01*
X776Y133D01*
X776Y135D01*
X780Y135D01*
X780Y137D01*
X786Y137D01*
X786Y139D01*
X510Y139D01*
G37*
D02*
G36*
X404Y85D02*
X404Y71D01*
X456Y71D01*
X456Y73D01*
X454Y73D01*
X454Y79D01*
X446Y79D01*
X446Y81D01*
X436Y81D01*
X436Y83D01*
X426Y83D01*
X426Y85D01*
X404Y85D01*
G37*
D02*
G36*
X40Y71D02*
X40Y69D01*
X456Y69D01*
X456Y71D01*
X40Y71D01*
G37*
D02*
G36*
X40Y71D02*
X40Y69D01*
X456Y69D01*
X456Y71D01*
X40Y71D01*
G37*
D02*
G36*
X40Y69D02*
X40Y41D01*
X464Y41D01*
X464Y61D01*
X462Y61D01*
X462Y63D01*
X460Y63D01*
X460Y65D01*
X458Y65D01*
X458Y69D01*
X40Y69D01*
G37*
D02*
G36*
X1434Y383D02*
X1434Y357D01*
X1438Y357D01*
X1438Y355D01*
X1440Y355D01*
X1440Y353D01*
X1442Y353D01*
X1442Y351D01*
X1446Y351D01*
X1446Y349D01*
X1448Y349D01*
X1448Y347D01*
X1452Y347D01*
X1452Y345D01*
X1454Y345D01*
X1454Y343D01*
X1456Y343D01*
X1456Y341D01*
X1460Y341D01*
X1460Y339D01*
X1462Y339D01*
X1462Y337D01*
X1466Y337D01*
X1466Y335D01*
X1468Y335D01*
X1468Y333D01*
X1470Y333D01*
X1470Y331D01*
X1474Y331D01*
X1474Y329D01*
X1476Y329D01*
X1476Y327D01*
X1478Y327D01*
X1478Y325D01*
X1482Y325D01*
X1482Y323D01*
X1484Y323D01*
X1484Y321D01*
X1488Y321D01*
X1488Y319D01*
X1490Y319D01*
X1490Y317D01*
X1492Y317D01*
X1492Y315D01*
X1496Y315D01*
X1496Y313D01*
X1498Y313D01*
X1498Y311D01*
X1502Y311D01*
X1502Y309D01*
X1504Y309D01*
X1504Y307D01*
X1506Y307D01*
X1506Y305D01*
X1510Y305D01*
X1510Y303D01*
X1512Y303D01*
X1512Y301D01*
X1516Y301D01*
X1516Y299D01*
X1518Y299D01*
X1518Y297D01*
X1520Y297D01*
X1520Y295D01*
X1540Y295D01*
X1540Y303D01*
X1538Y303D01*
X1538Y307D01*
X1536Y307D01*
X1536Y313D01*
X1534Y313D01*
X1534Y337D01*
X1536Y337D01*
X1536Y345D01*
X1538Y345D01*
X1538Y347D01*
X1540Y347D01*
X1540Y351D01*
X1542Y351D01*
X1542Y355D01*
X1544Y355D01*
X1544Y357D01*
X1546Y357D01*
X1546Y359D01*
X1548Y359D01*
X1548Y361D01*
X1550Y361D01*
X1550Y363D01*
X1554Y363D01*
X1554Y383D01*
X1434Y383D01*
G37*
D02*
G36*
X898Y115D02*
X898Y113D01*
X894Y113D01*
X894Y111D01*
X890Y111D01*
X890Y109D01*
X884Y109D01*
X884Y107D01*
X880Y107D01*
X880Y105D01*
X876Y105D01*
X876Y103D01*
X872Y103D01*
X872Y101D01*
X868Y101D01*
X868Y99D01*
X864Y99D01*
X864Y97D01*
X858Y97D01*
X858Y95D01*
X854Y95D01*
X854Y93D01*
X850Y93D01*
X850Y91D01*
X846Y91D01*
X846Y85D01*
X844Y85D01*
X844Y77D01*
X842Y77D01*
X842Y73D01*
X840Y73D01*
X840Y69D01*
X838Y69D01*
X838Y49D01*
X928Y49D01*
X928Y71D01*
X926Y71D01*
X926Y73D01*
X924Y73D01*
X924Y77D01*
X922Y77D01*
X922Y83D01*
X920Y83D01*
X920Y91D01*
X918Y91D01*
X918Y103D01*
X920Y103D01*
X920Y115D01*
X898Y115D01*
G37*
D02*
G36*
X1608Y383D02*
X1608Y363D01*
X1834Y363D01*
X1834Y263D01*
X2090Y263D01*
X2090Y383D01*
X1608Y383D01*
G37*
D02*
G36*
X1610Y363D02*
X1610Y361D01*
X1614Y361D01*
X1614Y359D01*
X1616Y359D01*
X1616Y355D01*
X1618Y355D01*
X1618Y353D01*
X1620Y353D01*
X1620Y351D01*
X1622Y351D01*
X1622Y347D01*
X1624Y347D01*
X1624Y343D01*
X1626Y343D01*
X1626Y335D01*
X1628Y335D01*
X1628Y315D01*
X1626Y315D01*
X1626Y309D01*
X1624Y309D01*
X1624Y305D01*
X1622Y305D01*
X1622Y301D01*
X1620Y301D01*
X1620Y297D01*
X1618Y297D01*
X1618Y295D01*
X1616Y295D01*
X1616Y293D01*
X1614Y293D01*
X1614Y291D01*
X1612Y291D01*
X1612Y289D01*
X1610Y289D01*
X1610Y287D01*
X1606Y287D01*
X1606Y265D01*
X1608Y265D01*
X1608Y263D01*
X1734Y263D01*
X1734Y363D01*
X1610Y363D01*
G37*
D02*
G36*
X1346Y323D02*
X1346Y321D01*
X1342Y321D01*
X1342Y319D01*
X1338Y319D01*
X1338Y317D01*
X1380Y317D01*
X1380Y319D01*
X1372Y319D01*
X1372Y321D01*
X1368Y321D01*
X1368Y323D01*
X1346Y323D01*
G37*
D02*
G36*
X1394Y319D02*
X1394Y317D01*
X1414Y317D01*
X1414Y319D01*
X1394Y319D01*
G37*
D02*
G36*
X1334Y317D02*
X1334Y315D01*
X1418Y315D01*
X1418Y317D01*
X1334Y317D01*
G37*
D02*
G36*
X1334Y317D02*
X1334Y315D01*
X1418Y315D01*
X1418Y317D01*
X1334Y317D01*
G37*
D02*
G36*
X1330Y315D02*
X1330Y313D01*
X1326Y313D01*
X1326Y311D01*
X1320Y311D01*
X1320Y309D01*
X1316Y309D01*
X1316Y307D01*
X1312Y307D01*
X1312Y305D01*
X1308Y305D01*
X1308Y303D01*
X1304Y303D01*
X1304Y301D01*
X1300Y301D01*
X1300Y299D01*
X1296Y299D01*
X1296Y297D01*
X1290Y297D01*
X1290Y295D01*
X1286Y295D01*
X1286Y293D01*
X1282Y293D01*
X1282Y291D01*
X1278Y291D01*
X1278Y289D01*
X1274Y289D01*
X1274Y287D01*
X1270Y287D01*
X1270Y285D01*
X1264Y285D01*
X1264Y283D01*
X1260Y283D01*
X1260Y281D01*
X1256Y281D01*
X1256Y279D01*
X1252Y279D01*
X1252Y277D01*
X1248Y277D01*
X1248Y275D01*
X1244Y275D01*
X1244Y273D01*
X1238Y273D01*
X1238Y271D01*
X1234Y271D01*
X1234Y269D01*
X1230Y269D01*
X1230Y267D01*
X1226Y267D01*
X1226Y265D01*
X1222Y265D01*
X1222Y263D01*
X1218Y263D01*
X1218Y261D01*
X1212Y261D01*
X1212Y259D01*
X1208Y259D01*
X1208Y257D01*
X1204Y257D01*
X1204Y255D01*
X1200Y255D01*
X1200Y253D01*
X1196Y253D01*
X1196Y251D01*
X1192Y251D01*
X1192Y249D01*
X1188Y249D01*
X1188Y247D01*
X1182Y247D01*
X1182Y245D01*
X1178Y245D01*
X1178Y243D01*
X1174Y243D01*
X1174Y241D01*
X1170Y241D01*
X1170Y239D01*
X1166Y239D01*
X1166Y237D01*
X1162Y237D01*
X1162Y235D01*
X1156Y235D01*
X1156Y233D01*
X1152Y233D01*
X1152Y231D01*
X1148Y231D01*
X1148Y229D01*
X1144Y229D01*
X1144Y227D01*
X1140Y227D01*
X1140Y225D01*
X1136Y225D01*
X1136Y223D01*
X1130Y223D01*
X1130Y221D01*
X1126Y221D01*
X1126Y219D01*
X1122Y219D01*
X1122Y217D01*
X1118Y217D01*
X1118Y215D01*
X1114Y215D01*
X1114Y213D01*
X1110Y213D01*
X1110Y211D01*
X1106Y211D01*
X1106Y209D01*
X1100Y209D01*
X1100Y207D01*
X1096Y207D01*
X1096Y205D01*
X1092Y205D01*
X1092Y203D01*
X1088Y203D01*
X1088Y201D01*
X1084Y201D01*
X1084Y199D01*
X1080Y199D01*
X1080Y197D01*
X1074Y197D01*
X1074Y195D01*
X1070Y195D01*
X1070Y193D01*
X1066Y193D01*
X1066Y191D01*
X1062Y191D01*
X1062Y189D01*
X1058Y189D01*
X1058Y187D01*
X1054Y187D01*
X1054Y185D01*
X1048Y185D01*
X1048Y183D01*
X1044Y183D01*
X1044Y181D01*
X1040Y181D01*
X1040Y179D01*
X1036Y179D01*
X1036Y177D01*
X1032Y177D01*
X1032Y175D01*
X1028Y175D01*
X1028Y173D01*
X1022Y173D01*
X1022Y171D01*
X1018Y171D01*
X1018Y169D01*
X1014Y169D01*
X1014Y167D01*
X1010Y167D01*
X1010Y165D01*
X1006Y165D01*
X1006Y163D01*
X1002Y163D01*
X1002Y161D01*
X998Y161D01*
X998Y159D01*
X992Y159D01*
X992Y157D01*
X990Y157D01*
X990Y145D01*
X1372Y145D01*
X1372Y143D01*
X1380Y143D01*
X1380Y141D01*
X1386Y141D01*
X1386Y139D01*
X1390Y139D01*
X1390Y137D01*
X1392Y137D01*
X1392Y135D01*
X1396Y135D01*
X1396Y133D01*
X1398Y133D01*
X1398Y131D01*
X1400Y131D01*
X1400Y129D01*
X1402Y129D01*
X1402Y127D01*
X1404Y127D01*
X1404Y123D01*
X1406Y123D01*
X1406Y121D01*
X1408Y121D01*
X1408Y117D01*
X1410Y117D01*
X1410Y111D01*
X1412Y111D01*
X1412Y103D01*
X1414Y103D01*
X1414Y91D01*
X1412Y91D01*
X1412Y83D01*
X1410Y83D01*
X1410Y79D01*
X1568Y79D01*
X1568Y81D01*
X1562Y81D01*
X1562Y83D01*
X1558Y83D01*
X1558Y85D01*
X1554Y85D01*
X1554Y87D01*
X1552Y87D01*
X1552Y89D01*
X1550Y89D01*
X1550Y91D01*
X1548Y91D01*
X1548Y93D01*
X1546Y93D01*
X1546Y95D01*
X1544Y95D01*
X1544Y97D01*
X1542Y97D01*
X1542Y99D01*
X1540Y99D01*
X1540Y103D01*
X1538Y103D01*
X1538Y107D01*
X1536Y107D01*
X1536Y113D01*
X1534Y113D01*
X1534Y137D01*
X1536Y137D01*
X1536Y145D01*
X1538Y145D01*
X1538Y147D01*
X1540Y147D01*
X1540Y151D01*
X1542Y151D01*
X1542Y155D01*
X1544Y155D01*
X1544Y157D01*
X1546Y157D01*
X1546Y159D01*
X1548Y159D01*
X1548Y161D01*
X1550Y161D01*
X1550Y163D01*
X1554Y163D01*
X1554Y165D01*
X1556Y165D01*
X1556Y185D01*
X1554Y185D01*
X1554Y187D01*
X1552Y187D01*
X1552Y189D01*
X1550Y189D01*
X1550Y191D01*
X1548Y191D01*
X1548Y193D01*
X1546Y193D01*
X1546Y195D01*
X1544Y195D01*
X1544Y197D01*
X1542Y197D01*
X1542Y199D01*
X1540Y199D01*
X1540Y203D01*
X1538Y203D01*
X1538Y207D01*
X1536Y207D01*
X1536Y213D01*
X1534Y213D01*
X1534Y233D01*
X1532Y233D01*
X1532Y235D01*
X1528Y235D01*
X1528Y237D01*
X1526Y237D01*
X1526Y239D01*
X1524Y239D01*
X1524Y241D01*
X1520Y241D01*
X1520Y243D01*
X1518Y243D01*
X1518Y245D01*
X1514Y245D01*
X1514Y247D01*
X1512Y247D01*
X1512Y249D01*
X1510Y249D01*
X1510Y251D01*
X1506Y251D01*
X1506Y253D01*
X1504Y253D01*
X1504Y255D01*
X1500Y255D01*
X1500Y257D01*
X1498Y257D01*
X1498Y259D01*
X1496Y259D01*
X1496Y261D01*
X1492Y261D01*
X1492Y263D01*
X1490Y263D01*
X1490Y265D01*
X1488Y265D01*
X1488Y267D01*
X1484Y267D01*
X1484Y269D01*
X1482Y269D01*
X1482Y271D01*
X1478Y271D01*
X1478Y273D01*
X1476Y273D01*
X1476Y275D01*
X1474Y275D01*
X1474Y277D01*
X1470Y277D01*
X1470Y279D01*
X1468Y279D01*
X1468Y281D01*
X1464Y281D01*
X1464Y283D01*
X1462Y283D01*
X1462Y285D01*
X1460Y285D01*
X1460Y287D01*
X1456Y287D01*
X1456Y289D01*
X1454Y289D01*
X1454Y291D01*
X1450Y291D01*
X1450Y293D01*
X1448Y293D01*
X1448Y295D01*
X1446Y295D01*
X1446Y297D01*
X1442Y297D01*
X1442Y299D01*
X1440Y299D01*
X1440Y301D01*
X1438Y301D01*
X1438Y303D01*
X1434Y303D01*
X1434Y305D01*
X1432Y305D01*
X1432Y307D01*
X1428Y307D01*
X1428Y309D01*
X1426Y309D01*
X1426Y311D01*
X1424Y311D01*
X1424Y313D01*
X1420Y313D01*
X1420Y315D01*
X1330Y315D01*
G37*
D02*
G36*
X1610Y263D02*
X1610Y261D01*
X2090Y261D01*
X2090Y263D01*
X1610Y263D01*
G37*
D02*
G36*
X1610Y263D02*
X1610Y261D01*
X2090Y261D01*
X2090Y263D01*
X1610Y263D01*
G37*
D02*
G36*
X1614Y261D02*
X1614Y259D01*
X1616Y259D01*
X1616Y255D01*
X1618Y255D01*
X1618Y253D01*
X1620Y253D01*
X1620Y251D01*
X1622Y251D01*
X1622Y247D01*
X1624Y247D01*
X1624Y243D01*
X1626Y243D01*
X1626Y235D01*
X1628Y235D01*
X1628Y215D01*
X1626Y215D01*
X1626Y209D01*
X1624Y209D01*
X1624Y205D01*
X1622Y205D01*
X1622Y201D01*
X1620Y201D01*
X1620Y197D01*
X1618Y197D01*
X1618Y195D01*
X1616Y195D01*
X1616Y193D01*
X1614Y193D01*
X1614Y191D01*
X1612Y191D01*
X1612Y189D01*
X1610Y189D01*
X1610Y187D01*
X1606Y187D01*
X1606Y165D01*
X1608Y165D01*
X1608Y163D01*
X1794Y163D01*
X1794Y161D01*
X1800Y161D01*
X1800Y159D01*
X1806Y159D01*
X1806Y157D01*
X1808Y157D01*
X1808Y155D01*
X1812Y155D01*
X1812Y153D01*
X1814Y153D01*
X1814Y151D01*
X1818Y151D01*
X1818Y149D01*
X1820Y149D01*
X1820Y147D01*
X1822Y147D01*
X1822Y143D01*
X1824Y143D01*
X1824Y141D01*
X1826Y141D01*
X1826Y137D01*
X1828Y137D01*
X1828Y135D01*
X1830Y135D01*
X1830Y129D01*
X1832Y129D01*
X1832Y121D01*
X1834Y121D01*
X1834Y105D01*
X1832Y105D01*
X1832Y97D01*
X1830Y97D01*
X1830Y91D01*
X1828Y91D01*
X1828Y89D01*
X1826Y89D01*
X1826Y85D01*
X1824Y85D01*
X1824Y83D01*
X1822Y83D01*
X1822Y79D01*
X1820Y79D01*
X1820Y77D01*
X1818Y77D01*
X1818Y75D01*
X1814Y75D01*
X1814Y73D01*
X1812Y73D01*
X1812Y71D01*
X1808Y71D01*
X1808Y69D01*
X1806Y69D01*
X1806Y67D01*
X1800Y67D01*
X1800Y65D01*
X1794Y65D01*
X1794Y63D01*
X2090Y63D01*
X2090Y261D01*
X1614Y261D01*
G37*
D02*
G36*
X1610Y163D02*
X1610Y161D01*
X1614Y161D01*
X1614Y159D01*
X1616Y159D01*
X1616Y155D01*
X1618Y155D01*
X1618Y153D01*
X1620Y153D01*
X1620Y151D01*
X1622Y151D01*
X1622Y147D01*
X1624Y147D01*
X1624Y143D01*
X1626Y143D01*
X1626Y135D01*
X1628Y135D01*
X1628Y115D01*
X1626Y115D01*
X1626Y109D01*
X1624Y109D01*
X1624Y105D01*
X1622Y105D01*
X1622Y101D01*
X1620Y101D01*
X1620Y97D01*
X1618Y97D01*
X1618Y95D01*
X1616Y95D01*
X1616Y93D01*
X1614Y93D01*
X1614Y91D01*
X1612Y91D01*
X1612Y89D01*
X1610Y89D01*
X1610Y87D01*
X1606Y87D01*
X1606Y85D01*
X1604Y85D01*
X1604Y83D01*
X1600Y83D01*
X1600Y81D01*
X1592Y81D01*
X1592Y79D01*
X1674Y79D01*
X1674Y81D01*
X1678Y81D01*
X1678Y83D01*
X1682Y83D01*
X1682Y85D01*
X1686Y85D01*
X1686Y87D01*
X1688Y87D01*
X1688Y89D01*
X1692Y89D01*
X1692Y91D01*
X1696Y91D01*
X1696Y93D01*
X1700Y93D01*
X1700Y95D01*
X1704Y95D01*
X1704Y97D01*
X1708Y97D01*
X1708Y99D01*
X1712Y99D01*
X1712Y101D01*
X1716Y101D01*
X1716Y103D01*
X1720Y103D01*
X1720Y105D01*
X1724Y105D01*
X1724Y107D01*
X1726Y107D01*
X1726Y109D01*
X1730Y109D01*
X1730Y111D01*
X1734Y111D01*
X1734Y123D01*
X1736Y123D01*
X1736Y131D01*
X1738Y131D01*
X1738Y135D01*
X1740Y135D01*
X1740Y139D01*
X1742Y139D01*
X1742Y141D01*
X1744Y141D01*
X1744Y143D01*
X1746Y143D01*
X1746Y147D01*
X1748Y147D01*
X1748Y149D01*
X1750Y149D01*
X1750Y151D01*
X1754Y151D01*
X1754Y153D01*
X1756Y153D01*
X1756Y155D01*
X1758Y155D01*
X1758Y157D01*
X1762Y157D01*
X1762Y159D01*
X1768Y159D01*
X1768Y161D01*
X1774Y161D01*
X1774Y163D01*
X1610Y163D01*
G37*
D02*
G36*
X990Y145D02*
X990Y137D01*
X992Y137D01*
X992Y135D01*
X996Y135D01*
X996Y133D01*
X998Y133D01*
X998Y131D01*
X1000Y131D01*
X1000Y129D01*
X1002Y129D01*
X1002Y127D01*
X1004Y127D01*
X1004Y123D01*
X1006Y123D01*
X1006Y121D01*
X1008Y121D01*
X1008Y117D01*
X1010Y117D01*
X1010Y111D01*
X1012Y111D01*
X1012Y103D01*
X1014Y103D01*
X1014Y91D01*
X1012Y91D01*
X1012Y83D01*
X1010Y83D01*
X1010Y77D01*
X1008Y77D01*
X1008Y73D01*
X1006Y73D01*
X1006Y69D01*
X1004Y69D01*
X1004Y49D01*
X1328Y49D01*
X1328Y71D01*
X1326Y71D01*
X1326Y73D01*
X1324Y73D01*
X1324Y77D01*
X1322Y77D01*
X1322Y83D01*
X1320Y83D01*
X1320Y91D01*
X1318Y91D01*
X1318Y103D01*
X1320Y103D01*
X1320Y111D01*
X1322Y111D01*
X1322Y117D01*
X1324Y117D01*
X1324Y121D01*
X1326Y121D01*
X1326Y123D01*
X1328Y123D01*
X1328Y127D01*
X1330Y127D01*
X1330Y129D01*
X1332Y129D01*
X1332Y131D01*
X1334Y131D01*
X1334Y133D01*
X1336Y133D01*
X1336Y135D01*
X1340Y135D01*
X1340Y137D01*
X1342Y137D01*
X1342Y139D01*
X1346Y139D01*
X1346Y141D01*
X1352Y141D01*
X1352Y143D01*
X1360Y143D01*
X1360Y145D01*
X990Y145D01*
G37*
D02*
G36*
X1410Y79D02*
X1410Y77D01*
X1670Y77D01*
X1670Y79D01*
X1410Y79D01*
G37*
D02*
G36*
X1410Y79D02*
X1410Y77D01*
X1670Y77D01*
X1670Y79D01*
X1410Y79D01*
G37*
D02*
G36*
X1408Y77D02*
X1408Y73D01*
X1406Y73D01*
X1406Y69D01*
X1404Y69D01*
X1404Y49D01*
X1616Y49D01*
X1616Y51D01*
X1620Y51D01*
X1620Y53D01*
X1624Y53D01*
X1624Y55D01*
X1628Y55D01*
X1628Y57D01*
X1632Y57D01*
X1632Y59D01*
X1636Y59D01*
X1636Y61D01*
X1640Y61D01*
X1640Y63D01*
X1644Y63D01*
X1644Y65D01*
X1646Y65D01*
X1646Y67D01*
X1650Y67D01*
X1650Y69D01*
X1654Y69D01*
X1654Y71D01*
X1658Y71D01*
X1658Y73D01*
X1662Y73D01*
X1662Y75D01*
X1666Y75D01*
X1666Y77D01*
X1408Y77D01*
G37*
D02*
G36*
X1742Y67D02*
X1742Y65D01*
X1738Y65D01*
X1738Y63D01*
X1774Y63D01*
X1774Y65D01*
X1768Y65D01*
X1768Y67D01*
X1742Y67D01*
G37*
D02*
G36*
X1734Y63D02*
X1734Y61D01*
X2090Y61D01*
X2090Y63D01*
X1734Y63D01*
G37*
D02*
G36*
X1734Y63D02*
X1734Y61D01*
X2090Y61D01*
X2090Y63D01*
X1734Y63D01*
G37*
D02*
G36*
X1730Y61D02*
X1730Y41D01*
X2090Y41D01*
X2090Y61D01*
X1730Y61D01*
G37*
D02*
G04 End of Copper1*
M02*