G04 MADE WITH FRITZING*
G04 WWW.FRITZING.ORG*
G04 DOUBLE SIDED*
G04 HOLES PLATED*
G04 CONTOUR ON CENTER OF CONTOUR VECTOR*
%ASAXBY*%
%FSLAX23Y23*%
%MOIN*%
%OFA0B0*%
%SFA1.0B1.0*%
%ADD10C,0.075000*%
%ADD11C,0.082000*%
%ADD12C,0.080000*%
%ADD13R,0.082000X0.082000*%
%ADD14R,0.079986X0.080000*%
%ADD15C,0.024000*%
%LNCOPPER0*%
G90*
G70*
G54D10*
X884Y922D03*
X605Y232D03*
X605Y632D03*
G54D11*
X414Y868D03*
X414Y570D03*
G54D10*
X1038Y333D03*
X1038Y733D03*
X800Y862D03*
X800Y762D03*
X800Y662D03*
G54D12*
X1294Y588D03*
X1294Y388D03*
X215Y409D03*
X215Y609D03*
G54D10*
X849Y450D03*
X849Y150D03*
G54D13*
X414Y869D03*
G54D14*
X1294Y588D03*
X215Y409D03*
G54D15*
X246Y603D02*
X383Y576D01*
D02*
X822Y159D02*
X632Y223D01*
D02*
X625Y653D02*
X636Y664D01*
X636Y664D02*
X782Y840D01*
D02*
X438Y846D02*
X636Y664D01*
G36*
X408Y996D02*
X408Y994D01*
X386Y994D01*
X386Y992D01*
X372Y992D01*
X372Y990D01*
X360Y990D01*
X360Y988D01*
X350Y988D01*
X350Y986D01*
X342Y986D01*
X342Y984D01*
X334Y984D01*
X334Y982D01*
X326Y982D01*
X326Y980D01*
X320Y980D01*
X320Y978D01*
X314Y978D01*
X314Y976D01*
X308Y976D01*
X308Y974D01*
X302Y974D01*
X302Y972D01*
X296Y972D01*
X296Y970D01*
X290Y970D01*
X290Y968D01*
X286Y968D01*
X286Y966D01*
X280Y966D01*
X280Y964D01*
X276Y964D01*
X276Y962D01*
X272Y962D01*
X272Y960D01*
X268Y960D01*
X268Y958D01*
X264Y958D01*
X264Y956D01*
X260Y956D01*
X260Y954D01*
X256Y954D01*
X256Y952D01*
X252Y952D01*
X252Y950D01*
X248Y950D01*
X248Y948D01*
X244Y948D01*
X244Y946D01*
X240Y946D01*
X240Y944D01*
X236Y944D01*
X236Y942D01*
X234Y942D01*
X234Y940D01*
X230Y940D01*
X230Y938D01*
X226Y938D01*
X226Y936D01*
X224Y936D01*
X224Y934D01*
X220Y934D01*
X220Y932D01*
X218Y932D01*
X218Y930D01*
X214Y930D01*
X214Y928D01*
X212Y928D01*
X212Y926D01*
X208Y926D01*
X208Y924D01*
X206Y924D01*
X206Y922D01*
X204Y922D01*
X204Y920D01*
X466Y920D01*
X466Y910D01*
X806Y910D01*
X806Y908D01*
X814Y908D01*
X814Y906D01*
X820Y906D01*
X820Y904D01*
X824Y904D01*
X824Y902D01*
X828Y902D01*
X828Y900D01*
X830Y900D01*
X830Y898D01*
X832Y898D01*
X832Y896D01*
X834Y896D01*
X834Y894D01*
X836Y894D01*
X836Y892D01*
X838Y892D01*
X838Y890D01*
X840Y890D01*
X840Y886D01*
X842Y886D01*
X842Y882D01*
X844Y882D01*
X844Y878D01*
X846Y878D01*
X846Y870D01*
X848Y870D01*
X848Y854D01*
X846Y854D01*
X846Y846D01*
X844Y846D01*
X844Y842D01*
X842Y842D01*
X842Y838D01*
X840Y838D01*
X840Y834D01*
X838Y834D01*
X838Y832D01*
X836Y832D01*
X836Y830D01*
X834Y830D01*
X834Y828D01*
X832Y828D01*
X832Y826D01*
X830Y826D01*
X830Y824D01*
X828Y824D01*
X828Y822D01*
X824Y822D01*
X824Y802D01*
X828Y802D01*
X828Y800D01*
X830Y800D01*
X830Y798D01*
X832Y798D01*
X832Y796D01*
X834Y796D01*
X834Y794D01*
X836Y794D01*
X836Y792D01*
X838Y792D01*
X838Y790D01*
X840Y790D01*
X840Y786D01*
X842Y786D01*
X842Y782D01*
X844Y782D01*
X844Y780D01*
X1050Y780D01*
X1050Y778D01*
X1056Y778D01*
X1056Y776D01*
X1060Y776D01*
X1060Y774D01*
X1064Y774D01*
X1064Y772D01*
X1066Y772D01*
X1066Y770D01*
X1070Y770D01*
X1070Y768D01*
X1072Y768D01*
X1072Y766D01*
X1074Y766D01*
X1074Y762D01*
X1076Y762D01*
X1076Y760D01*
X1078Y760D01*
X1078Y756D01*
X1080Y756D01*
X1080Y754D01*
X1082Y754D01*
X1082Y748D01*
X1084Y748D01*
X1084Y740D01*
X1086Y740D01*
X1086Y726D01*
X1084Y726D01*
X1084Y718D01*
X1082Y718D01*
X1082Y714D01*
X1080Y714D01*
X1080Y710D01*
X1078Y710D01*
X1078Y706D01*
X1076Y706D01*
X1076Y704D01*
X1074Y704D01*
X1074Y702D01*
X1072Y702D01*
X1072Y700D01*
X1070Y700D01*
X1070Y698D01*
X1068Y698D01*
X1068Y696D01*
X1066Y696D01*
X1066Y694D01*
X1062Y694D01*
X1062Y692D01*
X1060Y692D01*
X1060Y690D01*
X1054Y690D01*
X1054Y688D01*
X1048Y688D01*
X1048Y686D01*
X1458Y686D01*
X1458Y692D01*
X1456Y692D01*
X1456Y700D01*
X1454Y700D01*
X1454Y708D01*
X1452Y708D01*
X1452Y714D01*
X1450Y714D01*
X1450Y722D01*
X1448Y722D01*
X1448Y728D01*
X1446Y728D01*
X1446Y732D01*
X1444Y732D01*
X1444Y738D01*
X1442Y738D01*
X1442Y744D01*
X1440Y744D01*
X1440Y748D01*
X1438Y748D01*
X1438Y754D01*
X1436Y754D01*
X1436Y758D01*
X1434Y758D01*
X1434Y762D01*
X1432Y762D01*
X1432Y768D01*
X1430Y768D01*
X1430Y772D01*
X1428Y772D01*
X1428Y776D01*
X1426Y776D01*
X1426Y780D01*
X1424Y780D01*
X1424Y784D01*
X1422Y784D01*
X1422Y788D01*
X1420Y788D01*
X1420Y792D01*
X1418Y792D01*
X1418Y794D01*
X1416Y794D01*
X1416Y798D01*
X1414Y798D01*
X1414Y802D01*
X1412Y802D01*
X1412Y806D01*
X1410Y806D01*
X1410Y808D01*
X1408Y808D01*
X1408Y812D01*
X1406Y812D01*
X1406Y814D01*
X1404Y814D01*
X1404Y818D01*
X1402Y818D01*
X1402Y820D01*
X1400Y820D01*
X1400Y824D01*
X1398Y824D01*
X1398Y826D01*
X1396Y826D01*
X1396Y830D01*
X1394Y830D01*
X1394Y832D01*
X1392Y832D01*
X1392Y836D01*
X1390Y836D01*
X1390Y838D01*
X1388Y838D01*
X1388Y840D01*
X1386Y840D01*
X1386Y842D01*
X1384Y842D01*
X1384Y846D01*
X1382Y846D01*
X1382Y848D01*
X1380Y848D01*
X1380Y850D01*
X1378Y850D01*
X1378Y854D01*
X1376Y854D01*
X1376Y856D01*
X1374Y856D01*
X1374Y858D01*
X1372Y858D01*
X1372Y860D01*
X1370Y860D01*
X1370Y862D01*
X1368Y862D01*
X1368Y864D01*
X1366Y864D01*
X1366Y866D01*
X1364Y866D01*
X1364Y870D01*
X1362Y870D01*
X1362Y872D01*
X1360Y872D01*
X1360Y874D01*
X1358Y874D01*
X1358Y876D01*
X1356Y876D01*
X1356Y878D01*
X1354Y878D01*
X1354Y880D01*
X1352Y880D01*
X1352Y882D01*
X1350Y882D01*
X1350Y884D01*
X1348Y884D01*
X1348Y886D01*
X1346Y886D01*
X1346Y888D01*
X1344Y888D01*
X1344Y890D01*
X1342Y890D01*
X1342Y892D01*
X1340Y892D01*
X1340Y894D01*
X1336Y894D01*
X1336Y896D01*
X1334Y896D01*
X1334Y898D01*
X1332Y898D01*
X1332Y900D01*
X1330Y900D01*
X1330Y902D01*
X1328Y902D01*
X1328Y904D01*
X1326Y904D01*
X1326Y906D01*
X1322Y906D01*
X1322Y908D01*
X1320Y908D01*
X1320Y910D01*
X1318Y910D01*
X1318Y912D01*
X1316Y912D01*
X1316Y914D01*
X1312Y914D01*
X1312Y916D01*
X1310Y916D01*
X1310Y918D01*
X1308Y918D01*
X1308Y920D01*
X1304Y920D01*
X1304Y922D01*
X1302Y922D01*
X1302Y924D01*
X1298Y924D01*
X1298Y926D01*
X1296Y926D01*
X1296Y928D01*
X1294Y928D01*
X1294Y930D01*
X1290Y930D01*
X1290Y932D01*
X1286Y932D01*
X1286Y934D01*
X1284Y934D01*
X1284Y936D01*
X1280Y936D01*
X1280Y938D01*
X1278Y938D01*
X1278Y940D01*
X1274Y940D01*
X1274Y942D01*
X1270Y942D01*
X1270Y944D01*
X1268Y944D01*
X1268Y946D01*
X1264Y946D01*
X1264Y948D01*
X1260Y948D01*
X1260Y950D01*
X1256Y950D01*
X1256Y952D01*
X1252Y952D01*
X1252Y954D01*
X1248Y954D01*
X1248Y956D01*
X1244Y956D01*
X1244Y958D01*
X1240Y958D01*
X1240Y960D01*
X1236Y960D01*
X1236Y962D01*
X1232Y962D01*
X1232Y964D01*
X1226Y964D01*
X1226Y966D01*
X1222Y966D01*
X1222Y968D01*
X1216Y968D01*
X1216Y970D01*
X1212Y970D01*
X1212Y972D01*
X1206Y972D01*
X1206Y974D01*
X1200Y974D01*
X1200Y976D01*
X1194Y976D01*
X1194Y978D01*
X1188Y978D01*
X1188Y980D01*
X1180Y980D01*
X1180Y982D01*
X1174Y982D01*
X1174Y984D01*
X1166Y984D01*
X1166Y986D01*
X1158Y986D01*
X1158Y988D01*
X1148Y988D01*
X1148Y990D01*
X1136Y990D01*
X1136Y992D01*
X1122Y992D01*
X1122Y994D01*
X1100Y994D01*
X1100Y996D01*
X408Y996D01*
G37*
D02*
G36*
X200Y920D02*
X200Y918D01*
X198Y918D01*
X198Y916D01*
X194Y916D01*
X194Y914D01*
X192Y914D01*
X192Y912D01*
X190Y912D01*
X190Y910D01*
X188Y910D01*
X188Y908D01*
X184Y908D01*
X184Y906D01*
X182Y906D01*
X182Y904D01*
X180Y904D01*
X180Y902D01*
X178Y902D01*
X178Y900D01*
X176Y900D01*
X176Y898D01*
X174Y898D01*
X174Y896D01*
X170Y896D01*
X170Y894D01*
X168Y894D01*
X168Y892D01*
X166Y892D01*
X166Y890D01*
X164Y890D01*
X164Y888D01*
X162Y888D01*
X162Y886D01*
X160Y886D01*
X160Y884D01*
X158Y884D01*
X158Y882D01*
X156Y882D01*
X156Y880D01*
X154Y880D01*
X154Y878D01*
X152Y878D01*
X152Y876D01*
X150Y876D01*
X150Y874D01*
X148Y874D01*
X148Y872D01*
X146Y872D01*
X146Y870D01*
X144Y870D01*
X144Y868D01*
X142Y868D01*
X142Y866D01*
X140Y866D01*
X140Y862D01*
X138Y862D01*
X138Y860D01*
X136Y860D01*
X136Y858D01*
X134Y858D01*
X134Y856D01*
X132Y856D01*
X132Y854D01*
X130Y854D01*
X130Y852D01*
X128Y852D01*
X128Y848D01*
X126Y848D01*
X126Y846D01*
X124Y846D01*
X124Y844D01*
X122Y844D01*
X122Y842D01*
X120Y842D01*
X120Y838D01*
X118Y838D01*
X118Y836D01*
X116Y836D01*
X116Y832D01*
X114Y832D01*
X114Y830D01*
X112Y830D01*
X112Y828D01*
X110Y828D01*
X110Y824D01*
X108Y824D01*
X108Y822D01*
X106Y822D01*
X106Y818D01*
X104Y818D01*
X104Y816D01*
X412Y816D01*
X412Y818D01*
X364Y818D01*
X364Y920D01*
X200Y920D01*
G37*
D02*
G36*
X466Y910D02*
X466Y850D01*
X468Y850D01*
X468Y848D01*
X470Y848D01*
X470Y846D01*
X472Y846D01*
X472Y844D01*
X474Y844D01*
X474Y842D01*
X476Y842D01*
X476Y840D01*
X478Y840D01*
X478Y838D01*
X480Y838D01*
X480Y836D01*
X482Y836D01*
X482Y834D01*
X484Y834D01*
X484Y832D01*
X486Y832D01*
X486Y830D01*
X490Y830D01*
X490Y828D01*
X492Y828D01*
X492Y826D01*
X494Y826D01*
X494Y824D01*
X496Y824D01*
X496Y822D01*
X498Y822D01*
X498Y820D01*
X500Y820D01*
X500Y818D01*
X502Y818D01*
X502Y816D01*
X504Y816D01*
X504Y814D01*
X506Y814D01*
X506Y812D01*
X508Y812D01*
X508Y810D01*
X510Y810D01*
X510Y808D01*
X512Y808D01*
X512Y806D01*
X516Y806D01*
X516Y804D01*
X518Y804D01*
X518Y802D01*
X520Y802D01*
X520Y800D01*
X522Y800D01*
X522Y798D01*
X524Y798D01*
X524Y796D01*
X526Y796D01*
X526Y794D01*
X528Y794D01*
X528Y792D01*
X530Y792D01*
X530Y790D01*
X532Y790D01*
X532Y788D01*
X534Y788D01*
X534Y786D01*
X536Y786D01*
X536Y784D01*
X540Y784D01*
X540Y782D01*
X542Y782D01*
X542Y780D01*
X544Y780D01*
X544Y778D01*
X546Y778D01*
X546Y776D01*
X548Y776D01*
X548Y774D01*
X550Y774D01*
X550Y772D01*
X552Y772D01*
X552Y770D01*
X554Y770D01*
X554Y768D01*
X556Y768D01*
X556Y766D01*
X558Y766D01*
X558Y764D01*
X560Y764D01*
X560Y762D01*
X564Y762D01*
X564Y760D01*
X566Y760D01*
X566Y758D01*
X568Y758D01*
X568Y756D01*
X570Y756D01*
X570Y754D01*
X572Y754D01*
X572Y752D01*
X574Y752D01*
X574Y750D01*
X576Y750D01*
X576Y748D01*
X578Y748D01*
X578Y746D01*
X580Y746D01*
X580Y744D01*
X582Y744D01*
X582Y742D01*
X584Y742D01*
X584Y740D01*
X586Y740D01*
X586Y738D01*
X590Y738D01*
X590Y736D01*
X592Y736D01*
X592Y734D01*
X594Y734D01*
X594Y732D01*
X596Y732D01*
X596Y730D01*
X598Y730D01*
X598Y728D01*
X600Y728D01*
X600Y726D01*
X602Y726D01*
X602Y724D01*
X604Y724D01*
X604Y722D01*
X606Y722D01*
X606Y720D01*
X608Y720D01*
X608Y718D01*
X610Y718D01*
X610Y716D01*
X614Y716D01*
X614Y714D01*
X616Y714D01*
X616Y712D01*
X618Y712D01*
X618Y710D01*
X620Y710D01*
X620Y708D01*
X622Y708D01*
X622Y706D01*
X644Y706D01*
X644Y710D01*
X646Y710D01*
X646Y712D01*
X648Y712D01*
X648Y714D01*
X650Y714D01*
X650Y716D01*
X652Y716D01*
X652Y718D01*
X654Y718D01*
X654Y722D01*
X656Y722D01*
X656Y724D01*
X658Y724D01*
X658Y726D01*
X660Y726D01*
X660Y728D01*
X662Y728D01*
X662Y732D01*
X664Y732D01*
X664Y734D01*
X666Y734D01*
X666Y736D01*
X668Y736D01*
X668Y738D01*
X670Y738D01*
X670Y740D01*
X672Y740D01*
X672Y744D01*
X674Y744D01*
X674Y746D01*
X676Y746D01*
X676Y748D01*
X678Y748D01*
X678Y750D01*
X680Y750D01*
X680Y752D01*
X682Y752D01*
X682Y756D01*
X684Y756D01*
X684Y758D01*
X686Y758D01*
X686Y760D01*
X688Y760D01*
X688Y762D01*
X690Y762D01*
X690Y764D01*
X692Y764D01*
X692Y768D01*
X694Y768D01*
X694Y770D01*
X696Y770D01*
X696Y772D01*
X698Y772D01*
X698Y774D01*
X700Y774D01*
X700Y776D01*
X702Y776D01*
X702Y780D01*
X704Y780D01*
X704Y782D01*
X706Y782D01*
X706Y784D01*
X708Y784D01*
X708Y786D01*
X710Y786D01*
X710Y788D01*
X712Y788D01*
X712Y792D01*
X714Y792D01*
X714Y794D01*
X716Y794D01*
X716Y796D01*
X718Y796D01*
X718Y798D01*
X720Y798D01*
X720Y800D01*
X722Y800D01*
X722Y804D01*
X724Y804D01*
X724Y806D01*
X726Y806D01*
X726Y808D01*
X728Y808D01*
X728Y810D01*
X730Y810D01*
X730Y814D01*
X732Y814D01*
X732Y816D01*
X734Y816D01*
X734Y818D01*
X736Y818D01*
X736Y820D01*
X738Y820D01*
X738Y822D01*
X740Y822D01*
X740Y826D01*
X742Y826D01*
X742Y828D01*
X744Y828D01*
X744Y830D01*
X746Y830D01*
X746Y832D01*
X748Y832D01*
X748Y834D01*
X750Y834D01*
X750Y838D01*
X752Y838D01*
X752Y866D01*
X754Y866D01*
X754Y876D01*
X756Y876D01*
X756Y882D01*
X758Y882D01*
X758Y886D01*
X760Y886D01*
X760Y888D01*
X762Y888D01*
X762Y892D01*
X764Y892D01*
X764Y894D01*
X766Y894D01*
X766Y896D01*
X768Y896D01*
X768Y898D01*
X770Y898D01*
X770Y900D01*
X774Y900D01*
X774Y902D01*
X776Y902D01*
X776Y904D01*
X780Y904D01*
X780Y906D01*
X786Y906D01*
X786Y908D01*
X794Y908D01*
X794Y910D01*
X466Y910D01*
G37*
D02*
G36*
X418Y818D02*
X418Y816D01*
X438Y816D01*
X438Y818D01*
X418Y818D01*
G37*
D02*
G36*
X102Y816D02*
X102Y814D01*
X440Y814D01*
X440Y816D01*
X102Y816D01*
G37*
D02*
G36*
X102Y816D02*
X102Y814D01*
X440Y814D01*
X440Y816D01*
X102Y816D01*
G37*
D02*
G36*
X102Y814D02*
X102Y812D01*
X100Y812D01*
X100Y810D01*
X98Y810D01*
X98Y806D01*
X96Y806D01*
X96Y802D01*
X94Y802D01*
X94Y798D01*
X92Y798D01*
X92Y796D01*
X90Y796D01*
X90Y792D01*
X88Y792D01*
X88Y788D01*
X86Y788D01*
X86Y784D01*
X84Y784D01*
X84Y780D01*
X82Y780D01*
X82Y776D01*
X80Y776D01*
X80Y772D01*
X78Y772D01*
X78Y768D01*
X76Y768D01*
X76Y764D01*
X74Y764D01*
X74Y760D01*
X72Y760D01*
X72Y754D01*
X70Y754D01*
X70Y750D01*
X68Y750D01*
X68Y744D01*
X66Y744D01*
X66Y740D01*
X64Y740D01*
X64Y734D01*
X62Y734D01*
X62Y728D01*
X60Y728D01*
X60Y722D01*
X58Y722D01*
X58Y716D01*
X56Y716D01*
X56Y710D01*
X54Y710D01*
X54Y702D01*
X52Y702D01*
X52Y694D01*
X50Y694D01*
X50Y686D01*
X48Y686D01*
X48Y676D01*
X46Y676D01*
X46Y664D01*
X44Y664D01*
X44Y660D01*
X218Y660D01*
X218Y658D01*
X230Y658D01*
X230Y656D01*
X236Y656D01*
X236Y654D01*
X238Y654D01*
X238Y652D01*
X242Y652D01*
X242Y650D01*
X246Y650D01*
X246Y648D01*
X248Y648D01*
X248Y646D01*
X250Y646D01*
X250Y644D01*
X252Y644D01*
X252Y642D01*
X254Y642D01*
X254Y640D01*
X256Y640D01*
X256Y636D01*
X258Y636D01*
X258Y632D01*
X260Y632D01*
X260Y630D01*
X262Y630D01*
X262Y624D01*
X264Y624D01*
X264Y620D01*
X428Y620D01*
X428Y618D01*
X434Y618D01*
X434Y616D01*
X438Y616D01*
X438Y614D01*
X442Y614D01*
X442Y612D01*
X444Y612D01*
X444Y610D01*
X446Y610D01*
X446Y608D01*
X450Y608D01*
X450Y606D01*
X452Y606D01*
X452Y602D01*
X454Y602D01*
X454Y600D01*
X456Y600D01*
X456Y598D01*
X458Y598D01*
X458Y594D01*
X460Y594D01*
X460Y590D01*
X462Y590D01*
X462Y586D01*
X592Y586D01*
X592Y588D01*
X586Y588D01*
X586Y590D01*
X582Y590D01*
X582Y592D01*
X580Y592D01*
X580Y594D01*
X576Y594D01*
X576Y596D01*
X574Y596D01*
X574Y598D01*
X572Y598D01*
X572Y600D01*
X570Y600D01*
X570Y602D01*
X568Y602D01*
X568Y604D01*
X566Y604D01*
X566Y608D01*
X564Y608D01*
X564Y612D01*
X562Y612D01*
X562Y616D01*
X560Y616D01*
X560Y622D01*
X558Y622D01*
X558Y642D01*
X560Y642D01*
X560Y650D01*
X562Y650D01*
X562Y654D01*
X564Y654D01*
X564Y658D01*
X566Y658D01*
X566Y660D01*
X568Y660D01*
X568Y662D01*
X570Y662D01*
X570Y666D01*
X572Y666D01*
X572Y668D01*
X576Y668D01*
X576Y690D01*
X574Y690D01*
X574Y692D01*
X572Y692D01*
X572Y694D01*
X570Y694D01*
X570Y696D01*
X568Y696D01*
X568Y698D01*
X566Y698D01*
X566Y700D01*
X564Y700D01*
X564Y702D01*
X562Y702D01*
X562Y704D01*
X558Y704D01*
X558Y706D01*
X556Y706D01*
X556Y708D01*
X554Y708D01*
X554Y710D01*
X552Y710D01*
X552Y712D01*
X550Y712D01*
X550Y714D01*
X548Y714D01*
X548Y716D01*
X546Y716D01*
X546Y718D01*
X544Y718D01*
X544Y720D01*
X542Y720D01*
X542Y722D01*
X540Y722D01*
X540Y724D01*
X538Y724D01*
X538Y726D01*
X534Y726D01*
X534Y728D01*
X532Y728D01*
X532Y730D01*
X530Y730D01*
X530Y732D01*
X528Y732D01*
X528Y734D01*
X526Y734D01*
X526Y736D01*
X524Y736D01*
X524Y738D01*
X522Y738D01*
X522Y740D01*
X520Y740D01*
X520Y742D01*
X518Y742D01*
X518Y744D01*
X516Y744D01*
X516Y746D01*
X514Y746D01*
X514Y748D01*
X512Y748D01*
X512Y750D01*
X508Y750D01*
X508Y752D01*
X506Y752D01*
X506Y754D01*
X504Y754D01*
X504Y756D01*
X502Y756D01*
X502Y758D01*
X500Y758D01*
X500Y760D01*
X498Y760D01*
X498Y762D01*
X496Y762D01*
X496Y764D01*
X494Y764D01*
X494Y766D01*
X492Y766D01*
X492Y768D01*
X490Y768D01*
X490Y770D01*
X488Y770D01*
X488Y772D01*
X484Y772D01*
X484Y774D01*
X482Y774D01*
X482Y776D01*
X480Y776D01*
X480Y778D01*
X478Y778D01*
X478Y780D01*
X476Y780D01*
X476Y782D01*
X474Y782D01*
X474Y784D01*
X472Y784D01*
X472Y786D01*
X470Y786D01*
X470Y788D01*
X468Y788D01*
X468Y790D01*
X466Y790D01*
X466Y792D01*
X464Y792D01*
X464Y794D01*
X460Y794D01*
X460Y796D01*
X458Y796D01*
X458Y798D01*
X456Y798D01*
X456Y800D01*
X454Y800D01*
X454Y802D01*
X452Y802D01*
X452Y804D01*
X450Y804D01*
X450Y806D01*
X448Y806D01*
X448Y808D01*
X446Y808D01*
X446Y810D01*
X444Y810D01*
X444Y812D01*
X442Y812D01*
X442Y814D01*
X102Y814D01*
G37*
D02*
G36*
X844Y780D02*
X844Y778D01*
X846Y778D01*
X846Y770D01*
X848Y770D01*
X848Y754D01*
X846Y754D01*
X846Y746D01*
X844Y746D01*
X844Y742D01*
X842Y742D01*
X842Y738D01*
X840Y738D01*
X840Y734D01*
X838Y734D01*
X838Y732D01*
X836Y732D01*
X836Y730D01*
X834Y730D01*
X834Y728D01*
X832Y728D01*
X832Y726D01*
X830Y726D01*
X830Y724D01*
X828Y724D01*
X828Y722D01*
X824Y722D01*
X824Y702D01*
X828Y702D01*
X828Y700D01*
X830Y700D01*
X830Y698D01*
X832Y698D01*
X832Y696D01*
X834Y696D01*
X834Y694D01*
X836Y694D01*
X836Y692D01*
X838Y692D01*
X838Y690D01*
X840Y690D01*
X840Y686D01*
X1028Y686D01*
X1028Y688D01*
X1022Y688D01*
X1022Y690D01*
X1016Y690D01*
X1016Y692D01*
X1014Y692D01*
X1014Y694D01*
X1010Y694D01*
X1010Y696D01*
X1008Y696D01*
X1008Y698D01*
X1006Y698D01*
X1006Y700D01*
X1004Y700D01*
X1004Y702D01*
X1002Y702D01*
X1002Y704D01*
X1000Y704D01*
X1000Y706D01*
X998Y706D01*
X998Y710D01*
X996Y710D01*
X996Y714D01*
X994Y714D01*
X994Y720D01*
X992Y720D01*
X992Y728D01*
X990Y728D01*
X990Y738D01*
X992Y738D01*
X992Y748D01*
X994Y748D01*
X994Y752D01*
X996Y752D01*
X996Y756D01*
X998Y756D01*
X998Y760D01*
X1000Y760D01*
X1000Y762D01*
X1002Y762D01*
X1002Y764D01*
X1004Y764D01*
X1004Y768D01*
X1008Y768D01*
X1008Y770D01*
X1010Y770D01*
X1010Y772D01*
X1012Y772D01*
X1012Y774D01*
X1016Y774D01*
X1016Y776D01*
X1020Y776D01*
X1020Y778D01*
X1026Y778D01*
X1026Y780D01*
X844Y780D01*
G37*
D02*
G36*
X734Y748D02*
X734Y746D01*
X732Y746D01*
X732Y744D01*
X730Y744D01*
X730Y742D01*
X728Y742D01*
X728Y740D01*
X726Y740D01*
X726Y736D01*
X724Y736D01*
X724Y734D01*
X722Y734D01*
X722Y732D01*
X720Y732D01*
X720Y730D01*
X718Y730D01*
X718Y728D01*
X716Y728D01*
X716Y724D01*
X714Y724D01*
X714Y722D01*
X712Y722D01*
X712Y720D01*
X710Y720D01*
X710Y718D01*
X708Y718D01*
X708Y716D01*
X706Y716D01*
X706Y712D01*
X704Y712D01*
X704Y710D01*
X702Y710D01*
X702Y708D01*
X700Y708D01*
X700Y706D01*
X698Y706D01*
X698Y704D01*
X696Y704D01*
X696Y700D01*
X694Y700D01*
X694Y698D01*
X692Y698D01*
X692Y696D01*
X690Y696D01*
X690Y694D01*
X688Y694D01*
X688Y692D01*
X686Y692D01*
X686Y688D01*
X684Y688D01*
X684Y686D01*
X682Y686D01*
X682Y684D01*
X680Y684D01*
X680Y682D01*
X678Y682D01*
X678Y678D01*
X676Y678D01*
X676Y676D01*
X674Y676D01*
X674Y674D01*
X672Y674D01*
X672Y672D01*
X670Y672D01*
X670Y670D01*
X668Y670D01*
X668Y666D01*
X666Y666D01*
X666Y664D01*
X664Y664D01*
X664Y662D01*
X662Y662D01*
X662Y660D01*
X660Y660D01*
X660Y658D01*
X658Y658D01*
X658Y654D01*
X656Y654D01*
X656Y652D01*
X654Y652D01*
X654Y650D01*
X652Y650D01*
X652Y620D01*
X650Y620D01*
X650Y614D01*
X794Y614D01*
X794Y616D01*
X786Y616D01*
X786Y618D01*
X780Y618D01*
X780Y620D01*
X776Y620D01*
X776Y622D01*
X774Y622D01*
X774Y624D01*
X770Y624D01*
X770Y626D01*
X768Y626D01*
X768Y628D01*
X766Y628D01*
X766Y630D01*
X764Y630D01*
X764Y632D01*
X762Y632D01*
X762Y636D01*
X760Y636D01*
X760Y638D01*
X758Y638D01*
X758Y642D01*
X756Y642D01*
X756Y648D01*
X754Y648D01*
X754Y658D01*
X752Y658D01*
X752Y666D01*
X754Y666D01*
X754Y676D01*
X756Y676D01*
X756Y682D01*
X758Y682D01*
X758Y686D01*
X760Y686D01*
X760Y688D01*
X762Y688D01*
X762Y692D01*
X764Y692D01*
X764Y694D01*
X766Y694D01*
X766Y696D01*
X768Y696D01*
X768Y698D01*
X770Y698D01*
X770Y700D01*
X774Y700D01*
X774Y702D01*
X776Y702D01*
X776Y722D01*
X774Y722D01*
X774Y724D01*
X770Y724D01*
X770Y726D01*
X768Y726D01*
X768Y728D01*
X766Y728D01*
X766Y730D01*
X764Y730D01*
X764Y732D01*
X762Y732D01*
X762Y736D01*
X760Y736D01*
X760Y738D01*
X758Y738D01*
X758Y742D01*
X756Y742D01*
X756Y748D01*
X734Y748D01*
G37*
D02*
G36*
X842Y686D02*
X842Y684D01*
X1458Y684D01*
X1458Y686D01*
X842Y686D01*
G37*
D02*
G36*
X842Y686D02*
X842Y684D01*
X1458Y684D01*
X1458Y686D01*
X842Y686D01*
G37*
D02*
G36*
X842Y684D02*
X842Y682D01*
X844Y682D01*
X844Y678D01*
X846Y678D01*
X846Y670D01*
X848Y670D01*
X848Y654D01*
X846Y654D01*
X846Y646D01*
X844Y646D01*
X844Y642D01*
X842Y642D01*
X842Y638D01*
X1344Y638D01*
X1344Y538D01*
X1466Y538D01*
X1466Y646D01*
X1464Y646D01*
X1464Y662D01*
X1462Y662D01*
X1462Y672D01*
X1460Y672D01*
X1460Y684D01*
X842Y684D01*
G37*
D02*
G36*
X44Y660D02*
X44Y650D01*
X42Y650D01*
X42Y628D01*
X40Y628D01*
X40Y560D01*
X202Y560D01*
X202Y562D01*
X196Y562D01*
X196Y564D01*
X192Y564D01*
X192Y566D01*
X188Y566D01*
X188Y568D01*
X186Y568D01*
X186Y570D01*
X184Y570D01*
X184Y572D01*
X180Y572D01*
X180Y574D01*
X178Y574D01*
X178Y578D01*
X176Y578D01*
X176Y580D01*
X174Y580D01*
X174Y582D01*
X172Y582D01*
X172Y586D01*
X170Y586D01*
X170Y590D01*
X168Y590D01*
X168Y596D01*
X166Y596D01*
X166Y622D01*
X168Y622D01*
X168Y628D01*
X170Y628D01*
X170Y632D01*
X172Y632D01*
X172Y636D01*
X174Y636D01*
X174Y638D01*
X176Y638D01*
X176Y640D01*
X178Y640D01*
X178Y644D01*
X180Y644D01*
X180Y646D01*
X182Y646D01*
X182Y648D01*
X186Y648D01*
X186Y650D01*
X188Y650D01*
X188Y652D01*
X192Y652D01*
X192Y654D01*
X196Y654D01*
X196Y656D01*
X200Y656D01*
X200Y658D01*
X212Y658D01*
X212Y660D01*
X44Y660D01*
G37*
D02*
G36*
X840Y638D02*
X840Y634D01*
X838Y634D01*
X838Y632D01*
X836Y632D01*
X836Y630D01*
X834Y630D01*
X834Y628D01*
X832Y628D01*
X832Y626D01*
X830Y626D01*
X830Y624D01*
X828Y624D01*
X828Y622D01*
X824Y622D01*
X824Y620D01*
X820Y620D01*
X820Y618D01*
X814Y618D01*
X814Y616D01*
X806Y616D01*
X806Y614D01*
X1244Y614D01*
X1244Y638D01*
X840Y638D01*
G37*
D02*
G36*
X264Y620D02*
X264Y614D01*
X266Y614D01*
X266Y604D01*
X264Y604D01*
X264Y594D01*
X262Y594D01*
X262Y590D01*
X260Y590D01*
X260Y586D01*
X258Y586D01*
X258Y582D01*
X256Y582D01*
X256Y580D01*
X254Y580D01*
X254Y576D01*
X252Y576D01*
X252Y574D01*
X250Y574D01*
X250Y572D01*
X248Y572D01*
X248Y570D01*
X244Y570D01*
X244Y568D01*
X242Y568D01*
X242Y566D01*
X238Y566D01*
X238Y564D01*
X234Y564D01*
X234Y562D01*
X228Y562D01*
X228Y560D01*
X364Y560D01*
X364Y582D01*
X366Y582D01*
X366Y588D01*
X368Y588D01*
X368Y592D01*
X370Y592D01*
X370Y596D01*
X372Y596D01*
X372Y600D01*
X374Y600D01*
X374Y602D01*
X376Y602D01*
X376Y604D01*
X378Y604D01*
X378Y606D01*
X380Y606D01*
X380Y608D01*
X382Y608D01*
X382Y610D01*
X384Y610D01*
X384Y612D01*
X388Y612D01*
X388Y614D01*
X392Y614D01*
X392Y616D01*
X394Y616D01*
X394Y618D01*
X402Y618D01*
X402Y620D01*
X264Y620D01*
G37*
D02*
G36*
X648Y614D02*
X648Y612D01*
X1244Y612D01*
X1244Y614D01*
X648Y614D01*
G37*
D02*
G36*
X648Y614D02*
X648Y612D01*
X1244Y612D01*
X1244Y614D01*
X648Y614D01*
G37*
D02*
G36*
X648Y612D02*
X648Y610D01*
X646Y610D01*
X646Y606D01*
X644Y606D01*
X644Y604D01*
X642Y604D01*
X642Y602D01*
X640Y602D01*
X640Y600D01*
X638Y600D01*
X638Y598D01*
X636Y598D01*
X636Y596D01*
X634Y596D01*
X634Y594D01*
X632Y594D01*
X632Y592D01*
X628Y592D01*
X628Y590D01*
X624Y590D01*
X624Y588D01*
X618Y588D01*
X618Y586D01*
X1244Y586D01*
X1244Y612D01*
X648Y612D01*
G37*
D02*
G36*
X462Y586D02*
X462Y584D01*
X1244Y584D01*
X1244Y586D01*
X462Y586D01*
G37*
D02*
G36*
X462Y586D02*
X462Y584D01*
X1244Y584D01*
X1244Y586D01*
X462Y586D01*
G37*
D02*
G36*
X464Y584D02*
X464Y574D01*
X466Y574D01*
X466Y566D01*
X464Y566D01*
X464Y554D01*
X462Y554D01*
X462Y550D01*
X460Y550D01*
X460Y546D01*
X458Y546D01*
X458Y542D01*
X456Y542D01*
X456Y540D01*
X454Y540D01*
X454Y538D01*
X1244Y538D01*
X1244Y584D01*
X464Y584D01*
G37*
D02*
G36*
X40Y560D02*
X40Y558D01*
X364Y558D01*
X364Y560D01*
X40Y560D01*
G37*
D02*
G36*
X40Y560D02*
X40Y558D01*
X364Y558D01*
X364Y560D01*
X40Y560D01*
G37*
D02*
G36*
X40Y558D02*
X40Y518D01*
X412Y518D01*
X412Y520D01*
X400Y520D01*
X400Y522D01*
X394Y522D01*
X394Y524D01*
X390Y524D01*
X390Y526D01*
X386Y526D01*
X386Y528D01*
X384Y528D01*
X384Y530D01*
X382Y530D01*
X382Y532D01*
X380Y532D01*
X380Y534D01*
X378Y534D01*
X378Y536D01*
X376Y536D01*
X376Y538D01*
X374Y538D01*
X374Y540D01*
X372Y540D01*
X372Y544D01*
X370Y544D01*
X370Y546D01*
X368Y546D01*
X368Y550D01*
X366Y550D01*
X366Y558D01*
X40Y558D01*
G37*
D02*
G36*
X452Y538D02*
X452Y536D01*
X1466Y536D01*
X1466Y538D01*
X452Y538D01*
G37*
D02*
G36*
X452Y538D02*
X452Y536D01*
X1466Y536D01*
X1466Y538D01*
X452Y538D01*
G37*
D02*
G36*
X452Y536D02*
X452Y534D01*
X450Y534D01*
X450Y532D01*
X446Y532D01*
X446Y530D01*
X444Y530D01*
X444Y528D01*
X442Y528D01*
X442Y526D01*
X438Y526D01*
X438Y524D01*
X434Y524D01*
X434Y522D01*
X428Y522D01*
X428Y520D01*
X418Y520D01*
X418Y518D01*
X1466Y518D01*
X1466Y536D01*
X452Y536D01*
G37*
D02*
G36*
X40Y518D02*
X40Y516D01*
X1466Y516D01*
X1466Y518D01*
X40Y518D01*
G37*
D02*
G36*
X40Y518D02*
X40Y516D01*
X1466Y516D01*
X1466Y518D01*
X40Y518D01*
G37*
D02*
G36*
X40Y516D02*
X40Y498D01*
X858Y498D01*
X858Y496D01*
X864Y496D01*
X864Y494D01*
X870Y494D01*
X870Y492D01*
X872Y492D01*
X872Y490D01*
X876Y490D01*
X876Y488D01*
X878Y488D01*
X878Y486D01*
X880Y486D01*
X880Y484D01*
X884Y484D01*
X884Y480D01*
X886Y480D01*
X886Y478D01*
X888Y478D01*
X888Y476D01*
X890Y476D01*
X890Y472D01*
X892Y472D01*
X892Y466D01*
X904Y466D01*
X904Y464D01*
X918Y464D01*
X918Y462D01*
X932Y462D01*
X932Y460D01*
X946Y460D01*
X946Y458D01*
X960Y458D01*
X960Y456D01*
X976Y456D01*
X976Y454D01*
X990Y454D01*
X990Y452D01*
X1004Y452D01*
X1004Y450D01*
X1018Y450D01*
X1018Y448D01*
X1032Y448D01*
X1032Y446D01*
X1048Y446D01*
X1048Y444D01*
X1062Y444D01*
X1062Y442D01*
X1076Y442D01*
X1076Y440D01*
X1090Y440D01*
X1090Y438D01*
X1306Y438D01*
X1306Y436D01*
X1312Y436D01*
X1312Y434D01*
X1316Y434D01*
X1316Y432D01*
X1320Y432D01*
X1320Y430D01*
X1322Y430D01*
X1322Y428D01*
X1326Y428D01*
X1326Y426D01*
X1328Y426D01*
X1328Y424D01*
X1330Y424D01*
X1330Y422D01*
X1332Y422D01*
X1332Y418D01*
X1334Y418D01*
X1334Y416D01*
X1336Y416D01*
X1336Y412D01*
X1338Y412D01*
X1338Y410D01*
X1340Y410D01*
X1340Y404D01*
X1342Y404D01*
X1342Y396D01*
X1344Y396D01*
X1344Y380D01*
X1342Y380D01*
X1342Y372D01*
X1340Y372D01*
X1340Y368D01*
X1338Y368D01*
X1338Y364D01*
X1336Y364D01*
X1336Y360D01*
X1334Y360D01*
X1334Y358D01*
X1332Y358D01*
X1332Y356D01*
X1330Y356D01*
X1330Y354D01*
X1328Y354D01*
X1328Y352D01*
X1326Y352D01*
X1326Y350D01*
X1324Y350D01*
X1324Y348D01*
X1322Y348D01*
X1322Y346D01*
X1318Y346D01*
X1318Y344D01*
X1314Y344D01*
X1314Y342D01*
X1310Y342D01*
X1310Y340D01*
X1300Y340D01*
X1300Y338D01*
X1456Y338D01*
X1456Y344D01*
X1458Y344D01*
X1458Y354D01*
X1460Y354D01*
X1460Y364D01*
X1462Y364D01*
X1462Y374D01*
X1464Y374D01*
X1464Y390D01*
X1466Y390D01*
X1466Y516D01*
X40Y516D01*
G37*
D02*
G36*
X40Y498D02*
X40Y460D01*
X264Y460D01*
X264Y458D01*
X266Y458D01*
X266Y402D01*
X848Y402D01*
X848Y404D01*
X836Y404D01*
X836Y406D01*
X830Y406D01*
X830Y408D01*
X826Y408D01*
X826Y410D01*
X822Y410D01*
X822Y412D01*
X820Y412D01*
X820Y414D01*
X818Y414D01*
X818Y416D01*
X814Y416D01*
X814Y420D01*
X812Y420D01*
X812Y422D01*
X810Y422D01*
X810Y424D01*
X808Y424D01*
X808Y428D01*
X806Y428D01*
X806Y432D01*
X804Y432D01*
X804Y438D01*
X802Y438D01*
X802Y462D01*
X804Y462D01*
X804Y470D01*
X806Y470D01*
X806Y472D01*
X808Y472D01*
X808Y476D01*
X810Y476D01*
X810Y480D01*
X812Y480D01*
X812Y482D01*
X814Y482D01*
X814Y484D01*
X816Y484D01*
X816Y486D01*
X818Y486D01*
X818Y488D01*
X822Y488D01*
X822Y490D01*
X824Y490D01*
X824Y492D01*
X828Y492D01*
X828Y494D01*
X832Y494D01*
X832Y496D01*
X840Y496D01*
X840Y498D01*
X40Y498D01*
G37*
D02*
G36*
X40Y460D02*
X40Y408D01*
X42Y408D01*
X42Y386D01*
X44Y386D01*
X44Y372D01*
X46Y372D01*
X46Y362D01*
X48Y362D01*
X48Y360D01*
X166Y360D01*
X166Y460D01*
X40Y460D01*
G37*
D02*
G36*
X1104Y438D02*
X1104Y436D01*
X1118Y436D01*
X1118Y434D01*
X1134Y434D01*
X1134Y432D01*
X1148Y432D01*
X1148Y430D01*
X1162Y430D01*
X1162Y428D01*
X1176Y428D01*
X1176Y426D01*
X1190Y426D01*
X1190Y424D01*
X1204Y424D01*
X1204Y422D01*
X1220Y422D01*
X1220Y420D01*
X1234Y420D01*
X1234Y418D01*
X1254Y418D01*
X1254Y420D01*
X1256Y420D01*
X1256Y422D01*
X1258Y422D01*
X1258Y424D01*
X1260Y424D01*
X1260Y426D01*
X1262Y426D01*
X1262Y428D01*
X1264Y428D01*
X1264Y430D01*
X1268Y430D01*
X1268Y432D01*
X1272Y432D01*
X1272Y434D01*
X1276Y434D01*
X1276Y436D01*
X1282Y436D01*
X1282Y438D01*
X1104Y438D01*
G37*
D02*
G36*
X884Y420D02*
X884Y418D01*
X882Y418D01*
X882Y416D01*
X880Y416D01*
X880Y414D01*
X878Y414D01*
X878Y412D01*
X874Y412D01*
X874Y410D01*
X872Y410D01*
X872Y408D01*
X868Y408D01*
X868Y406D01*
X862Y406D01*
X862Y404D01*
X850Y404D01*
X850Y402D01*
X1030Y402D01*
X1030Y404D01*
X1016Y404D01*
X1016Y406D01*
X1000Y406D01*
X1000Y408D01*
X986Y408D01*
X986Y410D01*
X972Y410D01*
X972Y412D01*
X958Y412D01*
X958Y414D01*
X944Y414D01*
X944Y416D01*
X930Y416D01*
X930Y418D01*
X914Y418D01*
X914Y420D01*
X884Y420D01*
G37*
D02*
G36*
X266Y402D02*
X266Y400D01*
X1044Y400D01*
X1044Y402D01*
X266Y402D01*
G37*
D02*
G36*
X266Y402D02*
X266Y400D01*
X1044Y400D01*
X1044Y402D01*
X266Y402D01*
G37*
D02*
G36*
X266Y400D02*
X266Y380D01*
X1050Y380D01*
X1050Y378D01*
X1056Y378D01*
X1056Y376D01*
X1060Y376D01*
X1060Y374D01*
X1064Y374D01*
X1064Y372D01*
X1066Y372D01*
X1066Y370D01*
X1070Y370D01*
X1070Y368D01*
X1072Y368D01*
X1072Y366D01*
X1074Y366D01*
X1074Y362D01*
X1076Y362D01*
X1076Y360D01*
X1078Y360D01*
X1078Y358D01*
X1080Y358D01*
X1080Y354D01*
X1082Y354D01*
X1082Y348D01*
X1084Y348D01*
X1084Y340D01*
X1086Y340D01*
X1086Y338D01*
X1288Y338D01*
X1288Y340D01*
X1278Y340D01*
X1278Y342D01*
X1274Y342D01*
X1274Y344D01*
X1270Y344D01*
X1270Y346D01*
X1266Y346D01*
X1266Y348D01*
X1264Y348D01*
X1264Y350D01*
X1260Y350D01*
X1260Y352D01*
X1258Y352D01*
X1258Y354D01*
X1256Y354D01*
X1256Y358D01*
X1254Y358D01*
X1254Y360D01*
X1252Y360D01*
X1252Y362D01*
X1250Y362D01*
X1250Y366D01*
X1248Y366D01*
X1248Y370D01*
X1246Y370D01*
X1246Y374D01*
X1230Y374D01*
X1230Y376D01*
X1216Y376D01*
X1216Y378D01*
X1202Y378D01*
X1202Y380D01*
X1188Y380D01*
X1188Y382D01*
X1174Y382D01*
X1174Y384D01*
X1158Y384D01*
X1158Y386D01*
X1144Y386D01*
X1144Y388D01*
X1130Y388D01*
X1130Y390D01*
X1116Y390D01*
X1116Y392D01*
X1102Y392D01*
X1102Y394D01*
X1088Y394D01*
X1088Y396D01*
X1072Y396D01*
X1072Y398D01*
X1058Y398D01*
X1058Y400D01*
X266Y400D01*
G37*
D02*
G36*
X266Y380D02*
X266Y360D01*
X1000Y360D01*
X1000Y362D01*
X1002Y362D01*
X1002Y364D01*
X1004Y364D01*
X1004Y368D01*
X1008Y368D01*
X1008Y370D01*
X1010Y370D01*
X1010Y372D01*
X1012Y372D01*
X1012Y374D01*
X1016Y374D01*
X1016Y376D01*
X1020Y376D01*
X1020Y378D01*
X1026Y378D01*
X1026Y380D01*
X266Y380D01*
G37*
D02*
G36*
X48Y360D02*
X48Y358D01*
X998Y358D01*
X998Y360D01*
X48Y360D01*
G37*
D02*
G36*
X48Y360D02*
X48Y358D01*
X998Y358D01*
X998Y360D01*
X48Y360D01*
G37*
D02*
G36*
X48Y358D02*
X48Y352D01*
X50Y352D01*
X50Y342D01*
X52Y342D01*
X52Y334D01*
X54Y334D01*
X54Y328D01*
X56Y328D01*
X56Y320D01*
X58Y320D01*
X58Y314D01*
X60Y314D01*
X60Y308D01*
X62Y308D01*
X62Y302D01*
X64Y302D01*
X64Y296D01*
X66Y296D01*
X66Y292D01*
X68Y292D01*
X68Y286D01*
X1028Y286D01*
X1028Y288D01*
X1022Y288D01*
X1022Y290D01*
X1016Y290D01*
X1016Y292D01*
X1014Y292D01*
X1014Y294D01*
X1010Y294D01*
X1010Y296D01*
X1008Y296D01*
X1008Y298D01*
X1006Y298D01*
X1006Y300D01*
X1004Y300D01*
X1004Y302D01*
X1002Y302D01*
X1002Y304D01*
X1000Y304D01*
X1000Y306D01*
X998Y306D01*
X998Y310D01*
X996Y310D01*
X996Y314D01*
X994Y314D01*
X994Y320D01*
X992Y320D01*
X992Y328D01*
X990Y328D01*
X990Y338D01*
X992Y338D01*
X992Y348D01*
X994Y348D01*
X994Y352D01*
X996Y352D01*
X996Y356D01*
X998Y356D01*
X998Y358D01*
X48Y358D01*
G37*
D02*
G36*
X1086Y338D02*
X1086Y336D01*
X1456Y336D01*
X1456Y338D01*
X1086Y338D01*
G37*
D02*
G36*
X1086Y338D02*
X1086Y336D01*
X1456Y336D01*
X1456Y338D01*
X1086Y338D01*
G37*
D02*
G36*
X1086Y336D02*
X1086Y326D01*
X1084Y326D01*
X1084Y318D01*
X1082Y318D01*
X1082Y314D01*
X1080Y314D01*
X1080Y310D01*
X1078Y310D01*
X1078Y306D01*
X1076Y306D01*
X1076Y304D01*
X1074Y304D01*
X1074Y302D01*
X1072Y302D01*
X1072Y300D01*
X1070Y300D01*
X1070Y298D01*
X1068Y298D01*
X1068Y296D01*
X1066Y296D01*
X1066Y294D01*
X1062Y294D01*
X1062Y292D01*
X1060Y292D01*
X1060Y290D01*
X1054Y290D01*
X1054Y288D01*
X1048Y288D01*
X1048Y286D01*
X1438Y286D01*
X1438Y288D01*
X1440Y288D01*
X1440Y292D01*
X1442Y292D01*
X1442Y298D01*
X1444Y298D01*
X1444Y304D01*
X1446Y304D01*
X1446Y310D01*
X1448Y310D01*
X1448Y316D01*
X1450Y316D01*
X1450Y322D01*
X1452Y322D01*
X1452Y328D01*
X1454Y328D01*
X1454Y336D01*
X1086Y336D01*
G37*
D02*
G36*
X70Y286D02*
X70Y284D01*
X1438Y284D01*
X1438Y286D01*
X70Y286D01*
G37*
D02*
G36*
X70Y286D02*
X70Y284D01*
X1438Y284D01*
X1438Y286D01*
X70Y286D01*
G37*
D02*
G36*
X70Y284D02*
X70Y282D01*
X72Y282D01*
X72Y280D01*
X614Y280D01*
X614Y278D01*
X622Y278D01*
X622Y276D01*
X626Y276D01*
X626Y274D01*
X630Y274D01*
X630Y272D01*
X632Y272D01*
X632Y270D01*
X636Y270D01*
X636Y268D01*
X638Y268D01*
X638Y266D01*
X640Y266D01*
X640Y264D01*
X642Y264D01*
X642Y262D01*
X644Y262D01*
X644Y258D01*
X646Y258D01*
X646Y254D01*
X648Y254D01*
X648Y250D01*
X650Y250D01*
X650Y244D01*
X652Y244D01*
X652Y240D01*
X656Y240D01*
X656Y238D01*
X660Y238D01*
X660Y236D01*
X666Y236D01*
X666Y234D01*
X672Y234D01*
X672Y232D01*
X678Y232D01*
X678Y230D01*
X684Y230D01*
X684Y228D01*
X690Y228D01*
X690Y226D01*
X696Y226D01*
X696Y224D01*
X702Y224D01*
X702Y222D01*
X708Y222D01*
X708Y220D01*
X714Y220D01*
X714Y218D01*
X720Y218D01*
X720Y216D01*
X726Y216D01*
X726Y214D01*
X732Y214D01*
X732Y212D01*
X738Y212D01*
X738Y210D01*
X744Y210D01*
X744Y208D01*
X750Y208D01*
X750Y206D01*
X756Y206D01*
X756Y204D01*
X762Y204D01*
X762Y202D01*
X768Y202D01*
X768Y200D01*
X774Y200D01*
X774Y198D01*
X858Y198D01*
X858Y196D01*
X864Y196D01*
X864Y194D01*
X870Y194D01*
X870Y192D01*
X872Y192D01*
X872Y190D01*
X876Y190D01*
X876Y188D01*
X878Y188D01*
X878Y186D01*
X880Y186D01*
X880Y184D01*
X884Y184D01*
X884Y180D01*
X886Y180D01*
X886Y178D01*
X888Y178D01*
X888Y176D01*
X890Y176D01*
X890Y172D01*
X892Y172D01*
X892Y166D01*
X894Y166D01*
X894Y160D01*
X896Y160D01*
X896Y140D01*
X894Y140D01*
X894Y134D01*
X892Y134D01*
X892Y130D01*
X890Y130D01*
X890Y126D01*
X888Y126D01*
X888Y122D01*
X886Y122D01*
X886Y120D01*
X884Y120D01*
X884Y118D01*
X882Y118D01*
X882Y116D01*
X880Y116D01*
X880Y114D01*
X878Y114D01*
X878Y112D01*
X874Y112D01*
X874Y110D01*
X872Y110D01*
X872Y108D01*
X868Y108D01*
X868Y106D01*
X862Y106D01*
X862Y104D01*
X850Y104D01*
X850Y102D01*
X1286Y102D01*
X1286Y104D01*
X1290Y104D01*
X1290Y106D01*
X1292Y106D01*
X1292Y108D01*
X1296Y108D01*
X1296Y110D01*
X1298Y110D01*
X1298Y112D01*
X1302Y112D01*
X1302Y114D01*
X1304Y114D01*
X1304Y116D01*
X1308Y116D01*
X1308Y118D01*
X1310Y118D01*
X1310Y120D01*
X1312Y120D01*
X1312Y122D01*
X1314Y122D01*
X1314Y124D01*
X1318Y124D01*
X1318Y126D01*
X1320Y126D01*
X1320Y128D01*
X1322Y128D01*
X1322Y130D01*
X1326Y130D01*
X1326Y132D01*
X1328Y132D01*
X1328Y134D01*
X1330Y134D01*
X1330Y136D01*
X1332Y136D01*
X1332Y138D01*
X1334Y138D01*
X1334Y140D01*
X1336Y140D01*
X1336Y142D01*
X1338Y142D01*
X1338Y144D01*
X1340Y144D01*
X1340Y146D01*
X1342Y146D01*
X1342Y148D01*
X1346Y148D01*
X1346Y150D01*
X1348Y150D01*
X1348Y152D01*
X1350Y152D01*
X1350Y154D01*
X1352Y154D01*
X1352Y156D01*
X1354Y156D01*
X1354Y158D01*
X1356Y158D01*
X1356Y160D01*
X1358Y160D01*
X1358Y162D01*
X1360Y162D01*
X1360Y166D01*
X1362Y166D01*
X1362Y168D01*
X1364Y168D01*
X1364Y170D01*
X1366Y170D01*
X1366Y172D01*
X1368Y172D01*
X1368Y174D01*
X1370Y174D01*
X1370Y176D01*
X1372Y176D01*
X1372Y178D01*
X1374Y178D01*
X1374Y180D01*
X1376Y180D01*
X1376Y184D01*
X1378Y184D01*
X1378Y186D01*
X1380Y186D01*
X1380Y188D01*
X1382Y188D01*
X1382Y190D01*
X1384Y190D01*
X1384Y194D01*
X1386Y194D01*
X1386Y196D01*
X1388Y196D01*
X1388Y198D01*
X1390Y198D01*
X1390Y202D01*
X1392Y202D01*
X1392Y204D01*
X1394Y204D01*
X1394Y206D01*
X1396Y206D01*
X1396Y210D01*
X1398Y210D01*
X1398Y212D01*
X1400Y212D01*
X1400Y216D01*
X1402Y216D01*
X1402Y218D01*
X1404Y218D01*
X1404Y222D01*
X1406Y222D01*
X1406Y224D01*
X1408Y224D01*
X1408Y228D01*
X1410Y228D01*
X1410Y232D01*
X1412Y232D01*
X1412Y234D01*
X1414Y234D01*
X1414Y238D01*
X1416Y238D01*
X1416Y242D01*
X1418Y242D01*
X1418Y246D01*
X1420Y246D01*
X1420Y248D01*
X1422Y248D01*
X1422Y252D01*
X1424Y252D01*
X1424Y256D01*
X1426Y256D01*
X1426Y260D01*
X1428Y260D01*
X1428Y264D01*
X1430Y264D01*
X1430Y268D01*
X1432Y268D01*
X1432Y274D01*
X1434Y274D01*
X1434Y278D01*
X1436Y278D01*
X1436Y282D01*
X1438Y282D01*
X1438Y284D01*
X70Y284D01*
G37*
D02*
G36*
X72Y280D02*
X72Y276D01*
X74Y276D01*
X74Y272D01*
X76Y272D01*
X76Y268D01*
X78Y268D01*
X78Y264D01*
X80Y264D01*
X80Y260D01*
X82Y260D01*
X82Y256D01*
X84Y256D01*
X84Y252D01*
X86Y252D01*
X86Y248D01*
X88Y248D01*
X88Y244D01*
X90Y244D01*
X90Y240D01*
X92Y240D01*
X92Y238D01*
X94Y238D01*
X94Y234D01*
X96Y234D01*
X96Y230D01*
X98Y230D01*
X98Y228D01*
X100Y228D01*
X100Y224D01*
X102Y224D01*
X102Y220D01*
X104Y220D01*
X104Y218D01*
X106Y218D01*
X106Y214D01*
X108Y214D01*
X108Y212D01*
X110Y212D01*
X110Y208D01*
X112Y208D01*
X112Y206D01*
X114Y206D01*
X114Y204D01*
X116Y204D01*
X116Y200D01*
X118Y200D01*
X118Y198D01*
X120Y198D01*
X120Y196D01*
X122Y196D01*
X122Y192D01*
X124Y192D01*
X124Y190D01*
X126Y190D01*
X126Y188D01*
X128Y188D01*
X128Y186D01*
X592Y186D01*
X592Y188D01*
X586Y188D01*
X586Y190D01*
X582Y190D01*
X582Y192D01*
X580Y192D01*
X580Y194D01*
X576Y194D01*
X576Y196D01*
X574Y196D01*
X574Y198D01*
X572Y198D01*
X572Y200D01*
X570Y200D01*
X570Y202D01*
X568Y202D01*
X568Y204D01*
X566Y204D01*
X566Y208D01*
X564Y208D01*
X564Y212D01*
X562Y212D01*
X562Y216D01*
X560Y216D01*
X560Y222D01*
X558Y222D01*
X558Y242D01*
X560Y242D01*
X560Y250D01*
X562Y250D01*
X562Y254D01*
X564Y254D01*
X564Y258D01*
X566Y258D01*
X566Y260D01*
X568Y260D01*
X568Y262D01*
X570Y262D01*
X570Y266D01*
X572Y266D01*
X572Y268D01*
X576Y268D01*
X576Y270D01*
X578Y270D01*
X578Y272D01*
X580Y272D01*
X580Y274D01*
X584Y274D01*
X584Y276D01*
X588Y276D01*
X588Y278D01*
X596Y278D01*
X596Y280D01*
X72Y280D01*
G37*
D02*
G36*
X780Y198D02*
X780Y196D01*
X786Y196D01*
X786Y194D01*
X792Y194D01*
X792Y192D01*
X798Y192D01*
X798Y190D01*
X824Y190D01*
X824Y192D01*
X828Y192D01*
X828Y194D01*
X832Y194D01*
X832Y196D01*
X840Y196D01*
X840Y198D01*
X780Y198D01*
G37*
D02*
G36*
X632Y194D02*
X632Y192D01*
X628Y192D01*
X628Y190D01*
X624Y190D01*
X624Y188D01*
X618Y188D01*
X618Y186D01*
X672Y186D01*
X672Y188D01*
X666Y188D01*
X666Y190D01*
X660Y190D01*
X660Y192D01*
X654Y192D01*
X654Y194D01*
X632Y194D01*
G37*
D02*
G36*
X130Y186D02*
X130Y184D01*
X678Y184D01*
X678Y186D01*
X130Y186D01*
G37*
D02*
G36*
X130Y186D02*
X130Y184D01*
X678Y184D01*
X678Y186D01*
X130Y186D01*
G37*
D02*
G36*
X130Y184D02*
X130Y182D01*
X132Y182D01*
X132Y180D01*
X134Y180D01*
X134Y178D01*
X136Y178D01*
X136Y176D01*
X138Y176D01*
X138Y174D01*
X140Y174D01*
X140Y172D01*
X142Y172D01*
X142Y168D01*
X144Y168D01*
X144Y166D01*
X146Y166D01*
X146Y164D01*
X148Y164D01*
X148Y162D01*
X150Y162D01*
X150Y160D01*
X152Y160D01*
X152Y158D01*
X154Y158D01*
X154Y156D01*
X156Y156D01*
X156Y154D01*
X158Y154D01*
X158Y152D01*
X160Y152D01*
X160Y150D01*
X162Y150D01*
X162Y148D01*
X164Y148D01*
X164Y146D01*
X166Y146D01*
X166Y144D01*
X168Y144D01*
X168Y142D01*
X172Y142D01*
X172Y140D01*
X174Y140D01*
X174Y138D01*
X176Y138D01*
X176Y136D01*
X178Y136D01*
X178Y134D01*
X180Y134D01*
X180Y132D01*
X182Y132D01*
X182Y130D01*
X186Y130D01*
X186Y128D01*
X188Y128D01*
X188Y126D01*
X190Y126D01*
X190Y124D01*
X192Y124D01*
X192Y122D01*
X196Y122D01*
X196Y120D01*
X198Y120D01*
X198Y118D01*
X200Y118D01*
X200Y116D01*
X204Y116D01*
X204Y114D01*
X206Y114D01*
X206Y112D01*
X208Y112D01*
X208Y110D01*
X212Y110D01*
X212Y108D01*
X214Y108D01*
X214Y106D01*
X218Y106D01*
X218Y104D01*
X220Y104D01*
X220Y102D01*
X848Y102D01*
X848Y104D01*
X836Y104D01*
X836Y106D01*
X830Y106D01*
X830Y108D01*
X826Y108D01*
X826Y110D01*
X822Y110D01*
X822Y112D01*
X820Y112D01*
X820Y114D01*
X818Y114D01*
X818Y116D01*
X814Y116D01*
X814Y120D01*
X812Y120D01*
X812Y122D01*
X810Y122D01*
X810Y124D01*
X808Y124D01*
X808Y128D01*
X806Y128D01*
X806Y132D01*
X804Y132D01*
X804Y138D01*
X802Y138D01*
X802Y144D01*
X796Y144D01*
X796Y146D01*
X790Y146D01*
X790Y148D01*
X784Y148D01*
X784Y150D01*
X778Y150D01*
X778Y152D01*
X772Y152D01*
X772Y154D01*
X766Y154D01*
X766Y156D01*
X760Y156D01*
X760Y158D01*
X754Y158D01*
X754Y160D01*
X748Y160D01*
X748Y162D01*
X742Y162D01*
X742Y164D01*
X736Y164D01*
X736Y166D01*
X730Y166D01*
X730Y168D01*
X724Y168D01*
X724Y170D01*
X718Y170D01*
X718Y172D01*
X712Y172D01*
X712Y174D01*
X706Y174D01*
X706Y176D01*
X702Y176D01*
X702Y178D01*
X696Y178D01*
X696Y180D01*
X690Y180D01*
X690Y182D01*
X684Y182D01*
X684Y184D01*
X130Y184D01*
G37*
D02*
G36*
X224Y102D02*
X224Y100D01*
X1284Y100D01*
X1284Y102D01*
X224Y102D01*
G37*
D02*
G36*
X224Y102D02*
X224Y100D01*
X1284Y100D01*
X1284Y102D01*
X224Y102D01*
G37*
D02*
G36*
X228Y100D02*
X228Y98D01*
X230Y98D01*
X230Y96D01*
X234Y96D01*
X234Y94D01*
X238Y94D01*
X238Y92D01*
X240Y92D01*
X240Y90D01*
X244Y90D01*
X244Y88D01*
X248Y88D01*
X248Y86D01*
X252Y86D01*
X252Y84D01*
X256Y84D01*
X256Y82D01*
X260Y82D01*
X260Y80D01*
X264Y80D01*
X264Y78D01*
X268Y78D01*
X268Y76D01*
X272Y76D01*
X272Y74D01*
X276Y74D01*
X276Y72D01*
X282Y72D01*
X282Y70D01*
X286Y70D01*
X286Y68D01*
X292Y68D01*
X292Y66D01*
X296Y66D01*
X296Y64D01*
X302Y64D01*
X302Y62D01*
X308Y62D01*
X308Y60D01*
X314Y60D01*
X314Y58D01*
X320Y58D01*
X320Y56D01*
X328Y56D01*
X328Y54D01*
X334Y54D01*
X334Y52D01*
X342Y52D01*
X342Y50D01*
X352Y50D01*
X352Y48D01*
X362Y48D01*
X362Y46D01*
X372Y46D01*
X372Y44D01*
X388Y44D01*
X388Y42D01*
X1120Y42D01*
X1120Y44D01*
X1134Y44D01*
X1134Y46D01*
X1146Y46D01*
X1146Y48D01*
X1156Y48D01*
X1156Y50D01*
X1164Y50D01*
X1164Y52D01*
X1174Y52D01*
X1174Y54D01*
X1180Y54D01*
X1180Y56D01*
X1188Y56D01*
X1188Y58D01*
X1194Y58D01*
X1194Y60D01*
X1200Y60D01*
X1200Y62D01*
X1206Y62D01*
X1206Y64D01*
X1210Y64D01*
X1210Y66D01*
X1216Y66D01*
X1216Y68D01*
X1222Y68D01*
X1222Y70D01*
X1226Y70D01*
X1226Y72D01*
X1230Y72D01*
X1230Y74D01*
X1236Y74D01*
X1236Y76D01*
X1240Y76D01*
X1240Y78D01*
X1244Y78D01*
X1244Y80D01*
X1248Y80D01*
X1248Y82D01*
X1252Y82D01*
X1252Y84D01*
X1256Y84D01*
X1256Y86D01*
X1260Y86D01*
X1260Y88D01*
X1264Y88D01*
X1264Y90D01*
X1266Y90D01*
X1266Y92D01*
X1270Y92D01*
X1270Y94D01*
X1274Y94D01*
X1274Y96D01*
X1278Y96D01*
X1278Y98D01*
X1280Y98D01*
X1280Y100D01*
X228Y100D01*
G37*
D02*
G04 End of Copper0*
M02*