G04 MADE WITH FRITZING*
G04 WWW.FRITZING.ORG*
G04 DOUBLE SIDED*
G04 HOLES PLATED*
G04 CONTOUR ON CENTER OF CONTOUR VECTOR*
%ASAXBY*%
%FSLAX23Y23*%
%MOIN*%
%OFA0B0*%
%SFA1.0B1.0*%
%ADD10C,0.008*%
%LNCONTOUR*%
G90*
G70*
G54D10*
X374Y1036D02*
X375Y1036D01*
X376Y1036D01*
X377Y1036D01*
X378Y1036D01*
X379Y1036D01*
X380Y1036D01*
X381Y1036D01*
X382Y1036D01*
X383Y1036D01*
X384Y1036D01*
X385Y1036D01*
X386Y1036D01*
X387Y1036D01*
X388Y1036D01*
X389Y1036D01*
X390Y1036D01*
X391Y1036D01*
X392Y1036D01*
X393Y1036D01*
X394Y1036D01*
X395Y1036D01*
X396Y1036D01*
X397Y1036D01*
X398Y1036D01*
X399Y1036D01*
X400Y1036D01*
X401Y1036D01*
X402Y1036D01*
X403Y1036D01*
X404Y1036D01*
X405Y1036D01*
X406Y1036D01*
X407Y1036D01*
X408Y1036D01*
X409Y1036D01*
X410Y1036D01*
X411Y1036D01*
X412Y1036D01*
X413Y1036D01*
X414Y1036D01*
X415Y1036D01*
X416Y1036D01*
X417Y1036D01*
X418Y1036D01*
X419Y1036D01*
X420Y1036D01*
X421Y1036D01*
X422Y1036D01*
X423Y1036D01*
X424Y1036D01*
X425Y1036D01*
X426Y1036D01*
X427Y1036D01*
X428Y1036D01*
X429Y1036D01*
X430Y1036D01*
X431Y1036D01*
X432Y1036D01*
X433Y1036D01*
X434Y1036D01*
X435Y1036D01*
X436Y1036D01*
X437Y1036D01*
X438Y1036D01*
X439Y1036D01*
X440Y1036D01*
X441Y1036D01*
X442Y1036D01*
X443Y1036D01*
X444Y1036D01*
X445Y1036D01*
X446Y1036D01*
X447Y1036D01*
X448Y1036D01*
X449Y1036D01*
X450Y1036D01*
X451Y1036D01*
X452Y1036D01*
X453Y1036D01*
X454Y1036D01*
X455Y1036D01*
X456Y1036D01*
X457Y1036D01*
X458Y1036D01*
X459Y1036D01*
X460Y1036D01*
X461Y1036D01*
X462Y1036D01*
X463Y1036D01*
X464Y1036D01*
X465Y1036D01*
X466Y1036D01*
X467Y1036D01*
X468Y1036D01*
X469Y1036D01*
X470Y1036D01*
X471Y1036D01*
X472Y1036D01*
X473Y1036D01*
X474Y1036D01*
X475Y1036D01*
X476Y1036D01*
X477Y1036D01*
X478Y1036D01*
X479Y1036D01*
X480Y1036D01*
X481Y1036D01*
X482Y1036D01*
X483Y1036D01*
X484Y1036D01*
X485Y1036D01*
X486Y1036D01*
X487Y1036D01*
X488Y1036D01*
X489Y1036D01*
X490Y1036D01*
X491Y1036D01*
X492Y1036D01*
X493Y1036D01*
X494Y1036D01*
X495Y1036D01*
X496Y1036D01*
X497Y1036D01*
X498Y1036D01*
X499Y1036D01*
X500Y1036D01*
X501Y1036D01*
X502Y1036D01*
X503Y1036D01*
X504Y1036D01*
X505Y1036D01*
X506Y1036D01*
X507Y1036D01*
X508Y1036D01*
X509Y1036D01*
X510Y1036D01*
X511Y1036D01*
X512Y1036D01*
X513Y1036D01*
X514Y1036D01*
X515Y1036D01*
X516Y1036D01*
X517Y1036D01*
X518Y1036D01*
X519Y1036D01*
X520Y1036D01*
X521Y1036D01*
X522Y1036D01*
X523Y1036D01*
X524Y1036D01*
X525Y1036D01*
X526Y1036D01*
X527Y1036D01*
X528Y1036D01*
X529Y1036D01*
X530Y1036D01*
X531Y1036D01*
X532Y1036D01*
X533Y1036D01*
X534Y1036D01*
X535Y1036D01*
X536Y1036D01*
X537Y1036D01*
X538Y1036D01*
X539Y1036D01*
X540Y1036D01*
X541Y1036D01*
X542Y1036D01*
X543Y1036D01*
X544Y1036D01*
X545Y1036D01*
X546Y1036D01*
X547Y1036D01*
X548Y1036D01*
X549Y1036D01*
X550Y1036D01*
X551Y1036D01*
X552Y1036D01*
X553Y1036D01*
X554Y1036D01*
X555Y1036D01*
X556Y1036D01*
X557Y1036D01*
X558Y1036D01*
X559Y1036D01*
X560Y1036D01*
X561Y1036D01*
X562Y1036D01*
X563Y1036D01*
X564Y1036D01*
X565Y1036D01*
X566Y1036D01*
X567Y1036D01*
X568Y1036D01*
X569Y1036D01*
X570Y1036D01*
X571Y1036D01*
X572Y1036D01*
X573Y1036D01*
X574Y1036D01*
X575Y1036D01*
X576Y1036D01*
X577Y1036D01*
X578Y1036D01*
X579Y1036D01*
X580Y1036D01*
X581Y1036D01*
X582Y1036D01*
X583Y1036D01*
X584Y1036D01*
X585Y1036D01*
X586Y1036D01*
X587Y1036D01*
X588Y1036D01*
X589Y1036D01*
X590Y1036D01*
X591Y1036D01*
X592Y1036D01*
X593Y1036D01*
X594Y1036D01*
X595Y1036D01*
X596Y1036D01*
X597Y1036D01*
X598Y1036D01*
X599Y1036D01*
X600Y1036D01*
X601Y1036D01*
X602Y1036D01*
X603Y1036D01*
X604Y1036D01*
X605Y1036D01*
X606Y1036D01*
X607Y1036D01*
X608Y1036D01*
X609Y1036D01*
X610Y1036D01*
X611Y1036D01*
X612Y1036D01*
X613Y1036D01*
X614Y1036D01*
X615Y1036D01*
X616Y1036D01*
X617Y1036D01*
X618Y1036D01*
X619Y1036D01*
X620Y1036D01*
X621Y1036D01*
X622Y1036D01*
X623Y1036D01*
X624Y1036D01*
X625Y1036D01*
X626Y1036D01*
X627Y1036D01*
X628Y1036D01*
X629Y1036D01*
X630Y1036D01*
X631Y1036D01*
X632Y1036D01*
X633Y1036D01*
X634Y1036D01*
X635Y1036D01*
X636Y1036D01*
X637Y1036D01*
X638Y1036D01*
X639Y1036D01*
X640Y1036D01*
X641Y1036D01*
X642Y1036D01*
X643Y1036D01*
X644Y1036D01*
X645Y1036D01*
X646Y1036D01*
X647Y1036D01*
X648Y1036D01*
X649Y1036D01*
X650Y1036D01*
X651Y1036D01*
X652Y1036D01*
X653Y1036D01*
X654Y1036D01*
X655Y1036D01*
X656Y1036D01*
X657Y1036D01*
X658Y1036D01*
X659Y1036D01*
X660Y1036D01*
X661Y1036D01*
X662Y1036D01*
X663Y1036D01*
X664Y1036D01*
X665Y1036D01*
X666Y1036D01*
X667Y1036D01*
X668Y1036D01*
X669Y1036D01*
X670Y1036D01*
X671Y1036D01*
X672Y1036D01*
X673Y1036D01*
X674Y1036D01*
X675Y1036D01*
X676Y1036D01*
X677Y1036D01*
X678Y1036D01*
X679Y1036D01*
X680Y1036D01*
X681Y1036D01*
X682Y1036D01*
X683Y1036D01*
X684Y1036D01*
X685Y1036D01*
X686Y1036D01*
X687Y1036D01*
X688Y1036D01*
X689Y1036D01*
X690Y1036D01*
X691Y1036D01*
X692Y1036D01*
X693Y1036D01*
X694Y1036D01*
X695Y1036D01*
X696Y1036D01*
X697Y1036D01*
X698Y1036D01*
X699Y1036D01*
X700Y1036D01*
X701Y1036D01*
X702Y1036D01*
X703Y1036D01*
X704Y1036D01*
X705Y1036D01*
X706Y1036D01*
X707Y1036D01*
X708Y1036D01*
X709Y1036D01*
X710Y1036D01*
X711Y1036D01*
X712Y1036D01*
X713Y1036D01*
X714Y1036D01*
X715Y1036D01*
X716Y1036D01*
X717Y1036D01*
X718Y1036D01*
X719Y1036D01*
X720Y1036D01*
X721Y1036D01*
X722Y1036D01*
X723Y1036D01*
X724Y1036D01*
X725Y1036D01*
X726Y1036D01*
X727Y1036D01*
X728Y1036D01*
X729Y1036D01*
X730Y1036D01*
X731Y1036D01*
X732Y1036D01*
X733Y1036D01*
X734Y1036D01*
X735Y1036D01*
X736Y1036D01*
X737Y1036D01*
X738Y1036D01*
X739Y1036D01*
X740Y1036D01*
X741Y1036D01*
X742Y1036D01*
X743Y1036D01*
X744Y1036D01*
X745Y1036D01*
X746Y1036D01*
X747Y1036D01*
X748Y1036D01*
X749Y1036D01*
X750Y1036D01*
X751Y1036D01*
X752Y1036D01*
X753Y1036D01*
X754Y1036D01*
X755Y1036D01*
X756Y1036D01*
X757Y1036D01*
X758Y1036D01*
X759Y1036D01*
X760Y1036D01*
X761Y1036D01*
X762Y1036D01*
X763Y1036D01*
X764Y1036D01*
X765Y1036D01*
X766Y1036D01*
X767Y1036D01*
X768Y1036D01*
X769Y1036D01*
X770Y1036D01*
X771Y1036D01*
X772Y1036D01*
X773Y1036D01*
X774Y1036D01*
X775Y1036D01*
X776Y1036D01*
X777Y1036D01*
X778Y1036D01*
X779Y1036D01*
X780Y1036D01*
X781Y1036D01*
X782Y1036D01*
X783Y1036D01*
X784Y1036D01*
X785Y1036D01*
X786Y1036D01*
X787Y1036D01*
X788Y1036D01*
X789Y1036D01*
X790Y1036D01*
X791Y1036D01*
X792Y1036D01*
X793Y1036D01*
X794Y1036D01*
X795Y1036D01*
X796Y1036D01*
X797Y1036D01*
X798Y1036D01*
X799Y1036D01*
X800Y1036D01*
X801Y1036D01*
X802Y1036D01*
X803Y1036D01*
X804Y1036D01*
X805Y1036D01*
X806Y1036D01*
X807Y1036D01*
X808Y1036D01*
X809Y1036D01*
X810Y1036D01*
X811Y1036D01*
X812Y1036D01*
X813Y1036D01*
X814Y1036D01*
X815Y1036D01*
X816Y1036D01*
X817Y1036D01*
X818Y1036D01*
X819Y1036D01*
X820Y1036D01*
X821Y1036D01*
X822Y1036D01*
X823Y1036D01*
X824Y1036D01*
X825Y1036D01*
X826Y1036D01*
X827Y1036D01*
X828Y1036D01*
X829Y1036D01*
X830Y1036D01*
X831Y1036D01*
X832Y1036D01*
X833Y1036D01*
X834Y1036D01*
X835Y1036D01*
X836Y1036D01*
X837Y1036D01*
X838Y1036D01*
X839Y1036D01*
X840Y1036D01*
X841Y1036D01*
X842Y1036D01*
X843Y1036D01*
X844Y1036D01*
X845Y1036D01*
X846Y1036D01*
X847Y1036D01*
X848Y1036D01*
X849Y1036D01*
X850Y1036D01*
X851Y1036D01*
X852Y1036D01*
X853Y1036D01*
X854Y1036D01*
X855Y1036D01*
X856Y1036D01*
X857Y1036D01*
X858Y1036D01*
X859Y1036D01*
X860Y1036D01*
X861Y1036D01*
X862Y1036D01*
X863Y1036D01*
X864Y1036D01*
X865Y1036D01*
X866Y1036D01*
X867Y1036D01*
X868Y1036D01*
X869Y1036D01*
X870Y1036D01*
X871Y1036D01*
X872Y1036D01*
X873Y1036D01*
X874Y1036D01*
X875Y1036D01*
X876Y1036D01*
X877Y1036D01*
X878Y1036D01*
X879Y1036D01*
X880Y1036D01*
X881Y1036D01*
X882Y1036D01*
X883Y1036D01*
X884Y1036D01*
X885Y1036D01*
X886Y1036D01*
X887Y1036D01*
X888Y1036D01*
X889Y1036D01*
X890Y1036D01*
X891Y1036D01*
X892Y1036D01*
X893Y1036D01*
X894Y1036D01*
X895Y1036D01*
X896Y1036D01*
X897Y1036D01*
X898Y1036D01*
X899Y1036D01*
X900Y1036D01*
X901Y1036D01*
X902Y1036D01*
X903Y1036D01*
X904Y1036D01*
X905Y1036D01*
X906Y1036D01*
X907Y1036D01*
X908Y1036D01*
X909Y1036D01*
X910Y1036D01*
X911Y1036D01*
X912Y1036D01*
X913Y1036D01*
X914Y1036D01*
X915Y1036D01*
X916Y1036D01*
X917Y1036D01*
X918Y1036D01*
X919Y1036D01*
X920Y1036D01*
X921Y1036D01*
X922Y1036D01*
X923Y1036D01*
X924Y1036D01*
X925Y1036D01*
X926Y1036D01*
X927Y1036D01*
X928Y1036D01*
X929Y1036D01*
X930Y1036D01*
X931Y1036D01*
X932Y1036D01*
X933Y1036D01*
X934Y1036D01*
X935Y1036D01*
X936Y1036D01*
X937Y1036D01*
X938Y1036D01*
X939Y1036D01*
X940Y1036D01*
X941Y1036D01*
X942Y1036D01*
X943Y1036D01*
X944Y1036D01*
X945Y1036D01*
X946Y1036D01*
X947Y1036D01*
X948Y1036D01*
X949Y1036D01*
X950Y1036D01*
X951Y1036D01*
X952Y1036D01*
X953Y1036D01*
X954Y1036D01*
X955Y1036D01*
X956Y1036D01*
X957Y1036D01*
X958Y1036D01*
X959Y1036D01*
X960Y1036D01*
X961Y1036D01*
X962Y1036D01*
X963Y1036D01*
X964Y1036D01*
X965Y1036D01*
X966Y1036D01*
X967Y1036D01*
X968Y1036D01*
X969Y1036D01*
X970Y1036D01*
X971Y1036D01*
X972Y1036D01*
X973Y1036D01*
X974Y1036D01*
X975Y1036D01*
X976Y1036D01*
X977Y1036D01*
X978Y1036D01*
X979Y1036D01*
X980Y1036D01*
X981Y1036D01*
X982Y1036D01*
X983Y1036D01*
X984Y1036D01*
X985Y1036D01*
X986Y1036D01*
X987Y1036D01*
X988Y1036D01*
X989Y1036D01*
X990Y1036D01*
X991Y1036D01*
X992Y1036D01*
X993Y1036D01*
X994Y1036D01*
X995Y1036D01*
X996Y1036D01*
X997Y1036D01*
X998Y1036D01*
X999Y1036D01*
X1000Y1036D01*
X1001Y1036D01*
X1002Y1036D01*
X1003Y1036D01*
X1004Y1036D01*
X1005Y1036D01*
X1006Y1036D01*
X1007Y1036D01*
X1008Y1036D01*
X1009Y1036D01*
X1010Y1036D01*
X1011Y1036D01*
X1012Y1036D01*
X1013Y1036D01*
X1014Y1036D01*
X1015Y1036D01*
X1016Y1036D01*
X1017Y1036D01*
X1018Y1036D01*
X1019Y1036D01*
X1020Y1036D01*
X1021Y1036D01*
X1022Y1036D01*
X1023Y1036D01*
X1024Y1036D01*
X1025Y1036D01*
X1026Y1036D01*
X1027Y1036D01*
X1028Y1036D01*
X1029Y1036D01*
X1030Y1036D01*
X1031Y1036D01*
X1032Y1036D01*
X1033Y1036D01*
X1034Y1036D01*
X1035Y1036D01*
X1036Y1036D01*
X1037Y1036D01*
X1038Y1036D01*
X1039Y1036D01*
X1040Y1036D01*
X1041Y1036D01*
X1042Y1036D01*
X1043Y1036D01*
X1044Y1036D01*
X1045Y1036D01*
X1046Y1036D01*
X1047Y1036D01*
X1048Y1036D01*
X1049Y1036D01*
X1050Y1036D01*
X1051Y1036D01*
X1052Y1036D01*
X1053Y1036D01*
X1054Y1036D01*
X1055Y1036D01*
X1056Y1036D01*
X1057Y1036D01*
X1058Y1036D01*
X1059Y1036D01*
X1060Y1036D01*
X1061Y1036D01*
X1062Y1036D01*
X1063Y1036D01*
X1064Y1036D01*
X1065Y1036D01*
X1066Y1036D01*
X1067Y1036D01*
X1068Y1036D01*
X1069Y1036D01*
X1070Y1036D01*
X1071Y1036D01*
X1072Y1036D01*
X1073Y1036D01*
X1074Y1036D01*
X1075Y1036D01*
X1076Y1036D01*
X1077Y1036D01*
X1078Y1036D01*
X1079Y1036D01*
X1080Y1036D01*
X1081Y1036D01*
X1082Y1036D01*
X1083Y1036D01*
X1084Y1036D01*
X1085Y1036D01*
X1086Y1036D01*
X1087Y1036D01*
X1088Y1036D01*
X1089Y1036D01*
X1090Y1036D01*
X1091Y1036D01*
X1092Y1036D01*
X1093Y1036D01*
X1094Y1036D01*
X1095Y1036D01*
X1096Y1036D01*
X1097Y1036D01*
X1098Y1036D01*
X1099Y1036D01*
X1100Y1036D01*
X1101Y1036D01*
X1102Y1036D01*
X1103Y1036D01*
X1104Y1036D01*
X1105Y1036D01*
X1106Y1036D01*
X1107Y1036D01*
X1108Y1036D01*
X1109Y1036D01*
X1110Y1036D01*
X1111Y1036D01*
X1112Y1036D01*
X1113Y1036D01*
X1114Y1036D01*
X1115Y1036D01*
X1116Y1036D01*
X1117Y1036D01*
X1118Y1036D01*
X1119Y1036D01*
X1120Y1036D01*
X1121Y1036D01*
X1122Y1036D01*
X1123Y1036D01*
X1124Y1036D01*
X1125Y1036D01*
X1126Y1036D01*
X1127Y1036D01*
X1128Y1036D01*
X1129Y1036D01*
X1130Y1036D01*
X1131Y1036D01*
X1132Y1036D01*
X1133Y1035D01*
X1134Y1035D01*
X1135Y1035D01*
X1136Y1035D01*
X1137Y1035D01*
X1138Y1035D01*
X1139Y1035D01*
X1140Y1035D01*
X1141Y1035D01*
X1142Y1035D01*
X1143Y1035D01*
X1144Y1035D01*
X1145Y1035D01*
X1146Y1035D01*
X1147Y1034D01*
X1148Y1034D01*
X1149Y1034D01*
X1150Y1034D01*
X1151Y1034D01*
X1152Y1034D01*
X1153Y1034D01*
X1154Y1034D01*
X1155Y1034D01*
X1156Y1034D01*
X1157Y1033D01*
X1158Y1033D01*
X1159Y1033D01*
X1160Y1033D01*
X1161Y1033D01*
X1162Y1033D01*
X1163Y1033D01*
X1164Y1033D01*
X1165Y1033D01*
X1166Y1032D01*
X1167Y1032D01*
X1168Y1032D01*
X1169Y1032D01*
X1170Y1032D01*
X1171Y1032D01*
X1172Y1032D01*
X1173Y1031D01*
X1174Y1031D01*
X1175Y1031D01*
X1176Y1031D01*
X1177Y1031D01*
X1178Y1031D01*
X1179Y1030D01*
X1180Y1030D01*
X1181Y1030D01*
X1182Y1030D01*
X1183Y1030D01*
X1184Y1030D01*
X1185Y1029D01*
X1186Y1029D01*
X1187Y1029D01*
X1188Y1029D01*
X1189Y1029D01*
X1190Y1028D01*
X1191Y1028D01*
X1192Y1028D01*
X1193Y1028D01*
X1194Y1028D01*
X1195Y1027D01*
X1196Y1027D01*
X1197Y1027D01*
X1198Y1027D01*
X1199Y1026D01*
X1200Y1026D01*
X1201Y1026D01*
X1202Y1026D01*
X1203Y1026D01*
X1204Y1025D01*
X1205Y1025D01*
X1206Y1025D01*
X1207Y1025D01*
X1208Y1024D01*
X1209Y1024D01*
X1210Y1024D01*
X1211Y1024D01*
X1212Y1023D01*
X1213Y1023D01*
X1214Y1023D01*
X1215Y1022D01*
X1216Y1022D01*
X1217Y1022D01*
X1218Y1022D01*
X1219Y1021D01*
X1220Y1021D01*
X1221Y1021D01*
X1222Y1021D01*
X1223Y1020D01*
X1224Y1020D01*
X1225Y1020D01*
X1226Y1019D01*
X1227Y1019D01*
X1228Y1019D01*
X1229Y1018D01*
X1230Y1018D01*
X1231Y1018D01*
X1232Y1018D01*
X1233Y1017D01*
X1234Y1017D01*
X1235Y1017D01*
X1236Y1016D01*
X1237Y1016D01*
X1238Y1016D01*
X1239Y1015D01*
X1240Y1015D01*
X1241Y1015D01*
X1242Y1014D01*
X1243Y1014D01*
X1244Y1013D01*
X1245Y1013D01*
X1246Y1013D01*
X1247Y1012D01*
X1248Y1012D01*
X1249Y1012D01*
X1250Y1011D01*
X1251Y1011D01*
X1252Y1010D01*
X1253Y1010D01*
X1254Y1010D01*
X1255Y1009D01*
X1256Y1009D01*
X1257Y1009D01*
X1258Y1008D01*
X1259Y1008D01*
X1260Y1007D01*
X1261Y1007D01*
X1262Y1007D01*
X1263Y1006D01*
X1264Y1006D01*
X1265Y1005D01*
X1266Y1005D01*
X1267Y1004D01*
X1268Y1004D01*
X1269Y1004D01*
X1270Y1003D01*
X1271Y1003D01*
X1272Y1002D01*
X1273Y1002D01*
X1274Y1001D01*
X1275Y1001D01*
X1276Y1000D01*
X1277Y1000D01*
X1278Y1000D01*
X1279Y999D01*
X1280Y999D01*
X1281Y998D01*
X1282Y998D01*
X1283Y997D01*
X1284Y997D01*
X1285Y996D01*
X1286Y996D01*
X1287Y995D01*
X1288Y995D01*
X1289Y994D01*
X1290Y994D01*
X1291Y993D01*
X1292Y993D01*
X1293Y992D01*
X1294Y992D01*
X1295Y991D01*
X1296Y991D01*
X1297Y990D01*
X1298Y990D01*
X1299Y989D01*
X1300Y989D01*
X1301Y988D01*
X1302Y987D01*
X1303Y987D01*
X1304Y986D01*
X1305Y986D01*
X1306Y985D01*
X1307Y985D01*
X1308Y984D01*
X1309Y983D01*
X1310Y983D01*
X1311Y982D01*
X1312Y982D01*
X1313Y981D01*
X1314Y981D01*
X1315Y980D01*
X1316Y979D01*
X1317Y979D01*
X1318Y978D01*
X1319Y978D01*
X1320Y977D01*
X1321Y976D01*
X1322Y976D01*
X1323Y975D01*
X1324Y974D01*
X1325Y974D01*
X1326Y973D01*
X1327Y972D01*
X1328Y972D01*
X1329Y971D01*
X1330Y970D01*
X1331Y970D01*
X1332Y969D01*
X1333Y969D01*
X1334Y968D01*
X1335Y967D01*
X1336Y966D01*
X1337Y966D01*
X1338Y965D01*
X1339Y964D01*
X1340Y964D01*
X1341Y963D01*
X1342Y962D01*
X1343Y961D01*
X1344Y961D01*
X1345Y960D01*
X1346Y959D01*
X1347Y959D01*
X1348Y958D01*
X1349Y957D01*
X1350Y956D01*
X1351Y956D01*
X1352Y955D01*
X1353Y954D01*
X1354Y953D01*
X1355Y952D01*
X1356Y952D01*
X1357Y951D01*
X1358Y950D01*
X1359Y949D01*
X1360Y948D01*
X1361Y948D01*
X1362Y947D01*
X1363Y946D01*
X1364Y945D01*
X1365Y944D01*
X1366Y944D01*
X1367Y943D01*
X1368Y942D01*
X1369Y941D01*
X1370Y940D01*
X1371Y939D01*
X1372Y938D01*
X1373Y937D01*
X1374Y937D01*
X1375Y936D01*
X1376Y935D01*
X1377Y934D01*
X1378Y933D01*
X1379Y932D01*
X1380Y931D01*
X1381Y930D01*
X1382Y929D01*
X1383Y928D01*
X1384Y927D01*
X1385Y926D01*
X1386Y925D01*
X1387Y925D01*
X1388Y924D01*
X1389Y923D01*
X1390Y922D01*
X1391Y921D01*
X1392Y920D01*
X1393Y919D01*
X1394Y918D01*
X1394Y917D01*
X1395Y916D01*
X1396Y915D01*
X1397Y914D01*
X1398Y913D01*
X1399Y912D01*
X1400Y911D01*
X1401Y910D01*
X1402Y909D01*
X1403Y908D01*
X1404Y907D01*
X1405Y906D01*
X1406Y905D01*
X1407Y904D01*
X1407Y903D01*
X1408Y902D01*
X1409Y901D01*
X1410Y900D01*
X1411Y899D01*
X1412Y898D01*
X1413Y897D01*
X1414Y896D01*
X1414Y895D01*
X1415Y894D01*
X1416Y893D01*
X1417Y892D01*
X1418Y891D01*
X1418Y890D01*
X1419Y889D01*
X1420Y888D01*
X1421Y887D01*
X1422Y886D01*
X1422Y885D01*
X1423Y884D01*
X1424Y883D01*
X1425Y882D01*
X1425Y881D01*
X1426Y880D01*
X1427Y879D01*
X1428Y878D01*
X1429Y877D01*
X1429Y876D01*
X1430Y875D01*
X1431Y874D01*
X1431Y873D01*
X1432Y872D01*
X1433Y871D01*
X1434Y870D01*
X1434Y869D01*
X1435Y868D01*
X1436Y867D01*
X1436Y866D01*
X1437Y865D01*
X1438Y864D01*
X1438Y863D01*
X1439Y862D01*
X1440Y861D01*
X1440Y860D01*
X1441Y859D01*
X1442Y858D01*
X1442Y857D01*
X1443Y856D01*
X1444Y855D01*
X1444Y854D01*
X1445Y853D01*
X1446Y852D01*
X1446Y851D01*
X1447Y850D01*
X1447Y849D01*
X1448Y848D01*
X1449Y847D01*
X1449Y846D01*
X1450Y845D01*
X1450Y844D01*
X1451Y843D01*
X1452Y842D01*
X1452Y841D01*
X1453Y840D01*
X1453Y839D01*
X1454Y838D01*
X1454Y837D01*
X1455Y836D01*
X1456Y835D01*
X1456Y834D01*
X1457Y833D01*
X1457Y832D01*
X1458Y831D01*
X1458Y830D01*
X1459Y829D01*
X1460Y828D01*
X1460Y827D01*
X1461Y826D01*
X1461Y825D01*
X1462Y824D01*
X1462Y823D01*
X1463Y822D01*
X1463Y821D01*
X1464Y820D01*
X1464Y819D01*
X1465Y818D01*
X1465Y817D01*
X1466Y816D01*
X1466Y815D01*
X1467Y814D01*
X1467Y813D01*
X1468Y812D01*
X1468Y811D01*
X1469Y810D01*
X1469Y808D01*
X1470Y807D01*
X1470Y806D01*
X1471Y805D01*
X1471Y804D01*
X1472Y803D01*
X1472Y802D01*
X1473Y801D01*
X1473Y799D01*
X1474Y798D01*
X1474Y797D01*
X1475Y796D01*
X1475Y795D01*
X1476Y794D01*
X1476Y792D01*
X1477Y791D01*
X1477Y790D01*
X1478Y789D01*
X1478Y787D01*
X1479Y786D01*
X1479Y785D01*
X1480Y784D01*
X1480Y782D01*
X1481Y781D01*
X1481Y780D01*
X1482Y779D01*
X1482Y777D01*
X1483Y776D01*
X1483Y774D01*
X1484Y773D01*
X1484Y771D01*
X1485Y770D01*
X1485Y768D01*
X1486Y767D01*
X1486Y765D01*
X1487Y764D01*
X1487Y762D01*
X1488Y761D01*
X1488Y759D01*
X1489Y758D01*
X1489Y756D01*
X1490Y755D01*
X1490Y752D01*
X1491Y751D01*
X1491Y749D01*
X1492Y748D01*
X1492Y745D01*
X1493Y744D01*
X1493Y741D01*
X1494Y740D01*
X1494Y737D01*
X1495Y736D01*
X1495Y733D01*
X1496Y732D01*
X1496Y729D01*
X1497Y728D01*
X1497Y724D01*
X1498Y723D01*
X1498Y719D01*
X1499Y718D01*
X1499Y714D01*
X1500Y713D01*
X1500Y708D01*
X1501Y707D01*
X1501Y702D01*
X1502Y701D01*
X1502Y695D01*
X1503Y694D01*
X1503Y687D01*
X1504Y686D01*
X1504Y677D01*
X1505Y676D01*
X1505Y663D01*
X1506Y662D01*
X1506Y376D01*
X1505Y375D01*
X1505Y362D01*
X1504Y361D01*
X1504Y352D01*
X1503Y351D01*
X1503Y344D01*
X1502Y343D01*
X1502Y337D01*
X1501Y336D01*
X1501Y331D01*
X1500Y330D01*
X1500Y325D01*
X1499Y324D01*
X1499Y320D01*
X1498Y319D01*
X1498Y315D01*
X1497Y314D01*
X1497Y310D01*
X1496Y309D01*
X1496Y306D01*
X1495Y305D01*
X1495Y302D01*
X1494Y301D01*
X1494Y298D01*
X1493Y297D01*
X1493Y294D01*
X1492Y293D01*
X1492Y290D01*
X1491Y289D01*
X1491Y287D01*
X1490Y286D01*
X1490Y283D01*
X1489Y282D01*
X1489Y280D01*
X1488Y279D01*
X1488Y277D01*
X1487Y276D01*
X1487Y274D01*
X1486Y273D01*
X1486Y271D01*
X1485Y270D01*
X1485Y268D01*
X1484Y267D01*
X1484Y265D01*
X1483Y264D01*
X1483Y262D01*
X1482Y261D01*
X1482Y259D01*
X1481Y258D01*
X1481Y257D01*
X1480Y256D01*
X1480Y254D01*
X1479Y253D01*
X1479Y252D01*
X1478Y251D01*
X1478Y249D01*
X1477Y248D01*
X1477Y247D01*
X1476Y246D01*
X1476Y244D01*
X1475Y243D01*
X1475Y242D01*
X1474Y241D01*
X1474Y240D01*
X1473Y239D01*
X1473Y237D01*
X1472Y236D01*
X1472Y235D01*
X1471Y234D01*
X1471Y233D01*
X1470Y232D01*
X1470Y231D01*
X1469Y230D01*
X1469Y228D01*
X1468Y227D01*
X1468Y226D01*
X1467Y225D01*
X1467Y224D01*
X1466Y223D01*
X1466Y222D01*
X1465Y221D01*
X1465Y220D01*
X1464Y219D01*
X1464Y218D01*
X1463Y217D01*
X1463Y216D01*
X1462Y215D01*
X1462Y214D01*
X1461Y213D01*
X1461Y212D01*
X1460Y211D01*
X1460Y210D01*
X1459Y209D01*
X1458Y208D01*
X1458Y207D01*
X1457Y206D01*
X1457Y205D01*
X1456Y204D01*
X1456Y203D01*
X1455Y202D01*
X1454Y201D01*
X1454Y200D01*
X1453Y199D01*
X1453Y198D01*
X1452Y197D01*
X1452Y196D01*
X1451Y195D01*
X1450Y194D01*
X1450Y193D01*
X1449Y192D01*
X1449Y191D01*
X1448Y190D01*
X1447Y189D01*
X1447Y188D01*
X1446Y187D01*
X1446Y186D01*
X1445Y185D01*
X1444Y184D01*
X1444Y183D01*
X1443Y182D01*
X1442Y181D01*
X1442Y180D01*
X1441Y179D01*
X1440Y178D01*
X1440Y177D01*
X1439Y176D01*
X1438Y175D01*
X1438Y174D01*
X1437Y173D01*
X1436Y172D01*
X1436Y171D01*
X1435Y170D01*
X1434Y169D01*
X1434Y168D01*
X1433Y167D01*
X1432Y166D01*
X1431Y165D01*
X1431Y164D01*
X1430Y163D01*
X1429Y162D01*
X1429Y161D01*
X1428Y160D01*
X1427Y159D01*
X1426Y158D01*
X1425Y157D01*
X1425Y156D01*
X1424Y155D01*
X1423Y154D01*
X1422Y153D01*
X1422Y152D01*
X1421Y151D01*
X1420Y150D01*
X1419Y149D01*
X1418Y148D01*
X1418Y147D01*
X1417Y146D01*
X1416Y145D01*
X1415Y144D01*
X1414Y143D01*
X1414Y142D01*
X1413Y141D01*
X1412Y140D01*
X1411Y139D01*
X1410Y138D01*
X1409Y137D01*
X1408Y136D01*
X1407Y135D01*
X1407Y134D01*
X1406Y133D01*
X1405Y132D01*
X1404Y131D01*
X1403Y130D01*
X1402Y129D01*
X1401Y128D01*
X1400Y127D01*
X1399Y126D01*
X1398Y125D01*
X1397Y124D01*
X1396Y123D01*
X1395Y122D01*
X1394Y121D01*
X1394Y120D01*
X1393Y119D01*
X1392Y118D01*
X1391Y117D01*
X1390Y116D01*
X1389Y115D01*
X1388Y114D01*
X1387Y113D01*
X1386Y113D01*
X1385Y112D01*
X1384Y111D01*
X1383Y110D01*
X1382Y109D01*
X1381Y108D01*
X1380Y107D01*
X1379Y106D01*
X1378Y105D01*
X1377Y104D01*
X1376Y103D01*
X1375Y102D01*
X1374Y101D01*
X1373Y101D01*
X1372Y100D01*
X1371Y99D01*
X1370Y98D01*
X1369Y97D01*
X1368Y96D01*
X1367Y95D01*
X1366Y94D01*
X1365Y94D01*
X1364Y93D01*
X1363Y92D01*
X1362Y91D01*
X1361Y90D01*
X1360Y90D01*
X1359Y89D01*
X1358Y88D01*
X1357Y87D01*
X1356Y86D01*
X1355Y86D01*
X1354Y85D01*
X1353Y84D01*
X1352Y83D01*
X1351Y82D01*
X1350Y82D01*
X1349Y81D01*
X1348Y80D01*
X1347Y79D01*
X1346Y79D01*
X1345Y78D01*
X1344Y77D01*
X1343Y77D01*
X1342Y76D01*
X1341Y75D01*
X1340Y74D01*
X1339Y74D01*
X1338Y73D01*
X1337Y72D01*
X1336Y72D01*
X1335Y71D01*
X1334Y70D01*
X1333Y69D01*
X1332Y69D01*
X1331Y68D01*
X1330Y68D01*
X1329Y67D01*
X1328Y66D01*
X1327Y66D01*
X1326Y65D01*
X1325Y64D01*
X1324Y64D01*
X1323Y63D01*
X1322Y62D01*
X1321Y62D01*
X1320Y61D01*
X1319Y60D01*
X1318Y60D01*
X1317Y59D01*
X1316Y59D01*
X1315Y58D01*
X1314Y57D01*
X1313Y57D01*
X1312Y56D01*
X1311Y56D01*
X1310Y55D01*
X1309Y55D01*
X1308Y54D01*
X1307Y53D01*
X1306Y53D01*
X1305Y52D01*
X1304Y52D01*
X1303Y51D01*
X1302Y51D01*
X1301Y50D01*
X1300Y49D01*
X1299Y49D01*
X1298Y48D01*
X1297Y48D01*
X1296Y47D01*
X1295Y47D01*
X1294Y46D01*
X1293Y46D01*
X1292Y45D01*
X1291Y45D01*
X1290Y44D01*
X1289Y44D01*
X1288Y43D01*
X1287Y43D01*
X1286Y42D01*
X1285Y42D01*
X1284Y41D01*
X1283Y41D01*
X1282Y40D01*
X1281Y40D01*
X1280Y39D01*
X1279Y39D01*
X1278Y38D01*
X1277Y38D01*
X1276Y38D01*
X1275Y37D01*
X1274Y37D01*
X1273Y36D01*
X1272Y36D01*
X1271Y35D01*
X1270Y35D01*
X1269Y34D01*
X1268Y34D01*
X1267Y34D01*
X1266Y33D01*
X1265Y33D01*
X1264Y32D01*
X1263Y32D01*
X1262Y31D01*
X1261Y31D01*
X1260Y31D01*
X1259Y30D01*
X1258Y30D01*
X1257Y30D01*
X1256Y29D01*
X1255Y29D01*
X1254Y28D01*
X1253Y28D01*
X1252Y28D01*
X1251Y27D01*
X1250Y27D01*
X1249Y26D01*
X1248Y26D01*
X1247Y26D01*
X1246Y25D01*
X1245Y25D01*
X1244Y25D01*
X1243Y24D01*
X1242Y24D01*
X1241Y23D01*
X1240Y23D01*
X1239Y23D01*
X1238Y22D01*
X1237Y22D01*
X1236Y22D01*
X1235Y21D01*
X1234Y21D01*
X1233Y21D01*
X1232Y20D01*
X1231Y20D01*
X1230Y20D01*
X1229Y20D01*
X1228Y19D01*
X1227Y19D01*
X1226Y19D01*
X1225Y18D01*
X1224Y18D01*
X1223Y18D01*
X1222Y17D01*
X1221Y17D01*
X1220Y17D01*
X1219Y17D01*
X1218Y16D01*
X1217Y16D01*
X1216Y16D01*
X1215Y16D01*
X1214Y15D01*
X1213Y15D01*
X1212Y15D01*
X1211Y14D01*
X1210Y14D01*
X1209Y14D01*
X1208Y14D01*
X1207Y13D01*
X1206Y13D01*
X1205Y13D01*
X1204Y13D01*
X1203Y12D01*
X1202Y12D01*
X1201Y12D01*
X1200Y12D01*
X1199Y12D01*
X1198Y11D01*
X1197Y11D01*
X1196Y11D01*
X1195Y11D01*
X1194Y10D01*
X1193Y10D01*
X1192Y10D01*
X1191Y10D01*
X1190Y10D01*
X1189Y9D01*
X1188Y9D01*
X1187Y9D01*
X1186Y9D01*
X1185Y9D01*
X1184Y8D01*
X1183Y8D01*
X1182Y8D01*
X1181Y8D01*
X1180Y8D01*
X1179Y8D01*
X1178Y7D01*
X1177Y7D01*
X1176Y7D01*
X1175Y7D01*
X1174Y7D01*
X1173Y7D01*
X1172Y6D01*
X1171Y6D01*
X1170Y6D01*
X1169Y6D01*
X1168Y6D01*
X1167Y6D01*
X1166Y6D01*
X1165Y5D01*
X1164Y5D01*
X1163Y5D01*
X1162Y5D01*
X1161Y5D01*
X1160Y5D01*
X1159Y5D01*
X1158Y5D01*
X1157Y5D01*
X1156Y4D01*
X1155Y4D01*
X1154Y4D01*
X1153Y4D01*
X1152Y4D01*
X1151Y4D01*
X1150Y4D01*
X1149Y4D01*
X1148Y4D01*
X1147Y4D01*
X1146Y3D01*
X1145Y3D01*
X1144Y3D01*
X1143Y3D01*
X1142Y3D01*
X1141Y3D01*
X1140Y3D01*
X1139Y3D01*
X1138Y3D01*
X1137Y3D01*
X1136Y3D01*
X1135Y3D01*
X1134Y3D01*
X1133Y3D01*
X1132Y2D01*
X1131Y2D01*
X1130Y2D01*
X1129Y2D01*
X1128Y2D01*
X1127Y2D01*
X1126Y2D01*
X1125Y2D01*
X1124Y2D01*
X1123Y2D01*
X1122Y2D01*
X1121Y2D01*
X1120Y2D01*
X1119Y2D01*
X1118Y2D01*
X1117Y2D01*
X1116Y2D01*
X1115Y2D01*
X1114Y2D01*
X1113Y2D01*
X1112Y2D01*
X1111Y2D01*
X1110Y2D01*
X1109Y2D01*
X1108Y2D01*
X1107Y2D01*
X1106Y2D01*
X1105Y2D01*
X1104Y2D01*
X1103Y2D01*
X1102Y2D01*
X1101Y2D01*
X1100Y2D01*
X1099Y2D01*
X1098Y2D01*
X1097Y2D01*
X1096Y2D01*
X1095Y2D01*
X1094Y2D01*
X1093Y2D01*
X1092Y2D01*
X1091Y2D01*
X1090Y2D01*
X1089Y2D01*
X1088Y2D01*
X1087Y2D01*
X1086Y2D01*
X1085Y2D01*
X1084Y2D01*
X1083Y2D01*
X1082Y2D01*
X1081Y2D01*
X1080Y2D01*
X1079Y2D01*
X1078Y2D01*
X1077Y2D01*
X1076Y2D01*
X1075Y2D01*
X1074Y2D01*
X1073Y2D01*
X1072Y2D01*
X1071Y2D01*
X1070Y2D01*
X1069Y2D01*
X1068Y2D01*
X1067Y2D01*
X1066Y2D01*
X1065Y2D01*
X1064Y2D01*
X1063Y2D01*
X1062Y2D01*
X1061Y2D01*
X1060Y2D01*
X1059Y2D01*
X1058Y2D01*
X1057Y2D01*
X1056Y2D01*
X1055Y2D01*
X1054Y2D01*
X1053Y2D01*
X1052Y2D01*
X1051Y2D01*
X1050Y2D01*
X1049Y2D01*
X1048Y2D01*
X1047Y2D01*
X1046Y2D01*
X1045Y2D01*
X1044Y2D01*
X1043Y2D01*
X1042Y2D01*
X1041Y2D01*
X1040Y2D01*
X1039Y2D01*
X1038Y2D01*
X1037Y2D01*
X1036Y2D01*
X1035Y2D01*
X1034Y2D01*
X1033Y2D01*
X1032Y2D01*
X1031Y2D01*
X1030Y2D01*
X1029Y2D01*
X1028Y2D01*
X1027Y2D01*
X1026Y2D01*
X1025Y2D01*
X1024Y2D01*
X1023Y2D01*
X1022Y2D01*
X1021Y2D01*
X1020Y2D01*
X1019Y2D01*
X1018Y2D01*
X1017Y2D01*
X1016Y2D01*
X1015Y2D01*
X1014Y2D01*
X1013Y2D01*
X1012Y2D01*
X1011Y2D01*
X1010Y2D01*
X1009Y2D01*
X1008Y2D01*
X1007Y2D01*
X1006Y2D01*
X1005Y2D01*
X1004Y2D01*
X1003Y2D01*
X1002Y2D01*
X1001Y2D01*
X1000Y2D01*
X999Y2D01*
X998Y2D01*
X997Y2D01*
X996Y2D01*
X995Y2D01*
X994Y2D01*
X993Y2D01*
X992Y2D01*
X991Y2D01*
X990Y2D01*
X989Y2D01*
X988Y2D01*
X987Y2D01*
X986Y2D01*
X985Y2D01*
X984Y2D01*
X983Y2D01*
X982Y2D01*
X981Y2D01*
X980Y2D01*
X979Y2D01*
X978Y2D01*
X977Y2D01*
X976Y2D01*
X975Y2D01*
X974Y2D01*
X973Y2D01*
X972Y2D01*
X971Y2D01*
X970Y2D01*
X969Y2D01*
X968Y2D01*
X967Y2D01*
X966Y2D01*
X965Y2D01*
X964Y2D01*
X963Y2D01*
X962Y2D01*
X961Y2D01*
X960Y2D01*
X959Y2D01*
X958Y2D01*
X957Y2D01*
X956Y2D01*
X955Y2D01*
X954Y2D01*
X953Y2D01*
X952Y2D01*
X951Y2D01*
X950Y2D01*
X949Y2D01*
X948Y2D01*
X947Y2D01*
X946Y2D01*
X945Y2D01*
X944Y2D01*
X943Y2D01*
X942Y2D01*
X941Y2D01*
X940Y2D01*
X939Y2D01*
X938Y2D01*
X937Y2D01*
X936Y2D01*
X935Y2D01*
X934Y2D01*
X933Y2D01*
X932Y2D01*
X931Y2D01*
X930Y2D01*
X929Y2D01*
X928Y2D01*
X927Y2D01*
X926Y2D01*
X925Y2D01*
X924Y2D01*
X923Y2D01*
X922Y2D01*
X921Y2D01*
X920Y2D01*
X919Y2D01*
X918Y2D01*
X917Y2D01*
X916Y2D01*
X915Y2D01*
X914Y2D01*
X913Y2D01*
X912Y2D01*
X911Y2D01*
X910Y2D01*
X909Y2D01*
X908Y2D01*
X907Y2D01*
X906Y2D01*
X905Y2D01*
X904Y2D01*
X903Y2D01*
X902Y2D01*
X901Y2D01*
X900Y2D01*
X899Y2D01*
X898Y2D01*
X897Y2D01*
X896Y2D01*
X895Y2D01*
X894Y2D01*
X893Y2D01*
X892Y2D01*
X891Y2D01*
X890Y2D01*
X889Y2D01*
X888Y2D01*
X887Y2D01*
X886Y2D01*
X885Y2D01*
X884Y2D01*
X883Y2D01*
X882Y2D01*
X881Y2D01*
X880Y2D01*
X879Y2D01*
X878Y2D01*
X877Y2D01*
X876Y2D01*
X875Y2D01*
X874Y2D01*
X873Y2D01*
X872Y2D01*
X871Y2D01*
X870Y2D01*
X869Y2D01*
X868Y2D01*
X867Y2D01*
X866Y2D01*
X865Y2D01*
X864Y2D01*
X863Y2D01*
X862Y2D01*
X861Y2D01*
X860Y2D01*
X859Y2D01*
X858Y2D01*
X857Y2D01*
X856Y2D01*
X855Y2D01*
X854Y2D01*
X853Y2D01*
X852Y2D01*
X851Y2D01*
X850Y2D01*
X849Y2D01*
X848Y2D01*
X847Y2D01*
X846Y2D01*
X845Y2D01*
X844Y2D01*
X843Y2D01*
X842Y2D01*
X841Y2D01*
X840Y2D01*
X839Y2D01*
X838Y2D01*
X837Y2D01*
X836Y2D01*
X835Y2D01*
X834Y2D01*
X833Y2D01*
X832Y2D01*
X831Y2D01*
X830Y2D01*
X829Y2D01*
X828Y2D01*
X827Y2D01*
X826Y2D01*
X825Y2D01*
X824Y2D01*
X823Y2D01*
X822Y2D01*
X821Y2D01*
X820Y2D01*
X819Y2D01*
X818Y2D01*
X817Y2D01*
X816Y2D01*
X815Y2D01*
X814Y2D01*
X813Y2D01*
X812Y2D01*
X811Y2D01*
X810Y2D01*
X809Y2D01*
X808Y2D01*
X807Y2D01*
X806Y2D01*
X805Y2D01*
X804Y2D01*
X803Y2D01*
X802Y2D01*
X801Y2D01*
X800Y2D01*
X799Y2D01*
X798Y2D01*
X797Y2D01*
X796Y2D01*
X795Y2D01*
X794Y2D01*
X793Y2D01*
X792Y2D01*
X791Y2D01*
X790Y2D01*
X789Y2D01*
X788Y2D01*
X787Y2D01*
X786Y2D01*
X785Y2D01*
X784Y2D01*
X783Y2D01*
X782Y2D01*
X781Y2D01*
X780Y2D01*
X779Y2D01*
X778Y2D01*
X777Y2D01*
X776Y2D01*
X775Y2D01*
X774Y2D01*
X773Y2D01*
X772Y2D01*
X771Y2D01*
X770Y2D01*
X769Y2D01*
X768Y2D01*
X767Y2D01*
X766Y2D01*
X765Y2D01*
X764Y2D01*
X763Y2D01*
X762Y2D01*
X761Y2D01*
X760Y2D01*
X759Y2D01*
X758Y2D01*
X757Y2D01*
X756Y2D01*
X755Y2D01*
X754Y2D01*
X753Y2D01*
X752Y2D01*
X751Y2D01*
X750Y2D01*
X749Y2D01*
X748Y2D01*
X747Y2D01*
X746Y2D01*
X745Y2D01*
X744Y2D01*
X743Y2D01*
X742Y2D01*
X741Y2D01*
X740Y2D01*
X739Y2D01*
X738Y2D01*
X737Y2D01*
X736Y2D01*
X735Y2D01*
X734Y2D01*
X733Y2D01*
X732Y2D01*
X731Y2D01*
X730Y2D01*
X729Y2D01*
X728Y2D01*
X727Y2D01*
X726Y2D01*
X725Y2D01*
X724Y2D01*
X723Y2D01*
X722Y2D01*
X721Y2D01*
X720Y2D01*
X719Y2D01*
X718Y2D01*
X717Y2D01*
X716Y2D01*
X715Y2D01*
X714Y2D01*
X713Y2D01*
X712Y2D01*
X711Y2D01*
X710Y2D01*
X709Y2D01*
X708Y2D01*
X707Y2D01*
X706Y2D01*
X705Y2D01*
X704Y2D01*
X703Y2D01*
X702Y2D01*
X701Y2D01*
X700Y2D01*
X699Y2D01*
X698Y2D01*
X697Y2D01*
X696Y2D01*
X695Y2D01*
X694Y2D01*
X693Y2D01*
X692Y2D01*
X691Y2D01*
X690Y2D01*
X689Y2D01*
X688Y2D01*
X687Y2D01*
X686Y2D01*
X685Y2D01*
X684Y2D01*
X683Y2D01*
X682Y2D01*
X681Y2D01*
X680Y2D01*
X679Y2D01*
X678Y2D01*
X677Y2D01*
X676Y2D01*
X675Y2D01*
X674Y2D01*
X673Y2D01*
X672Y2D01*
X671Y2D01*
X670Y2D01*
X669Y2D01*
X668Y2D01*
X667Y2D01*
X666Y2D01*
X665Y2D01*
X664Y2D01*
X663Y2D01*
X662Y2D01*
X661Y2D01*
X660Y2D01*
X659Y2D01*
X658Y2D01*
X657Y2D01*
X656Y2D01*
X655Y2D01*
X654Y2D01*
X653Y2D01*
X652Y2D01*
X651Y2D01*
X650Y2D01*
X649Y2D01*
X648Y2D01*
X647Y2D01*
X646Y2D01*
X645Y2D01*
X644Y2D01*
X643Y2D01*
X642Y2D01*
X641Y2D01*
X640Y2D01*
X639Y2D01*
X638Y2D01*
X637Y2D01*
X636Y2D01*
X635Y2D01*
X634Y2D01*
X633Y2D01*
X632Y2D01*
X631Y2D01*
X630Y2D01*
X629Y2D01*
X628Y2D01*
X627Y2D01*
X626Y2D01*
X625Y2D01*
X624Y2D01*
X623Y2D01*
X622Y2D01*
X621Y2D01*
X620Y2D01*
X619Y2D01*
X618Y2D01*
X617Y2D01*
X616Y2D01*
X615Y2D01*
X614Y2D01*
X613Y2D01*
X612Y2D01*
X611Y2D01*
X610Y2D01*
X609Y2D01*
X608Y2D01*
X607Y2D01*
X606Y2D01*
X605Y2D01*
X604Y2D01*
X603Y2D01*
X602Y2D01*
X601Y2D01*
X600Y2D01*
X599Y2D01*
X598Y2D01*
X597Y2D01*
X596Y2D01*
X595Y2D01*
X594Y2D01*
X593Y2D01*
X592Y2D01*
X591Y2D01*
X590Y2D01*
X589Y2D01*
X588Y2D01*
X587Y2D01*
X586Y2D01*
X585Y2D01*
X584Y2D01*
X583Y2D01*
X582Y2D01*
X581Y2D01*
X580Y2D01*
X579Y2D01*
X578Y2D01*
X577Y2D01*
X576Y2D01*
X575Y2D01*
X574Y2D01*
X573Y2D01*
X572Y2D01*
X571Y2D01*
X570Y2D01*
X569Y2D01*
X568Y2D01*
X567Y2D01*
X566Y2D01*
X565Y2D01*
X564Y2D01*
X563Y2D01*
X562Y2D01*
X561Y2D01*
X560Y2D01*
X559Y2D01*
X558Y2D01*
X557Y2D01*
X556Y2D01*
X555Y2D01*
X554Y2D01*
X553Y2D01*
X552Y2D01*
X551Y2D01*
X550Y2D01*
X549Y2D01*
X548Y2D01*
X547Y2D01*
X546Y2D01*
X545Y2D01*
X544Y2D01*
X543Y2D01*
X542Y2D01*
X541Y2D01*
X540Y2D01*
X539Y2D01*
X538Y2D01*
X537Y2D01*
X536Y2D01*
X535Y2D01*
X534Y2D01*
X533Y2D01*
X532Y2D01*
X531Y2D01*
X530Y2D01*
X529Y2D01*
X528Y2D01*
X527Y2D01*
X526Y2D01*
X525Y2D01*
X524Y2D01*
X523Y2D01*
X522Y2D01*
X521Y2D01*
X520Y2D01*
X519Y2D01*
X518Y2D01*
X517Y2D01*
X516Y2D01*
X515Y2D01*
X514Y2D01*
X513Y2D01*
X512Y2D01*
X511Y2D01*
X510Y2D01*
X509Y2D01*
X508Y2D01*
X507Y2D01*
X506Y2D01*
X505Y2D01*
X504Y2D01*
X503Y2D01*
X502Y2D01*
X501Y2D01*
X500Y2D01*
X499Y2D01*
X498Y2D01*
X497Y2D01*
X496Y2D01*
X495Y2D01*
X494Y2D01*
X493Y2D01*
X492Y2D01*
X491Y2D01*
X490Y2D01*
X489Y2D01*
X488Y2D01*
X487Y2D01*
X486Y2D01*
X485Y2D01*
X484Y2D01*
X483Y2D01*
X482Y2D01*
X481Y2D01*
X480Y2D01*
X479Y2D01*
X478Y2D01*
X477Y2D01*
X476Y2D01*
X475Y2D01*
X474Y2D01*
X473Y2D01*
X472Y2D01*
X471Y2D01*
X470Y2D01*
X469Y2D01*
X468Y2D01*
X467Y2D01*
X466Y2D01*
X465Y2D01*
X464Y2D01*
X463Y2D01*
X462Y2D01*
X461Y2D01*
X460Y2D01*
X459Y2D01*
X458Y2D01*
X457Y2D01*
X456Y2D01*
X455Y2D01*
X454Y2D01*
X453Y2D01*
X452Y2D01*
X451Y2D01*
X450Y2D01*
X449Y2D01*
X448Y2D01*
X447Y2D01*
X446Y2D01*
X445Y2D01*
X444Y2D01*
X443Y2D01*
X442Y2D01*
X441Y2D01*
X440Y2D01*
X439Y2D01*
X438Y2D01*
X437Y2D01*
X436Y2D01*
X435Y2D01*
X434Y2D01*
X433Y2D01*
X432Y2D01*
X431Y2D01*
X430Y2D01*
X429Y2D01*
X428Y2D01*
X427Y2D01*
X426Y2D01*
X425Y2D01*
X424Y2D01*
X423Y2D01*
X422Y2D01*
X421Y2D01*
X420Y2D01*
X419Y2D01*
X418Y2D01*
X417Y2D01*
X416Y2D01*
X415Y2D01*
X414Y2D01*
X413Y2D01*
X412Y2D01*
X411Y2D01*
X410Y2D01*
X409Y2D01*
X408Y2D01*
X407Y2D01*
X406Y2D01*
X405Y2D01*
X404Y2D01*
X403Y2D01*
X402Y2D01*
X401Y2D01*
X400Y2D01*
X399Y2D01*
X398Y2D01*
X397Y2D01*
X396Y2D01*
X395Y2D01*
X394Y2D01*
X393Y2D01*
X392Y2D01*
X391Y2D01*
X390Y2D01*
X389Y2D01*
X388Y2D01*
X387Y2D01*
X386Y2D01*
X385Y2D01*
X384Y2D01*
X383Y2D01*
X382Y2D01*
X381Y2D01*
X380Y2D01*
X379Y2D01*
X378Y2D01*
X377Y2D01*
X376Y2D01*
X375Y2D01*
X374Y2D01*
X373Y3D01*
X372Y3D01*
X371Y3D01*
X370Y3D01*
X369Y3D01*
X368Y3D01*
X367Y3D01*
X366Y3D01*
X365Y3D01*
X364Y3D01*
X363Y3D01*
X362Y3D01*
X361Y3D01*
X360Y3D01*
X359Y4D01*
X358Y4D01*
X357Y4D01*
X356Y4D01*
X355Y4D01*
X354Y4D01*
X353Y4D01*
X352Y4D01*
X351Y4D01*
X350Y4D01*
X349Y5D01*
X348Y5D01*
X347Y5D01*
X346Y5D01*
X345Y5D01*
X344Y5D01*
X343Y5D01*
X342Y5D01*
X341Y5D01*
X340Y6D01*
X339Y6D01*
X338Y6D01*
X337Y6D01*
X336Y6D01*
X335Y6D01*
X334Y6D01*
X333Y7D01*
X332Y7D01*
X331Y7D01*
X330Y7D01*
X329Y7D01*
X328Y7D01*
X327Y8D01*
X326Y8D01*
X325Y8D01*
X324Y8D01*
X323Y8D01*
X322Y8D01*
X321Y9D01*
X320Y9D01*
X319Y9D01*
X318Y9D01*
X317Y9D01*
X316Y10D01*
X315Y10D01*
X314Y10D01*
X313Y10D01*
X312Y10D01*
X311Y11D01*
X310Y11D01*
X309Y11D01*
X308Y11D01*
X307Y12D01*
X306Y12D01*
X305Y12D01*
X304Y12D01*
X303Y12D01*
X302Y13D01*
X301Y13D01*
X300Y13D01*
X299Y13D01*
X298Y14D01*
X297Y14D01*
X296Y14D01*
X295Y14D01*
X294Y15D01*
X293Y15D01*
X292Y15D01*
X291Y16D01*
X290Y16D01*
X289Y16D01*
X288Y16D01*
X287Y17D01*
X286Y17D01*
X285Y17D01*
X284Y17D01*
X283Y18D01*
X282Y18D01*
X281Y18D01*
X280Y19D01*
X279Y19D01*
X278Y19D01*
X277Y20D01*
X276Y20D01*
X275Y20D01*
X274Y20D01*
X273Y21D01*
X272Y21D01*
X271Y21D01*
X270Y22D01*
X269Y22D01*
X268Y22D01*
X267Y23D01*
X266Y23D01*
X265Y23D01*
X264Y24D01*
X263Y24D01*
X262Y25D01*
X261Y25D01*
X260Y25D01*
X259Y26D01*
X258Y26D01*
X257Y26D01*
X256Y27D01*
X255Y27D01*
X254Y28D01*
X253Y28D01*
X252Y28D01*
X251Y29D01*
X250Y29D01*
X249Y29D01*
X248Y30D01*
X247Y30D01*
X246Y31D01*
X245Y31D01*
X244Y31D01*
X243Y32D01*
X242Y32D01*
X241Y33D01*
X240Y33D01*
X239Y34D01*
X238Y34D01*
X237Y34D01*
X236Y35D01*
X235Y35D01*
X234Y36D01*
X233Y36D01*
X232Y37D01*
X231Y37D01*
X230Y38D01*
X229Y38D01*
X228Y38D01*
X227Y39D01*
X226Y39D01*
X225Y40D01*
X224Y40D01*
X223Y41D01*
X222Y41D01*
X221Y42D01*
X220Y42D01*
X219Y43D01*
X218Y43D01*
X217Y44D01*
X216Y44D01*
X215Y45D01*
X214Y45D01*
X213Y46D01*
X212Y46D01*
X211Y47D01*
X210Y47D01*
X209Y48D01*
X208Y48D01*
X207Y49D01*
X206Y49D01*
X205Y50D01*
X204Y51D01*
X203Y51D01*
X202Y52D01*
X201Y52D01*
X200Y53D01*
X199Y53D01*
X198Y54D01*
X197Y55D01*
X196Y55D01*
X195Y56D01*
X194Y56D01*
X193Y57D01*
X192Y57D01*
X191Y58D01*
X190Y59D01*
X189Y59D01*
X188Y60D01*
X187Y60D01*
X186Y61D01*
X185Y62D01*
X184Y62D01*
X183Y63D01*
X182Y64D01*
X181Y64D01*
X180Y65D01*
X179Y66D01*
X178Y66D01*
X177Y67D01*
X176Y68D01*
X175Y68D01*
X174Y69D01*
X173Y69D01*
X172Y70D01*
X171Y71D01*
X170Y72D01*
X169Y72D01*
X168Y73D01*
X167Y74D01*
X166Y74D01*
X165Y75D01*
X164Y76D01*
X163Y77D01*
X162Y77D01*
X161Y78D01*
X160Y79D01*
X159Y79D01*
X158Y80D01*
X157Y81D01*
X156Y82D01*
X155Y82D01*
X154Y83D01*
X153Y84D01*
X152Y85D01*
X151Y86D01*
X150Y86D01*
X149Y87D01*
X148Y88D01*
X147Y89D01*
X146Y90D01*
X145Y90D01*
X144Y91D01*
X143Y92D01*
X142Y93D01*
X141Y94D01*
X140Y94D01*
X139Y95D01*
X138Y96D01*
X137Y97D01*
X136Y98D01*
X135Y99D01*
X134Y100D01*
X133Y101D01*
X132Y101D01*
X131Y102D01*
X130Y103D01*
X129Y104D01*
X128Y105D01*
X127Y106D01*
X126Y107D01*
X125Y108D01*
X124Y109D01*
X123Y110D01*
X122Y111D01*
X121Y112D01*
X120Y113D01*
X119Y113D01*
X118Y114D01*
X117Y115D01*
X116Y116D01*
X115Y117D01*
X114Y118D01*
X113Y119D01*
X112Y120D01*
X111Y121D01*
X111Y122D01*
X110Y123D01*
X109Y124D01*
X108Y125D01*
X107Y126D01*
X106Y127D01*
X105Y128D01*
X104Y129D01*
X103Y130D01*
X102Y131D01*
X101Y132D01*
X100Y133D01*
X99Y134D01*
X99Y135D01*
X98Y136D01*
X97Y137D01*
X96Y138D01*
X95Y139D01*
X94Y140D01*
X93Y141D01*
X92Y142D01*
X92Y143D01*
X91Y144D01*
X90Y145D01*
X89Y146D01*
X88Y147D01*
X88Y148D01*
X87Y149D01*
X86Y150D01*
X85Y151D01*
X84Y152D01*
X84Y153D01*
X83Y154D01*
X82Y155D01*
X81Y156D01*
X80Y157D01*
X80Y158D01*
X79Y159D01*
X78Y160D01*
X77Y161D01*
X77Y162D01*
X76Y163D01*
X75Y164D01*
X75Y165D01*
X74Y166D01*
X73Y167D01*
X72Y168D01*
X72Y169D01*
X71Y170D01*
X70Y171D01*
X70Y172D01*
X69Y173D01*
X68Y174D01*
X68Y175D01*
X67Y176D01*
X66Y177D01*
X66Y178D01*
X65Y179D01*
X64Y180D01*
X64Y181D01*
X63Y182D01*
X62Y183D01*
X62Y184D01*
X61Y185D01*
X60Y186D01*
X60Y187D01*
X59Y188D01*
X59Y189D01*
X58Y190D01*
X57Y191D01*
X57Y192D01*
X56Y193D01*
X56Y194D01*
X55Y195D01*
X54Y196D01*
X54Y197D01*
X53Y198D01*
X53Y199D01*
X52Y200D01*
X52Y201D01*
X51Y202D01*
X50Y203D01*
X50Y204D01*
X49Y205D01*
X49Y206D01*
X48Y207D01*
X48Y208D01*
X47Y209D01*
X46Y210D01*
X46Y211D01*
X45Y212D01*
X45Y213D01*
X44Y214D01*
X44Y215D01*
X43Y216D01*
X43Y217D01*
X42Y218D01*
X42Y219D01*
X41Y220D01*
X41Y221D01*
X40Y222D01*
X40Y223D01*
X39Y224D01*
X39Y225D01*
X38Y226D01*
X38Y227D01*
X37Y228D01*
X37Y230D01*
X36Y231D01*
X36Y232D01*
X35Y233D01*
X35Y234D01*
X34Y235D01*
X34Y236D01*
X33Y237D01*
X33Y239D01*
X32Y240D01*
X32Y241D01*
X31Y242D01*
X31Y243D01*
X30Y244D01*
X30Y246D01*
X29Y247D01*
X29Y248D01*
X28Y249D01*
X28Y251D01*
X27Y252D01*
X27Y253D01*
X26Y254D01*
X26Y256D01*
X25Y257D01*
X25Y258D01*
X24Y259D01*
X24Y261D01*
X23Y262D01*
X23Y264D01*
X22Y265D01*
X22Y267D01*
X21Y268D01*
X21Y270D01*
X20Y271D01*
X20Y273D01*
X19Y274D01*
X19Y276D01*
X18Y277D01*
X18Y279D01*
X17Y280D01*
X17Y282D01*
X16Y283D01*
X16Y286D01*
X15Y287D01*
X15Y289D01*
X14Y290D01*
X14Y293D01*
X13Y294D01*
X13Y297D01*
X12Y298D01*
X12Y301D01*
X11Y302D01*
X11Y305D01*
X10Y306D01*
X10Y309D01*
X9Y310D01*
X9Y314D01*
X8Y315D01*
X8Y319D01*
X7Y320D01*
X7Y324D01*
X6Y325D01*
X6Y330D01*
X5Y331D01*
X5Y336D01*
X4Y337D01*
X4Y343D01*
X3Y344D01*
X3Y351D01*
X2Y352D01*
X2Y361D01*
X1Y362D01*
X1Y375D01*
X0Y376D01*
X0Y662D01*
X1Y663D01*
X1Y676D01*
X2Y677D01*
X2Y686D01*
X3Y687D01*
X3Y694D01*
X4Y695D01*
X4Y701D01*
X5Y702D01*
X5Y707D01*
X6Y708D01*
X6Y713D01*
X7Y714D01*
X7Y718D01*
X8Y719D01*
X8Y723D01*
X9Y724D01*
X9Y728D01*
X10Y729D01*
X10Y732D01*
X11Y733D01*
X11Y736D01*
X12Y737D01*
X12Y740D01*
X13Y741D01*
X13Y744D01*
X14Y745D01*
X14Y748D01*
X15Y749D01*
X15Y751D01*
X16Y752D01*
X16Y755D01*
X17Y756D01*
X17Y758D01*
X18Y759D01*
X18Y761D01*
X19Y762D01*
X19Y764D01*
X20Y765D01*
X20Y767D01*
X21Y768D01*
X21Y770D01*
X22Y771D01*
X22Y773D01*
X23Y774D01*
X23Y776D01*
X24Y777D01*
X24Y779D01*
X25Y780D01*
X25Y781D01*
X26Y782D01*
X26Y784D01*
X27Y785D01*
X27Y786D01*
X28Y787D01*
X28Y789D01*
X29Y790D01*
X29Y791D01*
X30Y792D01*
X30Y794D01*
X31Y795D01*
X31Y796D01*
X32Y797D01*
X32Y798D01*
X33Y799D01*
X33Y801D01*
X34Y802D01*
X34Y803D01*
X35Y804D01*
X35Y805D01*
X36Y806D01*
X36Y807D01*
X37Y808D01*
X37Y810D01*
X38Y811D01*
X38Y812D01*
X39Y813D01*
X39Y814D01*
X40Y815D01*
X40Y816D01*
X41Y817D01*
X41Y818D01*
X42Y819D01*
X42Y820D01*
X43Y821D01*
X43Y822D01*
X44Y823D01*
X44Y824D01*
X45Y825D01*
X45Y826D01*
X46Y827D01*
X46Y828D01*
X47Y829D01*
X48Y830D01*
X48Y831D01*
X49Y832D01*
X49Y833D01*
X50Y834D01*
X50Y835D01*
X51Y836D01*
X52Y837D01*
X52Y838D01*
X53Y839D01*
X53Y840D01*
X54Y841D01*
X54Y842D01*
X55Y843D01*
X56Y844D01*
X56Y845D01*
X57Y846D01*
X57Y847D01*
X58Y848D01*
X59Y849D01*
X59Y850D01*
X60Y851D01*
X60Y852D01*
X61Y853D01*
X62Y854D01*
X62Y855D01*
X63Y856D01*
X64Y857D01*
X64Y858D01*
X65Y859D01*
X66Y860D01*
X66Y861D01*
X67Y862D01*
X68Y863D01*
X68Y864D01*
X69Y865D01*
X70Y866D01*
X70Y867D01*
X71Y868D01*
X72Y869D01*
X72Y870D01*
X73Y871D01*
X74Y872D01*
X75Y873D01*
X75Y874D01*
X76Y875D01*
X77Y876D01*
X77Y877D01*
X78Y878D01*
X79Y879D01*
X80Y880D01*
X80Y881D01*
X81Y882D01*
X82Y883D01*
X83Y884D01*
X84Y885D01*
X84Y886D01*
X85Y887D01*
X86Y888D01*
X87Y889D01*
X88Y890D01*
X88Y891D01*
X89Y892D01*
X90Y893D01*
X91Y894D01*
X92Y895D01*
X92Y896D01*
X93Y897D01*
X94Y898D01*
X95Y899D01*
X96Y900D01*
X97Y901D01*
X98Y902D01*
X99Y903D01*
X99Y904D01*
X100Y905D01*
X101Y906D01*
X102Y907D01*
X103Y908D01*
X104Y909D01*
X105Y910D01*
X106Y911D01*
X107Y912D01*
X108Y913D01*
X109Y914D01*
X110Y915D01*
X111Y916D01*
X111Y917D01*
X112Y918D01*
X113Y919D01*
X114Y920D01*
X115Y921D01*
X116Y922D01*
X117Y923D01*
X118Y924D01*
X119Y925D01*
X120Y925D01*
X121Y926D01*
X122Y927D01*
X123Y928D01*
X124Y929D01*
X125Y930D01*
X126Y931D01*
X127Y932D01*
X128Y933D01*
X129Y934D01*
X130Y935D01*
X131Y936D01*
X132Y937D01*
X133Y937D01*
X134Y938D01*
X135Y939D01*
X136Y940D01*
X137Y941D01*
X138Y942D01*
X139Y943D01*
X140Y944D01*
X141Y944D01*
X142Y945D01*
X143Y946D01*
X144Y947D01*
X145Y948D01*
X146Y948D01*
X147Y949D01*
X148Y950D01*
X149Y951D01*
X150Y952D01*
X151Y952D01*
X152Y953D01*
X153Y954D01*
X154Y955D01*
X155Y956D01*
X156Y956D01*
X157Y957D01*
X158Y958D01*
X159Y959D01*
X160Y959D01*
X161Y960D01*
X162Y961D01*
X163Y961D01*
X164Y962D01*
X165Y963D01*
X166Y964D01*
X167Y964D01*
X168Y965D01*
X169Y966D01*
X170Y966D01*
X171Y967D01*
X172Y968D01*
X173Y969D01*
X174Y969D01*
X175Y970D01*
X176Y970D01*
X177Y971D01*
X178Y972D01*
X179Y972D01*
X180Y973D01*
X181Y974D01*
X182Y974D01*
X183Y975D01*
X184Y976D01*
X185Y976D01*
X186Y977D01*
X187Y978D01*
X188Y978D01*
X189Y979D01*
X190Y979D01*
X191Y980D01*
X192Y981D01*
X193Y981D01*
X194Y982D01*
X195Y982D01*
X196Y983D01*
X197Y983D01*
X198Y984D01*
X199Y985D01*
X200Y985D01*
X201Y986D01*
X202Y986D01*
X203Y987D01*
X204Y987D01*
X205Y988D01*
X206Y989D01*
X207Y989D01*
X208Y990D01*
X209Y990D01*
X210Y991D01*
X211Y991D01*
X212Y992D01*
X213Y992D01*
X214Y993D01*
X215Y993D01*
X216Y994D01*
X217Y994D01*
X218Y995D01*
X219Y995D01*
X220Y996D01*
X221Y996D01*
X222Y997D01*
X223Y997D01*
X224Y998D01*
X225Y998D01*
X226Y999D01*
X227Y999D01*
X228Y1000D01*
X229Y1000D01*
X230Y1000D01*
X231Y1001D01*
X232Y1001D01*
X233Y1002D01*
X234Y1002D01*
X235Y1003D01*
X236Y1003D01*
X237Y1004D01*
X238Y1004D01*
X239Y1004D01*
X240Y1005D01*
X241Y1005D01*
X242Y1006D01*
X243Y1006D01*
X244Y1007D01*
X245Y1007D01*
X246Y1007D01*
X247Y1008D01*
X248Y1008D01*
X249Y1009D01*
X250Y1009D01*
X251Y1009D01*
X252Y1010D01*
X253Y1010D01*
X254Y1010D01*
X255Y1011D01*
X256Y1011D01*
X257Y1012D01*
X258Y1012D01*
X259Y1012D01*
X260Y1013D01*
X261Y1013D01*
X262Y1013D01*
X263Y1014D01*
X264Y1014D01*
X265Y1015D01*
X266Y1015D01*
X267Y1015D01*
X268Y1016D01*
X269Y1016D01*
X270Y1016D01*
X271Y1017D01*
X272Y1017D01*
X273Y1017D01*
X274Y1018D01*
X275Y1018D01*
X276Y1018D01*
X277Y1018D01*
X278Y1019D01*
X279Y1019D01*
X280Y1019D01*
X281Y1020D01*
X282Y1020D01*
X283Y1020D01*
X284Y1021D01*
X285Y1021D01*
X286Y1021D01*
X287Y1021D01*
X288Y1022D01*
X289Y1022D01*
X290Y1022D01*
X291Y1022D01*
X292Y1023D01*
X293Y1023D01*
X294Y1023D01*
X295Y1024D01*
X296Y1024D01*
X297Y1024D01*
X298Y1024D01*
X299Y1025D01*
X300Y1025D01*
X301Y1025D01*
X302Y1025D01*
X303Y1026D01*
X304Y1026D01*
X305Y1026D01*
X306Y1026D01*
X307Y1026D01*
X308Y1027D01*
X309Y1027D01*
X310Y1027D01*
X311Y1027D01*
X312Y1028D01*
X313Y1028D01*
X314Y1028D01*
X315Y1028D01*
X316Y1028D01*
X317Y1029D01*
X318Y1029D01*
X319Y1029D01*
X320Y1029D01*
X321Y1029D01*
X322Y1030D01*
X323Y1030D01*
X324Y1030D01*
X325Y1030D01*
X326Y1030D01*
X327Y1030D01*
X328Y1031D01*
X329Y1031D01*
X330Y1031D01*
X331Y1031D01*
X332Y1031D01*
X333Y1031D01*
X334Y1032D01*
X335Y1032D01*
X336Y1032D01*
X337Y1032D01*
X338Y1032D01*
X339Y1032D01*
X340Y1032D01*
X341Y1033D01*
X342Y1033D01*
X343Y1033D01*
X344Y1033D01*
X345Y1033D01*
X346Y1033D01*
X347Y1033D01*
X348Y1033D01*
X349Y1033D01*
X350Y1034D01*
X351Y1034D01*
X352Y1034D01*
X353Y1034D01*
X354Y1034D01*
X355Y1034D01*
X356Y1034D01*
X357Y1034D01*
X358Y1034D01*
X359Y1034D01*
X360Y1035D01*
X361Y1035D01*
X362Y1035D01*
X363Y1035D01*
X364Y1035D01*
X365Y1035D01*
X366Y1035D01*
X367Y1035D01*
X368Y1035D01*
X369Y1035D01*
X370Y1035D01*
X371Y1035D01*
X372Y1035D01*
X373Y1035D01*
X374Y1036D01*
D02*
G04 End of contour*
M02*