G04 MADE WITH FRITZING*
G04 WWW.FRITZING.ORG*
G04 DOUBLE SIDED*
G04 HOLES PLATED*
G04 CONTOUR ON CENTER OF CONTOUR VECTOR*
%ASAXBY*%
%FSLAX23Y23*%
%MOIN*%
%OFA0B0*%
%SFA1.0B1.0*%
%ADD10R,0.001000X0.001000*%
%LNSILK0*%
G90*
G70*
G54D10*
X374Y1036D02*
X1132Y1036D01*
X360Y1035D02*
X1146Y1035D01*
X350Y1034D02*
X1156Y1034D01*
X341Y1033D02*
X1165Y1033D01*
X334Y1032D02*
X1172Y1032D01*
X328Y1031D02*
X1178Y1031D01*
X322Y1030D02*
X1184Y1030D01*
X317Y1029D02*
X1189Y1029D01*
X312Y1028D02*
X373Y1028D01*
X1133Y1028D02*
X1194Y1028D01*
X308Y1027D02*
X359Y1027D01*
X1147Y1027D02*
X1198Y1027D01*
X303Y1026D02*
X349Y1026D01*
X1157Y1026D02*
X1203Y1026D01*
X299Y1025D02*
X341Y1025D01*
X1165Y1025D02*
X1207Y1025D01*
X295Y1024D02*
X333Y1024D01*
X1173Y1024D02*
X1211Y1024D01*
X292Y1023D02*
X327Y1023D01*
X1179Y1023D02*
X1214Y1023D01*
X288Y1022D02*
X322Y1022D01*
X1184Y1022D02*
X1218Y1022D01*
X284Y1021D02*
X317Y1021D01*
X1189Y1021D02*
X1222Y1021D01*
X281Y1020D02*
X312Y1020D01*
X1194Y1020D02*
X1225Y1020D01*
X278Y1019D02*
X307Y1019D01*
X1199Y1019D02*
X1228Y1019D01*
X274Y1018D02*
X303Y1018D01*
X1203Y1018D02*
X1232Y1018D01*
X271Y1017D02*
X299Y1017D01*
X1207Y1017D02*
X1235Y1017D01*
X268Y1016D02*
X295Y1016D01*
X1211Y1016D02*
X1238Y1016D01*
X265Y1015D02*
X291Y1015D01*
X1215Y1015D02*
X1241Y1015D01*
X263Y1014D02*
X287Y1014D01*
X1219Y1014D02*
X1243Y1014D01*
X260Y1013D02*
X284Y1013D01*
X1222Y1013D02*
X1246Y1013D01*
X257Y1012D02*
X281Y1012D01*
X1225Y1012D02*
X1249Y1012D01*
X255Y1011D02*
X277Y1011D01*
X1229Y1011D02*
X1251Y1011D01*
X252Y1010D02*
X274Y1010D01*
X1232Y1010D02*
X1254Y1010D01*
X249Y1009D02*
X271Y1009D01*
X1234Y1009D02*
X1257Y1009D01*
X247Y1008D02*
X269Y1008D01*
X1237Y1008D02*
X1259Y1008D01*
X244Y1007D02*
X266Y1007D01*
X1240Y1007D02*
X1262Y1007D01*
X242Y1006D02*
X263Y1006D01*
X1243Y1006D02*
X1264Y1006D01*
X240Y1005D02*
X260Y1005D01*
X1246Y1005D02*
X1266Y1005D01*
X237Y1004D02*
X257Y1004D01*
X1249Y1004D02*
X1269Y1004D01*
X235Y1003D02*
X255Y1003D01*
X1251Y1003D02*
X1271Y1003D01*
X233Y1002D02*
X252Y1002D01*
X1254Y1002D02*
X1273Y1002D01*
X231Y1001D02*
X250Y1001D01*
X1256Y1001D02*
X1275Y1001D01*
X228Y1000D02*
X247Y1000D01*
X1259Y1000D02*
X1278Y1000D01*
X226Y999D02*
X245Y999D01*
X1261Y999D02*
X1280Y999D01*
X224Y998D02*
X242Y998D01*
X1264Y998D02*
X1282Y998D01*
X222Y997D02*
X240Y997D01*
X1266Y997D02*
X1284Y997D01*
X220Y996D02*
X238Y996D01*
X1268Y996D02*
X1286Y996D01*
X218Y995D02*
X235Y995D01*
X1271Y995D02*
X1288Y995D01*
X216Y994D02*
X233Y994D01*
X1273Y994D02*
X1290Y994D01*
X214Y993D02*
X231Y993D01*
X1275Y993D02*
X1292Y993D01*
X212Y992D02*
X229Y992D01*
X1277Y992D02*
X1294Y992D01*
X210Y991D02*
X227Y991D01*
X1279Y991D02*
X1296Y991D01*
X208Y990D02*
X225Y990D01*
X1281Y990D02*
X1298Y990D01*
X206Y989D02*
X223Y989D01*
X1283Y989D02*
X1300Y989D01*
X205Y988D02*
X221Y988D01*
X1285Y988D02*
X1301Y988D01*
X203Y987D02*
X219Y987D01*
X1287Y987D02*
X1303Y987D01*
X201Y986D02*
X217Y986D01*
X1289Y986D02*
X1305Y986D01*
X199Y985D02*
X215Y985D01*
X1291Y985D02*
X1307Y985D01*
X198Y984D02*
X213Y984D01*
X1293Y984D02*
X1308Y984D01*
X196Y983D02*
X211Y983D01*
X1295Y983D02*
X1310Y983D01*
X194Y982D02*
X209Y982D01*
X1297Y982D02*
X1312Y982D01*
X192Y981D02*
X207Y981D01*
X1299Y981D02*
X1314Y981D01*
X191Y980D02*
X205Y980D01*
X1301Y980D02*
X1315Y980D01*
X189Y979D02*
X204Y979D01*
X1302Y979D02*
X1317Y979D01*
X187Y978D02*
X202Y978D01*
X1304Y978D02*
X1319Y978D01*
X186Y977D02*
X200Y977D01*
X1306Y977D02*
X1320Y977D01*
X184Y976D02*
X199Y976D01*
X1307Y976D02*
X1322Y976D01*
X183Y975D02*
X197Y975D01*
X1309Y975D02*
X1323Y975D01*
X181Y974D02*
X195Y974D01*
X1311Y974D02*
X1325Y974D01*
X180Y973D02*
X193Y973D01*
X1313Y973D02*
X1326Y973D01*
X178Y972D02*
X192Y972D01*
X1314Y972D02*
X1328Y972D01*
X177Y971D02*
X190Y971D01*
X1316Y971D02*
X1329Y971D01*
X175Y970D02*
X189Y970D01*
X1317Y970D02*
X1331Y970D01*
X173Y969D02*
X187Y969D01*
X1319Y969D02*
X1333Y969D01*
X172Y968D02*
X185Y968D01*
X1321Y968D02*
X1334Y968D01*
X171Y967D02*
X184Y967D01*
X1322Y967D02*
X1335Y967D01*
X169Y966D02*
X182Y966D01*
X1324Y966D02*
X1337Y966D01*
X168Y965D02*
X181Y965D01*
X1325Y965D02*
X1338Y965D01*
X166Y964D02*
X179Y964D01*
X1327Y964D02*
X1340Y964D01*
X165Y963D02*
X178Y963D01*
X1328Y963D02*
X1341Y963D01*
X164Y962D02*
X176Y962D01*
X1330Y962D02*
X1342Y962D01*
X162Y961D02*
X175Y961D01*
X1331Y961D02*
X1344Y961D01*
X161Y960D02*
X173Y960D01*
X1333Y960D02*
X1345Y960D01*
X159Y959D02*
X172Y959D01*
X1334Y959D02*
X1347Y959D01*
X158Y958D02*
X171Y958D01*
X1335Y958D02*
X1348Y958D01*
X157Y957D02*
X169Y957D01*
X1337Y957D02*
X1349Y957D01*
X155Y956D02*
X168Y956D01*
X1338Y956D02*
X1351Y956D01*
X154Y955D02*
X166Y955D01*
X1340Y955D02*
X1352Y955D01*
X153Y954D02*
X165Y954D01*
X1341Y954D02*
X1353Y954D01*
X152Y953D02*
X164Y953D01*
X1342Y953D02*
X1354Y953D01*
X150Y952D02*
X162Y952D01*
X1344Y952D02*
X1356Y952D01*
X149Y951D02*
X161Y951D01*
X1345Y951D02*
X1357Y951D01*
X148Y950D02*
X160Y950D01*
X1346Y950D02*
X1358Y950D01*
X147Y949D02*
X158Y949D01*
X1348Y949D02*
X1359Y949D01*
X145Y948D02*
X157Y948D01*
X1349Y948D02*
X1361Y948D01*
X144Y947D02*
X156Y947D01*
X1350Y947D02*
X1362Y947D01*
X143Y946D02*
X155Y946D01*
X1351Y946D02*
X1363Y946D01*
X142Y945D02*
X153Y945D01*
X1353Y945D02*
X1364Y945D01*
X140Y944D02*
X152Y944D01*
X1354Y944D02*
X1366Y944D01*
X139Y943D02*
X151Y943D01*
X1355Y943D02*
X1367Y943D01*
X138Y942D02*
X150Y942D01*
X1356Y942D02*
X1368Y942D01*
X137Y941D02*
X148Y941D01*
X1358Y941D02*
X1369Y941D01*
X136Y940D02*
X147Y940D01*
X1359Y940D02*
X1370Y940D01*
X135Y939D02*
X146Y939D01*
X1360Y939D02*
X1371Y939D01*
X134Y938D02*
X145Y938D01*
X1361Y938D02*
X1372Y938D01*
X132Y937D02*
X144Y937D01*
X1362Y937D02*
X1374Y937D01*
X131Y936D02*
X142Y936D01*
X1364Y936D02*
X1375Y936D01*
X130Y935D02*
X141Y935D01*
X1365Y935D02*
X1376Y935D01*
X129Y934D02*
X140Y934D01*
X1366Y934D02*
X1377Y934D01*
X128Y933D02*
X139Y933D01*
X1367Y933D02*
X1378Y933D01*
X127Y932D02*
X138Y932D01*
X1368Y932D02*
X1379Y932D01*
X126Y931D02*
X137Y931D01*
X1369Y931D02*
X1380Y931D01*
X125Y930D02*
X135Y930D01*
X1371Y930D02*
X1381Y930D01*
X124Y929D02*
X134Y929D01*
X1372Y929D02*
X1382Y929D01*
X123Y928D02*
X133Y928D01*
X1373Y928D02*
X1383Y928D01*
X122Y927D02*
X132Y927D01*
X1374Y927D02*
X1384Y927D01*
X121Y926D02*
X131Y926D01*
X1375Y926D02*
X1385Y926D01*
X119Y925D02*
X130Y925D01*
X1376Y925D02*
X1387Y925D01*
X118Y924D02*
X129Y924D01*
X1377Y924D02*
X1388Y924D01*
X117Y923D02*
X128Y923D01*
X1378Y923D02*
X1389Y923D01*
X116Y922D02*
X127Y922D01*
X1379Y922D02*
X1390Y922D01*
X115Y921D02*
X126Y921D01*
X1380Y921D02*
X1391Y921D01*
X114Y920D02*
X125Y920D01*
X1381Y920D02*
X1392Y920D01*
X113Y919D02*
X124Y919D01*
X1382Y919D02*
X1393Y919D01*
X112Y918D02*
X123Y918D01*
X1383Y918D02*
X1394Y918D01*
X111Y917D02*
X122Y917D01*
X1384Y917D02*
X1394Y917D01*
X111Y916D02*
X121Y916D01*
X1385Y916D02*
X1395Y916D01*
X110Y915D02*
X120Y915D01*
X1386Y915D02*
X1396Y915D01*
X109Y914D02*
X119Y914D01*
X1387Y914D02*
X1397Y914D01*
X108Y913D02*
X118Y913D01*
X1388Y913D02*
X1398Y913D01*
X107Y912D02*
X117Y912D01*
X1389Y912D02*
X1399Y912D01*
X106Y911D02*
X116Y911D01*
X1390Y911D02*
X1400Y911D01*
X105Y910D02*
X115Y910D01*
X1391Y910D02*
X1401Y910D01*
X104Y909D02*
X114Y909D01*
X1392Y909D02*
X1402Y909D01*
X103Y908D02*
X113Y908D01*
X1393Y908D02*
X1403Y908D01*
X102Y907D02*
X112Y907D01*
X1394Y907D02*
X1404Y907D01*
X101Y906D02*
X111Y906D01*
X1395Y906D02*
X1405Y906D01*
X100Y905D02*
X110Y905D01*
X1396Y905D02*
X1406Y905D01*
X99Y904D02*
X109Y904D01*
X1397Y904D02*
X1407Y904D01*
X99Y903D02*
X108Y903D01*
X1398Y903D02*
X1407Y903D01*
X98Y902D02*
X107Y902D01*
X1399Y902D02*
X1408Y902D01*
X97Y901D02*
X106Y901D01*
X1400Y901D02*
X1409Y901D01*
X96Y900D02*
X106Y900D01*
X1400Y900D02*
X1410Y900D01*
X95Y899D02*
X105Y899D01*
X1401Y899D02*
X1411Y899D01*
X94Y898D02*
X104Y898D01*
X1402Y898D02*
X1412Y898D01*
X93Y897D02*
X103Y897D01*
X1403Y897D02*
X1413Y897D01*
X92Y896D02*
X102Y896D01*
X1404Y896D02*
X1414Y896D01*
X92Y895D02*
X101Y895D01*
X1405Y895D02*
X1414Y895D01*
X91Y894D02*
X100Y894D01*
X1406Y894D02*
X1415Y894D01*
X90Y893D02*
X99Y893D01*
X1407Y893D02*
X1416Y893D01*
X89Y892D02*
X99Y892D01*
X1407Y892D02*
X1417Y892D01*
X88Y891D02*
X98Y891D01*
X1408Y891D02*
X1418Y891D01*
X88Y890D02*
X97Y890D01*
X1409Y890D02*
X1418Y890D01*
X87Y889D02*
X96Y889D01*
X1410Y889D02*
X1419Y889D01*
X86Y888D02*
X95Y888D01*
X1411Y888D02*
X1420Y888D01*
X85Y887D02*
X94Y887D01*
X1412Y887D02*
X1421Y887D01*
X84Y886D02*
X94Y886D01*
X1412Y886D02*
X1422Y886D01*
X84Y885D02*
X93Y885D01*
X1413Y885D02*
X1422Y885D01*
X83Y884D02*
X92Y884D01*
X1414Y884D02*
X1423Y884D01*
X82Y883D02*
X91Y883D01*
X1415Y883D02*
X1424Y883D01*
X81Y882D02*
X90Y882D01*
X1416Y882D02*
X1425Y882D01*
X80Y881D02*
X90Y881D01*
X1416Y881D02*
X1425Y881D01*
X80Y880D02*
X89Y880D01*
X1417Y880D02*
X1426Y880D01*
X79Y879D02*
X88Y879D01*
X1418Y879D02*
X1427Y879D01*
X78Y878D02*
X87Y878D01*
X1419Y878D02*
X1428Y878D01*
X77Y877D02*
X86Y877D01*
X1420Y877D02*
X1429Y877D01*
X77Y876D02*
X86Y876D01*
X1420Y876D02*
X1429Y876D01*
X76Y875D02*
X85Y875D01*
X1421Y875D02*
X1430Y875D01*
X75Y874D02*
X84Y874D01*
X1422Y874D02*
X1431Y874D01*
X75Y873D02*
X83Y873D01*
X1423Y873D02*
X1431Y873D01*
X74Y872D02*
X83Y872D01*
X1423Y872D02*
X1432Y872D01*
X73Y871D02*
X82Y871D01*
X1424Y871D02*
X1433Y871D01*
X72Y870D02*
X81Y870D01*
X1425Y870D02*
X1434Y870D01*
X72Y869D02*
X81Y869D01*
X1425Y869D02*
X1434Y869D01*
X71Y868D02*
X80Y868D01*
X1426Y868D02*
X1435Y868D01*
X70Y867D02*
X79Y867D01*
X1427Y867D02*
X1436Y867D01*
X70Y866D02*
X78Y866D01*
X1428Y866D02*
X1436Y866D01*
X69Y865D02*
X78Y865D01*
X1428Y865D02*
X1437Y865D01*
X68Y864D02*
X77Y864D01*
X1429Y864D02*
X1438Y864D01*
X68Y863D02*
X76Y863D01*
X1430Y863D02*
X1438Y863D01*
X67Y862D02*
X76Y862D01*
X1430Y862D02*
X1439Y862D01*
X66Y861D02*
X75Y861D01*
X1431Y861D02*
X1440Y861D01*
X66Y860D02*
X74Y860D01*
X1432Y860D02*
X1440Y860D01*
X65Y859D02*
X73Y859D01*
X1433Y859D02*
X1441Y859D01*
X64Y858D02*
X73Y858D01*
X1433Y858D02*
X1442Y858D01*
X64Y857D02*
X72Y857D01*
X1434Y857D02*
X1442Y857D01*
X63Y856D02*
X71Y856D01*
X1435Y856D02*
X1443Y856D01*
X62Y855D02*
X71Y855D01*
X1435Y855D02*
X1444Y855D01*
X62Y854D02*
X70Y854D01*
X1436Y854D02*
X1444Y854D01*
X61Y853D02*
X69Y853D01*
X1437Y853D02*
X1445Y853D01*
X60Y852D02*
X69Y852D01*
X1437Y852D02*
X1446Y852D01*
X60Y851D02*
X68Y851D01*
X1438Y851D02*
X1446Y851D01*
X59Y850D02*
X68Y850D01*
X1438Y850D02*
X1447Y850D01*
X59Y849D02*
X67Y849D01*
X1439Y849D02*
X1447Y849D01*
X58Y848D02*
X66Y848D01*
X1440Y848D02*
X1448Y848D01*
X57Y847D02*
X66Y847D01*
X1440Y847D02*
X1449Y847D01*
X57Y846D02*
X65Y846D01*
X1441Y846D02*
X1449Y846D01*
X56Y845D02*
X64Y845D01*
X1442Y845D02*
X1450Y845D01*
X56Y844D02*
X64Y844D01*
X1442Y844D02*
X1450Y844D01*
X55Y843D02*
X63Y843D01*
X1443Y843D02*
X1451Y843D01*
X54Y842D02*
X62Y842D01*
X1444Y842D02*
X1452Y842D01*
X54Y841D02*
X62Y841D01*
X1444Y841D02*
X1452Y841D01*
X53Y840D02*
X61Y840D01*
X1445Y840D02*
X1453Y840D01*
X53Y839D02*
X61Y839D01*
X1445Y839D02*
X1453Y839D01*
X52Y838D02*
X60Y838D01*
X1446Y838D02*
X1454Y838D01*
X52Y837D02*
X60Y837D01*
X1446Y837D02*
X1454Y837D01*
X51Y836D02*
X59Y836D01*
X1447Y836D02*
X1455Y836D01*
X50Y835D02*
X58Y835D01*
X1448Y835D02*
X1456Y835D01*
X50Y834D02*
X58Y834D01*
X1448Y834D02*
X1456Y834D01*
X49Y833D02*
X57Y833D01*
X1449Y833D02*
X1457Y833D01*
X49Y832D02*
X57Y832D01*
X1449Y832D02*
X1457Y832D01*
X48Y831D02*
X56Y831D01*
X1450Y831D02*
X1458Y831D01*
X48Y830D02*
X56Y830D01*
X1450Y830D02*
X1458Y830D01*
X47Y829D02*
X55Y829D01*
X1451Y829D02*
X1459Y829D01*
X46Y828D02*
X54Y828D01*
X1452Y828D02*
X1460Y828D01*
X46Y827D02*
X54Y827D01*
X1452Y827D02*
X1460Y827D01*
X45Y826D02*
X53Y826D01*
X1453Y826D02*
X1461Y826D01*
X45Y825D02*
X53Y825D01*
X1453Y825D02*
X1461Y825D01*
X44Y824D02*
X52Y824D01*
X1454Y824D02*
X1462Y824D01*
X44Y823D02*
X52Y823D01*
X1454Y823D02*
X1462Y823D01*
X43Y822D02*
X51Y822D01*
X1455Y822D02*
X1463Y822D01*
X43Y821D02*
X51Y821D01*
X1455Y821D02*
X1463Y821D01*
X42Y820D02*
X50Y820D01*
X1456Y820D02*
X1464Y820D01*
X42Y819D02*
X50Y819D01*
X1456Y819D02*
X1464Y819D01*
X41Y818D02*
X49Y818D01*
X1457Y818D02*
X1465Y818D01*
X41Y817D02*
X49Y817D01*
X1457Y817D02*
X1465Y817D01*
X40Y816D02*
X48Y816D01*
X1458Y816D02*
X1466Y816D01*
X40Y815D02*
X48Y815D01*
X1458Y815D02*
X1466Y815D01*
X39Y814D02*
X47Y814D01*
X1459Y814D02*
X1467Y814D01*
X39Y813D02*
X47Y813D01*
X1459Y813D02*
X1467Y813D01*
X38Y812D02*
X46Y812D01*
X1460Y812D02*
X1468Y812D01*
X38Y811D02*
X46Y811D01*
X1460Y811D02*
X1468Y811D01*
X37Y810D02*
X45Y810D01*
X1461Y810D02*
X1469Y810D01*
X37Y809D02*
X45Y809D01*
X1461Y809D02*
X1469Y809D01*
X37Y808D02*
X44Y808D01*
X1462Y808D02*
X1469Y808D01*
X36Y807D02*
X44Y807D01*
X1462Y807D02*
X1470Y807D01*
X36Y806D02*
X43Y806D01*
X1463Y806D02*
X1470Y806D01*
X35Y805D02*
X43Y805D01*
X1463Y805D02*
X1471Y805D01*
X35Y804D02*
X42Y804D01*
X1464Y804D02*
X1471Y804D01*
X34Y803D02*
X42Y803D01*
X1464Y803D02*
X1472Y803D01*
X34Y802D02*
X41Y802D01*
X1465Y802D02*
X1472Y802D01*
X33Y801D02*
X41Y801D01*
X1465Y801D02*
X1473Y801D01*
X33Y800D02*
X41Y800D01*
X1465Y800D02*
X1473Y800D01*
X33Y799D02*
X40Y799D01*
X1466Y799D02*
X1473Y799D01*
X32Y798D02*
X40Y798D01*
X1466Y798D02*
X1474Y798D01*
X32Y797D02*
X39Y797D01*
X1467Y797D02*
X1474Y797D01*
X31Y796D02*
X39Y796D01*
X1467Y796D02*
X1475Y796D01*
X31Y795D02*
X38Y795D01*
X1468Y795D02*
X1475Y795D01*
X30Y794D02*
X38Y794D01*
X1468Y794D02*
X1476Y794D01*
X30Y793D02*
X37Y793D01*
X1469Y793D02*
X1476Y793D01*
X30Y792D02*
X37Y792D01*
X1469Y792D02*
X1476Y792D01*
X29Y791D02*
X37Y791D01*
X1469Y791D02*
X1477Y791D01*
X29Y790D02*
X36Y790D01*
X1470Y790D02*
X1477Y790D01*
X28Y789D02*
X36Y789D01*
X1470Y789D02*
X1478Y789D01*
X28Y788D02*
X35Y788D01*
X1471Y788D02*
X1478Y788D01*
X28Y787D02*
X35Y787D01*
X1471Y787D02*
X1478Y787D01*
X27Y786D02*
X35Y786D01*
X1471Y786D02*
X1479Y786D01*
X27Y785D02*
X34Y785D01*
X1472Y785D02*
X1479Y785D01*
X26Y784D02*
X34Y784D01*
X1472Y784D02*
X1480Y784D01*
X26Y783D02*
X33Y783D01*
X1473Y783D02*
X1480Y783D01*
X26Y782D02*
X33Y782D01*
X1473Y782D02*
X1480Y782D01*
X25Y781D02*
X33Y781D01*
X1473Y781D02*
X1481Y781D01*
X25Y780D02*
X32Y780D01*
X1474Y780D02*
X1481Y780D01*
X24Y779D02*
X32Y779D01*
X1474Y779D02*
X1482Y779D01*
X24Y778D02*
X31Y778D01*
X1475Y778D02*
X1482Y778D01*
X24Y777D02*
X31Y777D01*
X1475Y777D02*
X1482Y777D01*
X23Y776D02*
X31Y776D01*
X1475Y776D02*
X1483Y776D01*
X23Y775D02*
X30Y775D01*
X1476Y775D02*
X1483Y775D01*
X23Y774D02*
X30Y774D01*
X1476Y774D02*
X1483Y774D01*
X22Y773D02*
X30Y773D01*
X1476Y773D02*
X1484Y773D01*
X22Y772D02*
X29Y772D01*
X1477Y772D02*
X1484Y772D01*
X22Y771D02*
X29Y771D01*
X1477Y771D02*
X1484Y771D01*
X21Y770D02*
X29Y770D01*
X1477Y770D02*
X1485Y770D01*
X21Y769D02*
X28Y769D01*
X1478Y769D02*
X1485Y769D01*
X21Y768D02*
X28Y768D01*
X1478Y768D02*
X1485Y768D01*
X20Y767D02*
X28Y767D01*
X1478Y767D02*
X1486Y767D01*
X20Y766D02*
X27Y766D01*
X1479Y766D02*
X1486Y766D01*
X20Y765D02*
X27Y765D01*
X1479Y765D02*
X1486Y765D01*
X19Y764D02*
X27Y764D01*
X1479Y764D02*
X1487Y764D01*
X19Y763D02*
X26Y763D01*
X1480Y763D02*
X1487Y763D01*
X19Y762D02*
X26Y762D01*
X1480Y762D02*
X1487Y762D01*
X18Y761D02*
X26Y761D01*
X1480Y761D02*
X1488Y761D01*
X18Y760D02*
X25Y760D01*
X1481Y760D02*
X1488Y760D01*
X18Y759D02*
X25Y759D01*
X1481Y759D02*
X1488Y759D01*
X17Y758D02*
X25Y758D01*
X1481Y758D02*
X1489Y758D01*
X17Y757D02*
X24Y757D01*
X1482Y757D02*
X1489Y757D01*
X17Y756D02*
X24Y756D01*
X1482Y756D02*
X1489Y756D01*
X16Y755D02*
X24Y755D01*
X1482Y755D02*
X1490Y755D01*
X16Y754D02*
X23Y754D01*
X1483Y754D02*
X1490Y754D01*
X16Y753D02*
X23Y753D01*
X1483Y753D02*
X1490Y753D01*
X16Y752D02*
X23Y752D01*
X1483Y752D02*
X1490Y752D01*
X15Y751D02*
X22Y751D01*
X1484Y751D02*
X1491Y751D01*
X15Y750D02*
X22Y750D01*
X1484Y750D02*
X1491Y750D01*
X15Y749D02*
X22Y749D01*
X1484Y749D02*
X1491Y749D01*
X14Y748D02*
X22Y748D01*
X1484Y748D02*
X1492Y748D01*
X14Y747D02*
X21Y747D01*
X1485Y747D02*
X1492Y747D01*
X14Y746D02*
X21Y746D01*
X1485Y746D02*
X1492Y746D01*
X14Y745D02*
X21Y745D01*
X1485Y745D02*
X1492Y745D01*
X13Y744D02*
X20Y744D01*
X1486Y744D02*
X1493Y744D01*
X13Y743D02*
X20Y743D01*
X1486Y743D02*
X1493Y743D01*
X13Y742D02*
X20Y742D01*
X1486Y742D02*
X1493Y742D01*
X13Y741D02*
X20Y741D01*
X1486Y741D02*
X1493Y741D01*
X12Y740D02*
X19Y740D01*
X1487Y740D02*
X1494Y740D01*
X12Y739D02*
X19Y739D01*
X1487Y739D02*
X1494Y739D01*
X12Y738D02*
X19Y738D01*
X1487Y738D02*
X1494Y738D01*
X12Y737D02*
X19Y737D01*
X1487Y737D02*
X1494Y737D01*
X11Y736D02*
X18Y736D01*
X1488Y736D02*
X1495Y736D01*
X11Y735D02*
X18Y735D01*
X1488Y735D02*
X1495Y735D01*
X11Y734D02*
X18Y734D01*
X1488Y734D02*
X1495Y734D01*
X11Y733D02*
X18Y733D01*
X1488Y733D02*
X1495Y733D01*
X10Y732D02*
X17Y732D01*
X1489Y732D02*
X1496Y732D01*
X10Y731D02*
X17Y731D01*
X1489Y731D02*
X1496Y731D01*
X10Y730D02*
X17Y730D01*
X1489Y730D02*
X1496Y730D01*
X10Y729D02*
X17Y729D01*
X1489Y729D02*
X1496Y729D01*
X9Y728D02*
X17Y728D01*
X1489Y728D02*
X1497Y728D01*
X9Y727D02*
X16Y727D01*
X1490Y727D02*
X1497Y727D01*
X9Y726D02*
X16Y726D01*
X1490Y726D02*
X1497Y726D01*
X9Y725D02*
X16Y725D01*
X1490Y725D02*
X1497Y725D01*
X9Y724D02*
X16Y724D01*
X1490Y724D02*
X1497Y724D01*
X8Y723D02*
X15Y723D01*
X1491Y723D02*
X1498Y723D01*
X8Y722D02*
X15Y722D01*
X1491Y722D02*
X1498Y722D01*
X8Y721D02*
X15Y721D01*
X1491Y721D02*
X1498Y721D01*
X8Y720D02*
X15Y720D01*
X1491Y720D02*
X1498Y720D01*
X8Y719D02*
X15Y719D01*
X1491Y719D02*
X1498Y719D01*
X7Y718D02*
X14Y718D01*
X1492Y718D02*
X1499Y718D01*
X7Y717D02*
X14Y717D01*
X1492Y717D02*
X1499Y717D01*
X7Y716D02*
X14Y716D01*
X1492Y716D02*
X1499Y716D01*
X7Y715D02*
X14Y715D01*
X1492Y715D02*
X1499Y715D01*
X7Y714D02*
X14Y714D01*
X1492Y714D02*
X1499Y714D01*
X6Y713D02*
X13Y713D01*
X1493Y713D02*
X1500Y713D01*
X6Y712D02*
X13Y712D01*
X1493Y712D02*
X1500Y712D01*
X6Y711D02*
X13Y711D01*
X1493Y711D02*
X1500Y711D01*
X6Y710D02*
X13Y710D01*
X1493Y710D02*
X1500Y710D01*
X6Y709D02*
X13Y709D01*
X1493Y709D02*
X1500Y709D01*
X6Y708D02*
X13Y708D01*
X1493Y708D02*
X1500Y708D01*
X5Y707D02*
X12Y707D01*
X1494Y707D02*
X1501Y707D01*
X5Y706D02*
X12Y706D01*
X1494Y706D02*
X1501Y706D01*
X5Y705D02*
X12Y705D01*
X1494Y705D02*
X1501Y705D01*
X5Y704D02*
X12Y704D01*
X1494Y704D02*
X1501Y704D01*
X5Y703D02*
X12Y703D01*
X1494Y703D02*
X1501Y703D01*
X5Y702D02*
X12Y702D01*
X1494Y702D02*
X1501Y702D01*
X4Y701D02*
X11Y701D01*
X1495Y701D02*
X1502Y701D01*
X4Y700D02*
X11Y700D01*
X1495Y700D02*
X1502Y700D01*
X4Y699D02*
X11Y699D01*
X1495Y699D02*
X1502Y699D01*
X4Y698D02*
X11Y698D01*
X1495Y698D02*
X1502Y698D01*
X4Y697D02*
X11Y697D01*
X1495Y697D02*
X1502Y697D01*
X4Y696D02*
X11Y696D01*
X1495Y696D02*
X1502Y696D01*
X4Y695D02*
X11Y695D01*
X1495Y695D02*
X1502Y695D01*
X3Y694D02*
X10Y694D01*
X1496Y694D02*
X1503Y694D01*
X3Y693D02*
X10Y693D01*
X1496Y693D02*
X1503Y693D01*
X3Y692D02*
X10Y692D01*
X1496Y692D02*
X1503Y692D01*
X3Y691D02*
X10Y691D01*
X1496Y691D02*
X1503Y691D01*
X3Y690D02*
X10Y690D01*
X1496Y690D02*
X1503Y690D01*
X3Y689D02*
X10Y689D01*
X1496Y689D02*
X1503Y689D01*
X3Y688D02*
X10Y688D01*
X1496Y688D02*
X1503Y688D01*
X3Y687D02*
X10Y687D01*
X1496Y687D02*
X1503Y687D01*
X2Y686D02*
X9Y686D01*
X1497Y686D02*
X1504Y686D01*
X2Y685D02*
X9Y685D01*
X1497Y685D02*
X1504Y685D01*
X2Y684D02*
X9Y684D01*
X1497Y684D02*
X1504Y684D01*
X2Y683D02*
X9Y683D01*
X1497Y683D02*
X1504Y683D01*
X2Y682D02*
X9Y682D01*
X1497Y682D02*
X1504Y682D01*
X2Y681D02*
X9Y681D01*
X1497Y681D02*
X1504Y681D01*
X2Y680D02*
X9Y680D01*
X1497Y680D02*
X1504Y680D01*
X2Y679D02*
X9Y679D01*
X1497Y679D02*
X1504Y679D01*
X2Y678D02*
X9Y678D01*
X1497Y678D02*
X1504Y678D01*
X2Y677D02*
X9Y677D01*
X1497Y677D02*
X1504Y677D01*
X1Y676D02*
X8Y676D01*
X1498Y676D02*
X1505Y676D01*
X1Y675D02*
X8Y675D01*
X1498Y675D02*
X1505Y675D01*
X1Y674D02*
X8Y674D01*
X1498Y674D02*
X1505Y674D01*
X1Y673D02*
X8Y673D01*
X1498Y673D02*
X1505Y673D01*
X1Y672D02*
X8Y672D01*
X1498Y672D02*
X1505Y672D01*
X1Y671D02*
X8Y671D01*
X1498Y671D02*
X1505Y671D01*
X1Y670D02*
X8Y670D01*
X1498Y670D02*
X1505Y670D01*
X1Y669D02*
X8Y669D01*
X1498Y669D02*
X1505Y669D01*
X1Y668D02*
X8Y668D01*
X1498Y668D02*
X1505Y668D01*
X1Y667D02*
X8Y667D01*
X1498Y667D02*
X1505Y667D01*
X1Y666D02*
X8Y666D01*
X1498Y666D02*
X1505Y666D01*
X1Y665D02*
X8Y665D01*
X1498Y665D02*
X1505Y665D01*
X1Y664D02*
X8Y664D01*
X1498Y664D02*
X1505Y664D01*
X1Y663D02*
X8Y663D01*
X1498Y663D02*
X1505Y663D01*
X0Y662D02*
X7Y662D01*
X1498Y662D02*
X1506Y662D01*
X0Y661D02*
X7Y661D01*
X1499Y661D02*
X1506Y661D01*
X0Y660D02*
X7Y660D01*
X1499Y660D02*
X1506Y660D01*
X0Y659D02*
X7Y659D01*
X1499Y659D02*
X1506Y659D01*
X0Y658D02*
X7Y658D01*
X1499Y658D02*
X1506Y658D01*
X0Y657D02*
X7Y657D01*
X1499Y657D02*
X1506Y657D01*
X0Y656D02*
X7Y656D01*
X1499Y656D02*
X1506Y656D01*
X0Y655D02*
X7Y655D01*
X1499Y655D02*
X1506Y655D01*
X0Y654D02*
X7Y654D01*
X1499Y654D02*
X1506Y654D01*
X0Y653D02*
X7Y653D01*
X1499Y653D02*
X1506Y653D01*
X0Y652D02*
X7Y652D01*
X1499Y652D02*
X1506Y652D01*
X0Y651D02*
X7Y651D01*
X1499Y651D02*
X1506Y651D01*
X0Y650D02*
X7Y650D01*
X1499Y650D02*
X1506Y650D01*
X0Y649D02*
X7Y649D01*
X1499Y649D02*
X1506Y649D01*
X0Y648D02*
X7Y648D01*
X1499Y648D02*
X1506Y648D01*
X0Y647D02*
X7Y647D01*
X1499Y647D02*
X1506Y647D01*
X0Y646D02*
X7Y646D01*
X1499Y646D02*
X1506Y646D01*
X0Y645D02*
X7Y645D01*
X1499Y645D02*
X1506Y645D01*
X0Y644D02*
X7Y644D01*
X1499Y644D02*
X1506Y644D01*
X0Y643D02*
X7Y643D01*
X1499Y643D02*
X1506Y643D01*
X0Y642D02*
X7Y642D01*
X1499Y642D02*
X1506Y642D01*
X0Y641D02*
X7Y641D01*
X1499Y641D02*
X1506Y641D01*
X0Y640D02*
X7Y640D01*
X1499Y640D02*
X1506Y640D01*
X0Y639D02*
X7Y639D01*
X1499Y639D02*
X1506Y639D01*
X0Y638D02*
X7Y638D01*
X1499Y638D02*
X1506Y638D01*
X0Y637D02*
X7Y637D01*
X1499Y637D02*
X1506Y637D01*
X0Y636D02*
X7Y636D01*
X1499Y636D02*
X1506Y636D01*
X0Y635D02*
X7Y635D01*
X1499Y635D02*
X1506Y635D01*
X0Y634D02*
X7Y634D01*
X1499Y634D02*
X1506Y634D01*
X0Y633D02*
X7Y633D01*
X1499Y633D02*
X1506Y633D01*
X0Y632D02*
X7Y632D01*
X1499Y632D02*
X1506Y632D01*
X0Y631D02*
X7Y631D01*
X1499Y631D02*
X1506Y631D01*
X0Y630D02*
X7Y630D01*
X1499Y630D02*
X1506Y630D01*
X0Y629D02*
X7Y629D01*
X1499Y629D02*
X1506Y629D01*
X0Y628D02*
X7Y628D01*
X1499Y628D02*
X1506Y628D01*
X0Y627D02*
X7Y627D01*
X1499Y627D02*
X1506Y627D01*
X0Y626D02*
X7Y626D01*
X1499Y626D02*
X1506Y626D01*
X0Y625D02*
X7Y625D01*
X1499Y625D02*
X1506Y625D01*
X0Y624D02*
X7Y624D01*
X1499Y624D02*
X1506Y624D01*
X0Y623D02*
X7Y623D01*
X1499Y623D02*
X1506Y623D01*
X0Y622D02*
X7Y622D01*
X1499Y622D02*
X1506Y622D01*
X0Y621D02*
X7Y621D01*
X1499Y621D02*
X1506Y621D01*
X0Y620D02*
X7Y620D01*
X1499Y620D02*
X1506Y620D01*
X0Y619D02*
X7Y619D01*
X1499Y619D02*
X1506Y619D01*
X0Y618D02*
X7Y618D01*
X1499Y618D02*
X1506Y618D01*
X0Y617D02*
X7Y617D01*
X1499Y617D02*
X1506Y617D01*
X0Y616D02*
X7Y616D01*
X1499Y616D02*
X1506Y616D01*
X0Y615D02*
X7Y615D01*
X1499Y615D02*
X1506Y615D01*
X0Y614D02*
X7Y614D01*
X1499Y614D02*
X1506Y614D01*
X0Y613D02*
X7Y613D01*
X1499Y613D02*
X1506Y613D01*
X0Y612D02*
X7Y612D01*
X1499Y612D02*
X1506Y612D01*
X0Y611D02*
X7Y611D01*
X1499Y611D02*
X1506Y611D01*
X0Y610D02*
X7Y610D01*
X1499Y610D02*
X1506Y610D01*
X0Y609D02*
X7Y609D01*
X1499Y609D02*
X1506Y609D01*
X0Y608D02*
X7Y608D01*
X1499Y608D02*
X1506Y608D01*
X0Y607D02*
X7Y607D01*
X1499Y607D02*
X1506Y607D01*
X0Y606D02*
X7Y606D01*
X1499Y606D02*
X1506Y606D01*
X0Y605D02*
X7Y605D01*
X1499Y605D02*
X1506Y605D01*
X0Y604D02*
X7Y604D01*
X1499Y604D02*
X1506Y604D01*
X0Y603D02*
X7Y603D01*
X1499Y603D02*
X1506Y603D01*
X0Y602D02*
X7Y602D01*
X1499Y602D02*
X1506Y602D01*
X0Y601D02*
X7Y601D01*
X1499Y601D02*
X1506Y601D01*
X0Y600D02*
X7Y600D01*
X1499Y600D02*
X1506Y600D01*
X0Y599D02*
X7Y599D01*
X1499Y599D02*
X1506Y599D01*
X0Y598D02*
X7Y598D01*
X1499Y598D02*
X1506Y598D01*
X0Y597D02*
X7Y597D01*
X1499Y597D02*
X1506Y597D01*
X0Y596D02*
X7Y596D01*
X1499Y596D02*
X1506Y596D01*
X0Y595D02*
X7Y595D01*
X1499Y595D02*
X1506Y595D01*
X0Y594D02*
X7Y594D01*
X1499Y594D02*
X1506Y594D01*
X0Y593D02*
X7Y593D01*
X1499Y593D02*
X1506Y593D01*
X0Y592D02*
X7Y592D01*
X1499Y592D02*
X1506Y592D01*
X0Y591D02*
X7Y591D01*
X1499Y591D02*
X1506Y591D01*
X0Y590D02*
X7Y590D01*
X1499Y590D02*
X1506Y590D01*
X0Y589D02*
X7Y589D01*
X1499Y589D02*
X1506Y589D01*
X0Y588D02*
X7Y588D01*
X1499Y588D02*
X1506Y588D01*
X0Y587D02*
X7Y587D01*
X1499Y587D02*
X1506Y587D01*
X0Y586D02*
X7Y586D01*
X1499Y586D02*
X1506Y586D01*
X0Y585D02*
X7Y585D01*
X1499Y585D02*
X1506Y585D01*
X0Y584D02*
X7Y584D01*
X1499Y584D02*
X1506Y584D01*
X0Y583D02*
X7Y583D01*
X1499Y583D02*
X1506Y583D01*
X0Y582D02*
X7Y582D01*
X1499Y582D02*
X1506Y582D01*
X0Y581D02*
X7Y581D01*
X1499Y581D02*
X1506Y581D01*
X0Y580D02*
X7Y580D01*
X1499Y580D02*
X1506Y580D01*
X0Y579D02*
X7Y579D01*
X1499Y579D02*
X1506Y579D01*
X0Y578D02*
X7Y578D01*
X1499Y578D02*
X1506Y578D01*
X0Y577D02*
X7Y577D01*
X1499Y577D02*
X1506Y577D01*
X0Y576D02*
X7Y576D01*
X1499Y576D02*
X1506Y576D01*
X0Y575D02*
X7Y575D01*
X1499Y575D02*
X1506Y575D01*
X0Y574D02*
X7Y574D01*
X1499Y574D02*
X1506Y574D01*
X0Y573D02*
X7Y573D01*
X1499Y573D02*
X1506Y573D01*
X0Y572D02*
X7Y572D01*
X1499Y572D02*
X1506Y572D01*
X0Y571D02*
X7Y571D01*
X1499Y571D02*
X1506Y571D01*
X0Y570D02*
X7Y570D01*
X1499Y570D02*
X1506Y570D01*
X0Y569D02*
X7Y569D01*
X1499Y569D02*
X1506Y569D01*
X0Y568D02*
X7Y568D01*
X1499Y568D02*
X1506Y568D01*
X0Y567D02*
X7Y567D01*
X1499Y567D02*
X1506Y567D01*
X0Y566D02*
X7Y566D01*
X1499Y566D02*
X1506Y566D01*
X0Y565D02*
X7Y565D01*
X1499Y565D02*
X1506Y565D01*
X0Y564D02*
X7Y564D01*
X1499Y564D02*
X1506Y564D01*
X0Y563D02*
X7Y563D01*
X1499Y563D02*
X1506Y563D01*
X0Y562D02*
X7Y562D01*
X1499Y562D02*
X1506Y562D01*
X0Y561D02*
X7Y561D01*
X1499Y561D02*
X1506Y561D01*
X0Y560D02*
X7Y560D01*
X1499Y560D02*
X1506Y560D01*
X0Y559D02*
X7Y559D01*
X1499Y559D02*
X1506Y559D01*
X0Y558D02*
X7Y558D01*
X1499Y558D02*
X1506Y558D01*
X0Y557D02*
X7Y557D01*
X1499Y557D02*
X1506Y557D01*
X0Y556D02*
X7Y556D01*
X1499Y556D02*
X1506Y556D01*
X0Y555D02*
X7Y555D01*
X1499Y555D02*
X1506Y555D01*
X0Y554D02*
X7Y554D01*
X1499Y554D02*
X1506Y554D01*
X0Y553D02*
X7Y553D01*
X1499Y553D02*
X1506Y553D01*
X0Y552D02*
X7Y552D01*
X1499Y552D02*
X1506Y552D01*
X0Y551D02*
X7Y551D01*
X1499Y551D02*
X1506Y551D01*
X0Y550D02*
X7Y550D01*
X1499Y550D02*
X1506Y550D01*
X0Y549D02*
X7Y549D01*
X1499Y549D02*
X1506Y549D01*
X0Y548D02*
X7Y548D01*
X1499Y548D02*
X1506Y548D01*
X0Y547D02*
X7Y547D01*
X1499Y547D02*
X1506Y547D01*
X0Y546D02*
X7Y546D01*
X1499Y546D02*
X1506Y546D01*
X0Y545D02*
X7Y545D01*
X1499Y545D02*
X1506Y545D01*
X0Y544D02*
X7Y544D01*
X1499Y544D02*
X1506Y544D01*
X0Y543D02*
X7Y543D01*
X1499Y543D02*
X1506Y543D01*
X0Y542D02*
X7Y542D01*
X1499Y542D02*
X1506Y542D01*
X0Y541D02*
X7Y541D01*
X1499Y541D02*
X1506Y541D01*
X0Y540D02*
X7Y540D01*
X1499Y540D02*
X1506Y540D01*
X0Y539D02*
X7Y539D01*
X1499Y539D02*
X1506Y539D01*
X0Y538D02*
X7Y538D01*
X1499Y538D02*
X1506Y538D01*
X0Y537D02*
X7Y537D01*
X1499Y537D02*
X1506Y537D01*
X0Y536D02*
X7Y536D01*
X1499Y536D02*
X1506Y536D01*
X0Y535D02*
X7Y535D01*
X1499Y535D02*
X1506Y535D01*
X0Y534D02*
X7Y534D01*
X1499Y534D02*
X1506Y534D01*
X0Y533D02*
X7Y533D01*
X1499Y533D02*
X1506Y533D01*
X0Y532D02*
X7Y532D01*
X1499Y532D02*
X1506Y532D01*
X0Y531D02*
X7Y531D01*
X1499Y531D02*
X1506Y531D01*
X0Y530D02*
X7Y530D01*
X1499Y530D02*
X1506Y530D01*
X0Y529D02*
X7Y529D01*
X1499Y529D02*
X1506Y529D01*
X0Y528D02*
X7Y528D01*
X1499Y528D02*
X1506Y528D01*
X0Y527D02*
X7Y527D01*
X1499Y527D02*
X1506Y527D01*
X0Y526D02*
X7Y526D01*
X1499Y526D02*
X1506Y526D01*
X0Y525D02*
X7Y525D01*
X1499Y525D02*
X1506Y525D01*
X0Y524D02*
X7Y524D01*
X1499Y524D02*
X1506Y524D01*
X0Y523D02*
X7Y523D01*
X1499Y523D02*
X1506Y523D01*
X0Y522D02*
X7Y522D01*
X1499Y522D02*
X1506Y522D01*
X0Y521D02*
X7Y521D01*
X1499Y521D02*
X1506Y521D01*
X0Y520D02*
X7Y520D01*
X1499Y520D02*
X1506Y520D01*
X0Y519D02*
X7Y519D01*
X1499Y519D02*
X1506Y519D01*
X0Y518D02*
X7Y518D01*
X1499Y518D02*
X1506Y518D01*
X0Y517D02*
X7Y517D01*
X1499Y517D02*
X1506Y517D01*
X0Y516D02*
X7Y516D01*
X1499Y516D02*
X1506Y516D01*
X0Y515D02*
X7Y515D01*
X1499Y515D02*
X1506Y515D01*
X0Y514D02*
X7Y514D01*
X1499Y514D02*
X1506Y514D01*
X0Y513D02*
X7Y513D01*
X1499Y513D02*
X1506Y513D01*
X0Y512D02*
X7Y512D01*
X1499Y512D02*
X1506Y512D01*
X0Y511D02*
X7Y511D01*
X1499Y511D02*
X1506Y511D01*
X0Y510D02*
X7Y510D01*
X1499Y510D02*
X1506Y510D01*
X0Y509D02*
X7Y509D01*
X1499Y509D02*
X1506Y509D01*
X0Y508D02*
X7Y508D01*
X1499Y508D02*
X1506Y508D01*
X0Y507D02*
X7Y507D01*
X1499Y507D02*
X1506Y507D01*
X0Y506D02*
X7Y506D01*
X1499Y506D02*
X1506Y506D01*
X0Y505D02*
X7Y505D01*
X1499Y505D02*
X1506Y505D01*
X0Y504D02*
X7Y504D01*
X1499Y504D02*
X1506Y504D01*
X0Y503D02*
X7Y503D01*
X1499Y503D02*
X1506Y503D01*
X0Y502D02*
X7Y502D01*
X1499Y502D02*
X1506Y502D01*
X0Y501D02*
X7Y501D01*
X1499Y501D02*
X1506Y501D01*
X0Y500D02*
X7Y500D01*
X1499Y500D02*
X1506Y500D01*
X0Y499D02*
X7Y499D01*
X1499Y499D02*
X1506Y499D01*
X0Y498D02*
X7Y498D01*
X1499Y498D02*
X1506Y498D01*
X0Y497D02*
X7Y497D01*
X1499Y497D02*
X1506Y497D01*
X0Y496D02*
X7Y496D01*
X1499Y496D02*
X1506Y496D01*
X0Y495D02*
X7Y495D01*
X1499Y495D02*
X1506Y495D01*
X0Y494D02*
X7Y494D01*
X1499Y494D02*
X1506Y494D01*
X0Y493D02*
X7Y493D01*
X1499Y493D02*
X1506Y493D01*
X0Y492D02*
X7Y492D01*
X1499Y492D02*
X1506Y492D01*
X0Y491D02*
X7Y491D01*
X1499Y491D02*
X1506Y491D01*
X0Y490D02*
X7Y490D01*
X1499Y490D02*
X1506Y490D01*
X0Y489D02*
X7Y489D01*
X1499Y489D02*
X1506Y489D01*
X0Y488D02*
X7Y488D01*
X1499Y488D02*
X1506Y488D01*
X0Y487D02*
X7Y487D01*
X1499Y487D02*
X1506Y487D01*
X0Y486D02*
X7Y486D01*
X1499Y486D02*
X1506Y486D01*
X0Y485D02*
X7Y485D01*
X1499Y485D02*
X1506Y485D01*
X0Y484D02*
X7Y484D01*
X1499Y484D02*
X1506Y484D01*
X0Y483D02*
X7Y483D01*
X1499Y483D02*
X1506Y483D01*
X0Y482D02*
X7Y482D01*
X1499Y482D02*
X1506Y482D01*
X0Y481D02*
X7Y481D01*
X1499Y481D02*
X1506Y481D01*
X0Y480D02*
X7Y480D01*
X1499Y480D02*
X1506Y480D01*
X0Y479D02*
X7Y479D01*
X1499Y479D02*
X1506Y479D01*
X0Y478D02*
X7Y478D01*
X1499Y478D02*
X1506Y478D01*
X0Y477D02*
X7Y477D01*
X1499Y477D02*
X1506Y477D01*
X0Y476D02*
X7Y476D01*
X1499Y476D02*
X1506Y476D01*
X0Y475D02*
X7Y475D01*
X1499Y475D02*
X1506Y475D01*
X0Y474D02*
X7Y474D01*
X1499Y474D02*
X1506Y474D01*
X0Y473D02*
X7Y473D01*
X1499Y473D02*
X1506Y473D01*
X0Y472D02*
X7Y472D01*
X1499Y472D02*
X1506Y472D01*
X0Y471D02*
X7Y471D01*
X1499Y471D02*
X1506Y471D01*
X0Y470D02*
X7Y470D01*
X1499Y470D02*
X1506Y470D01*
X0Y469D02*
X7Y469D01*
X1499Y469D02*
X1506Y469D01*
X0Y468D02*
X7Y468D01*
X1499Y468D02*
X1506Y468D01*
X0Y467D02*
X7Y467D01*
X1499Y467D02*
X1506Y467D01*
X0Y466D02*
X7Y466D01*
X1499Y466D02*
X1506Y466D01*
X0Y465D02*
X7Y465D01*
X1499Y465D02*
X1506Y465D01*
X0Y464D02*
X7Y464D01*
X1499Y464D02*
X1506Y464D01*
X0Y463D02*
X7Y463D01*
X1499Y463D02*
X1506Y463D01*
X0Y462D02*
X7Y462D01*
X1499Y462D02*
X1506Y462D01*
X0Y461D02*
X7Y461D01*
X1499Y461D02*
X1506Y461D01*
X0Y460D02*
X7Y460D01*
X1499Y460D02*
X1506Y460D01*
X0Y459D02*
X7Y459D01*
X1499Y459D02*
X1506Y459D01*
X0Y458D02*
X7Y458D01*
X1499Y458D02*
X1506Y458D01*
X0Y457D02*
X7Y457D01*
X1499Y457D02*
X1506Y457D01*
X0Y456D02*
X7Y456D01*
X1499Y456D02*
X1506Y456D01*
X0Y455D02*
X7Y455D01*
X1499Y455D02*
X1506Y455D01*
X0Y454D02*
X7Y454D01*
X1499Y454D02*
X1506Y454D01*
X0Y453D02*
X7Y453D01*
X1499Y453D02*
X1506Y453D01*
X0Y452D02*
X7Y452D01*
X1499Y452D02*
X1506Y452D01*
X0Y451D02*
X7Y451D01*
X1499Y451D02*
X1506Y451D01*
X0Y450D02*
X7Y450D01*
X1499Y450D02*
X1506Y450D01*
X0Y449D02*
X7Y449D01*
X1499Y449D02*
X1506Y449D01*
X0Y448D02*
X7Y448D01*
X1499Y448D02*
X1506Y448D01*
X0Y447D02*
X7Y447D01*
X1499Y447D02*
X1506Y447D01*
X0Y446D02*
X7Y446D01*
X1499Y446D02*
X1506Y446D01*
X0Y445D02*
X7Y445D01*
X1499Y445D02*
X1506Y445D01*
X0Y444D02*
X7Y444D01*
X1499Y444D02*
X1506Y444D01*
X0Y443D02*
X7Y443D01*
X1499Y443D02*
X1506Y443D01*
X0Y442D02*
X7Y442D01*
X1499Y442D02*
X1506Y442D01*
X0Y441D02*
X7Y441D01*
X1499Y441D02*
X1506Y441D01*
X0Y440D02*
X7Y440D01*
X1499Y440D02*
X1506Y440D01*
X0Y439D02*
X7Y439D01*
X1499Y439D02*
X1506Y439D01*
X0Y438D02*
X7Y438D01*
X1499Y438D02*
X1506Y438D01*
X0Y437D02*
X7Y437D01*
X1499Y437D02*
X1506Y437D01*
X0Y436D02*
X7Y436D01*
X1499Y436D02*
X1506Y436D01*
X0Y435D02*
X7Y435D01*
X1499Y435D02*
X1506Y435D01*
X0Y434D02*
X7Y434D01*
X1499Y434D02*
X1506Y434D01*
X0Y433D02*
X7Y433D01*
X1499Y433D02*
X1506Y433D01*
X0Y432D02*
X7Y432D01*
X1499Y432D02*
X1506Y432D01*
X0Y431D02*
X7Y431D01*
X1499Y431D02*
X1506Y431D01*
X0Y430D02*
X7Y430D01*
X1499Y430D02*
X1506Y430D01*
X0Y429D02*
X7Y429D01*
X1499Y429D02*
X1506Y429D01*
X0Y428D02*
X7Y428D01*
X1499Y428D02*
X1506Y428D01*
X0Y427D02*
X7Y427D01*
X1499Y427D02*
X1506Y427D01*
X0Y426D02*
X7Y426D01*
X1499Y426D02*
X1506Y426D01*
X0Y425D02*
X7Y425D01*
X1499Y425D02*
X1506Y425D01*
X0Y424D02*
X7Y424D01*
X1499Y424D02*
X1506Y424D01*
X0Y423D02*
X7Y423D01*
X1499Y423D02*
X1506Y423D01*
X0Y422D02*
X7Y422D01*
X1499Y422D02*
X1506Y422D01*
X0Y421D02*
X7Y421D01*
X1499Y421D02*
X1506Y421D01*
X0Y420D02*
X7Y420D01*
X1499Y420D02*
X1506Y420D01*
X0Y419D02*
X7Y419D01*
X1499Y419D02*
X1506Y419D01*
X0Y418D02*
X7Y418D01*
X1499Y418D02*
X1506Y418D01*
X0Y417D02*
X7Y417D01*
X1499Y417D02*
X1506Y417D01*
X0Y416D02*
X7Y416D01*
X1499Y416D02*
X1506Y416D01*
X0Y415D02*
X7Y415D01*
X1499Y415D02*
X1506Y415D01*
X0Y414D02*
X7Y414D01*
X1499Y414D02*
X1506Y414D01*
X0Y413D02*
X7Y413D01*
X1499Y413D02*
X1506Y413D01*
X0Y412D02*
X7Y412D01*
X1499Y412D02*
X1506Y412D01*
X0Y411D02*
X7Y411D01*
X1499Y411D02*
X1506Y411D01*
X0Y410D02*
X7Y410D01*
X1499Y410D02*
X1506Y410D01*
X0Y409D02*
X7Y409D01*
X1499Y409D02*
X1506Y409D01*
X0Y408D02*
X7Y408D01*
X1499Y408D02*
X1506Y408D01*
X0Y407D02*
X7Y407D01*
X1499Y407D02*
X1506Y407D01*
X0Y406D02*
X7Y406D01*
X1499Y406D02*
X1506Y406D01*
X0Y405D02*
X7Y405D01*
X1499Y405D02*
X1506Y405D01*
X0Y404D02*
X7Y404D01*
X1499Y404D02*
X1506Y404D01*
X0Y403D02*
X7Y403D01*
X1499Y403D02*
X1506Y403D01*
X0Y402D02*
X7Y402D01*
X1499Y402D02*
X1506Y402D01*
X0Y401D02*
X7Y401D01*
X1499Y401D02*
X1506Y401D01*
X0Y400D02*
X7Y400D01*
X1499Y400D02*
X1506Y400D01*
X0Y399D02*
X7Y399D01*
X1499Y399D02*
X1506Y399D01*
X0Y398D02*
X7Y398D01*
X1499Y398D02*
X1506Y398D01*
X0Y397D02*
X7Y397D01*
X1499Y397D02*
X1506Y397D01*
X0Y396D02*
X7Y396D01*
X1499Y396D02*
X1506Y396D01*
X0Y395D02*
X7Y395D01*
X1499Y395D02*
X1506Y395D01*
X0Y394D02*
X7Y394D01*
X1499Y394D02*
X1506Y394D01*
X0Y393D02*
X7Y393D01*
X1499Y393D02*
X1506Y393D01*
X0Y392D02*
X7Y392D01*
X1499Y392D02*
X1506Y392D01*
X0Y391D02*
X7Y391D01*
X1499Y391D02*
X1506Y391D01*
X0Y390D02*
X7Y390D01*
X1499Y390D02*
X1506Y390D01*
X0Y389D02*
X7Y389D01*
X1499Y389D02*
X1506Y389D01*
X0Y388D02*
X7Y388D01*
X1499Y388D02*
X1506Y388D01*
X0Y387D02*
X7Y387D01*
X1499Y387D02*
X1506Y387D01*
X0Y386D02*
X7Y386D01*
X1499Y386D02*
X1506Y386D01*
X0Y385D02*
X7Y385D01*
X1499Y385D02*
X1506Y385D01*
X0Y384D02*
X7Y384D01*
X1499Y384D02*
X1506Y384D01*
X0Y383D02*
X7Y383D01*
X1499Y383D02*
X1506Y383D01*
X0Y382D02*
X7Y382D01*
X1499Y382D02*
X1506Y382D01*
X0Y381D02*
X7Y381D01*
X1499Y381D02*
X1506Y381D01*
X0Y380D02*
X7Y380D01*
X1499Y380D02*
X1506Y380D01*
X0Y379D02*
X7Y379D01*
X1499Y379D02*
X1506Y379D01*
X0Y378D02*
X7Y378D01*
X1499Y378D02*
X1506Y378D01*
X0Y377D02*
X7Y377D01*
X1499Y377D02*
X1506Y377D01*
X0Y376D02*
X7Y376D01*
X1498Y376D02*
X1506Y376D01*
X1Y375D02*
X8Y375D01*
X1498Y375D02*
X1505Y375D01*
X1Y374D02*
X8Y374D01*
X1498Y374D02*
X1505Y374D01*
X1Y373D02*
X8Y373D01*
X1498Y373D02*
X1505Y373D01*
X1Y372D02*
X8Y372D01*
X1498Y372D02*
X1505Y372D01*
X1Y371D02*
X8Y371D01*
X1498Y371D02*
X1505Y371D01*
X1Y370D02*
X8Y370D01*
X1498Y370D02*
X1505Y370D01*
X1Y369D02*
X8Y369D01*
X1498Y369D02*
X1505Y369D01*
X1Y368D02*
X8Y368D01*
X1498Y368D02*
X1505Y368D01*
X1Y367D02*
X8Y367D01*
X1498Y367D02*
X1505Y367D01*
X1Y366D02*
X8Y366D01*
X1498Y366D02*
X1505Y366D01*
X1Y365D02*
X8Y365D01*
X1498Y365D02*
X1505Y365D01*
X1Y364D02*
X8Y364D01*
X1498Y364D02*
X1505Y364D01*
X1Y363D02*
X8Y363D01*
X1498Y363D02*
X1505Y363D01*
X1Y362D02*
X8Y362D01*
X1498Y362D02*
X1505Y362D01*
X2Y361D02*
X9Y361D01*
X1497Y361D02*
X1504Y361D01*
X2Y360D02*
X9Y360D01*
X1497Y360D02*
X1504Y360D01*
X2Y359D02*
X9Y359D01*
X1497Y359D02*
X1504Y359D01*
X2Y358D02*
X9Y358D01*
X1497Y358D02*
X1504Y358D01*
X2Y357D02*
X9Y357D01*
X1497Y357D02*
X1504Y357D01*
X2Y356D02*
X9Y356D01*
X1497Y356D02*
X1504Y356D01*
X2Y355D02*
X9Y355D01*
X1497Y355D02*
X1504Y355D01*
X2Y354D02*
X9Y354D01*
X1497Y354D02*
X1504Y354D01*
X2Y353D02*
X9Y353D01*
X1497Y353D02*
X1504Y353D01*
X2Y352D02*
X9Y352D01*
X1497Y352D02*
X1504Y352D01*
X3Y351D02*
X10Y351D01*
X1496Y351D02*
X1503Y351D01*
X3Y350D02*
X10Y350D01*
X1496Y350D02*
X1503Y350D01*
X3Y349D02*
X10Y349D01*
X1496Y349D02*
X1503Y349D01*
X3Y348D02*
X10Y348D01*
X1496Y348D02*
X1503Y348D01*
X3Y347D02*
X10Y347D01*
X1496Y347D02*
X1503Y347D01*
X3Y346D02*
X10Y346D01*
X1496Y346D02*
X1503Y346D01*
X3Y345D02*
X10Y345D01*
X1496Y345D02*
X1503Y345D01*
X3Y344D02*
X10Y344D01*
X1496Y344D02*
X1503Y344D01*
X4Y343D02*
X11Y343D01*
X1495Y343D02*
X1502Y343D01*
X4Y342D02*
X11Y342D01*
X1495Y342D02*
X1502Y342D01*
X4Y341D02*
X11Y341D01*
X1495Y341D02*
X1502Y341D01*
X4Y340D02*
X11Y340D01*
X1495Y340D02*
X1502Y340D01*
X4Y339D02*
X11Y339D01*
X1495Y339D02*
X1502Y339D01*
X4Y338D02*
X11Y338D01*
X1495Y338D02*
X1502Y338D01*
X4Y337D02*
X11Y337D01*
X1495Y337D02*
X1502Y337D01*
X5Y336D02*
X12Y336D01*
X1494Y336D02*
X1501Y336D01*
X5Y335D02*
X12Y335D01*
X1494Y335D02*
X1501Y335D01*
X5Y334D02*
X12Y334D01*
X1494Y334D02*
X1501Y334D01*
X5Y333D02*
X12Y333D01*
X1494Y333D02*
X1501Y333D01*
X5Y332D02*
X12Y332D01*
X1494Y332D02*
X1501Y332D01*
X5Y331D02*
X12Y331D01*
X1494Y331D02*
X1501Y331D01*
X6Y330D02*
X13Y330D01*
X1493Y330D02*
X1500Y330D01*
X6Y329D02*
X13Y329D01*
X1493Y329D02*
X1500Y329D01*
X6Y328D02*
X13Y328D01*
X1493Y328D02*
X1500Y328D01*
X6Y327D02*
X13Y327D01*
X1493Y327D02*
X1500Y327D01*
X6Y326D02*
X13Y326D01*
X1493Y326D02*
X1500Y326D01*
X6Y325D02*
X13Y325D01*
X1493Y325D02*
X1500Y325D01*
X7Y324D02*
X14Y324D01*
X1492Y324D02*
X1499Y324D01*
X7Y323D02*
X14Y323D01*
X1492Y323D02*
X1499Y323D01*
X7Y322D02*
X14Y322D01*
X1492Y322D02*
X1499Y322D01*
X7Y321D02*
X14Y321D01*
X1492Y321D02*
X1499Y321D01*
X7Y320D02*
X14Y320D01*
X1492Y320D02*
X1499Y320D01*
X8Y319D02*
X15Y319D01*
X1491Y319D02*
X1498Y319D01*
X8Y318D02*
X15Y318D01*
X1491Y318D02*
X1498Y318D01*
X8Y317D02*
X15Y317D01*
X1491Y317D02*
X1498Y317D01*
X8Y316D02*
X15Y316D01*
X1491Y316D02*
X1498Y316D01*
X8Y315D02*
X15Y315D01*
X1491Y315D02*
X1498Y315D01*
X9Y314D02*
X16Y314D01*
X1490Y314D02*
X1497Y314D01*
X9Y313D02*
X16Y313D01*
X1490Y313D02*
X1497Y313D01*
X9Y312D02*
X16Y312D01*
X1490Y312D02*
X1497Y312D01*
X9Y311D02*
X16Y311D01*
X1490Y311D02*
X1497Y311D01*
X9Y310D02*
X17Y310D01*
X1489Y310D02*
X1497Y310D01*
X10Y309D02*
X17Y309D01*
X1489Y309D02*
X1496Y309D01*
X10Y308D02*
X17Y308D01*
X1489Y308D02*
X1496Y308D01*
X10Y307D02*
X17Y307D01*
X1489Y307D02*
X1496Y307D01*
X10Y306D02*
X17Y306D01*
X1489Y306D02*
X1496Y306D01*
X11Y305D02*
X18Y305D01*
X1488Y305D02*
X1495Y305D01*
X11Y304D02*
X18Y304D01*
X1488Y304D02*
X1495Y304D01*
X11Y303D02*
X18Y303D01*
X1488Y303D02*
X1495Y303D01*
X11Y302D02*
X18Y302D01*
X1488Y302D02*
X1495Y302D01*
X12Y301D02*
X19Y301D01*
X1487Y301D02*
X1494Y301D01*
X12Y300D02*
X19Y300D01*
X1487Y300D02*
X1494Y300D01*
X12Y299D02*
X19Y299D01*
X1487Y299D02*
X1494Y299D01*
X12Y298D02*
X19Y298D01*
X1487Y298D02*
X1494Y298D01*
X13Y297D02*
X20Y297D01*
X1486Y297D02*
X1493Y297D01*
X13Y296D02*
X20Y296D01*
X1486Y296D02*
X1493Y296D01*
X13Y295D02*
X20Y295D01*
X1486Y295D02*
X1493Y295D01*
X13Y294D02*
X20Y294D01*
X1486Y294D02*
X1493Y294D01*
X14Y293D02*
X21Y293D01*
X1485Y293D02*
X1492Y293D01*
X14Y292D02*
X21Y292D01*
X1485Y292D02*
X1492Y292D01*
X14Y291D02*
X21Y291D01*
X1485Y291D02*
X1492Y291D01*
X14Y290D02*
X22Y290D01*
X1484Y290D02*
X1492Y290D01*
X15Y289D02*
X22Y289D01*
X1484Y289D02*
X1491Y289D01*
X15Y288D02*
X22Y288D01*
X1484Y288D02*
X1491Y288D01*
X15Y287D02*
X22Y287D01*
X1484Y287D02*
X1491Y287D01*
X16Y286D02*
X23Y286D01*
X1483Y286D02*
X1490Y286D01*
X16Y285D02*
X23Y285D01*
X1483Y285D02*
X1490Y285D01*
X16Y284D02*
X23Y284D01*
X1483Y284D02*
X1490Y284D01*
X16Y283D02*
X24Y283D01*
X1482Y283D02*
X1490Y283D01*
X17Y282D02*
X24Y282D01*
X1482Y282D02*
X1489Y282D01*
X17Y281D02*
X24Y281D01*
X1482Y281D02*
X1489Y281D01*
X17Y280D02*
X25Y280D01*
X1481Y280D02*
X1489Y280D01*
X18Y279D02*
X25Y279D01*
X1481Y279D02*
X1488Y279D01*
X18Y278D02*
X25Y278D01*
X1481Y278D02*
X1488Y278D01*
X18Y277D02*
X26Y277D01*
X1480Y277D02*
X1488Y277D01*
X19Y276D02*
X26Y276D01*
X1480Y276D02*
X1487Y276D01*
X19Y275D02*
X26Y275D01*
X1480Y275D02*
X1487Y275D01*
X19Y274D02*
X27Y274D01*
X1479Y274D02*
X1487Y274D01*
X20Y273D02*
X27Y273D01*
X1479Y273D02*
X1486Y273D01*
X20Y272D02*
X27Y272D01*
X1479Y272D02*
X1486Y272D01*
X20Y271D02*
X28Y271D01*
X1478Y271D02*
X1486Y271D01*
X21Y270D02*
X28Y270D01*
X1478Y270D02*
X1485Y270D01*
X21Y269D02*
X28Y269D01*
X1478Y269D02*
X1485Y269D01*
X21Y268D02*
X29Y268D01*
X1477Y268D02*
X1485Y268D01*
X22Y267D02*
X29Y267D01*
X1477Y267D02*
X1484Y267D01*
X22Y266D02*
X29Y266D01*
X1477Y266D02*
X1484Y266D01*
X22Y265D02*
X30Y265D01*
X1476Y265D02*
X1484Y265D01*
X23Y264D02*
X30Y264D01*
X1476Y264D02*
X1483Y264D01*
X23Y263D02*
X30Y263D01*
X1476Y263D02*
X1483Y263D01*
X23Y262D02*
X31Y262D01*
X1475Y262D02*
X1483Y262D01*
X24Y261D02*
X31Y261D01*
X1475Y261D02*
X1482Y261D01*
X24Y260D02*
X31Y260D01*
X1475Y260D02*
X1482Y260D01*
X24Y259D02*
X32Y259D01*
X1474Y259D02*
X1482Y259D01*
X25Y258D02*
X32Y258D01*
X1474Y258D02*
X1481Y258D01*
X25Y257D02*
X33Y257D01*
X1473Y257D02*
X1481Y257D01*
X26Y256D02*
X33Y256D01*
X1473Y256D02*
X1480Y256D01*
X26Y255D02*
X33Y255D01*
X1473Y255D02*
X1480Y255D01*
X26Y254D02*
X34Y254D01*
X1472Y254D02*
X1480Y254D01*
X27Y253D02*
X34Y253D01*
X1472Y253D02*
X1479Y253D01*
X27Y252D02*
X35Y252D01*
X1471Y252D02*
X1479Y252D01*
X28Y251D02*
X35Y251D01*
X1471Y251D02*
X1478Y251D01*
X28Y250D02*
X35Y250D01*
X1471Y250D02*
X1478Y250D01*
X28Y249D02*
X36Y249D01*
X1470Y249D02*
X1478Y249D01*
X29Y248D02*
X36Y248D01*
X1470Y248D02*
X1477Y248D01*
X29Y247D02*
X37Y247D01*
X1469Y247D02*
X1477Y247D01*
X30Y246D02*
X37Y246D01*
X1469Y246D02*
X1476Y246D01*
X30Y245D02*
X37Y245D01*
X1469Y245D02*
X1476Y245D01*
X30Y244D02*
X38Y244D01*
X1468Y244D02*
X1476Y244D01*
X31Y243D02*
X38Y243D01*
X1468Y243D02*
X1475Y243D01*
X31Y242D02*
X39Y242D01*
X1467Y242D02*
X1475Y242D01*
X32Y241D02*
X39Y241D01*
X1467Y241D02*
X1474Y241D01*
X32Y240D02*
X40Y240D01*
X1466Y240D02*
X1474Y240D01*
X33Y239D02*
X40Y239D01*
X1466Y239D02*
X1473Y239D01*
X33Y238D02*
X41Y238D01*
X1465Y238D02*
X1473Y238D01*
X33Y237D02*
X41Y237D01*
X1465Y237D02*
X1473Y237D01*
X34Y236D02*
X41Y236D01*
X1465Y236D02*
X1472Y236D01*
X34Y235D02*
X42Y235D01*
X1464Y235D02*
X1472Y235D01*
X35Y234D02*
X42Y234D01*
X1464Y234D02*
X1471Y234D01*
X35Y233D02*
X43Y233D01*
X1463Y233D02*
X1471Y233D01*
X36Y232D02*
X43Y232D01*
X1463Y232D02*
X1470Y232D01*
X36Y231D02*
X44Y231D01*
X1462Y231D02*
X1470Y231D01*
X37Y230D02*
X44Y230D01*
X1462Y230D02*
X1469Y230D01*
X37Y229D02*
X45Y229D01*
X1461Y229D02*
X1469Y229D01*
X37Y228D02*
X45Y228D01*
X1461Y228D02*
X1469Y228D01*
X38Y227D02*
X46Y227D01*
X1460Y227D02*
X1468Y227D01*
X38Y226D02*
X46Y226D01*
X1460Y226D02*
X1468Y226D01*
X39Y225D02*
X47Y225D01*
X1459Y225D02*
X1467Y225D01*
X39Y224D02*
X47Y224D01*
X1459Y224D02*
X1467Y224D01*
X40Y223D02*
X48Y223D01*
X1458Y223D02*
X1466Y223D01*
X40Y222D02*
X48Y222D01*
X1458Y222D02*
X1466Y222D01*
X41Y221D02*
X49Y221D01*
X1457Y221D02*
X1465Y221D01*
X41Y220D02*
X49Y220D01*
X1457Y220D02*
X1465Y220D01*
X42Y219D02*
X50Y219D01*
X1456Y219D02*
X1464Y219D01*
X42Y218D02*
X50Y218D01*
X1456Y218D02*
X1464Y218D01*
X43Y217D02*
X51Y217D01*
X1455Y217D02*
X1463Y217D01*
X43Y216D02*
X51Y216D01*
X1455Y216D02*
X1463Y216D01*
X44Y215D02*
X52Y215D01*
X1454Y215D02*
X1462Y215D01*
X44Y214D02*
X52Y214D01*
X1454Y214D02*
X1462Y214D01*
X45Y213D02*
X53Y213D01*
X1453Y213D02*
X1461Y213D01*
X45Y212D02*
X53Y212D01*
X1453Y212D02*
X1461Y212D01*
X46Y211D02*
X54Y211D01*
X1452Y211D02*
X1460Y211D01*
X46Y210D02*
X54Y210D01*
X1452Y210D02*
X1460Y210D01*
X47Y209D02*
X55Y209D01*
X1451Y209D02*
X1459Y209D01*
X48Y208D02*
X56Y208D01*
X1450Y208D02*
X1458Y208D01*
X48Y207D02*
X56Y207D01*
X1450Y207D02*
X1458Y207D01*
X49Y206D02*
X57Y206D01*
X1449Y206D02*
X1457Y206D01*
X49Y205D02*
X57Y205D01*
X1449Y205D02*
X1457Y205D01*
X50Y204D02*
X58Y204D01*
X1448Y204D02*
X1456Y204D01*
X50Y203D02*
X58Y203D01*
X1448Y203D02*
X1456Y203D01*
X51Y202D02*
X59Y202D01*
X1447Y202D02*
X1455Y202D01*
X52Y201D02*
X60Y201D01*
X1446Y201D02*
X1454Y201D01*
X52Y200D02*
X60Y200D01*
X1446Y200D02*
X1454Y200D01*
X53Y199D02*
X61Y199D01*
X1445Y199D02*
X1453Y199D01*
X53Y198D02*
X61Y198D01*
X1445Y198D02*
X1453Y198D01*
X54Y197D02*
X62Y197D01*
X1444Y197D02*
X1452Y197D01*
X54Y196D02*
X62Y196D01*
X1444Y196D02*
X1452Y196D01*
X55Y195D02*
X63Y195D01*
X1443Y195D02*
X1451Y195D01*
X56Y194D02*
X64Y194D01*
X1442Y194D02*
X1450Y194D01*
X56Y193D02*
X64Y193D01*
X1442Y193D02*
X1450Y193D01*
X57Y192D02*
X65Y192D01*
X1441Y192D02*
X1449Y192D01*
X57Y191D02*
X66Y191D01*
X1440Y191D02*
X1449Y191D01*
X58Y190D02*
X66Y190D01*
X1440Y190D02*
X1448Y190D01*
X59Y189D02*
X67Y189D01*
X1439Y189D02*
X1447Y189D01*
X59Y188D02*
X68Y188D01*
X1438Y188D02*
X1447Y188D01*
X60Y187D02*
X68Y187D01*
X1438Y187D02*
X1446Y187D01*
X60Y186D02*
X69Y186D01*
X1437Y186D02*
X1446Y186D01*
X61Y185D02*
X69Y185D01*
X1437Y185D02*
X1445Y185D01*
X62Y184D02*
X70Y184D01*
X1436Y184D02*
X1444Y184D01*
X62Y183D02*
X71Y183D01*
X1435Y183D02*
X1444Y183D01*
X63Y182D02*
X71Y182D01*
X1435Y182D02*
X1443Y182D01*
X64Y181D02*
X72Y181D01*
X1434Y181D02*
X1442Y181D01*
X64Y180D02*
X73Y180D01*
X1433Y180D02*
X1442Y180D01*
X65Y179D02*
X73Y179D01*
X1433Y179D02*
X1441Y179D01*
X66Y178D02*
X74Y178D01*
X1432Y178D02*
X1440Y178D01*
X66Y177D02*
X75Y177D01*
X1431Y177D02*
X1440Y177D01*
X67Y176D02*
X76Y176D01*
X1430Y176D02*
X1439Y176D01*
X68Y175D02*
X76Y175D01*
X1430Y175D02*
X1438Y175D01*
X68Y174D02*
X77Y174D01*
X1429Y174D02*
X1438Y174D01*
X69Y173D02*
X78Y173D01*
X1428Y173D02*
X1437Y173D01*
X70Y172D02*
X78Y172D01*
X1428Y172D02*
X1436Y172D01*
X70Y171D02*
X79Y171D01*
X1427Y171D02*
X1436Y171D01*
X71Y170D02*
X80Y170D01*
X1426Y170D02*
X1435Y170D01*
X72Y169D02*
X81Y169D01*
X1425Y169D02*
X1434Y169D01*
X72Y168D02*
X81Y168D01*
X1425Y168D02*
X1434Y168D01*
X73Y167D02*
X82Y167D01*
X1424Y167D02*
X1433Y167D01*
X74Y166D02*
X83Y166D01*
X1423Y166D02*
X1432Y166D01*
X75Y165D02*
X83Y165D01*
X1423Y165D02*
X1431Y165D01*
X75Y164D02*
X84Y164D01*
X1422Y164D02*
X1431Y164D01*
X76Y163D02*
X85Y163D01*
X1421Y163D02*
X1430Y163D01*
X77Y162D02*
X86Y162D01*
X1420Y162D02*
X1429Y162D01*
X77Y161D02*
X86Y161D01*
X1420Y161D02*
X1429Y161D01*
X78Y160D02*
X87Y160D01*
X1419Y160D02*
X1428Y160D01*
X79Y159D02*
X88Y159D01*
X1418Y159D02*
X1427Y159D01*
X80Y158D02*
X89Y158D01*
X1417Y158D02*
X1426Y158D01*
X80Y157D02*
X90Y157D01*
X1416Y157D02*
X1425Y157D01*
X81Y156D02*
X90Y156D01*
X1416Y156D02*
X1425Y156D01*
X82Y155D02*
X91Y155D01*
X1415Y155D02*
X1424Y155D01*
X83Y154D02*
X92Y154D01*
X1414Y154D02*
X1423Y154D01*
X84Y153D02*
X93Y153D01*
X1413Y153D02*
X1422Y153D01*
X84Y152D02*
X94Y152D01*
X1412Y152D02*
X1422Y152D01*
X85Y151D02*
X94Y151D01*
X1412Y151D02*
X1421Y151D01*
X86Y150D02*
X95Y150D01*
X1411Y150D02*
X1420Y150D01*
X87Y149D02*
X96Y149D01*
X1410Y149D02*
X1419Y149D01*
X88Y148D02*
X97Y148D01*
X1409Y148D02*
X1418Y148D01*
X88Y147D02*
X98Y147D01*
X1408Y147D02*
X1418Y147D01*
X89Y146D02*
X99Y146D01*
X1407Y146D02*
X1417Y146D01*
X90Y145D02*
X99Y145D01*
X1407Y145D02*
X1416Y145D01*
X91Y144D02*
X100Y144D01*
X1406Y144D02*
X1415Y144D01*
X92Y143D02*
X101Y143D01*
X1405Y143D02*
X1414Y143D01*
X92Y142D02*
X102Y142D01*
X1404Y142D02*
X1414Y142D01*
X93Y141D02*
X103Y141D01*
X1403Y141D02*
X1413Y141D01*
X94Y140D02*
X104Y140D01*
X1402Y140D02*
X1412Y140D01*
X95Y139D02*
X105Y139D01*
X1401Y139D02*
X1411Y139D01*
X96Y138D02*
X106Y138D01*
X1400Y138D02*
X1410Y138D01*
X97Y137D02*
X106Y137D01*
X1400Y137D02*
X1409Y137D01*
X98Y136D02*
X107Y136D01*
X1399Y136D02*
X1408Y136D01*
X99Y135D02*
X108Y135D01*
X1398Y135D02*
X1407Y135D01*
X99Y134D02*
X109Y134D01*
X1397Y134D02*
X1407Y134D01*
X100Y133D02*
X110Y133D01*
X1396Y133D02*
X1406Y133D01*
X101Y132D02*
X111Y132D01*
X1395Y132D02*
X1405Y132D01*
X102Y131D02*
X112Y131D01*
X1394Y131D02*
X1404Y131D01*
X103Y130D02*
X113Y130D01*
X1393Y130D02*
X1403Y130D01*
X104Y129D02*
X114Y129D01*
X1392Y129D02*
X1402Y129D01*
X105Y128D02*
X115Y128D01*
X1391Y128D02*
X1401Y128D01*
X106Y127D02*
X116Y127D01*
X1390Y127D02*
X1400Y127D01*
X107Y126D02*
X117Y126D01*
X1389Y126D02*
X1399Y126D01*
X108Y125D02*
X118Y125D01*
X1388Y125D02*
X1398Y125D01*
X109Y124D02*
X119Y124D01*
X1387Y124D02*
X1397Y124D01*
X110Y123D02*
X120Y123D01*
X1386Y123D02*
X1396Y123D01*
X111Y122D02*
X121Y122D01*
X1385Y122D02*
X1395Y122D01*
X111Y121D02*
X122Y121D01*
X1384Y121D02*
X1394Y121D01*
X112Y120D02*
X123Y120D01*
X1383Y120D02*
X1394Y120D01*
X113Y119D02*
X124Y119D01*
X1382Y119D02*
X1393Y119D01*
X114Y118D02*
X125Y118D01*
X1381Y118D02*
X1392Y118D01*
X115Y117D02*
X126Y117D01*
X1380Y117D02*
X1391Y117D01*
X116Y116D02*
X127Y116D01*
X1379Y116D02*
X1390Y116D01*
X117Y115D02*
X128Y115D01*
X1378Y115D02*
X1389Y115D01*
X118Y114D02*
X129Y114D01*
X1377Y114D02*
X1388Y114D01*
X119Y113D02*
X130Y113D01*
X1376Y113D02*
X1387Y113D01*
X121Y112D02*
X131Y112D01*
X1375Y112D02*
X1385Y112D01*
X122Y111D02*
X132Y111D01*
X1374Y111D02*
X1384Y111D01*
X123Y110D02*
X133Y110D01*
X1373Y110D02*
X1383Y110D01*
X124Y109D02*
X134Y109D01*
X1372Y109D02*
X1382Y109D01*
X125Y108D02*
X135Y108D01*
X1371Y108D02*
X1381Y108D01*
X126Y107D02*
X137Y107D01*
X1369Y107D02*
X1380Y107D01*
X127Y106D02*
X138Y106D01*
X1368Y106D02*
X1379Y106D01*
X128Y105D02*
X139Y105D01*
X1367Y105D02*
X1378Y105D01*
X129Y104D02*
X140Y104D01*
X1366Y104D02*
X1377Y104D01*
X130Y103D02*
X141Y103D01*
X1365Y103D02*
X1376Y103D01*
X131Y102D02*
X142Y102D01*
X1364Y102D02*
X1375Y102D01*
X132Y101D02*
X144Y101D01*
X1362Y101D02*
X1374Y101D01*
X134Y100D02*
X145Y100D01*
X1361Y100D02*
X1372Y100D01*
X135Y99D02*
X146Y99D01*
X1360Y99D02*
X1371Y99D01*
X136Y98D02*
X147Y98D01*
X1359Y98D02*
X1370Y98D01*
X137Y97D02*
X148Y97D01*
X1358Y97D02*
X1369Y97D01*
X138Y96D02*
X150Y96D01*
X1356Y96D02*
X1368Y96D01*
X139Y95D02*
X151Y95D01*
X1355Y95D02*
X1367Y95D01*
X140Y94D02*
X152Y94D01*
X1354Y94D02*
X1366Y94D01*
X142Y93D02*
X153Y93D01*
X1353Y93D02*
X1364Y93D01*
X143Y92D02*
X155Y92D01*
X1351Y92D02*
X1363Y92D01*
X144Y91D02*
X156Y91D01*
X1350Y91D02*
X1362Y91D01*
X145Y90D02*
X157Y90D01*
X1349Y90D02*
X1361Y90D01*
X147Y89D02*
X158Y89D01*
X1348Y89D02*
X1359Y89D01*
X148Y88D02*
X160Y88D01*
X1346Y88D02*
X1358Y88D01*
X149Y87D02*
X161Y87D01*
X1345Y87D02*
X1357Y87D01*
X150Y86D02*
X162Y86D01*
X1344Y86D02*
X1356Y86D01*
X152Y85D02*
X164Y85D01*
X1342Y85D02*
X1354Y85D01*
X153Y84D02*
X165Y84D01*
X1341Y84D02*
X1353Y84D01*
X154Y83D02*
X166Y83D01*
X1340Y83D02*
X1352Y83D01*
X155Y82D02*
X168Y82D01*
X1338Y82D02*
X1351Y82D01*
X157Y81D02*
X169Y81D01*
X1337Y81D02*
X1349Y81D01*
X158Y80D02*
X171Y80D01*
X1335Y80D02*
X1348Y80D01*
X159Y79D02*
X172Y79D01*
X1334Y79D02*
X1347Y79D01*
X161Y78D02*
X173Y78D01*
X1333Y78D02*
X1345Y78D01*
X162Y77D02*
X175Y77D01*
X1331Y77D02*
X1344Y77D01*
X164Y76D02*
X176Y76D01*
X1330Y76D02*
X1342Y76D01*
X165Y75D02*
X178Y75D01*
X1328Y75D02*
X1341Y75D01*
X166Y74D02*
X179Y74D01*
X1327Y74D02*
X1340Y74D01*
X168Y73D02*
X181Y73D01*
X1325Y73D02*
X1338Y73D01*
X169Y72D02*
X182Y72D01*
X1324Y72D02*
X1337Y72D01*
X171Y71D02*
X184Y71D01*
X1322Y71D02*
X1335Y71D01*
X172Y70D02*
X185Y70D01*
X1320Y70D02*
X1334Y70D01*
X173Y69D02*
X187Y69D01*
X1319Y69D02*
X1333Y69D01*
X175Y68D02*
X189Y68D01*
X1317Y68D02*
X1331Y68D01*
X177Y67D02*
X190Y67D01*
X1316Y67D02*
X1329Y67D01*
X178Y66D02*
X192Y66D01*
X1314Y66D02*
X1328Y66D01*
X180Y65D02*
X193Y65D01*
X1313Y65D02*
X1326Y65D01*
X181Y64D02*
X195Y64D01*
X1311Y64D02*
X1325Y64D01*
X183Y63D02*
X197Y63D01*
X1309Y63D02*
X1323Y63D01*
X184Y62D02*
X199Y62D01*
X1307Y62D02*
X1322Y62D01*
X186Y61D02*
X200Y61D01*
X1306Y61D02*
X1320Y61D01*
X187Y60D02*
X202Y60D01*
X1304Y60D02*
X1319Y60D01*
X189Y59D02*
X204Y59D01*
X1302Y59D02*
X1317Y59D01*
X191Y58D02*
X205Y58D01*
X1301Y58D02*
X1315Y58D01*
X192Y57D02*
X207Y57D01*
X1299Y57D02*
X1314Y57D01*
X194Y56D02*
X209Y56D01*
X1297Y56D02*
X1312Y56D01*
X196Y55D02*
X211Y55D01*
X1295Y55D02*
X1310Y55D01*
X198Y54D02*
X213Y54D01*
X1293Y54D02*
X1308Y54D01*
X199Y53D02*
X215Y53D01*
X1291Y53D02*
X1307Y53D01*
X201Y52D02*
X217Y52D01*
X1289Y52D02*
X1305Y52D01*
X203Y51D02*
X219Y51D01*
X1287Y51D02*
X1303Y51D01*
X205Y50D02*
X221Y50D01*
X1285Y50D02*
X1301Y50D01*
X206Y49D02*
X223Y49D01*
X1283Y49D02*
X1300Y49D01*
X208Y48D02*
X225Y48D01*
X1281Y48D02*
X1298Y48D01*
X210Y47D02*
X227Y47D01*
X1279Y47D02*
X1296Y47D01*
X212Y46D02*
X229Y46D01*
X1277Y46D02*
X1294Y46D01*
X214Y45D02*
X231Y45D01*
X1275Y45D02*
X1292Y45D01*
X216Y44D02*
X233Y44D01*
X1273Y44D02*
X1290Y44D01*
X218Y43D02*
X235Y43D01*
X1271Y43D02*
X1288Y43D01*
X220Y42D02*
X238Y42D01*
X1268Y42D02*
X1286Y42D01*
X222Y41D02*
X240Y41D01*
X1266Y41D02*
X1284Y41D01*
X224Y40D02*
X242Y40D01*
X1264Y40D02*
X1282Y40D01*
X226Y39D02*
X245Y39D01*
X1261Y39D02*
X1280Y39D01*
X228Y38D02*
X247Y38D01*
X1259Y38D02*
X1278Y38D01*
X231Y37D02*
X250Y37D01*
X1256Y37D02*
X1275Y37D01*
X233Y36D02*
X252Y36D01*
X1254Y36D02*
X1273Y36D01*
X235Y35D02*
X255Y35D01*
X1251Y35D02*
X1271Y35D01*
X237Y34D02*
X257Y34D01*
X1249Y34D02*
X1269Y34D01*
X240Y33D02*
X260Y33D01*
X1246Y33D02*
X1266Y33D01*
X242Y32D02*
X263Y32D01*
X1243Y32D02*
X1264Y32D01*
X244Y31D02*
X266Y31D01*
X1240Y31D02*
X1262Y31D01*
X247Y30D02*
X269Y30D01*
X1237Y30D02*
X1259Y30D01*
X249Y29D02*
X272Y29D01*
X1234Y29D02*
X1256Y29D01*
X252Y28D02*
X274Y28D01*
X1232Y28D02*
X1254Y28D01*
X255Y27D02*
X277Y27D01*
X1229Y27D02*
X1251Y27D01*
X257Y26D02*
X281Y26D01*
X1225Y26D02*
X1249Y26D01*
X260Y25D02*
X284Y25D01*
X1222Y25D02*
X1246Y25D01*
X263Y24D02*
X287Y24D01*
X1219Y24D02*
X1243Y24D01*
X265Y23D02*
X291Y23D01*
X1215Y23D02*
X1241Y23D01*
X268Y22D02*
X295Y22D01*
X1211Y22D02*
X1238Y22D01*
X271Y21D02*
X299Y21D01*
X1207Y21D02*
X1235Y21D01*
X274Y20D02*
X303Y20D01*
X1203Y20D02*
X1232Y20D01*
X278Y19D02*
X307Y19D01*
X1199Y19D02*
X1228Y19D01*
X281Y18D02*
X312Y18D01*
X1194Y18D02*
X1225Y18D01*
X284Y17D02*
X317Y17D01*
X1189Y17D02*
X1222Y17D01*
X288Y16D02*
X322Y16D01*
X1184Y16D02*
X1218Y16D01*
X292Y15D02*
X327Y15D01*
X1179Y15D02*
X1214Y15D01*
X295Y14D02*
X333Y14D01*
X1173Y14D02*
X1211Y14D01*
X299Y13D02*
X341Y13D01*
X1165Y13D02*
X1207Y13D01*
X303Y12D02*
X349Y12D01*
X1157Y12D02*
X1203Y12D01*
X308Y11D02*
X359Y11D01*
X1147Y11D02*
X1198Y11D01*
X312Y10D02*
X373Y10D01*
X1133Y10D02*
X1194Y10D01*
X317Y9D02*
X1189Y9D01*
X322Y8D02*
X1184Y8D01*
X328Y7D02*
X1178Y7D01*
X334Y6D02*
X1172Y6D01*
X341Y5D02*
X1165Y5D01*
X350Y4D02*
X1156Y4D01*
X360Y3D02*
X1146Y3D01*
X374Y2D02*
X1132Y2D01*
D02*
G04 End of Silk0*
M02*